<svg xmlns="http://www.w3.org/2000/svg" viewBox="0 0 92.88 54.25"><defs><style>.cls-1{fill:#9547f4;}</style></defs><g id="Layer_2" data-name="Layer 2"><g id="Pantallas_3" data-name="Pantallas 3"><g id="palenque"><path class="cls-1" d="M91.37,43.35h-4.8V37a1.52,1.52,0,0,0-1.51-1.51H80V29.1a1.51,1.51,0,0,0-1.51-1.51H75.67V21.21a1.51,1.51,0,0,0-1.51-1.5h-2.7V13.33A1.51,1.51,0,0,0,70,11.82h-9.4V3h2.83a1.51,1.51,0,0,0,0-3H29.49a1.51,1.51,0,1,0,0,3h2.83v8.8h-9.4a1.52,1.52,0,0,0-1.51,1.51v6.38H18.72a1.51,1.51,0,0,0-1.51,1.5v6.38H14.38a1.52,1.52,0,0,0-1.51,1.51v6.37H7.81A1.51,1.51,0,0,0,6.31,37v6.37H1.51A1.52,1.52,0,0,0,0,44.86v7.88a1.52,1.52,0,0,0,1.51,1.51H91.37a1.52,1.52,0,0,0,1.51-1.51V44.86A1.52,1.52,0,0,0,91.37,43.35Zm.77,1a1.54,1.54,0,0,0-.17-.19A1.54,1.54,0,0,1,92.14,44.34Zm-41,6.9H41.77V14.84h9.34Zm-9.91.57h0V14.26h0ZM40.27,12.4H34.76v-10h0v10h5.51ZM3,51.24V46.37H38.76v4.87Zm4.79-5.45h0Zm8.08-10.32V30.61H38.76v4.86Zm23.44,2.44Zm-30,5.44V38.49H38.76v4.86ZM18.72,30h0Zm1.51-2.44V22.72H38.76v4.87Zm2.69-5.44h0Zm31.2,21.2V38.49H83.55v4.86Zm35.74,7.89H54.12V46.37H89.86ZM84.13,37.91Zm-30-2.44V30.61H77v4.86ZM77.56,30v6h0V30ZM54.12,27.59V22.72H72.65v4.87Zm19.11-5.44h0ZM69,20.28Zm-14.9-.57V14.84H68.45v4.87ZM69,14.26h0ZM57.54,3v8.8H35.34V3ZM24.43,14.84H38.76V19.7H24.43Zm39-12.4H60v10H70a.93.93,0,0,1,.93.93v7h3.27a.92.92,0,0,1,.71.34.92.92,0,0,0-.71-.34H70.89v-7A.93.93,0,0,0,70,12.4H60v-10h3.41a.93.93,0,0,0,.91-.74A.93.93,0,0,1,63.39,2.44ZM28.72,1a.93.93,0,0,1,.77-.41h33.9a.93.93,0,0,1,.77.41.91.91,0,0,1,.16.52h0A.91.91,0,0,0,64.16,1a.93.93,0,0,0-.77-.41H29.49a.93.93,0,0,0-.77.41.91.91,0,0,0-.16.52h0A.91.91,0,0,1,28.72,1Zm-10,19.29H22v-7a.93.93,0,0,1,.93-.93h10v-10h-3.4a.92.92,0,0,1-.91-.74.92.92,0,0,0,.91.74h3.4v10h-10a.93.93,0,0,0-.93.93v7H18.72a.93.93,0,0,0-.66.28A.93.93,0,0,1,18.72,20.28ZM92.3,52.74a.93.93,0,0,1-.93.93H1.51a.91.91,0,0,1-.75-.38.91.91,0,0,0,.75.38H91.37a.93.93,0,0,0,.93-.93Zm-.06-8.2a.77.77,0,0,1,.06.3A.77.77,0,0,0,92.24,44.54Z"/></g></g></g></svg>