<svg xmlns="http://www.w3.org/2000/svg" viewBox="0 0 68.56 51.42"><defs><style>.cls-1{fill:#3fa9f5;}</style></defs><g id="Layer_2" data-name="Layer 2"><g id="Pantalla_4" data-name="Pantalla 4"><path class="cls-1" d="M61.7,24V10.28A10.29,10.29,0,0,0,51.41,0H17.14A10.3,10.3,0,0,0,6.85,10.28V24A6.86,6.86,0,0,0,0,30.85v6.86a6.87,6.87,0,0,0,6.85,6.85V48a3.44,3.44,0,0,0,3.43,3.43h3.43A3.44,3.44,0,0,0,17.14,48V44.56H51.42V48a3.43,3.43,0,0,0,3.43,3.43h3.43A3.43,3.43,0,0,0,61.7,48V44.56a6.86,6.86,0,0,0,6.86-6.85V30.85A6.86,6.86,0,0,0,61.7,24ZM10.28,10.28a6.85,6.85,0,0,1,6.85-6.85H51.41a6.86,6.86,0,0,1,6.86,6.85V24H54.84V17.14a3.43,3.43,0,0,0-3.43-3.43H41.13a3.44,3.44,0,0,0-3.43,3.43V24H30.85V17.14a3.44,3.44,0,0,0-3.43-3.43H17.13a3.43,3.43,0,0,0-3.42,3.43V24H10.28ZM51.41,24H41.13V17.14H51.41Zm-24,0H17.14V17.14H27.42ZM13.71,48H10.28V44.56h3.43Zm44.56,0H54.84V44.56h3.43Zm6.86-10.28a3.44,3.44,0,0,1-3.43,3.43H6.85a3.44,3.44,0,0,1-3.43-3.43V30.85a3.44,3.44,0,0,1,3.43-3.43H61.7a3.44,3.44,0,0,1,3.43,3.43Z"/></g></g></svg>