<svg xmlns="http://www.w3.org/2000/svg" viewBox="0 0 66.62 66.21"><defs><style>.cls-1{fill:#6cc9f1;}.cls-1,.cls-10,.cls-11,.cls-12,.cls-13,.cls-14,.cls-15,.cls-2,.cls-3,.cls-4,.cls-5,.cls-6,.cls-7,.cls-8,.cls-9{fill-rule:evenodd;}.cls-2{fill:#00ace0;}.cls-3{fill:#007bb9;}.cls-4{fill:#a080af;}.cls-5{fill:#714597;}.cls-6{fill:#362f6c;}.cls-7{fill:#ed95b8;}.cls-8{fill:#bf317c;}.cls-9{fill:#f0a884;}.cls-10{fill:#d0372b;}.cls-11{fill:#a3cc95;}.cls-12{fill:#166939;}.cls-13{fill:#3bac4a;}.cls-14{fill:#eb5a30;}.cls-15{fill:#ec1489;}</style></defs><g id="Layer_2" data-name="Layer 2"><g id="Pantalla_4" data-name="Pantalla 4"><g id="icon_pueblo_magico" data-name="icon_pueblo magico"><path class="cls-1" d="M33,31.58a17.85,17.85,0,0,0-11.58-4.24,18.05,18.05,0,0,0-7.4,34.53,18.94,18.94,0,0,1-2.71-9.57,15.5,15.5,0,0,1-1.53-6.71A15.8,15.8,0,0,1,25.63,29.78a15.56,15.56,0,0,1,7.1,1.7c-.15,0-.28.1-.43.13Z"/><path class="cls-2" d="M32.73,31.48c-.15,0-.28.1-.43.13-11.67,1-20.84,9.69-21,20.32v.31a.1.1,0,0,1,0,.06,15.91,15.91,0,0,0,9.38,8.32,20.35,20.35,0,0,1,12-29.14ZM11.31,51.93v0Z"/><path class="cls-3" d="M32.73,31.48a15.56,15.56,0,0,0-7.1-1.7A15.8,15.8,0,0,0,9.81,45.59a15.5,15.5,0,0,0,1.53,6.71c0-.06,0-.09,0-.15,0-10.73,9.23-19.57,21-20.54C32.45,31.58,32.58,31.52,32.73,31.48Z"/><path class="cls-4" d="M30.5,33.07A18.06,18.06,0,1,0,54.15,59.92a18.61,18.61,0,0,1-9.93-.1,15.6,15.6,0,0,1-6.89-.48A15.79,15.79,0,0,1,26.72,39.71a16.45,16.45,0,0,1,3.63-6.37v.46A6.31,6.31,0,0,0,30.5,33.07Z"/><path class="cls-5" d="M30.35,33.34v.46a25.33,25.33,0,0,0-.52,4.48V39.8c.28,9.3,5.73,17.46,14.23,20a.39.39,0,0,1,.16,0,15.89,15.89,0,0,0,10.63-6.67,19.77,19.77,0,0,1-10-.4A20.32,20.32,0,0,1,30.35,33.34ZM44.22,59.82l-.77.1.77-.1Z"/><path class="cls-6" d="M30.35,33.34a16.45,16.45,0,0,0-3.63,6.37A15.79,15.79,0,0,0,37.33,59.34a15.6,15.6,0,0,0,6.89.48.32.32,0,0,0-.16,0C33.76,56.72,28,45.38,30.35,33.8Z"/><path class="cls-7" d="M31.17,36a18,18,0,0,0,32.27,5.39A18,18,0,0,0,64,21.83a18.64,18.64,0,0,1-3.17,9.41,15.56,15.56,0,0,1-2.56,6.4,15.77,15.77,0,0,1-26.87-1.37,1.72,1.72,0,0,0,.42.12Z"/><path class="cls-8" d="M31.39,36.27a15.78,15.78,0,0,0,29.43-5l-.09.12c-6.06,8.87-18.65,10.91-28.92,5A1.72,1.72,0,0,1,31.39,36.27Z"/><path class="cls-9" d="M34.1,36.09A18.06,18.06,0,1,0,31,.46a18.9,18.9,0,0,1,7.95,6,16.16,16.16,0,0,1,5.24,4.48,15.79,15.79,0,0,1-3,22.12,15.51,15.51,0,0,1-6.71,3,2.6,2.6,0,0,0,.25-.36C34.46,35.75,34.28,35.93,34.1,36.09Z"/><path class="cls-10" d="M34.4,36a15.51,15.51,0,0,0,6.71-3,15.79,15.79,0,0,0,3-22.12,16.16,16.16,0,0,0-5.24-4.48l.09.15c6.5,8.53,4.45,21.15-4.35,29A2.6,2.6,0,0,1,34.4,36Z"/><path class="cls-11" d="M35,33A18,18,0,1,0,0,25.48a18.92,18.92,0,0,1,8-5.82,16.14,16.14,0,0,1,5.82-3.72,15.78,15.78,0,0,1,20.21,9.45,15.94,15.94,0,0,1,.85,7.31l-.27-.36Z"/><path class="cls-12" d="M34.92,32.7a15.94,15.94,0,0,0-.85-7.31,15.78,15.78,0,0,0-20.21-9.45A16.14,16.14,0,0,0,8,19.66c.07,0,.13,0,.16-.06,10.08-3.66,21.51,2,26.45,12.74Z"/><path class="cls-13" d="M34.49,32c.15.19.3.38.44.58-.08-.14-.18-.23-.26-.36C29.79,21.58,18.48,15.91,8.43,19.38l-.11,0,0,0,0,0-.08,0-.09,0a.11.11,0,0,1-.05.05A16,16,0,0,0,3.45,31.18l0,0v.17a20.43,20.43,0,0,1,4.88-4,18.81,18.81,0,0,1,3.38-1.61,20.28,20.28,0,0,1,23.19,7l-.27-.36Z"/><path class="cls-14" d="M34.57,35.72l.11-.15,0,0A.83.83,0,0,1,34.57,35.72ZM40.31,8.5l-.21-.35L40,8c-.27-.44-.55-.87-.86-1.29L39,6.52l0,0,.28.15a3.27,3.27,0,0,0,.33.18,3.16,3.16,0,0,1-.33-.21,3.51,3.51,0,0,1-.34-.18v0l0,0a15.94,15.94,0,0,0-12.5-1l.09,0-.06,0a20.55,20.55,0,0,1,7.34,5.69l.41.51a20.3,20.3,0,0,1,.18,24.22c.11-.11.17-.24.27-.35l.17-.16c0,.05-.07.11-.11.17a26.86,26.86,0,0,0,4.57-5.39A23.24,23.24,0,0,0,42.81,18.6v-1A19,19,0,0,0,40.31,8.5Z"/><path class="cls-15" d="M31.74,36.37l-.35-.1A1.2,1.2,0,0,0,31.74,36.37ZM57.82,19s0,.07,0,.1l0,0A20.54,20.54,0,0,1,47.21,34.81l-.11.06-.4.2-.36.18-.18.08a20.31,20.31,0,0,1-14.71.94l.35.12-.06,0,.1,0h0l.05,0h0l0,0c8.3,4.75,18.11,4.31,24.76-.71h0L57,35.4a18.17,18.17,0,0,0,3.72-3.9l.12-.17v0c0,.1,0,.2-.05.3a2.06,2.06,0,0,0-.06.39,1.51,1.51,0,0,1,.06-.36,2,2,0,0,0,.06-.34l0-.05s0,0,0-.06A16,16,0,0,0,57.82,19Z"/></g></g></g></svg>