<svg xmlns="http://www.w3.org/2000/svg" viewBox="0 0 133.32 64.79"><defs><style>.cls-1{fill:#fff;}</style></defs><g id="Layer_2" data-name="Layer 2"><g id="PANTALLA_3" data-name="PANTALLA 3"><path class="cls-1" d="M62,53.52,41.76,41.79v7.86C31.32,48.07,22.42,45.55,16,42.4c-6.15-3-9.77-6.45-9.77-9.85,0-4.6,6.31-9.08,16.5-12.61l.95-.32V16.17a2.24,2.24,0,0,0-3-2.13h0C7.92,18.48,0,25,0,32.56c0,6,4.91,11.32,13.27,15.44,7.15,3.53,17,6.32,28.49,8v8.81Z"/><path class="cls-1" d="M118.68,19.29v4.09c5.31,2.81,8.38,6,8.38,9.17,0,3.59-4,7.19-10.77,10.33-7.8,3.61-19,6.36-31.91,7.68A3.13,3.13,0,0,0,85,56.78c13.66-1.4,25.5-4.33,33.9-8.23,9-4.2,14.41-9.71,14.41-16,0-5.67-4.47-10.75-12.11-14.81A1.73,1.73,0,0,0,118.68,19.29Z"/><path class="cls-1" d="M52.7,7l-9.41,9.11a9,9,0,0,1,5.28,2.69A7.48,7.48,0,0,1,50.44,24a9.26,9.26,0,0,1-1.73,5.49,11.49,11.49,0,0,1-4.87,3.79,17.65,17.65,0,0,1-7.18,1.38,19.82,19.82,0,0,1-6.39-1,12.27,12.27,0,0,1-4.76-2.75l2.89-4.4a10.23,10.23,0,0,0,3.69,2.27,14.06,14.06,0,0,0,4.93.84,9.68,9.68,0,0,0,5.6-1.4,4.52,4.52,0,0,0,2-3.93q0-4-6-4h-2.8l.8-3.95,8.66-8.4h-14l1-4.84H53.42Z"/><path class="cls-1" d="M74.1,16.07a8.83,8.83,0,0,1,3.66,3.09A8.34,8.34,0,0,1,79.14,24a10,10,0,0,1-5.82,9.35,13.88,13.88,0,0,1-6.09,1.31,13.51,13.51,0,0,1-6.37-1.46,10.19,10.19,0,0,1-4.31-4.36,14.7,14.7,0,0,1-1.54-7A22.32,22.32,0,0,1,57,12.78,16.77,16.77,0,0,1,73.1,2.65a20.19,20.19,0,0,1,4.62.51,11,11,0,0,1,3.6,1.45L78.7,9a10.5,10.5,0,0,0-6-1.51,10.52,10.52,0,0,0-7.84,3,13.41,13.41,0,0,0-3.66,7.35A10.68,10.68,0,0,1,69.06,15,11.83,11.83,0,0,1,74.1,16.07ZM71.65,28.58a5.29,5.29,0,0,0,1.76-4.2,4.32,4.32,0,0,0-1.6-3.56,6.52,6.52,0,0,0-4.22-1.28,7,7,0,0,0-4.73,1.53,5,5,0,0,0-1.8,4,4.68,4.68,0,0,0,1.62,3.58,6.29,6.29,0,0,0,4.42,1.49A6.66,6.66,0,0,0,71.65,28.58Z"/><path class="cls-1" d="M85.74,31.58q-2.91-3.07-2.91-8.53a25.74,25.74,0,0,1,2-10.2,17.82,17.82,0,0,1,5.62-7.44,13.36,13.36,0,0,1,8.33-2.76,10.36,10.36,0,0,1,8,3.07q2.89,3.06,2.89,8.53a25.55,25.55,0,0,1-2,10.19A17.92,17.92,0,0,1,102,31.89a13.33,13.33,0,0,1-8.28,2.75A10.49,10.49,0,0,1,85.74,31.58Zm13.57-4.31a15.75,15.75,0,0,0,3.34-5.91,22.52,22.52,0,0,0,1.15-7,7.59,7.59,0,0,0-1.44-5,5,5,0,0,0-4.07-1.71A6.89,6.89,0,0,0,93.14,10a15.41,15.41,0,0,0-3.38,5.91,22.45,22.45,0,0,0-1.15,7,7.45,7.45,0,0,0,1.46,5,5.18,5.18,0,0,0,4.13,1.69A6.74,6.74,0,0,0,99.31,27.27Z"/><path class="cls-1" d="M113.93,7.42a3.44,3.44,0,0,1-1.18-2.68,4.47,4.47,0,0,1,.7-2.45A4.83,4.83,0,0,1,115.37.61,5.94,5.94,0,0,1,118.09,0a4.49,4.49,0,0,1,3.07,1,3.44,3.44,0,0,1,1.18,2.69,4.44,4.44,0,0,1-.69,2.45,4.71,4.71,0,0,1-1.9,1.68,5.94,5.94,0,0,1-2.72.61A4.5,4.5,0,0,1,113.93,7.42Zm5.35-1.57a2.65,2.65,0,0,0,.8-2,1.85,1.85,0,0,0-.61-1.45,2.24,2.24,0,0,0-1.56-.54,2.84,2.84,0,0,0-2.1.8,2.7,2.7,0,0,0-.8,2,1.87,1.87,0,0,0,.59,1.45,2.32,2.32,0,0,0,1.61.54A2.85,2.85,0,0,0,119.28,5.85Z"/></g></g></svg>