<svg xmlns="http://www.w3.org/2000/svg" viewBox="0 0 47.28 59.1"><defs><style>.cls-1{fill:#007e76;}</style></defs><g id="Layer_2" data-name="Layer 2"><g id="Pantalla_4" data-name="Pantalla 4"><path class="cls-1" d="M38.42,0H8.87A8.88,8.88,0,0,0,0,8.87v32.5a8.88,8.88,0,0,0,8.87,8.87L.59,56.44A1.48,1.48,0,0,0,.3,58.51a1.46,1.46,0,0,0,1.18.59,1.43,1.43,0,0,0,.88-.29l11.43-8.57h19.7l11.43,8.57a1.49,1.49,0,0,0,2.07-.3,1.48,1.48,0,0,0-.3-2.07l-8.27-6.2a8.87,8.87,0,0,0,8.86-8.87V8.87A8.87,8.87,0,0,0,38.42,0ZM3,11.82H22.16V26.6H3Zm22.17,0H44.33V26.6H25.12ZM8.87,3H38.42a5.91,5.91,0,0,1,5.91,5.91H3A5.91,5.91,0,0,1,8.87,3ZM38.42,47.29H8.87A5.91,5.91,0,0,1,3,41.38V29.55H44.33V41.38a5.92,5.92,0,0,1-5.91,5.91Z"/><path class="cls-1" d="M31,56.15H16.25a1.48,1.48,0,0,0,0,3H31a1.48,1.48,0,0,0,0-3Z"/><path class="cls-1" d="M19.21,32.51H7.39A1.48,1.48,0,0,0,5.91,34V39.9a1.47,1.47,0,0,0,1.48,1.47H19.21a1.47,1.47,0,0,0,1.48-1.47V34A1.48,1.48,0,0,0,19.21,32.51Zm-1.48,5.91H8.87v-3h8.86Z"/><path class="cls-1" d="M39.9,32.51H28.07A1.47,1.47,0,0,0,26.6,34V39.9a1.47,1.47,0,0,0,1.47,1.47H39.9a1.47,1.47,0,0,0,1.47-1.47V34A1.47,1.47,0,0,0,39.9,32.51Zm-1.48,5.91H29.55v-3h8.87Z"/></g></g></svg>