<svg xmlns="http://www.w3.org/2000/svg" viewBox="0 0 99.77 99.76"><defs><style>.cls-1{fill:#ff507a;}.cls-2{fill:#fff;}</style></defs><g id="Layer_2" data-name="Layer 2"><g id="Pantallas_3" data-name="Pantallas 3"><g id="icon__pueblo_magico" data-name="icon _pueblo magico"><path class="cls-1" d="M92.32,90.45a32.4,32.4,0,0,1-6.15,5,29.22,29.22,0,0,1-10.36,4,25.91,25.91,0,0,1-4.83.29q-21.9,0-43.81,0a25.87,25.87,0,0,1-14.65-4.8A28.38,28.38,0,0,1,3.05,84.23,26.33,26.33,0,0,1,0,72.05Q.09,50,0,28A27.13,27.13,0,0,1,3.31,15.05,28.94,28.94,0,0,1,8.62,8a28.46,28.46,0,0,1,15-7.69A21.77,21.77,0,0,1,27.91,0Q49.93,0,72,0A26.59,26.59,0,0,1,83.22,2.67,30.19,30.19,0,0,1,91.87,8.9,35.4,35.4,0,0,1,95.78,14l.77,1.38a28.92,28.92,0,0,1,3,9.94c.1,1,.19,2,.19,3.06,0,14,0,28,0,41.94A31.24,31.24,0,0,1,96.9,83.72a17.66,17.66,0,0,1-2.7,4.42l-.27.45v0a12.09,12.09,0,0,0-1.62,1.88M2.84,49.9h0c0,5.78,0,11.55,0,17.32a62.48,62.48,0,0,0,.2,7A25.87,25.87,0,0,0,28.46,96.93q21.38,0,42.78,0a23.28,23.28,0,0,0,5.06-.56A25.88,25.88,0,0,0,97,70.64q0-20.74,0-41.5A28.48,28.48,0,0,0,96.3,23,25.82,25.82,0,0,0,71.17,2.83H29.09a30.32,30.32,0,0,0-4.85.4A25.72,25.72,0,0,0,2.87,27.7c-.13,7.4,0,14.8,0,22.2"/><path class="cls-2" d="M38.71,38.49a8.63,8.63,0,0,1,2.83,6.88,9.14,9.14,0,0,1-2.85,7.18q-2.85,2.55-8,2.55H23.82v8.62H20V36H30.7Q35.88,36,38.71,38.49ZM36,50.1a5.63,5.63,0,0,0,1.9-4.61A5.39,5.39,0,0,0,36,41a8.53,8.53,0,0,0-5.46-1.53l-6.72,0V51.66h6.72A8.42,8.42,0,0,0,36,50.1Z"/><path class="cls-2" d="M50.52,36H55L65.15,55.5,75.2,36h4.55V63.72H76.19l0-22.11L66.3,60.8H64L54,41.61V63.72H50.52Z"/></g></g></g></svg>