<svg xmlns="http://www.w3.org/2000/svg" viewBox="0 0 248.1 248.1"><defs><style>.cls-1{fill:#fff;}.cls-2{fill:#3fa9f5;}.cls-3{fill:#19253f;}.cls-4{fill:#c9b183;}.cls-5{fill:#d0d2d3;}</style></defs><g id="Layer_2" data-name="Layer 2"><g id="Pantallas_3" data-name="Pantallas 3"><g id="icon_pueblo_magico" data-name="icon pueblo magico"><circle class="cls-1" cx="124.05" cy="124.05" r="112.64"/><path class="cls-2" d="M124.05,4.23A119.83,119.83,0,1,1,4.23,124.05,119.82,119.82,0,0,1,124.05,4.23m0-4.23A124.05,124.05,0,0,0,36.33,211.77,124.05,124.05,0,0,0,211.77,36.33,123.23,123.23,0,0,0,124.05,0Z"/><path class="cls-3" d="M60.18,145.61H91.83a2.55,2.55,0,0,1,2.49,1.45c9.83,14.49,23.43,20.69,40.82,18.84a2.25,2.25,0,0,1,2,.64l20.53,20.54a14.17,14.17,0,0,1-4,1.53c-15.94,4.75-32,5.87-48,.88-21.74-6.68-37-20.69-45-42.11-.16-.48-.33-1-.57-1.77Z"/><path class="cls-3" d="M56.88,122.18a57.87,57.87,0,0,1,2.34-16.83C67,79.42,84.82,64.13,110.59,57.44c4.59-1.2,4.59-1,6.76,3.22,3.22,6.45,6.44,13,9.74,19.41.57,1.13.81,1.61-.88,1.77-15,1.45-26.33,8.7-33.66,21.9a3,3,0,0,1-1.37,1.45c-11.35,5.64-22.62,11.27-34.3,17.07Z"/><path class="cls-4" d="M123.47,55.59c6.52-.24,12.88-.32,19.16.81A83.17,83.17,0,0,1,179,71.78c4.26,3.22,4.26,3.14.88,7.32C175.48,84.5,171.22,90,167,95.45c-.89,1.12-1.37,1-2.34.08A54.27,54.27,0,0,0,137.8,82.4,2.08,2.08,0,0,1,136,81.28c-4.11-8.22-8.21-16.43-12.32-24.72a4.83,4.83,0,0,1-.4-1.05Z"/><path class="cls-5" d="M144.89,163.48a88.73,88.73,0,0,0,9.34-3.86,2,2,0,0,0,1.37-2.17v-7c0-1.37.32-1.77,1.61-1.05,7.81,4,15.62,8,23.43,11.92a1.84,1.84,0,0,1,1.12,1.93V174a2,2,0,0,1-1,1.85,89.64,89.64,0,0,1-14.17,7.89,1.32,1.32,0,0,1-1.69-.24c-6.61-6.6-13.21-13.2-20-20Z"/><path class="cls-4" d="M181.93,138.6v13.45c0,1.21-.17,1.61-1.45,1-7.89-4-15.79-8.05-23.76-12a1.91,1.91,0,0,1-1.2-2V125c0-1.21.32-1.61,1.61-1.61h23c1.53,0,1.78.64,1.78,1.93V138.6Z"/><path class="cls-5" d="M88.44,114.93c-1.2,7.57-1.12,14.74,1.21,21.74.32,1,.24,1.37-.88,1.37H59.46a1.38,1.38,0,0,1-1.53-1.29c-.24-1.77-.48-3.62-.73-5.39-.08-.65.33-.89.81-1.13,10.06-5.07,20.21-10.06,30.52-15.22Z"/><path class="cls-3" d="M123.07,123.31h23.59c1.37,0,1.69.4,1.69,1.69-.08,3.78,0,7.49,0,11.59-8.62-4.35-17-8.61-25.36-12.88,0-.16.08-.24.16-.4Z"/></g></g></g></svg>