<svg xmlns="http://www.w3.org/2000/svg" viewBox="0 0 185.73 105.19"><defs><style>.cls-1{fill:#62cdb4;}</style></defs><g id="Layer_2" data-name="Layer 2"><g id="Pantalla_2" data-name="Pantalla 2"><g id="icon_cursor" data-name="icon cursor"><path class="cls-1" d="M166.5,38.51a2.63,2.63,0,0,1-1.89-.79,2.66,2.66,0,0,1,0-3.77l12-12.06L136,21.75a2.68,2.68,0,0,1,0-5.35h0l40.54.14-12-12A2.67,2.67,0,0,1,168.39.78L185,17.34a2.88,2.88,0,0,1,.58.87,2.74,2.74,0,0,1,.2,1h0a2.72,2.72,0,0,1-.19,1,2.67,2.67,0,0,1-.59.88l-16.56,16.6A2.68,2.68,0,0,1,166.5,38.51Z"/><path class="cls-1" d="M70.29,105.19h45a3.22,3.22,0,0,0,3.22-3.21V90.08l2.65-4c5.7-7.93,3.31-19.63,3.78-29.17a16.1,16.1,0,0,0-16.09-16.09V21.54c-.32-12.7-19-12.75-19.3,0v19.3H76.72A16.1,16.1,0,0,0,60.64,56.93V73.6a22.37,22.37,0,0,0,3.78,12.49l2.65,4V102a3.22,3.22,0,0,0,3.22,3.22ZM67.07,56.94a9.66,9.66,0,0,1,9.65-9.65H92.81A3.22,3.22,0,0,0,96,44.07V21.55c.06-4.2,6.36-4.26,6.43,0V56.94c.07,4.23,6.37,4.22,6.43,0V47.29a9.66,9.66,0,0,1,9.66,9.65V73.61a16,16,0,0,1-2.71,8.92c-.3.57-3.56,5.07-3.54,5.65-.36.2-.13,10.06-.19,10.57H73.51V92.32H99.24c4.23-.08,4.23-6.37,0-6.44H72l-2.24-3.35a16,16,0,0,1-2.7-8.92Z"/><path class="cls-1" d="M17.34,37.72.78,21.12a2.67,2.67,0,0,1-.59-.88,2.72,2.72,0,0,1-.19-1H0a2.74,2.74,0,0,1,.2-1,2.88,2.88,0,0,1,.58-.87L17.34.78a2.67,2.67,0,0,1,3.78,3.78l-12,12,40.54-.14h0a2.68,2.68,0,0,1,0,5.35l-40.6.14L21.13,34a2.66,2.66,0,0,1,0,3.77,2.63,2.63,0,0,1-1.89.79A2.68,2.68,0,0,1,17.34,37.72Z"/></g></g></g></svg>