<svg xmlns="http://www.w3.org/2000/svg" viewBox="0 0 64.45 93.19"><defs><style>.cls-1{fill:#62cdb4;}</style></defs><g id="Layer_2" data-name="Layer 2"><g id="Pantalla_1" data-name="Pantalla 1"><path id="icon__cursor" data-name="icon_ cursor" class="cls-1" d="M9.65,93.19h45A3.22,3.22,0,0,0,57.91,90V78.08l2.65-4c5.7-7.93,3.31-19.63,3.78-29.17A16.1,16.1,0,0,0,48.26,28.84V9.54c-.33-12.7-19-12.74-19.31,0v19.3H16.09A16.1,16.1,0,0,0,0,44.93V61.6A22.35,22.35,0,0,0,3.78,74.09l2.65,4V90a3.22,3.22,0,0,0,3.22,3.22ZM6.43,44.94a9.66,9.66,0,0,1,9.66-9.65H32.17a3.22,3.22,0,0,0,3.22-3.22V9.55c.06-4.2,6.36-4.26,6.43,0V44.94c.07,4.23,6.37,4.22,6.44,0V35.29a9.66,9.66,0,0,1,9.65,9.65V61.61a16,16,0,0,1-2.71,8.92c-.3.57-3.56,5.07-3.54,5.65-.36.2-.13,10.06-.19,10.57H12.87V80.32H38.6c4.23-.08,4.23-6.36,0-6.44H11.37L9.14,70.53a16.05,16.05,0,0,1-2.71-8.92Z"/></g></g></svg>