<svg xmlns="http://www.w3.org/2000/svg" viewBox="0 0 151.91 151.89"><defs><style>.cls-1{fill:#007e76;}.cls-2{fill:#e5e4e5;}</style></defs><g id="Layer_2" data-name="Layer 2"><g id="Pantalla_4" data-name="Pantalla 4"><path class="cls-1" d="M140.56,137.71a48.67,48.67,0,0,1-9.35,7.69,44.83,44.83,0,0,1-15.78,6,39.19,39.19,0,0,1-7.36.43c-22.23,0-44.47,0-66.7-.06a39.36,39.36,0,0,1-22.31-7.3A43.12,43.12,0,0,1,4.65,128.25,40.06,40.06,0,0,1,0,109.7Q.15,76.17,0,42.64A41.34,41.34,0,0,1,5,22.91a44.3,44.3,0,0,1,8.08-10.67C19.52,5.81,27.31,2.3,36,.53A32.77,32.77,0,0,1,42.5,0C64.85,0,87.21,0,109.56.06a40.57,40.57,0,0,1,17.14,4,45.5,45.5,0,0,1,13.17,9.48,54,54,0,0,1,6,7.73l1.16,2.1a44.05,44.05,0,0,1,4.57,15.14,45.53,45.53,0,0,1,.29,4.66c0,21.29,0,42.57,0,63.86a47.77,47.77,0,0,1-4.36,20.43,27,27,0,0,1-4.12,6.74l-.41.67,0,0a18.18,18.18,0,0,0-2.48,2.85M4.33,76h0c0,8.79,0,17.59,0,26.38A93.89,93.89,0,0,0,4.6,113a39.4,39.4,0,0,0,38.73,34.63q32.57,0,65.13,0a35.82,35.82,0,0,0,7.72-.86c18.82-4.15,31.44-19.89,31.44-39.17q0-31.59,0-63.19a43.39,43.39,0,0,0-1-9.29A39.31,39.31,0,0,0,108.37,4.31q-32,0-64.08,0a45.66,45.66,0,0,0-7.38.62c-18,2.89-32.23,19-32.55,37.26-.19,11.27,0,22.54,0,33.8"/><path class="cls-2" d="M11.33,76.13v32.39a26.2,26.2,0,0,0,.3,4A32.93,32.93,0,0,0,44.51,140.9c13.38,0,26.77.11,40.16-.21,6.19-.15,12.39,0,18.59-.05a67.58,67.58,0,0,0,9.53-.38,33.13,33.13,0,0,0,27.8-32.49q0-31.95,0-63.9a29.58,29.58,0,0,0-.25-3.87A32.93,32.93,0,0,0,107.2,11q-31.68.1-63.35.29a34,34,0,0,0-4.93.39,33,33,0,0,0-27.59,32.1q0,16.2,0,32.39"/><path class="cls-1" d="M11.32,76.13V43.74a33.06,33.06,0,0,1,27.6-32.1,34,34,0,0,1,4.93-.39q31.68-.16,63.35-.29a32.93,32.93,0,0,1,33.14,29,29.58,29.58,0,0,1,.25,3.87v63.9a33.13,33.13,0,0,1-27.8,32.49,67.58,67.58,0,0,1-9.53.38c-6.2.08-12.4-.1-18.59.05-13.39.32-26.78.18-40.17.21a32.93,32.93,0,0,1-32.87-28.33,26.21,26.21,0,0,1-.31-4V76.13"/></g></g></svg>