<svg xmlns="http://www.w3.org/2000/svg" viewBox="0 0 99.98 99.97"><defs><style>.cls-1{fill:#9547f4;}.cls-2{fill:#fff;}</style></defs><g id="Layer_2" data-name="Layer 2"><g id="Pantalla_4" data-name="Pantalla 4"><path class="cls-1" d="M92.52,90.64a31.88,31.88,0,0,1-6.16,5.06,29.4,29.4,0,0,1-10.38,4,26.07,26.07,0,0,1-4.84.28c-14.64,0-29.28,0-43.91,0a25.94,25.94,0,0,1-14.69-4.8A28.4,28.4,0,0,1,3.06,84.41,26.28,26.28,0,0,1,0,72.2Q.09,50.14,0,28.07a27.18,27.18,0,0,1,3.32-13,29.22,29.22,0,0,1,5.32-7A28.62,28.62,0,0,1,23.7.35,21.77,21.77,0,0,1,28,0Q50.05,0,72.11,0A26.74,26.74,0,0,1,83.4,2.68a30,30,0,0,1,8.67,6.24A35.55,35.55,0,0,1,96,14l.77,1.38a29.09,29.09,0,0,1,3,10c.1,1,.19,2,.19,3.06,0,14,0,28,0,42A31.33,31.33,0,0,1,97.12,83.9a18.11,18.11,0,0,1-2.71,4.44l-.27.44v0a12.15,12.15,0,0,0-1.63,1.88M2.85,50h0c0,5.79,0,11.57,0,17.36a60.27,60.27,0,0,0,.2,7A25.92,25.92,0,0,0,28.52,97.14q21.44,0,42.87,0a24.12,24.12,0,0,0,5.08-.57A25.93,25.93,0,0,0,97.17,70.8q0-20.8,0-41.59a28.66,28.66,0,0,0-.65-6.12A25.88,25.88,0,0,0,71.33,2.84q-21.09,0-42.17,0a30.36,30.36,0,0,0-4.86.41A25.78,25.78,0,0,0,2.87,27.76c-.12,7.42,0,14.84,0,22.25"/><path class="cls-2" d="M37.17,40a13.62,13.62,0,0,0-3.83-.61,7,7,0,0,0-3.86.93A2.88,2.88,0,0,0,28,42.91a3.36,3.36,0,0,0,.87,2.39A6.14,6.14,0,0,0,31,46.77c.85.36,2,.77,3.53,1.25a40.89,40.89,0,0,1,4.56,1.66,8,8,0,0,1,3,2.36,6.55,6.55,0,0,1,1.23,4.15A6.92,6.92,0,0,1,42,60.35a8.2,8.2,0,0,1-3.6,2.75,13.71,13.71,0,0,1-5.34,1,15.55,15.55,0,0,1-5.94-1.19,16.13,16.13,0,0,1-5-3.18l1.71-3.29a14.25,14.25,0,0,0,4.46,3,12.26,12.26,0,0,0,4.81,1,7.67,7.67,0,0,0,4.38-1.09,3.39,3.39,0,0,0,1.61-3A3.43,3.43,0,0,0,38.26,54a6.12,6.12,0,0,0-2.2-1.51,37.78,37.78,0,0,0-3.59-1.23A37.21,37.21,0,0,1,28,49.65,7.79,7.79,0,0,1,25,47.31a6.42,6.42,0,0,1-1.21-4.09A6.53,6.53,0,0,1,25,39.3a7.76,7.76,0,0,1,3.45-2.62,13.42,13.42,0,0,1,5.15-.91,17,17,0,0,1,9.16,2.7l-1.59,3.4A16.15,16.15,0,0,0,37.17,40Z"/><path class="cls-2" d="M73.7,63.84,70.77,57.1H56.14l-2.9,6.74h-4L61.57,36.09h4L77.82,63.84ZM57.64,53.65H69.3L63.43,40.17Z"/></g></g></svg>