<svg xmlns="http://www.w3.org/2000/svg" viewBox="0 0 237.89 237.89"><defs><style>.cls-1{fill:#fff;}.cls-2{fill:#6cc9f1;}.cls-10,.cls-11,.cls-12,.cls-13,.cls-14,.cls-15,.cls-16,.cls-2,.cls-3,.cls-4,.cls-5,.cls-6,.cls-7,.cls-8,.cls-9{fill-rule:evenodd;}.cls-3{fill:#00ace0;}.cls-4{fill:#007bb9;}.cls-5{fill:#a080af;}.cls-6{fill:#714597;}.cls-7{fill:#362f6c;}.cls-8{fill:#ed95b8;}.cls-9{fill:#bf317c;}.cls-10{fill:#f0a884;}.cls-11{fill:#d0372b;}.cls-12{fill:#a3cc95;}.cls-13{fill:#166939;}.cls-14{fill:#3bac4a;}.cls-15{fill:#eb5a30;}.cls-16{fill:#ec1489;}</style></defs><g id="Layer_2" data-name="Layer 2"><g id="Pantalla_4" data-name="Pantalla 4"><g id="icon_pueblo_magico" data-name="icon pueblo magico"><circle class="cls-1" cx="118.95" cy="118.95" r="108"/><path class="cls-1" d="M119,4.05A114.9,114.9,0,1,1,4.05,119,114.89,114.89,0,0,1,119,4.05m0-4A118.94,118.94,0,0,0,34.84,203.05,118.94,118.94,0,1,0,203.05,34.84,118.13,118.13,0,0,0,119,0Z"/><g id="icon_pueblo_magico-2" data-name="icon_pueblo magico"><path class="cls-2" d="M119.92,112.14a36,36,0,0,0-23.31-8.52,36.33,36.33,0,0,0-14.9,69.49,38.1,38.1,0,0,1-5.46-19.26,31.36,31.36,0,0,1-3.07-13.49A31.81,31.81,0,0,1,105,108.52,31.08,31.08,0,0,1,119.3,112c-.3.06-.55.18-.86.24C118.94,112.2,119.43,112.14,119.92,112.14Z"/><path class="cls-3" d="M119.3,112c-.3.06-.55.18-.86.24-23.49,2-41.95,19.51-42.25,40.91v.61a.26.26,0,0,1,.06.13,32.07,32.07,0,0,0,18.89,16.74A40.95,40.95,0,0,1,119.3,112ZM76.19,153.11v0Z"/><path class="cls-4" d="M119.3,112A31.08,31.08,0,0,0,105,108.52a31.81,31.81,0,0,0-31.83,31.84,31.36,31.36,0,0,0,3.07,13.49c0-.13-.06-.19-.06-.31,0-21.59,18.58-39.37,42.25-41.34C118.75,112.14,119,112,119.3,112Z"/><path class="cls-5" d="M114.83,115.15a36.35,36.35,0,1,0,47.59,54,37.49,37.49,0,0,1-20-.18,31.78,31.78,0,0,1-35.21-40.48,32.73,32.73,0,0,1,7.3-12.82v.92C114.64,116.13,114.76,115.64,114.83,115.15Z"/><path class="cls-6" d="M114.52,115.7v.92a50.29,50.29,0,0,0-1,9v3.07c.55,18.71,11.53,35.15,28.64,40.24a.71.71,0,0,1,.31.06,32.05,32.05,0,0,0,21.4-13.43,40,40,0,0,1-20.06-.8,40.93,40.93,0,0,1-29.25-39.07ZM142.43,169l-1.54.18,1.54-.18Z"/><path class="cls-7" d="M114.52,115.7a32.73,32.73,0,0,0-7.3,12.82A31.78,31.78,0,0,0,142.43,169a.59.59,0,0,0-.31-.06c-20.73-6.2-32.39-29-27.6-52.32Z"/><path class="cls-8" d="M116.17,121.1a36.27,36.27,0,0,0,65,10.85,36.23,36.23,0,0,0,1.1-39.43,37.62,37.62,0,0,1-6.38,19,31.47,31.47,0,0,1-5.15,12.88,31.75,31.75,0,0,1-54.1-2.76,3.74,3.74,0,0,0,.86.24Z"/><path class="cls-9" d="M116.6,121.59a31.75,31.75,0,0,0,54.1,2.76,31.47,31.47,0,0,0,5.15-12.88c-.06.06-.12.18-.18.24-12.21,17.85-37.54,22-58.21,10.12A3.74,3.74,0,0,1,116.6,121.59Z"/><path class="cls-10" d="M122.06,121.22a36.34,36.34,0,1,0-6.31-71.7,38.15,38.15,0,0,1,16,12,32.64,32.64,0,0,1,10.55,9A31.78,31.78,0,0,1,136.17,115a31.18,31.18,0,0,1-13.49,6,6.21,6.21,0,0,0,.49-.73C122.8,120.55,122.43,120.91,122.06,121.22Z"/><path class="cls-11" d="M122.68,121a31.18,31.18,0,0,0,13.49-6A31.78,31.78,0,0,0,142.3,70.5a32.64,32.64,0,0,0-10.55-9c.06.12.13.19.19.31,13.06,17.17,8.95,42.56-8.77,58.45A6.21,6.21,0,0,1,122.68,121Z"/><path class="cls-12" d="M123.78,115A36.33,36.33,0,1,0,53.43,99.88,37.92,37.92,0,0,1,69.62,88.16a31.81,31.81,0,0,1,54.1,26.25c-.19-.24-.37-.49-.55-.73C123.35,114.1,123.6,114.59,123.78,115Z"/><path class="cls-13" d="M123.72,114.41A32.17,32.17,0,0,0,122,99.69,31.76,31.76,0,0,0,69.62,88.16c.13-.06.25-.06.31-.12,20.3-7.36,43.3,4,53.24,25.64C123.35,113.92,123.53,114.17,123.72,114.41Z"/><path class="cls-14" d="M122.84,113c.31.38.61.77.9,1.16-.16-.27-.36-.46-.52-.72C113.4,92,90.63,80.61,70.39,87.59l-.21.07.06,0-.08.06-.17.06-.17.07a.22.22,0,0,1-.1.1,32.1,32.1,0,0,0-9.34,23.45s0,0,0,0v.34a40.27,40.27,0,0,1,9.82-8,38.22,38.22,0,0,1,6.81-3.25,40.79,40.79,0,0,1,46.67,14c-.19-.24-.37-.49-.55-.73Z"/><path class="cls-15" d="M123,120.48l.21-.3-.06.06C123.13,120.32,123.07,120.4,123,120.48ZM134.56,65.7l-.42-.7a3.79,3.79,0,0,0-.2-.34c-.55-.89-1.11-1.76-1.74-2.61l-.26-.34a.36.36,0,0,0-.07-.1l.56.3a6.72,6.72,0,0,0,.67.37,6.51,6.51,0,0,1-.67-.43,7,7,0,0,1-.68-.37v.05l0,0a32.07,32.07,0,0,0-25.16-2l.18.09-.12,0A41.13,41.13,0,0,1,121.38,71.1c.28.34.56.67.83,1a40.88,40.88,0,0,1,.37,48.75c.2-.23.33-.48.53-.71l.35-.33-.23.35a53.59,53.59,0,0,0,9.2-10.86A46.61,46.61,0,0,0,139.6,86V84A38.34,38.34,0,0,0,134.56,65.7Z"/><path class="cls-16" d="M117.31,121.8l-.71-.21A3.09,3.09,0,0,0,117.31,121.8ZM169.8,86.87l0,.2-.05-.07a41.26,41.26,0,0,1-21.27,31.64l-.22.12-.8.41-.73.36-.36.17a40.91,40.91,0,0,1-29.61,1.89c.24.1.47.15.71.24l-.13,0,.2.06,0,0,.1,0h0l-.08,0c16.71,9.54,36.45,8.67,49.84-1.44l0,0,.7-.56a37.4,37.4,0,0,0,7.47-7.84l.24-.36,0,0c0,.19-.05.39-.1.59a4.44,4.44,0,0,0-.12.8,3.09,3.09,0,0,1,.12-.73,3.86,3.86,0,0,0,.11-.68.61.61,0,0,1,.07-.1.17.17,0,0,1,0-.13A32.12,32.12,0,0,0,169.8,86.87Z"/></g></g></g></g></svg>