<svg xmlns="http://www.w3.org/2000/svg" viewBox="0 0 237.89 237.89"><defs><style>.cls-1{fill:#9547f4;}.cls-2{fill:#fff;}</style></defs><g id="Layer_2" data-name="Layer 2"><g id="Pantallas_3" data-name="Pantallas 3"><g id="palenque"><circle class="cls-1" cx="118.95" cy="118.95" r="108"/><path class="cls-1" d="M119,4.05A114.9,114.9,0,1,1,4.05,119,114.89,114.89,0,0,1,119,4.05m0-4A118.94,118.94,0,0,0,34.84,203.05,118.94,118.94,0,1,0,203.05,34.84,118.13,118.13,0,0,0,119,0Z"/><path class="cls-2" d="M191.35,135.25h-7.73V125a2.43,2.43,0,0,0-2.43-2.43H173V112.28a2.43,2.43,0,0,0-2.43-2.43h-4.55V99.57a2.43,2.43,0,0,0-2.43-2.43h-4.35V86.87a2.43,2.43,0,0,0-2.43-2.43H141.7V70.25h4.56a2.43,2.43,0,1,0,0-4.86H91.63a2.43,2.43,0,1,0,0,4.86h4.56V84.44H81.05a2.43,2.43,0,0,0-2.43,2.43V97.14H74.27a2.43,2.43,0,0,0-2.43,2.43v10.28H67.28a2.43,2.43,0,0,0-2.43,2.43v10.27H56.7A2.43,2.43,0,0,0,54.27,125v10.27H46.53a2.43,2.43,0,0,0-2.42,2.43v12.7a2.43,2.43,0,0,0,2.42,2.43H191.36a2.43,2.43,0,0,0,2.43-2.43v-12.7A2.45,2.45,0,0,0,191.35,135.25Zm1.25,1.59a1.64,1.64,0,0,0-.29-.3A1.64,1.64,0,0,1,192.6,136.84ZM126.47,148h-15V89.3h15Zm-16,.93h0V88.37h0ZM109,85.37h-8.88V69.32h0V85.37H109ZM49,148v-7.85h57.6V148Zm7.74-8.78h0Zm13-16.63v-7.84h36.85v7.84Zm37.78,3.93Zm-48.36,8.77v-7.84h47.43v7.84Zm15.14-21.47h0Zm2.43-3.93V102h29.86v7.85Zm4.35-8.78h0Zm50.27,34.18v-7.84h47.44v7.84ZM188.92,148h-57.6v-7.84h57.6Zm-9.23-21.48Zm-48.37-3.93v-7.84h36.85v7.84Zm37.78-8.77v9.7h0v-9.7Zm-37.78-3.93V102h29.87v7.85Zm30.8-8.78h0Zm-6.78-3Zm-24-.93V89.3h23.09v7.84Zm24-8.77h0Zm-18.5-18.12V84.44H101.05V70.25Zm-53.37,19h23.09v7.84H83.47Zm62.79-20h-5.49V85.37h16.07a1.5,1.5,0,0,1,1.5,1.5v11.2h5.28a1.5,1.5,0,0,1,1.14.54,1.5,1.5,0,0,0-1.14-.54h-5.28V86.87a1.5,1.5,0,0,0-1.5-1.5H140.77V69.32h5.49a1.51,1.51,0,0,0,1.47-1.2A1.51,1.51,0,0,1,146.26,69.32ZM90.39,67a1.49,1.49,0,0,1,1.24-.67h54.63a1.51,1.51,0,0,1,1.24.67,1.49,1.49,0,0,1,.26.84h0a1.49,1.49,0,0,0-.26-.84,1.51,1.51,0,0,0-1.24-.67H91.63a1.52,1.52,0,0,0-1.5,1.51h0A1.49,1.49,0,0,1,90.39,67ZM74.27,98.07h5.27V86.87a1.51,1.51,0,0,1,1.51-1.5H97.12V69.32H91.63a1.51,1.51,0,0,1-1.47-1.2,1.51,1.51,0,0,0,1.47,1.2h5.49V85.37H81.05a1.51,1.51,0,0,0-1.51,1.5v11.2H74.27a1.51,1.51,0,0,0-1.06.44A1.51,1.51,0,0,1,74.27,98.07Zm118.59,52.31a1.51,1.51,0,0,1-1.5,1.51H46.53a1.51,1.51,0,0,1-1.21-.63,1.51,1.51,0,0,0,1.21.63H191.36a1.51,1.51,0,0,0,1.5-1.51Zm-.1-13.22a1.37,1.37,0,0,1,.09.49A1.37,1.37,0,0,0,192.76,137.16Z"/></g></g></g></svg>