<svg xmlns="http://www.w3.org/2000/svg" viewBox="0 0 237.13 237.13"><defs><style>.cls-1{fill:#eb5a30;}.cls-2{fill:none;stroke:#fff;stroke-linecap:round;stroke-linejoin:round;stroke-width:5.03px;fill-rule:evenodd;}</style></defs><g id="Layer_2" data-name="Layer 2"><g id="Pantalla_4" data-name="Pantalla 4"><g id="icon_pueblo_magico" data-name="icon pueblo magico"><circle class="cls-1" cx="118.57" cy="118.57" r="107.66"/><path class="cls-1" d="M118.57,4A114.53,114.53,0,1,1,4,118.57,114.53,114.53,0,0,1,118.57,4m0-4A118.57,118.57,0,0,0,34.73,202.41,118.57,118.57,0,0,0,202.41,34.73,117.78,117.78,0,0,0,118.57,0Z"/></g><path class="cls-2" d="M79.35,73H159l32.81,72.28H46.55Zm47,40.92H112L110.8,135h16.77Zm-1.76-30.7H113.77l-1.21,21.16h13.25Z"/></g></g></svg>