<svg xmlns="http://www.w3.org/2000/svg" viewBox="0 0 237.13 237.13"><defs><style>.cls-1{fill:#06294c;}.cls-2{fill:blue;}.cls-3{fill:#fff;}</style></defs><g id="Layer_2" data-name="Layer 2"><g id="Pantalla_4" data-name="Pantalla 4"><g id="icon_pueblo_magico" data-name="icon pueblo magico"><circle class="cls-1" cx="118.57" cy="118.57" r="107.66"/><path class="cls-2" d="M118.57,4A114.53,114.53,0,1,1,4,118.57,114.53,114.53,0,0,1,118.57,4m0-4A118.57,118.57,0,0,0,34.73,202.41,118.57,118.57,0,0,0,202.41,34.73,117.78,117.78,0,0,0,118.57,0Z"/></g><path class="cls-3" d="M60.9,158l25.54-50.2h70.48l24.4,49.64-27.75.3L143.3,122.46H129.16L138.6,158c-11.35-.91-22.93.57-34.41,0l9.44-35.5H99.19L88.92,158Z"/><path class="cls-3" d="M89.75,99.71l13.87-27.45c.13-1.18-.08-.74-.82-.83-4.53-.65-6.35,1.13-9.53,3.83l-2.35-2,7.35-15.19,32.28-.52,1.87.91,20.58,41c.13,1.7-.61.26-.82.26H89.75Z"/></g></g></svg>