<svg xmlns="http://www.w3.org/2000/svg" viewBox="0 0 105.96 105.7"><defs><style>.cls-1{fill:#fff;}</style></defs><g id="Layer_2" data-name="Layer 2"><g id="Pantalla_1" data-name="Pantalla 1"><g id="boton"><path id="icon" class="cls-1" d="M102.68,34.69a52.95,52.95,0,0,0-99.4,0,3.33,3.33,0,0,0-.22.6,51.91,51.91,0,0,0,0,35.12,2.54,2.54,0,0,0,.22.6,52.95,52.95,0,0,0,99.4,0,2.54,2.54,0,0,0,.22-.6,51.91,51.91,0,0,0,0-35.12A3.33,3.33,0,0,0,102.68,34.69ZM94.3,32.76h-14a59.14,59.14,0,0,0-9.62-22.33A46.13,46.13,0,0,1,94.31,32.76ZM75.43,52.84a88.63,88.63,0,0,1-1,13.12H31.5a88.56,88.56,0,0,1,0-26.21h43a88.09,88.09,0,0,1,1,13.08ZM53,6.84c8.69,0,16.37,10.74,20.1,25.92H32.88C36.61,17.58,44.29,6.84,53,6.84ZM35.22,10.42h0a58.84,58.84,0,0,0-9.63,22.33H11.65A46.11,46.11,0,0,1,35.22,10.43ZM7,52.84A45.34,45.34,0,0,1,8.91,39.75H24.45a95.08,95.08,0,0,0,0,26.21H8.91A44.91,44.91,0,0,1,7,52.84Zm4.68,20.07h14a59,59,0,0,0,9.63,22.37A46.21,46.21,0,0,1,11.65,72.91ZM53,98.81c-8.69,0-16.37-10.73-20.1-25.95H73.07c-3.72,15.26-11.4,26-20.09,26Zm17.79-3.58A59.4,59.4,0,0,0,80.4,72.86h14A46.23,46.23,0,0,1,70.77,95.28ZM97.05,66H81.51a95.08,95.08,0,0,0,0-26.21H97.05A45.51,45.51,0,0,1,97.05,66Z"/></g></g></g></svg>