<svg xmlns="http://www.w3.org/2000/svg" viewBox="0 0 57.58 57.57"><defs><style>.cls-1{fill:#eb5a30;}.cls-2{fill:#fff;}</style></defs><g id="Layer_2" data-name="Layer 2"><g id="Pantalla_4" data-name="Pantalla 4"><g id="icon_hoteles_gaf"><path class="cls-1" d="M53.28,52.2a18.29,18.29,0,0,1-3.54,2.91,17.12,17.12,0,0,1-6,2.3,15.27,15.27,0,0,1-2.79.16c-8.43,0-16.86,0-25.29,0a15,15,0,0,1-8.46-2.77,16.38,16.38,0,0,1-5.46-6.17,15.26,15.26,0,0,1-1.76-7q.06-12.7,0-25.42A15.68,15.68,0,0,1,1.91,8.69,16.74,16.74,0,0,1,5,4.64,16.44,16.44,0,0,1,13.65.2,12.62,12.62,0,0,1,16.11,0q12.7,0,25.42,0A15.49,15.49,0,0,1,48,1.54a17.37,17.37,0,0,1,5,3.6,20.61,20.61,0,0,1,2.26,2.93l.44.79a16.61,16.61,0,0,1,1.74,5.74c.06.59.1,1.18.11,1.77,0,8.07,0,16.14,0,24.2a18.09,18.09,0,0,1-1.65,7.75,10.16,10.16,0,0,1-1.56,2.55l-.16.26h0a6.87,6.87,0,0,0-.94,1.08M1.64,28.8h0c0,3.33,0,6.67,0,10a36,36,0,0,0,.11,4A14.93,14.93,0,0,0,16.42,55.94q12.34,0,24.69,0A13.71,13.71,0,0,0,44,55.62,14.93,14.93,0,0,0,56,40.77v-24a16.64,16.64,0,0,0-.38-3.52A14.9,14.9,0,0,0,41.08,1.63q-12.15,0-24.29,0a17.53,17.53,0,0,0-2.8.23A14.86,14.86,0,0,0,1.65,16c-.07,4.27,0,8.54,0,12.81"/><path class="cls-2" d="M33,33h-8.4L22.9,36.88H19.68l7.56-16.8h3.07l7.59,16.8H34.63Zm-1-2.45L28.75,23.2l-3.14,7.34Z"/></g></g></g></svg>