<svg xmlns="http://www.w3.org/2000/svg" viewBox="0 0 176.88 85.19"><defs><style>.cls-1{fill:#fff;}</style></defs><g id="Layer_2" data-name="Layer 2"><g id="Pantalla_1" data-name="Pantalla 1"><path class="cls-1" d="M96.05,55.46v4.76a1.17,1.17,0,0,1-1.22,1.27h-3.1c-.75,0-1.07-.46-.85-1.2A15.38,15.38,0,0,0,91.61,55c0-2,0-4.05,0-6.08a15.3,15.3,0,0,0-.73-5.25.48.48,0,0,0,0-.14c-.17-.64.12-1.13.81-1.13,1.44,0,2.9,0,4.36,0a1.7,1.7,0,0,1,1.59,1.13c1.34,2.93,2.66,5.86,4,8.79.1.24.2.56.54.56s.44-.32.56-.59c1.35-2.93,2.66-5.86,4-8.79a1.76,1.76,0,0,1,1.68-1.12h4.2a.8.8,0,0,1,.83,1.12,17.87,17.87,0,0,0-.71,3.4c0,.26,0,.53,0,.8,0,2.49,0,5,0,7.47a14.23,14.23,0,0,0,.73,5,1.84,1.84,0,0,1,.1.51.75.75,0,0,1-.64.76l-.44,0H108.5a.91.91,0,0,1-1-1.31,14.2,14.2,0,0,0,.73-5.15c-.05-1.49,0-3,0-4.47,0-.17.07-.46-.12-.51s-.25.22-.32.39c-1.12,2.61-2.27,5.2-3.39,7.81a1.94,1.94,0,0,1-2,1.27h-.8a1.77,1.77,0,0,1-1.56-1.1c-1.15-2.61-2.3-5.25-3.45-7.86-.07-.2-.14-.54-.36-.49s-.15.39-.15.61v4.76h0Z"/><path class="cls-1" d="M154.15,30.24c0,1-.05,2.1.07,3.25a17,17,0,0,0,.64,2.69c.22.8-.1,1.27-1,1.27h-4.3c-.78,0-1.15-.44-.88-1.2a15.87,15.87,0,0,0,.76-5.35c-.05-1.85-.05-3.71,0-5.56a16.22,16.22,0,0,0-.78-5.79.81.81,0,0,1,.8-1.17c1.15,0,2.3-.07,3.44,0a2.17,2.17,0,0,1,1.64.93c2.37,3.15,4.76,6.32,7.13,9.45.14.19.26.51.58.41s.22-.41.22-.68c0-1.22,0-2.47,0-3.69a14.45,14.45,0,0,0-.71-5.13c0-.09-.07-.22-.09-.31a.79.79,0,0,1,.7-1h4.5c.63,0,.92.22,1,.69a1.11,1.11,0,0,1-.05.51,23.6,23.6,0,0,0-.68,2.85,9.66,9.66,0,0,0-.07,1.2V32.2a12.8,12.8,0,0,0,.68,3.73,1.55,1.55,0,0,1,.1.86.8.8,0,0,1-.69.61,32.84,32.84,0,0,1-3.71,0,2.27,2.27,0,0,1-1.51-.93c-2.34-3.1-4.71-6.22-7.08-9.32a1.94,1.94,0,0,0-.34-.4c-.22-.17-.39-.09-.47.18v3.36h0Z"/><path class="cls-1" d="M115.31,18.36c1.3,0,2.86-.05,4.45.05a8.84,8.84,0,0,1,3.8,1,5.69,5.69,0,0,1,3,4.51,8.22,8.22,0,0,1-.44,4.08,5.5,5.5,0,0,1-1.68,2.39l-.25.22a1.21,1.21,0,0,0-.19,1.88,4.4,4.4,0,0,0,2,1.71,1.86,1.86,0,0,1,.34.19.82.82,0,0,1,.29,1.1,3.23,3.23,0,0,1-3.41,1.91,3.36,3.36,0,0,1-2.57-1.66,18.63,18.63,0,0,1-1.12-2.54,5,5,0,0,0-.22-.49,1,1,0,0,0-1-.59c-.64,0-1.27,0-1.93,0s-.46,0-.68.13a.92.92,0,0,0-.56.9,8.82,8.82,0,0,0,.48,2.39c.08.22.13.42.2.64.22.73-.1,1.17-.88,1.19h-4.83a.76.76,0,0,1-.73-1,13,13,0,0,0,.7-2.93c0-.24,0-.49,0-.73,0-2.61,0-5.22,0-7.83a15,15,0,0,0-.71-5.08,2.35,2.35,0,0,1-.1-.42.79.79,0,0,1,.71-1h5.27Zm-.22,6.88v1.68a1.1,1.1,0,0,0,1.17,1.22c1,0,2,.05,2.93,0a2.61,2.61,0,0,0,2.69-2.64,2.59,2.59,0,0,0-2.27-3.07,15.09,15.09,0,0,0-3.49-.05,1.07,1.07,0,0,0-1,1.2v1.68h0Z"/><path class="cls-1" d="M136.79,37.45H130.4c-.56,0-.83-.18-1-.59a1.06,1.06,0,0,1,0-.56,18.51,18.51,0,0,0,.71-3c0-.25.05-.52.05-.78V23.31a14.09,14.09,0,0,0-.73-3.73.84.84,0,0,1,0-.71.74.74,0,0,1,.61-.49l.48,0h12.19a1.65,1.65,0,0,1,1.83,1.41c.19.73.39,1.49.58,2.25s-.12,1-.8.93-1.52-.27-2.3-.42a13,13,0,0,0-2.15-.17h-3.95c-1.32,0-.59.15-.66.46a5.33,5.33,0,0,0-.05,2.25c.07.56.56.85,1.25.85h6.83a.8.8,0,0,1,.68,1,19.25,19.25,0,0,1-.51,1.88,1.59,1.59,0,0,1-1.61,1.05H136.6c-1,0-1.42.42-1.42,1.42v1a1.11,1.11,0,0,0,1.1,1.15,38,38,0,0,0,5.44-.12c.93-.15,1.84-.42,2.76-.64s1.27.07,1,1c-.22.8-.44,1.61-.63,2.41a1.63,1.63,0,0,1-1.73,1.32h-6.33v0Z"/><path class="cls-1" d="M134.77,61.49c-.64,0-1.42,0-2.2-.05a1.37,1.37,0,0,1-1.15-1.15c0-.31-.09-.63-.14-.95a1.34,1.34,0,0,0-1.3-1.2h-6.07a1.47,1.47,0,0,0-1.37,1.13c-.08.31-.15.66-.22,1a1.51,1.51,0,0,1-1.54,1.25h-3.71c-.81,0-1-.42-.59-1.1a49.11,49.11,0,0,0,3.42-7.13q2.09-4.86,4.18-9.71a1.79,1.79,0,0,1,1.7-1.15h2.71a1.67,1.67,0,0,1,1.66,1.15q2.79,6.66,5.62,13.3a27.31,27.31,0,0,0,1.83,3.52.84.84,0,0,1,.17.34.52.52,0,0,1-.44.71c-.15,0-.32,0-.46,0h-2.08Zm-7.86-7.2h1.44c.73,0,1-.47.75-1.15-.56-1.51-1.14-3-1.73-4.54a.67.67,0,0,0-.15-.29.3.3,0,0,0-.56,0l-.14.29c-.61,1.54-1.22,3.08-1.81,4.61a.72.72,0,0,0,.71,1.08Z"/><path class="cls-1" d="M173.8,61.49c-.64,0-1.42,0-2.2-.05a1.32,1.32,0,0,1-1.12-1.15c0-.31-.1-.61-.12-.92A1.37,1.37,0,0,0,169,58.12h-5.91a1.48,1.48,0,0,0-1.47,1.25c0,.26-.12.56-.19.85a1.51,1.51,0,0,1-1.51,1.27H156.1c-.73,0-1-.44-.58-1.05a47.61,47.61,0,0,0,3.41-7.13c1.42-3.27,2.81-6.54,4.23-9.81a1.71,1.71,0,0,1,1.66-1.1h2.73a1.71,1.71,0,0,1,1.66,1.15c1.88,4.46,3.73,8.91,5.64,13.37a26.19,26.19,0,0,0,1.78,3.4,1.6,1.6,0,0,1,.2.34.51.51,0,0,1-.44.76,3.73,3.73,0,0,0-.47,0h-2.1ZM166,54.29h1.42c.76,0,1.05-.44.78-1.15q-.81-2.09-1.59-4.17a3,3,0,0,0-.26-.64.32.32,0,0,0-.57,0c-.05.08-.07.15-.12.25l-1.83,4.66a.71.71,0,0,0,.71,1.07H166Z"/><path class="cls-1" d="M139.11,42.38h1.78a1.73,1.73,0,0,1,1.71,1.14,41.22,41.22,0,0,0,2.86,5.86,1.51,1.51,0,0,0,.1.17c.31.54.78.54,1.07,0,.44-.78.86-1.58,1.29-2.39a30.78,30.78,0,0,0,1.54-3.59,1.77,1.77,0,0,1,1.71-1.19h3.69c.24,0,.51,0,.63.26a.65.65,0,0,1-.12.69c-2.47,3.44-4.22,7.27-6.25,11a5.34,5.34,0,0,0-.51,3.15c.07.95.22,1.93.36,2.88a1,1,0,0,1-.75,1.1,3.59,3.59,0,0,1-.73,0h-3.1a1,1,0,0,1-1.15-.9c0-.22,0-.46.07-.71.12-1,.27-2,.32-3a4.71,4.71,0,0,0-.49-2.32c-1.59-3-3.08-6-4.83-8.84-.47-.78-1-1.51-1.52-2.27-.14-.24-.36-.49-.19-.81s.49-.29.8-.29h1.74Z"/><path class="cls-1" d="M99,18.36h5.64a1.68,1.68,0,0,1,1.81,1.39c.19.9.46,1.78.68,2.66.17.68-.17,1.07-.88.95l-3.68-.66a.89.89,0,0,0-1.13.95v8.82a11.89,11.89,0,0,0,.71,3.68.93.93,0,0,1-1,1.32c-1.51,0-3.05,0-4.57,0-.78,0-1.14-.44-.87-1.2a16.09,16.09,0,0,0,.75-5.39c0-2.37,0-4.74,0-7.08s-.44-1.2-1.24-1.05l-3.52.63c-.73.13-1.1-.24-.9-1,.24-.9.46-1.81.71-2.71a1.59,1.59,0,0,1,1.73-1.32H99Z"/><path class="cls-1" d="M73.62,47.18v28.1a1,1,0,0,1-.51,1,.89.89,0,0,1-1.27-.8V19a1,1,0,0,1,.93-1.08.86.86,0,0,1,.85.83V47.16h0Z"/><path class="cls-1" d="M115.46,71.62v4c0,.14,0,.22-.22.22h-1.07c-.22,0-.3-.08-.3-.3V68.76c0-.24.08-.29.32-.31a1.42,1.42,0,0,1,1.66.9c.59,1.12,1.29,2.2,2,3.29.2.35.2.35.42,0,.75-1.29,1.54-2.58,2.29-3.88a.48.48,0,0,1,.54-.31c.34,0,.78-.15,1,.07s0,.63,0,1v6c0,.29-.07.39-.37.37h-.83c-.29,0-.41-.08-.39-.39V71.84c0-1.2,0-.2-.05-.32-.24.42-.51.86-.75,1.27-.39.64-.76,1.29-1.15,1.95a.65.65,0,0,1-1.07,0c-.64-1-1.3-2.1-1.93-3.17h-.08Z"/><path class="cls-1" d="M130.18,71.35v4.1c0,.27-.05.37-.34.34h-1.08c-.17,0-.27,0-.27-.24V68.67c0-.18,0-.25.22-.22h1c.18,0,.25.09.35.22,1.07,1.29,2.12,2.61,3.19,3.9a2.78,2.78,0,0,1,.27.29V68.71c0-.22.08-.29.3-.26H135c.39,0,.25,0,.25.24v6.88c0,.17-.05.25-.22.22h-1c-.17,0-.24-.09-.34-.19q-1.57-1.95-3.2-3.88a2.91,2.91,0,0,0-.32-.35h0Z"/><path class="cls-1" d="M148,68.45c-.73.78-1.39,1.51-2.08,2.22a9.46,9.46,0,0,1-.75.8c-.17.17-.15.3,0,.47q1.42,1.78,2.85,3.61s.08.1.17.22c-.39,0-.73,0-1.07,0a1.41,1.41,0,0,1-1.46-.68c-.49-.71-1.08-1.35-1.62-2-.12-.17-.19-.17-.34,0-.78.8-.8.8-.8,1.93s0,.8-.78.78c-.3,0-.66.12-.83,0s-.05-.56-.05-.83V68.76c0-.24.05-.36.31-.34h1c.26,0,.36,0,.36.34v2.66c0,.88,0,.22,0,.37.27-.29.54-.59.81-.85.73-.79,1.49-1.57,2.24-2.35a.35.35,0,0,1,.32-.14H148Z"/><path class="cls-1" d="M176.51,68.45c-.73.78-1.39,1.51-2.08,2.22a9.46,9.46,0,0,1-.75.8c-.17.17-.15.3,0,.47q1.42,1.78,2.85,3.61s.08.1.17.22c-.39,0-.73,0-1.07,0a1.41,1.41,0,0,1-1.46-.68c-.49-.71-1.08-1.35-1.62-2-.12-.17-.19-.17-.34,0-.78.8-.8.8-.8,1.93s0,.8-.78.78c-.3,0-.66.12-.83,0s-.05-.56-.05-.83V68.76c0-.24.05-.36.31-.34h1c.26,0,.36,0,.36.34v2.66c0,.88,0,.22,0,.37.27-.29.54-.59.81-.85.73-.79,1.48-1.57,2.24-2.35a.35.35,0,0,1,.32-.14h1.66Z"/><path class="cls-1" d="M158.79,75.79a1.19,1.19,0,0,1-1.2-.8,1.11,1.11,0,0,0-1.15-.78h-2.22a.4.4,0,0,0-.46.31c-.12.35-.27.69-.42,1-.07.17-.14.27-.36.24h-1.25c-.22,0-.22-.05-.14-.22,1-2.29,2-4.59,3.07-6.9.07-.18.15-.25.34-.22h1.22a.29.29,0,0,1,.32.19c1,2.3,2.05,4.59,3.08,6.91.09.22,0,.27-.17.24h-.66Zm-3.23-5.66c-.36.9-.7,1.76-1.07,2.59-.07.17,0,.22.15.22h1.8c.17,0,.25,0,.17-.22l-1.05-2.57h0Z"/><path class="cls-1" d="M168.58,75.79h-1.64c-.17,0-.2-.12-.24-.22-.15-.36-.32-.73-.44-1.12a.33.33,0,0,0-.37-.24h-2.83a.38.38,0,0,0-.42.29c-.12.37-.31.73-.46,1.12-.05.12-.12.2-.27.17h-1.24c-.27,0-.25-.09-.17-.29.51-1.12,1-2.25,1.51-3.39s1-2.27,1.51-3.42a.32.32,0,0,1,.39-.24h1.17c.4,0,.22,0,.3.14,1.05,2.37,2.12,4.76,3.22,7.2h0Zm-4.15-5.66c-.42,1-.79,1.86-1.15,2.78h2.29c-.36-.9-.73-1.78-1.14-2.78Z"/><path class="cls-1" d="M101.23,68.32a5.2,5.2,0,0,1,2.27.52c.17.07.24.17.14.36s-.19.76-.41.93-.59-.17-.9-.27a3.54,3.54,0,0,0-1.88-.07.77.77,0,0,0-.64.68c0,.29.17.54.61.66.64.2,1.27.34,1.91.54a4.6,4.6,0,0,1,.56.19,1.79,1.79,0,0,1,1.19,1.69,2,2,0,0,1-.92,1.78,3.76,3.76,0,0,1-2.22.56,5.67,5.67,0,0,1-2.4-.51c-.12,0-.24-.12-.34-.17s-.19-.2-.12-.39.24-.54.34-.81.15-.19.34-.1a4.07,4.07,0,0,0,2.88.54.7.7,0,0,0,.39-.15.61.61,0,0,0,0-1.07,2.92,2.92,0,0,0-.9-.32,12,12,0,0,1-1.66-.46,1.82,1.82,0,0,1-1.34-1.56,2,2,0,0,1,.93-2,3.83,3.83,0,0,1,2.22-.54h0Z"/><path class="cls-1" d="M93.86,68.45h2.9c.25,0,.32.07.29.29v.78c0,.27-.09.34-.34.32H95.1c-.29,0-.39.07-.39.39v5.2c0,.29,0,.39-.37.36h-1c-.27,0-.37-.05-.37-.34V70.28c0-1.74-.14-.44-.41-.44H90.93c-.2,0-.3,0-.27-.27v-.88c0-.22.07-.24.27-.24h2.93Z"/><path class="cls-1" d="M107.53,72.13V75.5c0,.22,0,.32-.3.29h-1.17c-.39,0-.24-.05-.24-.24V68.67c0-.18.05-.25.22-.22h1.14c.27,0,.37,0,.37.34v3.34h0Z"/><path class="cls-1" d="M126.18,72.13v3.35c0,.26-.08.34-.35.31h-1.09c-.2,0-.27-.05-.27-.27V68.67c0-.2.07-.25.27-.25h1.17c.24,0,.29.1.29.32v3.37h0Z"/><path class="cls-1" d="M111.53,72.13v3.35c0,.26-.07.34-.34.31h-1.1c-.2,0-.24-.05-.24-.24V68.69c0-.2.07-.27.26-.27h1.15c.22,0,.29,0,.27.27v3.42h0Z"/><path class="cls-1" d="M149.66,71.5c-.39,0-.54-.17-.44-.52.05-.19.1-.39.14-.58s.2-.56-.17-.83a1,1,0,0,1-.07-1.17,1,1,0,0,1,1.2-.42.91.91,0,0,1,.66.91,2.94,2.94,0,0,1-.25,1c-.12.37-.32.71-.41,1.1s-.3.58-.66.46h0Z"/><path class="cls-1" d="M157.71,66.42c-.56.46-1.14.93-1.73,1.37a.9.9,0,0,1-.49,0h-.85c.31-.35.61-.61.85-.93a1.27,1.27,0,0,1,1.3-.56,5.41,5.41,0,0,0,.9,0v.07h0Z"/><path class="cls-1" d="M105.72,67.81c.44-.49.88-.93,1.29-1.37a.3.3,0,0,1,.25-.09h1.61a8.15,8.15,0,0,0-1,.83,2.17,2.17,0,0,1-2.13.63h0Z"/><path class="cls-1" d="M43.35,11.94c.32-.17.66-.32,1-.49a19,19,0,0,1,4.37-1.83,5.85,5.85,0,0,1,2.91,0,3.13,3.13,0,0,1,2.29,2.56A3.75,3.75,0,0,1,53.41,15a2.36,2.36,0,0,1-3.69.19,1.15,1.15,0,0,1,.52-1.88,1,1,0,0,1,1,.27c.27.22.44.17.56-.14a1.24,1.24,0,0,0-1.2-1.71,6.75,6.75,0,0,0-3.46.85c-1.3.64-2.59,1.32-3.89,1.95a12.19,12.19,0,0,1-3.58,1.2,9.92,9.92,0,0,1-2.93-.07c-2.37-.37-4.67-1.13-7-1.69a20.81,20.81,0,0,0-4.47-.68A5.07,5.07,0,0,0,20,17.53a7.26,7.26,0,0,0,.05,2.9,4.08,4.08,0,0,0,3.54,3.27,4.1,4.1,0,0,0,4.88-3.29,3,3,0,0,0-.08-1.49,1.65,1.65,0,0,0-1.07-1.15,3.69,3.69,0,0,0-1.85-.29,1.91,1.91,0,0,0-1.54,1.41,1.9,1.9,0,0,1-.2.74,1,1,0,0,1-1.19.46,1.12,1.12,0,0,1-.76-1,3.83,3.83,0,0,1,1.46-3,4.69,4.69,0,0,1,2.37-.93,5.68,5.68,0,0,1,2.76.59,29.32,29.32,0,0,0,5.76,2.22,18.78,18.78,0,0,0,5,.32,26,26,0,0,0,7.78-1.93,1.1,1.1,0,0,1,1.52.49,1.17,1.17,0,0,1-.64,1.56c-.61.25-1.22.49-1.85.71-.17.05-.27.1-.22.34a1.12,1.12,0,0,1-.83,1.25,1,1,0,0,1-1.22-.74c0-.12-.08-.17-.2-.12a.87.87,0,0,0-.22.05c-.46.07-.85.15-.88.78,0,.42-.51.71-.92.73a1.06,1.06,0,0,1-1-.73c0-.19-.12-.24-.31-.19h-.27a1.46,1.46,0,0,0-.56.07c-.2.07-.1.32-.17.46a1.16,1.16,0,0,1-1,.74,1,1,0,0,1-1-.86c0-.27-.14-.39-.41-.34h-.2c-.31-.07-.56-.07-.7.34a1,1,0,0,1-1,.54,1.05,1.05,0,0,1-.93-.93c0-.27-.15-.34-.37-.39a17.56,17.56,0,0,1-2.37-.73c-.22-.1-.26,0-.24.19a4.88,4.88,0,0,1-.27,2c-.07.22,0,.29.17.36a16.72,16.72,0,0,0,4.32,1.42,14.29,14.29,0,0,0,7.5-.66A9.64,9.64,0,0,1,46.28,22a3.46,3.46,0,0,1,3.39,3.25,1,1,0,0,1-.87,1.05,1.09,1.09,0,0,1-1.18-.76v-.09c0-1.2-1-1.44-1.92-1.4a8.5,8.5,0,0,0-2.57.59,15,15,0,0,1-4.88.95,17.27,17.27,0,0,1-8.42-1.88c-.17-.07-.27-.1-.42.08a6.22,6.22,0,0,1-7.47,1.73,2,2,0,0,0-1.14-.22c-.64.05-1.3,0-2,0A1.5,1.5,0,0,0,17.18,27V66.52a1.55,1.55,0,0,0,1.74,1.73H34.69a1.62,1.62,0,0,0,1.53-.73,1.35,1.35,0,0,0,.22-.76V28.85a1.12,1.12,0,0,1,.39-1,.9.9,0,0,1,1-.1,1,1,0,0,1,.56.85v1.52c0,.19.05.29.27.29h12.5c.22,0,.29-.07.27-.29V28.8a1,1,0,0,1,1-1.12c.59,0,1,.44,1,1.12,0,6-.05,11.92,0,17.87.09,10.82,0,21.63,0,32.44A6,6,0,0,1,48.72,85a5.58,5.58,0,0,1-1.46.15H6.1a6,6,0,0,1-6-4.71A5,5,0,0,1,0,79.24V14.08A5.9,5.9,0,0,1,5.1,8.2a8.13,8.13,0,0,1,1.1-.07H17c.29,0,.39-.05.37-.39a4.67,4.67,0,0,1,6-4.52,5.39,5.39,0,0,1,1.42.61,8,8,0,0,1,1.19,1A4.64,4.64,0,0,1,27,3.44a3.31,3.31,0,0,1,4.83.44A2.53,2.53,0,0,1,32,6.44a1,1,0,0,1-1.29.47,1.14,1.14,0,0,1-.61-1.42c.12-.34,0-.46-.27-.58a1.51,1.51,0,0,0-1.88,1,1.46,1.46,0,0,0,.93,1.76,7.18,7.18,0,0,0,3.68-.1,11.08,11.08,0,0,0,2.59-1A7.52,7.52,0,0,1,39,5.61,4.9,4.9,0,0,1,43.35,9a6.32,6.32,0,0,1,.17,2.8.1.1,0,0,0,0,.08h0v-.08h0ZM1.83,47.79V79c0,.29,0,.61,0,.9a4,4,0,0,0,4,3.27H47c13.72,0,.54,0,.8,0a4,4,0,0,0,3.3-3.93q0-17.25,0-34.52c0-.27-.07-.32-.34-.32H38.42c-.24,0-.32,0-.32.32,0,.85,0,1.73,0,2.59V66.79c0,6.51,0,.36,0,.53a3.53,3.53,0,0,1-3.64,3h-16a2.77,2.77,0,0,1-.9-.1,3.51,3.51,0,0,1-2.76-3.49V28c0-.26-.05-.36-.34-.36H12.18a17.21,17.21,0,0,1-2.27-.05,2.42,2.42,0,0,1-2.07-2,14,14,0,0,1,0-3.54c0-.22,0-.24-.22-.24H6.4a2.55,2.55,0,0,1-2.64-2.69V17a2.73,2.73,0,0,1,.07-.75c.08-.22,0-.27-.19-.27A4.25,4.25,0,0,1,2,15.77c-.15-.07-.2,0-.2.15v31.9h0ZM16,12.23v1.15a.85.85,0,0,0,.88.9H18.7c.61,0,.24,0,.32-.17a5.94,5.94,0,0,1,1.19-1.32A7.36,7.36,0,0,1,24.8,11a22.44,22.44,0,0,1,5.59.78c1.88.44,3.74,1,5.61,1.42a5.56,5.56,0,0,0,3.81-.35,2.16,2.16,0,0,0,1.42-2.41,2.59,2.59,0,0,0-1.88-2.37A4.5,4.5,0,0,0,36,8.54a13.47,13.47,0,0,1-5.41,1.64,6.38,6.38,0,0,1-3.08-.46c-.27-.13-.32-.08-.34.19a.82.82,0,1,1-1.59-.29,4,4,0,0,0-1.39-4,3.28,3.28,0,0,0-4.66.12,2.52,2.52,0,0,0,.12,3.71,1.82,1.82,0,0,0,2.71-.32,1.26,1.26,0,0,0-.59-1.9,2,2,0,0,1-.31-.13.77.77,0,0,1-.35-1A.8.8,0,0,1,22,5.59a2.55,2.55,0,0,1,1.17.59A2.88,2.88,0,0,1,24,9.3a3.3,3.3,0,0,1-2.73,2.2,3.75,3.75,0,0,1-3.06-1.15.47.47,0,0,0-.39-.2c-.34.08-.7,0-1.07,0a.82.82,0,0,0-.83.86v1.15h0v0ZM44.69,40.4H38.52c-.32,0-.39.1-.37.39v1.05c0,.29.08.34.37.34H50.89c.25,0,.32-.07.32-.32v-1.1c0-.29-.1-.34-.36-.34H44.69Zm0-6h6.22c.24,0,.34-.05.32-.32v-1.1c0-.27,0-.37-.34-.37H38.47c-.24,0-.34,0-.32.32V34c0,.3.05.4.37.4h6.13Zm0,2.14H38.45c-.25,0-.35,0-.32.32v1.07c0,.3,0,.4.36.4H50.82c.27,0,.39-.05.37-.35V36.86c0-.27,0-.37-.34-.37ZM18.14,16H17a2.51,2.51,0,0,1-2.54-1.9c0-.12,0-.22-.22-.22a21.2,21.2,0,0,0-2.52.05.78.78,0,0,0-.75.85c0,.74,0,1.47,0,2.2a.94.94,0,0,0,1,1h3.29c.76,0,1.49,0,2.25,0,.14,0,.29,0,.32-.2A8.93,8.93,0,0,1,18.16,16h0ZM5.47,18v1.22a.84.84,0,0,0,.85.88H7c1.17,0,2.34,0,3.52,0,.61,0,1.24,0,1.85,0s.27-.24.29-.39-.17-.12-.27-.12h-.73a2.52,2.52,0,0,1-2.44-2.2c-.05-.39,0-.8,0-1.19,0-.15,0-.22-.2-.22H6.37c-.61,0-.88.36-.88,1v1h0Zm3.88-4.2H8.62A2.52,2.52,0,0,1,6.27,12a5.51,5.51,0,0,1-.07-1.52c0-.19,0-.27-.24-.27A3.91,3.91,0,0,0,2.1,12.77a1.11,1.11,0,0,0,1,1.51c1.91,0,3.84,0,5.74.05q.48,0,.51-.51h0Zm9.57,9.4a7.47,7.47,0,0,1-.81-1.66,10.23,10.23,0,0,1-.36-1.73c0-.1,0-.17-.15-.17a20.06,20.06,0,0,0-2.69.07.78.78,0,0,0-.63.76v2.46a.7.7,0,0,0,.54.76,3.26,3.26,0,0,0,1.78,0,6.49,6.49,0,0,1,2.32-.49ZM12.55,25.9h2.12c.27,0,.39-.12.42-.34s-.22-.15-.32-.17a2.56,2.56,0,0,1-2.13-2,12,12,0,0,1,0-1.34c0-.12,0-.22-.2-.22h-2c-.61,0-.9.36-.9,1V24.9a.88.88,0,0,0,1,1ZM11.16,10.18H8.67c-.83,0-.88,0-.86.88,0,.73.32,1.1,1.08,1.1h5.17c.22,0,.27-.08.27-.3a6.66,6.66,0,0,1,.05-1.41c0-.25,0-.32-.25-.32h-3Z"/><path class="cls-1" d="M40.64,3.32c-.17-.63-.31-1.22-.49-1.83a.64.64,0,0,1,.4-.83c.34-.1.63.12.75.54.2.75.42,1.53.61,2.32A.66.66,0,0,0,42.3,4a.77.77,0,0,1,.12,1.3.71.71,0,0,1-.8,0,7.81,7.81,0,0,0-3.49-.78,9.92,9.92,0,0,0-4.22,1l-.37.17a.71.71,0,0,1-.83-.24.77.77,0,0,1,.07-1A2.8,2.8,0,0,1,33.71,4c.2-.07.22-.17.17-.39-.19-.71-.39-1.44-.58-2.17a.61.61,0,0,1,.43-.81.6.6,0,0,1,.71.51c.2.69.37,1.37.56,2.05,0,.2.1.3.37.22.61-.17.61-.14.46-.75s-.31-1.2-.46-1.79A.62.62,0,0,1,35.79,0c.34-.07.61.13.73.52.19.73.41,1.46.58,2.22,0,.22.13.32.37.29.81,0,.81,0,.59-.8L37.69.85A.63.63,0,0,1,38.08,0c.34-.09.63.1.76.54.19.76.41,1.54.61,2.32,0,.2.12.32.36.34a3.55,3.55,0,0,1,.78.17h0Z"/><path class="cls-1" d="M32.78,61.29h-2a.84.84,0,1,1-.07-1.68h4a.83.83,0,0,1,.86.88c0,.49-.34.78-.9.78h-2Z"/><path class="cls-1" d="M20.43,61.29H18.48a.78.78,0,0,1-.88-.8.83.83,0,0,1,.85-.88h4a.89.89,0,0,1,.91.85.85.85,0,0,1-.93.81H20.46Z"/><path class="cls-1" d="M20.46,39.28h-2a.81.81,0,0,1-.92-.83.85.85,0,0,1,.92-.86h3.86a.86.86,0,0,1,.95.86.85.85,0,0,1-.95.8H20.48Z"/><path class="cls-1" d="M33.54,50.63h1.2a.84.84,0,1,1,.07,1.68,17.94,17.94,0,0,1-2.54,0,.84.84,0,0,1-.76-.8.87.87,0,0,1,.71-.83,8.24,8.24,0,0,1,1.3,0h0Z"/><path class="cls-1" d="M19.55,50.63H20.8a.84.84,0,0,1,.83.56.79.79,0,0,1-.2.85.83.83,0,0,1-.46.25,19.68,19.68,0,0,1-2.66,0,.78.78,0,0,1-.73-.78.79.79,0,0,1,.68-.86,11.08,11.08,0,0,1,1.27,0h0Z"/><path class="cls-1" d="M19.63,55.14H20.8a.85.85,0,0,1,.88.81.89.89,0,0,1-.83.88H18.43A.8.8,0,0,1,17.6,56c0-.49.34-.78.9-.78h1.15Z"/><path class="cls-1" d="M19.65,46.35h1.22a.85.85,0,0,1,.83.79A.89.89,0,0,1,21,48a2.45,2.45,0,0,1-.61,0H18.53a.84.84,0,0,1-.93-.86c0-.51.34-.83.93-.83h1.12Z"/><path class="cls-1" d="M19.63,65.49H18.41a.78.78,0,0,1-.83-.73.8.8,0,0,1,.68-.93,4.61,4.61,0,0,1,.54,0h1.92a.86.86,0,0,1,1,.85.88.88,0,0,1-1,.83Z"/><path class="cls-1" d="M19.63,43.52H18.41a.78.78,0,0,1-.83-.73.8.8,0,0,1,.68-.93,4.61,4.61,0,0,1,.54,0h1.92a.87.87,0,0,1,1,.85.88.88,0,0,1-1,.83Z"/><path class="cls-1" d="M19.63,33.12h1.22A.83.83,0,0,1,21,34.78a18.17,18.17,0,0,1-2.66,0,.23.23,0,0,1-.12,0,.84.84,0,0,1,.17-1.64h1.27Z"/><path class="cls-1" d="M33.59,56.83H32.44a.85.85,0,1,1,0-1.69h2.3a.8.8,0,0,1,.9.83.83.83,0,0,1-.88.86Z"/><path class="cls-1" d="M19.65,30.29H18.43a.83.83,0,0,1-.12-1.66,19.68,19.68,0,0,1,2.66,0,.83.83,0,0,1,.73.86.85.85,0,0,1-.85.78H19.67Z"/><path class="cls-1" d="M33.59,65.49H32.42a.82.82,0,1,1-.1-1.63c.85,0,1.73,0,2.59,0a.76.76,0,0,1,.73.9.83.83,0,0,1-.86.76H33.61Z"/><path class="cls-1" d="M33.61,46.35h1.1a.8.8,0,0,1,.9.81.86.86,0,0,1-.9.88H33a2.85,2.85,0,0,1-.8,0,.83.83,0,0,1,.12-1.64h1.34Z"/><path class="cls-1" d="M43.35,11.94h0s0,0,0,0h0Z"/><path class="cls-1" d="M39.84,59.24c0-1.56,0-3.15,0-4.73a3.46,3.46,0,0,1,1.8-3.13A2.91,2.91,0,0,1,43.13,51h6.23a1.1,1.1,0,0,1,1.14.71,1.08,1.08,0,0,1-.24,1.17,1.06,1.06,0,0,1-.85.29H43.18a1.16,1.16,0,0,0-1.27,1.22V64a1.12,1.12,0,0,0,1.25,1.22h6.17a1.08,1.08,0,0,1,1.22,1.13,1,1,0,0,1-1,1.07c-2.22,0-4.47,0-6.69,0a3.17,3.17,0,0,1-3-2.85,5.43,5.43,0,0,1,0-.91V59.17h0Z"/><path class="cls-1" d="M13.6,37.3c0,1.59,0,3.17,0,4.76A3.47,3.47,0,0,1,12,45a3,3,0,0,1-1.57.44H4.08a1.1,1.1,0,1,1,0-2.2h6.07c1,0,1.42-.44,1.44-1.44v-9a1.78,1.78,0,0,0-.17-.88,1,1,0,0,0-1.05-.66H4.05a1,1,0,0,1-1-.64,1.12,1.12,0,0,1,.15-1.19,1,1,0,0,1,.9-.37h6.32A3.27,3.27,0,0,1,13.57,32a10.44,10.44,0,0,1,0,1.59v3.76h0Z"/><path class="cls-1" d="M13.6,59.27V64A3.5,3.5,0,0,1,12,67a2.86,2.86,0,0,1-1.59.46H4A1.1,1.1,0,1,1,4,65.25h6.18a1.25,1.25,0,0,0,1.42-1.39V54.92a1.9,1.9,0,0,0-.13-.85,1.05,1.05,0,0,0-1.09-.76H4a1,1,0,0,1-1-.61,1.11,1.11,0,0,1,.14-1.19,1,1,0,0,1,.93-.4h6.32A3.28,3.28,0,0,1,13.55,54a5.32,5.32,0,0,1,0,.9v4.47h0Z"/><path class="cls-1" d="M26.44,73.43H22a1.62,1.62,0,0,0-.81.14,1.12,1.12,0,0,0-.66,1.05V81a1,1,0,0,1-1.07,1.12A1.08,1.08,0,0,1,18.33,81V74.55a3.26,3.26,0,0,1,2.91-3.13,9.35,9.35,0,0,1,1.41,0H31a4,4,0,0,1,2.32.66,3,3,0,0,1,1.34,2.52v6.52a1.08,1.08,0,0,1-.73,1,1.1,1.1,0,0,1-1.27-.41,1.2,1.2,0,0,1-.14-.64v-6.3a1.17,1.17,0,0,0-1.25-1.27H26.46Z"/><path class="cls-1" d="M9.94,37.18a9.8,9.8,0,0,1-.08,1.88,3,3,0,0,1-3,2.36,4.38,4.38,0,0,1-2.54-.48A2.85,2.85,0,0,1,3,38.64c0-.93,0-1.85,0-2.81a2.88,2.88,0,0,1,2.61-2.75,12.18,12.18,0,0,1,1.91,0,3,3,0,0,1,2.37,2.41c.07.56,0,1.15,0,1.69Zm-5.47,0v1.25a1.4,1.4,0,0,0,1.36,1.41h1.1A1.42,1.42,0,0,0,8.42,38.4V36a1.42,1.42,0,0,0-1.34-1.46,3.83,3.83,0,0,0-1.07,0,1.49,1.49,0,0,0-1.57,1.66v1h0Z"/><path class="cls-1" d="M49.94,59.24a11.92,11.92,0,0,1,0,1.69,2.87,2.87,0,0,1-2.88,2.51,8.19,8.19,0,0,1-1.71-.07,2.94,2.94,0,0,1-2.29-2.71,18.87,18.87,0,0,1,0-3.1,2.88,2.88,0,0,1,2.76-2.47h1.34A2.92,2.92,0,0,1,50,57.93v1.31h0Zm-1.46,0V58a1.45,1.45,0,0,0-1.37-1.39H46a1.47,1.47,0,0,0-1.46,1.47v2.41a1.46,1.46,0,0,0,1.29,1.47,4.82,4.82,0,0,0,1.2,0,1.46,1.46,0,0,0,1.46-1.61V59.24h0Z"/><path class="cls-1" d="M9.94,59.19a7.91,7.91,0,0,1-.13,2,2.91,2.91,0,0,1-2.76,2.19H5.74A2.91,2.91,0,0,1,3,60.59V58.05a2.93,2.93,0,0,1,2.85-3c.52,0,1,0,1.54,0a3,3,0,0,1,2.52,2.47c.07.56,0,1.12,0,1.66h0Zm-5.47,0v1.27a1.42,1.42,0,0,0,1.41,1.42h1a1.49,1.49,0,0,0,1.52-1.47V58a1.47,1.47,0,0,0-1.22-1.42,4.83,4.83,0,0,0-1.42,0A1.44,1.44,0,0,0,4.47,58v1.17Z"/><path class="cls-1" d="M26.29,81.82a7.83,7.83,0,0,1-1.93-.12,2.85,2.85,0,0,1-2-2.76,7.87,7.87,0,0,1,0-1.68,2.88,2.88,0,0,1,2.79-2.37,21.74,21.74,0,0,1,3,0,2.93,2.93,0,0,1,2.47,2.59,9.37,9.37,0,0,1-.05,2,2.94,2.94,0,0,1-2.76,2.34H26.29Zm.17-1.49h1.25a1.41,1.41,0,0,0,1.44-1.46V77.82A1.41,1.41,0,0,0,28,76.4a13,13,0,0,0-2.86,0,1.37,1.37,0,0,0-1.29,1.54v1a1.42,1.42,0,0,0,1.39,1.41Z"/><path class="cls-1" d="M44.65,46.16H48.5a1,1,0,0,1,1,.81A1.08,1.08,0,0,1,49,48.11a1.28,1.28,0,0,1-.61.12H40.94a1.11,1.11,0,0,1-1.08-.61,1,1,0,0,1,.1-1,1.06,1.06,0,0,1,.93-.41h3.76Z"/><path class="cls-1" d="M50.65,79.5a1.35,1.35,0,0,1-.39.93q-.55.58-1.17,1.17a1.17,1.17,0,0,1-1.51.17,2.44,2.44,0,0,1-1.15-1.39.86.86,0,0,1,.39-1A2.87,2.87,0,0,0,48,78.16a.92.92,0,0,1,.83-.46,2.09,2.09,0,0,1,1.81,1.8h0Z"/><path class="cls-1" d="M5.49,77a1.12,1.12,0,0,1,.88.49,6.31,6.31,0,0,0,1.34,1.44.57.57,0,0,1,.13.88,13,13,0,0,1-.91,1.08A1.1,1.1,0,0,1,5.57,81a4,4,0,0,1-1.71-1.93,1.16,1.16,0,0,1,.31-1.44c.61-.51.86-.66,1.3-.66h0Z"/><path class="cls-1" d="M9,78a.73.73,0,0,1-.39-.15,4.31,4.31,0,0,1-1.54-2,.68.68,0,0,1,.22-.83c.34-.27.69-.56,1-.83a.66.66,0,0,1,1.08.15,5.48,5.48,0,0,0,1.34,1.54c.17.12.2.26,0,.41-.42.46-.81,1-1.22,1.44a.63.63,0,0,1-.51.24h0Z"/><path class="cls-1" d="M47.33,76.55a1.28,1.28,0,0,1-.34.78c-.27.27-.54.56-.83.83a1.12,1.12,0,0,1-1.78.07,2,2,0,0,1-.52-.63.84.84,0,0,1,.35-1.29,2.06,2.06,0,0,0,.8-.83A.89.89,0,0,1,46.06,75a1.87,1.87,0,0,1,1.3,1.56h0Z"/><path class="cls-1" d="M13.47,79.6h3.74c.22,0,.39.05.46.29a.33.33,0,0,1-.27.42,1.61,1.61,0,0,1-.31,0H9.67c-.25,0-.44-.1-.44-.37s.17-.36.44-.36H13.5Z"/><path class="cls-1" d="M39.59,79.6H43.3c.37,0,.54.12.52.37s-.25.36-.54.36h-7.4c-.22,0-.44,0-.51-.27s.1-.46.44-.46Z"/><path class="cls-1" d="M43.62,73.16a.84.84,0,0,1-.22.58c-.29.32-.61.64-.93.93a.77.77,0,0,1-.9.12,1.77,1.77,0,0,1-.85-.9A.63.63,0,0,1,41,73a1.83,1.83,0,0,0,.73-.7.69.69,0,0,1,.73-.37,1.42,1.42,0,0,1,1.15,1.22h0Z"/><path class="cls-1" d="M11.79,74.79a.6.6,0,0,1-.49-.22,4.87,4.87,0,0,1-.93-1.34.73.73,0,0,1,.15-.81c.24-.22.49-.43.76-.65a.48.48,0,0,1,.75.14A8.94,8.94,0,0,0,12.84,73a.6.6,0,0,1,.07.83,7.21,7.21,0,0,1-.68.8.55.55,0,0,1-.44.15h0Z"/><path class="cls-1" d="M5.3,72.42v3.2c0,.37-.12.54-.37.51s-.37-.26-.37-.53V69a.36.36,0,0,1,.4-.37c.24,0,.34.15.34.39V72.4h0Z"/><path class="cls-1" d="M48.48,72.4v3.25c0,.27,0,.48-.37.48s-.39-.21-.39-.48V69.08c0-.24.1-.44.37-.46s.36.17.36.44v3.32h0Z"/><path class="cls-1" d="M14.13,72a.73.73,0,0,1-.56-.26,3.39,3.39,0,0,1-.44-.71.68.68,0,0,1,.12-.88c.3-.27.64-.54,1-.81a.44.44,0,0,1,.63,0c.2.22.42.42.64.64a.45.45,0,0,1,0,.7l-.87,1a.65.65,0,0,1-.54.22h0Z"/><path class="cls-1" d="M3.66,25V22.63c0-.25.1-.44.39-.44s.37.19.37.46v4.84c0,.24-.1.41-.34.44s-.39-.18-.39-.44v-2.4h0Z"/><path class="cls-1" d="M15.06,76.35H12.94c-.27,0-.49,0-.49-.36s.24-.37.49-.37h4.24c.27,0,.49.08.49.39s-.22.37-.49.37H15.06Z"/><path class="cls-1" d="M38,76.35H35.83c-.24,0-.46,0-.46-.34s.2-.39.46-.39h4.25c.27,0,.47.08.49.39s-.22.37-.49.37H38Z"/><path class="cls-1" d="M39.72,72.23c-.44,0-1-.61-1-1a.53.53,0,0,1,.3-.42,1.46,1.46,0,0,0,.51-.51.53.53,0,0,1,.78-.19.83.83,0,0,1,.27,1.48l-.44.44a.72.72,0,0,1-.41.2Z"/><path class="cls-1" d="M8.47,70.74V69.13c0-.27.1-.46.39-.46s.37.22.37.46v3.32c0,.24-.1.49-.39.46s-.37-.22-.37-.49V70.76h0Z"/><path class="cls-1" d="M43.82,70.76V69.15c0-.26,0-.48.36-.48s.37.19.37.46v3.29c0,.27-.1.47-.37.47s-.39-.2-.36-.49V70.76Z"/><path class="cls-1" d="M6.66,26.12V24.85c0-.27.1-.46.39-.46s.37.22.37.46v2.61c0,.25-.1.44-.39.44s-.39-.22-.39-.46V26.12h0Z"/><path class="cls-1" d="M12.67,48.28v1.15c0,.24-.1.42-.37.42s-.36-.18-.36-.42V47.09a.35.35,0,0,1,.39-.39c.24,0,.34.17.34.41v1.17Z"/><path class="cls-1" d="M4.05,48.26V47.11c0-.24.1-.41.37-.41s.36.14.36.41v2.32c0,.24-.12.42-.36.42s-.37-.15-.37-.42V48.26Z"/><path class="cls-1" d="M8.74,48.28v1.15c0,.24-.12.42-.37.42S8,49.67,8,49.43V47.11c0-.24.09-.41.36-.41s.37.17.37.41v1.17Z"/><path class="cls-1" d="M16.67,72.42h-.56a.41.41,0,0,1-.44-.36c0-.25.17-.37.42-.39h1.17a.41.41,0,0,1,.44.36.39.39,0,0,1-.44.39Z"/><path class="cls-1" d="M36.35,72.42h-.61a.35.35,0,0,1-.39-.36.36.36,0,0,1,.36-.39H37a.35.35,0,0,1,.39.36c0,.25-.17.37-.42.39h-.58Z"/><path class="cls-1" d="M36.05,12.06a4.5,4.5,0,0,1-1.44-.17,1.35,1.35,0,0,1-.48-.27.58.58,0,0,1-.1-.88,1,1,0,0,1,.22-.24A5.31,5.31,0,0,1,38,9.67c.66.07,1,.41,1,.88a1.26,1.26,0,0,1-.83,1.22,5.88,5.88,0,0,1-2.12.31h0Z"/></g></g></svg>