<svg xmlns="http://www.w3.org/2000/svg" viewBox="0 0 774.16 66.61"><defs><style>.cls-1{fill:#fff;}</style></defs><g id="Layer_2" data-name="Layer 2"><g id="Pantallas_3" data-name="Pantallas 3"><g id="logos"><path class="cls-1" d="M226.55,55.8,238.17,33h32l11.1,22.57-12.62.14-4.67-16h-6.43l4.29,16.14c-5.16-.42-10.42.25-15.64,0l4.29-16.14H244L239.29,55.8Z"/><path class="cls-1" d="M239.67,29.31,246,16.83c.06-.54,0-.34-.38-.38-2-.29-2.89.52-4.33,1.74l-1.07-.91,3.35-6.9,14.67-.24.85.42,9.36,18.65c.06.77-.28.12-.38.12H239.67Z"/><path class="cls-1" d="M38.59,39.4l-7,16.08c-.08.26-.81.57-1,.57H26L31.27,44c-1.89,0-3.79,0-5.67,0-.7,0-1.47-.6-1.86.14L18.28,55.8H13.11L18.16,44H11L5.42,55.8H0L7.69,39.4Z"/><path class="cls-1" d="M135.22,44c.74-1,1.51-4.31,2.65-4.53,6.39.14,12.8-.22,19.19,0a8.92,8.92,0,0,0,1.8.08c.32,0,.44-.18.34.31l-7.1,16c-5,.12-10,0-15,0-.65,0-1.28.25-2,.27-1.77,0-3.59-.35-5.19,0l4.61-10.28,16.08-.16L151.86,44H135.2Zm13.87,5.79h-11l-.63,1.76h11Z"/><path class="cls-1" d="M213.93,39.4,206.5,55.8H184.93l4.53-10.23c5.42-.28,10.88-.12,16.24.06l.91-2-16.39.26,1.56-4.24a3.2,3.2,0,0,1,.57-.31h21.56Zm-21.7,12.1h11.1l.5-2a12.54,12.54,0,0,0-2.89.25c-2.16.08-5.68-.35-7.58,0a1.66,1.66,0,0,0-1.15,1.76h0Z"/><path class="cls-1" d="M66.09,39.4,61.38,49.45l-15.61.14L44.65,51.5H60.53c-.47,1-1.27,4.08-2.39,4.3l-20.81.25L44.76,39.4ZM58.53,44H48.07l-.5,1.76,10.67-.3Z"/><polygon class="cls-1" points="186.93 39.4 179.49 55.8 174.33 55.8 179.38 43.95 168.4 43.95 162.94 55.76 157.42 56.05 164.48 39.85 165.11 39.4 186.93 39.4"/><path class="cls-1" d="M131.45,39.4,129.53,44l-15-.16L111,51.5h14.88c-.3,1.07-1.33,4.32-2.4,4.53H104.07l-.28-.51a127.4,127.4,0,0,1,7.34-16.12Z"/><path class="cls-1" d="M62.82,56.05l.38-.75,9.71-7.69-5-7.82c0-.63,5.06,0,5.54,0l3.93,6c.78-.46,1.53,0,2.18-.08,2.73-.3,5.68-4.27,8-5.6,2.14-1.19,5.62-.4,8-.65l-.37.75-9.72,7.69,4.79,8H85.14c-2.71-2.58-2.93-8.09-7.87-5.6-1.94,1-6.39,5.85-8.27,5.85H62.82Z"/><polygon class="cls-1" points="105.2 39.4 98.13 55.8 92.6 55.8 100.03 39.4 105.2 39.4"/><path class="cls-1" d="M448.07,43.36v3.73a.91.91,0,0,1-.95,1h-2.43c-.59,0-.84-.36-.67-.94A12,12,0,0,0,444.6,43c0-1.58,0-3.17,0-4.75a11.93,11.93,0,0,0-.58-4.11.26.26,0,0,0,0-.11c-.14-.5.09-.88.63-.88,1.12,0,2.27,0,3.41,0a1.33,1.33,0,0,1,1.24.88c1.05,2.29,2.08,4.58,3.13,6.87.08.19.16.44.42.44s.35-.25.44-.46c1.05-2.29,2.08-4.58,3.13-6.87a1.4,1.4,0,0,1,1.32-.88H461a.63.63,0,0,1,.65.88,14.18,14.18,0,0,0-.55,2.65c0,.21,0,.42,0,.63,0,1.95,0,3.9,0,5.84a11.18,11.18,0,0,0,.57,3.9,1.35,1.35,0,0,1,.08.4.58.58,0,0,1-.5.59l-.34,0H457.8a.72.72,0,0,1-.76-1,11,11,0,0,0,.57-4c0-1.16,0-2.33,0-3.49,0-.13.06-.36-.09-.4s-.19.17-.25.3c-.88,2.05-1.77,4.07-2.65,6.11a1.5,1.5,0,0,1-1.53,1h-.63a1.36,1.36,0,0,1-1.22-.86c-.9-2-1.79-4.1-2.69-6.14-.06-.15-.12-.42-.29-.38s-.11.3-.11.47v3.73h0Z"/><path class="cls-1" d="M493.5,23.65c0,.74,0,1.64.05,2.54a14.23,14.23,0,0,0,.5,2.1c.17.63-.08,1-.74,1H490c-.61,0-.9-.35-.69-.94a12.3,12.3,0,0,0,.59-4.18q-.06-2.18,0-4.35a12.39,12.39,0,0,0-.61-4.52.64.64,0,0,1,.63-.92c.9,0,1.79-.06,2.69,0a1.71,1.71,0,0,1,1.28.73c1.85,2.46,3.72,4.94,5.57,7.38.12.16.21.4.46.33s.17-.33.17-.54c0-.95,0-1.92,0-2.88a11.41,11.41,0,0,0-.55-4c0-.07-.06-.17-.08-.24a.63.63,0,0,1,.56-.81h3.51c.49,0,.72.18.8.54a.91.91,0,0,1,0,.4,17.2,17.2,0,0,0-.53,2.23,7.42,7.42,0,0,0-.06.94v6.73a10.38,10.38,0,0,0,.53,2.93,1.05,1.05,0,0,1,.08.66.61.61,0,0,1-.53.48,23.36,23.36,0,0,1-2.9,0,1.77,1.77,0,0,1-1.19-.72c-1.83-2.43-3.68-4.87-5.53-7.29a1.37,1.37,0,0,0-.27-.31c-.17-.13-.31-.08-.36.13v2.64h0Z"/><path class="cls-1" d="M463.13,14.35c1,0,2.23,0,3.47,0a7.17,7.17,0,0,1,3,.78A4.49,4.49,0,0,1,472,18.7a6.42,6.42,0,0,1-.35,3.19,4.17,4.17,0,0,1-1.31,1.87l-.19.17a1,1,0,0,0-.16,1.47,3.43,3.43,0,0,0,1.57,1.34,2.34,2.34,0,0,1,.27.15.64.64,0,0,1,.22.86,2.53,2.53,0,0,1-2.67,1.49,2.61,2.61,0,0,1-2-1.3,14.7,14.7,0,0,1-.88-2,4.07,4.07,0,0,0-.17-.38.77.77,0,0,0-.78-.46c-.5,0-1,0-1.51,0s-.36,0-.54.09a.75.75,0,0,0-.43.71,6.62,6.62,0,0,0,.38,1.87c.05.17.09.32.15.5.17.57-.08.91-.69.93h-3.78a.6.6,0,0,1-.57-.82,9.82,9.82,0,0,0,.55-2.29c0-.19,0-.38,0-.57,0-2,0-4.09,0-6.13a11.6,11.6,0,0,0-.55-4,1.5,1.5,0,0,1-.08-.32.63.63,0,0,1,.56-.79h4.12ZM463,19.74v1.31a.86.86,0,0,0,.91,1c.77,0,1.53,0,2.29,0a2,2,0,0,0,2.1-2.06,2,2,0,0,0-1.77-2.41,12.46,12.46,0,0,0-2.73,0,.84.84,0,0,0-.78.94v1.32h0Z"/><path class="cls-1" d="M479.93,29.28h-5c-.44,0-.65-.14-.77-.46a.82.82,0,0,1,0-.44,14.71,14.71,0,0,0,.56-2.38c0-.2,0-.41,0-.62V18.23a10.87,10.87,0,0,0-.57-2.92.73.73,0,0,1,0-.56.59.59,0,0,1,.48-.38l.38,0h9.52A1.3,1.3,0,0,1,486,15.46c.15.57.3,1.16.45,1.76s-.09.8-.63.72-1.18-.21-1.79-.32a9.52,9.52,0,0,0-1.68-.14h-3.09c-1,0-.46.12-.52.37a4.29,4.29,0,0,0,0,1.75c.06.44.44.67,1,.67H485a.63.63,0,0,1,.54.78c-.12.5-.25,1-.4,1.47a1.26,1.26,0,0,1-1.26.82h-4.13c-.76,0-1.1.33-1.1,1.11v.78a.86.86,0,0,0,.85.9,28.84,28.84,0,0,0,4.26-.1c.73-.11,1.43-.32,2.16-.49s1,.05.78.8-.34,1.26-.5,1.89a1.27,1.27,0,0,1-1.35,1h-4.94v0Z"/><path class="cls-1" d="M478.34,48.08c-.49,0-1.11,0-1.72,0a1.07,1.07,0,0,1-.89-.9l-.12-.74a1,1,0,0,0-1-.94h-4.75a1.16,1.16,0,0,0-1.07.88c-.06.25-.12.52-.17.76a1.18,1.18,0,0,1-1.2,1H464.5c-.63,0-.8-.33-.45-.86a39,39,0,0,0,2.67-5.57l3.26-7.6a1.42,1.42,0,0,1,1.34-.9h2.12a1.3,1.3,0,0,1,1.29.9c1.45,3.47,2.92,7,4.39,10.4a21.12,21.12,0,0,0,1.44,2.75.84.84,0,0,1,.13.27.4.4,0,0,1-.34.55c-.12,0-.25,0-.37,0h-1.62Zm-6.14-5.63h1.12c.57,0,.8-.36.59-.9-.44-1.18-.89-2.37-1.35-3.55a.64.64,0,0,0-.12-.23c-.13-.19-.3-.19-.44,0l-.11.23c-.48,1.2-.95,2.41-1.41,3.61a.56.56,0,0,0,.55.84Z"/><path class="cls-1" d="M508.86,48.08a17.15,17.15,0,0,1-1.72,0,1,1,0,0,1-.88-.9c0-.25-.07-.47-.09-.72a1.08,1.08,0,0,0-1.09-1h-4.62a1.15,1.15,0,0,0-1.14,1c0,.21-.1.44-.16.67a1.18,1.18,0,0,1-1.18,1h-3c-.57,0-.76-.35-.46-.82a37.15,37.15,0,0,0,2.68-5.58c1.1-2.55,2.19-5.11,3.3-7.67a1.36,1.36,0,0,1,1.3-.86H504a1.34,1.34,0,0,1,1.3.9c1.47,3.49,2.92,7,4.41,10.46a20.9,20.9,0,0,0,1.39,2.65,1.2,1.2,0,0,1,.16.27.4.4,0,0,1-.35.59,2.33,2.33,0,0,0-.36,0h-1.64Zm-6.13-5.63h1.11c.59,0,.82-.35.61-.9-.42-1.09-.84-2.17-1.24-3.26a2.21,2.21,0,0,0-.21-.5c-.13-.19-.3-.19-.44,0a1.11,1.11,0,0,0-.09.19c-.48,1.22-1,2.43-1.43,3.65-.2.47,0,.82.55.84h1.16Z"/><path class="cls-1" d="M481.74,33.13h1.39a1.37,1.37,0,0,1,1.34.9,31.24,31.24,0,0,0,2.23,4.58l.08.14c.25.42.61.42.84,0,.34-.62.67-1.25,1-1.88a23.12,23.12,0,0,0,1.2-2.8,1.39,1.39,0,0,1,1.34-.94h2.88a.51.51,0,0,1,.5.21.54.54,0,0,1-.1.54,81.62,81.62,0,0,0-4.89,8.59,4.24,4.24,0,0,0-.4,2.46c.06.74.18,1.51.29,2.25a.76.76,0,0,1-.59.86,2.72,2.72,0,0,1-.57,0h-2.43a.81.81,0,0,1-.9-.71c0-.17,0-.36.06-.55.1-.76.21-1.55.25-2.33a3.74,3.74,0,0,0-.38-1.81c-1.24-2.31-2.41-4.68-3.78-6.91-.36-.61-.78-1.18-1.18-1.78-.12-.19-.29-.38-.16-.63s.38-.23.63-.23h1.36Z"/><path class="cls-1" d="M450.4,14.35h4.41a1.31,1.31,0,0,1,1.41,1.09c.15.71.36,1.39.54,2.08.13.54-.14.84-.69.75l-2.88-.52a.69.69,0,0,0-.88.74v6.89a9.49,9.49,0,0,0,.55,2.89.73.73,0,0,1-.78,1c-1.18,0-2.39,0-3.57,0-.61,0-.9-.35-.69-.94a12.53,12.53,0,0,0,.59-4.22c0-1.85,0-3.7,0-5.53s-.34-.94-1-.82c-.92.15-1.83.32-2.75.49-.57.1-.86-.19-.7-.76s.36-1.41.55-2.12a1.25,1.25,0,0,1,1.36-1h4.48Z"/><path class="cls-1" d="M430.53,36.89v22a.75.75,0,0,1-.4.78.69.69,0,0,1-1-.63V14.83a.75.75,0,0,1,.72-.84.67.67,0,0,1,.67.65V36.87h0Z"/><path class="cls-1" d="M463.24,56v3.11c0,.11,0,.17-.17.17h-.84c-.17,0-.23-.06-.23-.23V53.77c0-.19.06-.23.25-.25a1.12,1.12,0,0,1,1.3.7c.46.88,1,1.72,1.53,2.58.15.27.15.27.32,0,.59-1,1.2-2,1.8-3a.36.36,0,0,1,.42-.25c.26,0,.61-.12.78.06s0,.49,0,.76V59c0,.22-.06.3-.29.28h-.65c-.23,0-.32-.06-.3-.3V56.17c0-.93,0-.15,0-.25l-.59,1c-.31.49-.6,1-.9,1.52a.51.51,0,0,1-.84,0c-.5-.82-1-1.64-1.51-2.48h-.06Z"/><path class="cls-1" d="M474.75,55.79V59c0,.21,0,.28-.26.26h-.84c-.14,0-.21,0-.21-.19V53.69c0-.13,0-.19.17-.17h.78c.13,0,.19.07.27.17.84,1,1.66,2,2.5,3.05l.21.23V53.73c0-.17.06-.23.23-.21h.89c.31,0,.2,0,.2.19v5.38c0,.13,0,.19-.18.17h-.76a.36.36,0,0,1-.27-.15c-.82-1-1.66-2-2.5-3a1.43,1.43,0,0,0-.25-.27h0Z"/><path class="cls-1" d="M488.65,53.52c-.57.61-1.09,1.18-1.62,1.73-.2.21-.39.44-.6.63s-.11.23,0,.37c.75.93,1.49,1.87,2.24,2.82a.82.82,0,0,0,.13.17c-.3,0-.57,0-.84,0a1.08,1.08,0,0,1-1.14-.53c-.39-.55-.84-1.05-1.26-1.58-.1-.14-.16-.14-.27,0-.61.63-.63.63-.63,1.5s0,.63-.61.61c-.23,0-.52.1-.65,0s0-.44,0-.65V53.77c0-.19,0-.29.25-.27h.78c.21,0,.29,0,.29.27v2.08c0,.68,0,.17,0,.28.21-.23.42-.46.63-.67.57-.61,1.16-1.22,1.75-1.83a.31.31,0,0,1,.25-.11h1.3Z"/><path class="cls-1" d="M511,53.52c-.57.61-1.09,1.18-1.62,1.73-.19.21-.39.44-.6.63s-.11.23,0,.37c.75.93,1.49,1.87,2.24,2.82a1.54,1.54,0,0,0,.13.17c-.3,0-.57,0-.84,0a1.09,1.09,0,0,1-1.14-.53c-.39-.55-.84-1.05-1.26-1.58-.1-.14-.16-.14-.27,0-.61.63-.63.63-.63,1.5s0,.63-.61.61c-.23,0-.52.1-.65,0s0-.44,0-.65V53.77c0-.19,0-.29.25-.27h.78c.21,0,.29,0,.29.27v2.08c0,.68,0,.17,0,.28.21-.23.42-.46.63-.67.57-.61,1.16-1.22,1.75-1.83a.31.31,0,0,1,.25-.11H511Z"/><path class="cls-1" d="M497.12,59.26a.92.92,0,0,1-.93-.63.88.88,0,0,0-.9-.61h-1.74a.32.32,0,0,0-.36.25c-.09.27-.21.53-.32.8s-.12.21-.29.19h-1c-.18,0-.18,0-.12-.17.8-1.79,1.61-3.59,2.41-5.4.05-.13.11-.19.26-.17h1a.24.24,0,0,1,.25.15q1.2,2.69,2.4,5.4c.08.17,0,.21-.13.19h-.52Zm-2.52-4.43c-.28.71-.55,1.38-.84,2-.05.13,0,.17.12.17h1.41c.13,0,.19,0,.13-.17-.26-.65-.53-1.3-.82-2h0Z"/><path class="cls-1" d="M504.78,59.26H503.5c-.14,0-.16-.09-.19-.17-.12-.29-.25-.57-.35-.88a.25.25,0,0,0-.28-.19h-2.22a.29.29,0,0,0-.32.23c-.1.29-.25.57-.36.88a.18.18,0,0,1-.21.13h-1c-.21,0-.19-.07-.13-.23.4-.87.78-1.75,1.18-2.65s.8-1.77,1.19-2.67a.25.25,0,0,1,.3-.19h.92c.3,0,.17,0,.23.11.82,1.85,1.66,3.72,2.52,5.63h0Zm-3.25-4.43c-.32.77-.61,1.46-.9,2.18h1.8l-.9-2.18Z"/><path class="cls-1" d="M452.12,53.42a4.23,4.23,0,0,1,1.77.4c.14.06.19.14.12.29s-.16.59-.33.72-.46-.13-.7-.21a2.73,2.73,0,0,0-1.47,0,.59.59,0,0,0-.5.53c0,.23.13.42.48.52s1,.26,1.49.42a3.26,3.26,0,0,1,.44.15,1.41,1.41,0,0,1,.93,1.32,1.59,1.59,0,0,1-.72,1.39,3,3,0,0,1-1.74.44,4.44,4.44,0,0,1-1.87-.4c-.1,0-.19-.1-.27-.14s-.15-.15-.09-.3.19-.42.26-.63.12-.15.27-.08a3.19,3.19,0,0,0,2.25.42.58.58,0,0,0,.31-.11.48.48,0,0,0,0-.84A2.4,2.4,0,0,0,452,57a9.61,9.61,0,0,1-1.3-.36,1.43,1.43,0,0,1-1.05-1.22,1.59,1.59,0,0,1,.73-1.57,3,3,0,0,1,1.74-.42h0Z"/><path class="cls-1" d="M446.35,53.52h2.27c.2,0,.25.06.23.23v.61c0,.21-.07.26-.26.25h-1.26c-.23,0-.31,0-.31.3V59c0,.23,0,.3-.29.28H446c-.21,0-.28,0-.28-.26V55c0-1.36-.12-.34-.33-.34h-1.3c-.15,0-.23,0-.21-.21v-.69c0-.17.06-.19.21-.19h2.29Z"/><path class="cls-1" d="M457,56.4V59c0,.18,0,.25-.23.23h-.91c-.31,0-.19,0-.19-.19V53.69c0-.13,0-.19.17-.17h.89c.21,0,.29,0,.29.27V56.4h0Z"/><path class="cls-1" d="M471.62,56.4V59c0,.21-.05.27-.26.25h-.86c-.16,0-.21,0-.21-.21V53.69c0-.15,0-.19.21-.19h.91c.19,0,.23.08.23.25v2.63h0Z"/><path class="cls-1" d="M460.17,56.4V59c0,.21-.06.27-.27.25h-.85c-.16,0-.2,0-.2-.19V53.71c0-.15.06-.21.21-.21h.9c.17,0,.23,0,.21.21v2.67h0Z"/><path class="cls-1" d="M490,55.9c-.3,0-.42-.13-.34-.4l.12-.46c.07-.22.15-.43-.14-.64a.74.74,0,0,1-.06-.92.81.81,0,0,1,.94-.32.7.7,0,0,1,.51.7,2.13,2.13,0,0,1-.19.8c-.09.29-.24.56-.32.86s-.23.46-.52.36h0Z"/><path class="cls-1" d="M496.28,51.93c-.44.37-.89.73-1.35,1.07-.12.08-.25,0-.38,0h-.67c.25-.27.47-.48.67-.72a1,1,0,0,1,1-.44,5.45,5.45,0,0,0,.7,0v0h0Z"/><path class="cls-1" d="M455.63,53c.34-.38.69-.72,1-1.07a.25.25,0,0,1,.19-.07h1.26a6.87,6.87,0,0,0-.78.65,1.7,1.7,0,0,1-1.66.49h0Z"/><path class="cls-1" d="M406.86,9.33c.25-.13.52-.24.79-.38a15,15,0,0,1,3.41-1.43,4.59,4.59,0,0,1,2.27,0,2.46,2.46,0,0,1,1.8,2,3,3,0,0,1-.4,2.2,1.84,1.84,0,0,1-2.88.15.9.9,0,0,1,.4-1.47.81.81,0,0,1,.78.21c.21.17.34.14.44-.11a1,1,0,0,0-.94-1.34,5.37,5.37,0,0,0-2.71.67l-3,1.53a9.68,9.68,0,0,1-2.81.93,7.34,7.34,0,0,1-2.29-.06c-1.85-.28-3.64-.87-5.48-1.31a16.27,16.27,0,0,0-3.49-.54,4,4,0,0,0-4.14,3.32,5.83,5.83,0,0,0,0,2.28,3.38,3.38,0,0,0,6.58,0,2.32,2.32,0,0,0-.06-1.17,1.29,1.29,0,0,0-.83-.9,2.92,2.92,0,0,0-1.46-.22,1.49,1.49,0,0,0-1.2,1.1,1.72,1.72,0,0,1-.15.58.82.82,0,0,1-.94.36.88.88,0,0,1-.59-.8,3,3,0,0,1,1.15-2.35,3.59,3.59,0,0,1,1.85-.73,4.57,4.57,0,0,1,2.16.46,23.81,23.81,0,0,0,4.5,1.74,14.81,14.81,0,0,0,3.87.25,20.46,20.46,0,0,0,6.09-1.51.86.86,0,0,1,1.19.38.91.91,0,0,1-.5,1.22c-.48.19-.95.38-1.45.56-.13,0-.21.07-.17.26a.88.88,0,0,1-.65,1,.81.81,0,0,1-1-.58c0-.09-.05-.13-.15-.09a.53.53,0,0,0-.17,0c-.36.05-.67.11-.69.61,0,.32-.4.55-.72.57a.81.81,0,0,1-.78-.57c0-.16-.1-.19-.25-.16h-.21a1,1,0,0,0-.44.06c-.15.06-.08.25-.14.36a.89.89,0,0,1-.8.58.8.8,0,0,1-.76-.67c0-.21-.12-.31-.32-.27h-.16c-.25-.06-.44-.06-.55.27a.75.75,0,0,1-.78.42.82.82,0,0,1-.73-.73c0-.21-.11-.26-.29-.3a13.19,13.19,0,0,1-1.85-.57c-.17-.08-.21,0-.19.15a3.84,3.84,0,0,1-.21,1.53c-.05.17,0,.22.14.28a12.7,12.7,0,0,0,3.37,1.11,11.13,11.13,0,0,0,5.86-.52,7.64,7.64,0,0,1,2.92-.49,2.7,2.7,0,0,1,2.66,2.54.82.82,0,0,1-.69.82.86.86,0,0,1-.92-.6v-.07c0-.94-.78-1.13-1.5-1.09a6.67,6.67,0,0,0-2,.46,11.78,11.78,0,0,1-3.82.74,13.51,13.51,0,0,1-6.58-1.47c-.13-.05-.21-.07-.32.06A4.86,4.86,0,0,1,390.13,20a1.66,1.66,0,0,0-.9-.18c-.5,0-1,0-1.53,0a1.18,1.18,0,0,0-1.3,1.32V52a1.22,1.22,0,0,0,1.36,1.36h12.33a1.28,1.28,0,0,0,1.2-.58,1,1,0,0,0,.17-.59V22.56a.86.86,0,0,1,.31-.76.68.68,0,0,1,.76-.08.75.75,0,0,1,.44.67v1.18c0,.15,0,.23.21.23H413c.17,0,.23-.06.21-.23V22.52a.8.8,0,0,1,.77-.88c.45,0,.74.35.74.88,0,4.66,0,9.32,0,14,.08,8.46,0,16.91,0,25.37a4.68,4.68,0,0,1-3.65,4.64,4.9,4.9,0,0,1-1.14.11H377.74a4.68,4.68,0,0,1-4.68-3.68,4.41,4.41,0,0,1-.09-1V11a4.62,4.62,0,0,1,4-4.6,8.08,8.08,0,0,1,.85,0h8.44c.23,0,.31,0,.29-.31a3.65,3.65,0,0,1,4.69-3.53,3.89,3.89,0,0,1,1.11.48,5.66,5.66,0,0,1,.93.78,3.68,3.68,0,0,1,.82-1.09,2.59,2.59,0,0,1,3.78.34A2,2,0,0,1,398,5a.79.79,0,0,1-1,.36.89.89,0,0,1-.48-1.11c.1-.26,0-.36-.21-.45a1.19,1.19,0,0,0-1.47.76A1.14,1.14,0,0,0,395.51,6a5.62,5.62,0,0,0,2.88-.07,8.77,8.77,0,0,0,2-.8,5.86,5.86,0,0,1,3.08-.71A3.84,3.84,0,0,1,406.86,7a5.11,5.11,0,0,1,.14,2.2s0,0,0,.06h0V9.24h0Zm-32.46,28V61.74c0,.23,0,.48,0,.71A3.14,3.14,0,0,0,377.57,65h32.18c10.72,0,.42,0,.63,0A3.09,3.09,0,0,0,413,61.92q0-13.48,0-27c0-.21-.06-.25-.27-.25H403c-.19,0-.25,0-.25.25,0,.67,0,1.35,0,2V52.22c0,5.1,0,.29,0,.42A2.77,2.77,0,0,1,399.94,55H387.43a2.13,2.13,0,0,1-.7-.08,2.74,2.74,0,0,1-2.16-2.73V21.87c0-.21,0-.28-.27-.28h-1.81a14.94,14.94,0,0,1-1.77,0A1.91,1.91,0,0,1,379.09,20a11.68,11.68,0,0,1,0-2.77c0-.17,0-.19-.17-.19h-1a2,2,0,0,1-2.06-2.1V13.3a2.35,2.35,0,0,1,0-.59c.06-.17,0-.21-.15-.21a3.38,3.38,0,0,1-1.3-.17c-.11-.06-.15,0-.15.11v25h0ZM385.45,9.56v.9a.66.66,0,0,0,.69.71h1.45c.47,0,.19,0,.24-.14a5.07,5.07,0,0,1,.94-1,5.76,5.76,0,0,1,3.59-1.39,17.86,17.86,0,0,1,4.37.61c1.47.34,2.92.76,4.39,1.11a4.37,4.37,0,0,0,3-.27,1.7,1.7,0,0,0,1.1-1.89,2,2,0,0,0-1.47-1.85,3.46,3.46,0,0,0-2.61.36A10.67,10.67,0,0,1,396.88,8a4.93,4.93,0,0,1-2.4-.36c-.21-.1-.25-.06-.27.15A.64.64,0,1,1,393,7.52a3.14,3.14,0,0,0-1.09-3.17,2.56,2.56,0,0,0-3.64.1,2,2,0,0,0,.09,2.9,1.42,1.42,0,0,0,2.12-.25A1,1,0,0,0,390,5.61l-.25-.09a.62.62,0,0,1-.26-.75.61.61,0,0,1,.7-.4,2,2,0,0,1,.92.46,2.26,2.26,0,0,1,.65,2.44A2.58,2.58,0,0,1,389.61,9a2.88,2.88,0,0,1-2.39-.9.37.37,0,0,0-.3-.15c-.27.06-.55,0-.84,0a.64.64,0,0,0-.65.67v.89h0v0Zm22.46,22h-4.83c-.24,0-.3.07-.28.3v.82c0,.23.06.27.28.27h9.68c.19,0,.25-.06.25-.25v-.86c0-.22-.08-.26-.29-.26h-4.81Zm0-4.74h4.86c.19,0,.27,0,.25-.24v-.86c0-.21,0-.29-.27-.29h-9.67c-.19,0-.27,0-.25.25v.84c0,.23,0,.3.28.3h4.8Zm0,1.68H403c-.19,0-.27,0-.25.25v.84c0,.23,0,.31.29.31h9.63c.21,0,.31,0,.29-.27v-.84c0-.21,0-.29-.27-.29Zm-20.74-16h-.92a2,2,0,0,1-2-1.49c0-.09,0-.17-.18-.17a16.07,16.07,0,0,0-2,0,.62.62,0,0,0-.59.67c0,.57,0,1.14,0,1.72a.74.74,0,0,0,.78.8h2.58c.59,0,1.16,0,1.75,0,.12,0,.23,0,.25-.16a7.22,7.22,0,0,1,.29-1.41h0Zm-9.91,1.59V15a.66.66,0,0,0,.67.69h.55c.92,0,1.84,0,2.75,0,.48,0,1,0,1.45,0s.21-.19.23-.31-.13-.09-.21-.09h-.57a2,2,0,0,1-1.91-1.72c0-.31,0-.63,0-.94,0-.11,0-.17-.15-.17H378c-.48,0-.69.29-.69.75v.82h0Zm3-3.29h-.58a2,2,0,0,1-1.83-1.41,4.22,4.22,0,0,1-.06-1.18c0-.15,0-.21-.19-.21a3.05,3.05,0,0,0-3,2,.87.87,0,0,0,.8,1.19c1.49,0,3,0,4.48,0a.38.38,0,0,0,.41-.4h0Zm7.48,7.35a5.54,5.54,0,0,1-.63-1.3,8.52,8.52,0,0,1-.29-1.35c0-.08,0-.13-.11-.13a16.28,16.28,0,0,0-2.1.05.62.62,0,0,0-.5.59v1.93a.54.54,0,0,0,.42.59,2.38,2.38,0,0,0,1.4,0,5.08,5.08,0,0,1,1.81-.38Zm-5,2.12h1.66c.21,0,.3-.09.32-.27s-.17-.11-.25-.13a2,2,0,0,1-1.66-1.58,9.27,9.27,0,0,1,0-1.05c0-.1,0-.18-.16-.18h-1.58c-.48,0-.71.29-.71.77v1.66a.69.69,0,0,0,.77.78ZM381.69,8h-1.95c-.65,0-.68,0-.67.69s.25.86.84.86h4c.17,0,.21-.06.21-.23a5.14,5.14,0,0,1,0-1.11c0-.19,0-.25-.19-.25h-2.33Z"/><path class="cls-1" d="M404.75,2.6c-.14-.5-.25-1-.39-1.44a.49.49,0,0,1,.31-.64c.27-.08.5.09.59.42.15.59.33,1.2.48,1.81a.51.51,0,0,0,.3.38.6.6,0,0,1,.1,1,.54.54,0,0,1-.63,0,6.15,6.15,0,0,0-2.73-.61,7.82,7.82,0,0,0-3.3.8l-.29.14a.56.56,0,0,1-.65-.19.62.62,0,0,1,.06-.75,2.27,2.27,0,0,1,.72-.42c.16-.06.18-.13.14-.3-.15-.56-.31-1.13-.46-1.7a.47.47,0,1,1,.9-.23c.15.53.28,1.07.44,1.6,0,.15.07.23.28.17.48-.13.48-.11.37-.59L400.62.67c-.07-.33,0-.57.33-.65s.47.09.57.4c.15.57.32,1.15.46,1.74,0,.17.09.25.28.23.63,0,.63,0,.46-.63L402.44.67c-.08-.31,0-.59.3-.65s.5.08.59.42c.16.59.33,1.2.48,1.81,0,.16.1.25.29.27a3.19,3.19,0,0,1,.61.13h0Z"/><path class="cls-1" d="M398.6,47.93h-1.53a.66.66,0,1,1-.05-1.32h3.14a.65.65,0,0,1,.67.69c0,.38-.26.61-.7.61H398.6Z"/><path class="cls-1" d="M388.94,47.93h-1.53a.62.62,0,0,1-.68-.63.65.65,0,0,1,.67-.69h3.11a.69.69,0,0,1,.7.67.66.66,0,0,1-.72.63H389Z"/><path class="cls-1" d="M389,30.71h-1.53a.64.64,0,0,1-.72-.65.67.67,0,0,1,.72-.67h3a.66.66,0,1,1,0,1.3H389Z"/><path class="cls-1" d="M399.19,39.58h.94a.64.64,0,0,1,.7.62.63.63,0,0,1-.65.7,13.09,13.09,0,0,1-2,0,.65.65,0,0,1-.59-.63.7.7,0,0,1,.55-.65,7,7,0,0,1,1,0h0Z"/><path class="cls-1" d="M388.25,39.58h1a.68.68,0,0,1,.65.44.62.62,0,0,1-.16.67.58.58,0,0,1-.36.19,14.44,14.44,0,0,1-2.08,0,.61.61,0,0,1-.57-.61.62.62,0,0,1,.53-.67c.35-.05.73,0,1,0h0Z"/><path class="cls-1" d="M388.31,43.12h.92a.66.66,0,0,1,.69.63.69.69,0,0,1-.65.68h-1.89a.62.62,0,0,1-.65-.68c0-.39.27-.61.7-.61h.9Z"/><path class="cls-1" d="M388.33,36.24h1a.65.65,0,0,1,.64.62.7.7,0,0,1-.53.68,1.89,1.89,0,0,1-.48,0h-1.47a.65.65,0,0,1-.72-.67.64.64,0,0,1,.72-.65h.88Z"/><path class="cls-1" d="M388.31,51.21h-.95a.66.66,0,0,1-.12-1.3,2.88,2.88,0,0,1,.42,0h1.51a.69.69,0,0,1,.75.67.7.7,0,0,1-.75.65Z"/><path class="cls-1" d="M388.31,34h-.95a.62.62,0,0,1-.65-.57.63.63,0,0,1,.53-.73,2.88,2.88,0,0,1,.42,0h1.51a.69.69,0,0,1,.75.67.7.7,0,0,1-.75.65Z"/><path class="cls-1" d="M388.31,25.9h1a.64.64,0,0,1,.66.61.67.67,0,0,1-.57.69,14.44,14.44,0,0,1-2.08,0,.13.13,0,0,1-.09,0,.66.66,0,0,1,.13-1.28h1Z"/><path class="cls-1" d="M399.23,44.43h-.9a.66.66,0,1,1,0-1.31h1.8a.62.62,0,0,1,.7.64.64.64,0,0,1-.68.67Z"/><path class="cls-1" d="M388.33,23.69h-.95a.63.63,0,0,1-.67-.58.61.61,0,0,1,.57-.72,14.44,14.44,0,0,1,2.08,0,.64.64,0,0,1,.57.67.66.66,0,0,1-.66.61h-.92Z"/><path class="cls-1" d="M399.23,51.21h-.92a.66.66,0,0,1-.68-.61.64.64,0,0,1,.61-.67c.66,0,1.35,0,2,0a.59.59,0,0,1,.57.71.64.64,0,0,1-.67.59h-.91Z"/><path class="cls-1" d="M399.25,36.24h.86a.62.62,0,0,1,.7.63.66.66,0,0,1-.7.69h-1.38a2.23,2.23,0,0,1-.63,0,.65.65,0,0,1,.1-1.28h1.05Z"/><path class="cls-1" d="M406.86,9.33h0s0,0,0,0h0Z"/><path class="cls-1" d="M404.12,46.32c0-1.22,0-2.46,0-3.7a2.67,2.67,0,0,1,1.41-2.44,2.25,2.25,0,0,1,1.16-.27h4.87a.87.87,0,0,1,.9.55.89.89,0,0,1-.19.92.86.86,0,0,1-.67.23h-4.87a.9.9,0,0,0-1,1V50a.87.87,0,0,0,1,1h4.83a.84.84,0,0,1,.95.88.81.81,0,0,1-.8.84c-1.73,0-3.49,0-5.23,0a2.5,2.5,0,0,1-2.31-2.23,5.47,5.47,0,0,1,0-.71V46.27h0Z"/><path class="cls-1" d="M383.6,29.16c0,1.24,0,2.49,0,3.73a2.67,2.67,0,0,1-1.26,2.32,2.25,2.25,0,0,1-1.22.35h-5a.86.86,0,1,1,0-1.72h4.76c.76,0,1.1-.34,1.12-1.13v-7a1.49,1.49,0,0,0-.13-.69.82.82,0,0,0-.82-.51h-4.94a.83.83,0,0,1-.83-.5.87.87,0,0,1,.12-.93.81.81,0,0,1,.71-.29h4.94a2.55,2.55,0,0,1,2.5,2.25,8.47,8.47,0,0,1,0,1.24V29.2h0Z"/><path class="cls-1" d="M383.6,46.34V50a2.71,2.71,0,0,1-1.24,2.33,2.22,2.22,0,0,1-1.24.37h-5a.87.87,0,0,1-.92-.83.86.86,0,0,1,.86-.89h4.83a1,1,0,0,0,1.1-1.09v-7a1.65,1.65,0,0,0-.09-.66.83.83,0,0,0-.86-.6H376.1a.8.8,0,0,1-.8-.47.87.87,0,0,1,.11-.94.8.8,0,0,1,.73-.3h4.94a2.55,2.55,0,0,1,2.48,2.23,4.11,4.11,0,0,1,0,.71V46.4h0Z"/><path class="cls-1" d="M393.64,57.41h-3.5a1.17,1.17,0,0,0-.63.12.86.86,0,0,0-.51.82v5a.82.82,0,0,1-.84.88.85.85,0,0,1-.86-.9v-5a2.54,2.54,0,0,1,2.27-2.44,6.79,6.79,0,0,1,1.11,0h6.49a3,3,0,0,1,1.81.51,2.33,2.33,0,0,1,1,2v5.1a.84.84,0,1,1-1.68,0V58.44a.9.9,0,0,0-1-1h-3.72Z"/><path class="cls-1" d="M380.73,29.07a8,8,0,0,1-.05,1.47,2.34,2.34,0,0,1-2.35,1.85,3.45,3.45,0,0,1-2-.38,2.22,2.22,0,0,1-1-1.8c0-.72,0-1.45,0-2.19a2.27,2.27,0,0,1,2.05-2.16,9.27,9.27,0,0,1,1.49,0,2.35,2.35,0,0,1,1.85,1.89c.05.44,0,.9,0,1.32Zm-4.27,0v1a1.11,1.11,0,0,0,1.07,1.11h.86A1.12,1.12,0,0,0,379.55,30V28.13A1.11,1.11,0,0,0,378.5,27a3,3,0,0,0-.84,0,1.16,1.16,0,0,0-1.22,1.3v.82h0Z"/><path class="cls-1" d="M412,46.32a11.63,11.63,0,0,1,0,1.32,2.26,2.26,0,0,1-2.26,2,6.62,6.62,0,0,1-1.33-.06,2.32,2.32,0,0,1-1.8-2.12,16.29,16.29,0,0,1,0-2.42,2.26,2.26,0,0,1,2.16-1.93h1.05A2.28,2.28,0,0,1,412,45.29v1h0Zm-1.15,0v-1a1.12,1.12,0,0,0-1.07-1.09h-.89a1.16,1.16,0,0,0-1.15,1.15v1.89a1.13,1.13,0,0,0,1,1.14,3.7,3.7,0,0,0,.94,0,1.14,1.14,0,0,0,1.14-1.26v-.84h0Z"/><path class="cls-1" d="M380.73,46.28a6.32,6.32,0,0,1-.09,1.57,2.3,2.3,0,0,1-2.16,1.72h-1a2.27,2.27,0,0,1-2.15-2.2v-2A2.29,2.29,0,0,1,377.53,43c.4,0,.8,0,1.2,0a2.33,2.33,0,0,1,2,1.93c.05.44,0,.88,0,1.3h0Zm-4.27,0v1a1.11,1.11,0,0,0,1.11,1.1h.82a1.15,1.15,0,0,0,1.18-1.14V45.31a1.15,1.15,0,0,0-.95-1.11,4.13,4.13,0,0,0-1.11,0,1.13,1.13,0,0,0-1.05,1.17v.91Z"/><path class="cls-1" d="M393.52,64a6.33,6.33,0,0,1-1.51-.1,2.23,2.23,0,0,1-1.58-2.16,5.76,5.76,0,0,1,0-1.31,2.24,2.24,0,0,1,2.17-1.85,15.62,15.62,0,0,1,2.37,0,2.29,2.29,0,0,1,1.93,2,6.62,6.62,0,0,1,0,1.54A2.3,2.3,0,0,1,394.74,64h-1.22Zm.14-1.17h1a1.11,1.11,0,0,0,1.13-1.14v-.82a1.1,1.1,0,0,0-.94-1.11,9.24,9.24,0,0,0-2.23,0,1.07,1.07,0,0,0-1,1.2v.77a1.11,1.11,0,0,0,1.08,1.1Z"/><path class="cls-1" d="M407.88,36.09h3a.8.8,0,0,1,.8.63.83.83,0,0,1-.44.9.94.94,0,0,1-.47.09H405a.88.88,0,0,1-.84-.47.81.81,0,0,1,.08-.82.82.82,0,0,1,.73-.33h2.94Z"/><path class="cls-1" d="M412.57,62.16a1,1,0,0,1-.3.73c-.29.3-.6.61-.92.92a.92.92,0,0,1-1.18.13,1.94,1.94,0,0,1-.9-1.09.67.67,0,0,1,.3-.82,2.21,2.21,0,0,0,.92-.92.73.73,0,0,1,.65-.36,1.63,1.63,0,0,1,1.41,1.41h0Z"/><path class="cls-1" d="M377.26,60.18a.85.85,0,0,1,.69.38A4.87,4.87,0,0,0,379,61.69a.44.44,0,0,1,.09.68,8,8,0,0,1-.7.84.86.86,0,0,1-1.07.12A3.23,3.23,0,0,1,376,61.82a.93.93,0,0,1,.25-1.13c.48-.4.67-.51,1-.51h0Z"/><path class="cls-1" d="M380,61a.59.59,0,0,1-.31-.12,3.38,3.38,0,0,1-1.2-1.56.54.54,0,0,1,.17-.65c.27-.21.54-.44.79-.65a.5.5,0,0,1,.83.12,4.63,4.63,0,0,0,1.05,1.2c.14.09.16.21,0,.32-.32.37-.63.75-.95,1.13a.53.53,0,0,1-.4.19h0Z"/><path class="cls-1" d="M410,59.85a1,1,0,0,1-.26.62c-.21.21-.42.43-.65.64a.87.87,0,0,1-1.39.06,1.38,1.38,0,0,1-.41-.49.67.67,0,0,1,.27-1,1.52,1.52,0,0,0,.63-.65.71.71,0,0,1,.82-.36,1.46,1.46,0,0,1,1,1.22h0Z"/><path class="cls-1" d="M383.5,62.24h2.92a.33.33,0,0,1,.37.23.26.26,0,0,1-.21.32,1,1,0,0,1-.25,0h-5.81c-.19,0-.34-.07-.34-.28s.13-.29.34-.29h3Z"/><path class="cls-1" d="M403.92,62.24h2.91c.28,0,.42.1.4.29s-.19.28-.42.28H401c-.17,0-.34,0-.4-.21s.08-.36.35-.36Z"/><path class="cls-1" d="M407.07,57.2a.66.66,0,0,1-.17.46c-.23.25-.48.5-.72.72a.61.61,0,0,1-.71.1,1.45,1.45,0,0,1-.67-.71.48.48,0,0,1,.23-.66,1.46,1.46,0,0,0,.57-.56.54.54,0,0,1,.58-.28,1.09,1.09,0,0,1,.89.95h0Z"/><path class="cls-1" d="M382.19,58.48a.51.51,0,0,1-.39-.17,3.84,3.84,0,0,1-.72-1.05.55.55,0,0,1,.11-.63l.59-.52a.4.4,0,0,1,.6.12,6.81,6.81,0,0,0,.63.84.47.47,0,0,1,.05.65,5.2,5.2,0,0,1-.53.63.44.44,0,0,1-.34.11h0Z"/><path class="cls-1" d="M377.11,56.63v2.5c0,.29-.1.42-.29.4s-.28-.21-.28-.42V54a.28.28,0,0,1,.3-.29c.19,0,.27.12.27.31v2.63h0Z"/><path class="cls-1" d="M410.87,56.61v2.54c0,.21,0,.38-.28.38s-.31-.17-.31-.38V54a.31.31,0,0,1,.29-.36c.23,0,.28.14.28.35v2.59h0Z"/><path class="cls-1" d="M384,56.32a.55.55,0,0,1-.44-.21,2.54,2.54,0,0,1-.34-.55.52.52,0,0,1,.09-.69c.23-.21.5-.42.74-.63a.35.35,0,0,1,.5,0c.15.17.33.33.5.5a.36.36,0,0,1,0,.55l-.69.8a.49.49,0,0,1-.42.17h0Z"/><path class="cls-1" d="M375.83,19.58V17.69c0-.19.08-.34.31-.34s.28.15.28.36v3.78c0,.19-.07.33-.27.34s-.3-.13-.3-.34V19.62h0Z"/><path class="cls-1" d="M384.74,59.7h-1.66c-.21,0-.38,0-.38-.28s.19-.29.38-.29h3.32c.21,0,.39.06.39.3s-.18.29-.39.29h-1.66Z"/><path class="cls-1" d="M402.65,59.7H401c-.2,0-.37,0-.37-.27s.16-.3.37-.3h3.32c.21,0,.36.06.38.3s-.17.29-.38.29h-1.66Z"/><path class="cls-1" d="M404,56.48c-.34,0-.82-.48-.78-.79,0-.15.11-.24.23-.32a1.27,1.27,0,0,0,.4-.4.41.41,0,0,1,.61-.15.66.66,0,0,1,.21,1.16l-.35.34a.54.54,0,0,1-.32.16Z"/><path class="cls-1" d="M379.59,55.31V54.05c0-.21.08-.36.31-.36s.28.17.28.36v2.6c0,.19-.08.38-.3.36s-.29-.17-.29-.38v-1.3h0Z"/><path class="cls-1" d="M407.23,55.33V54.07c0-.21,0-.38.28-.38s.29.15.29.36v2.58c0,.21-.08.36-.29.36s-.3-.15-.28-.38V55.33Z"/><path class="cls-1" d="M378.18,20.42v-1c0-.21.07-.36.3-.36s.29.17.29.36v2c0,.19-.08.35-.31.35s-.3-.18-.3-.37v-1h0Z"/><path class="cls-1" d="M382.87,37.75v.9c0,.19-.07.32-.28.32s-.29-.13-.29-.32V36.82a.28.28,0,0,1,.31-.31c.19,0,.26.14.26.33v.91Z"/><path class="cls-1" d="M376.14,37.73v-.89c0-.19.07-.33.28-.33s.29.12.29.33v1.81a.28.28,0,0,1-.29.32c-.19,0-.28-.11-.28-.32v-.92Z"/><path class="cls-1" d="M379.8,37.75v.9a.28.28,0,0,1-.29.32c-.19,0-.28-.13-.28-.32V36.84c0-.19.07-.33.28-.33s.29.14.29.33v.91Z"/><path class="cls-1" d="M386,56.63h-.44a.32.32,0,0,1-.34-.29c0-.19.13-.28.32-.3h.92a.31.31,0,0,1,.34.28.3.3,0,0,1-.34.31Z"/><path class="cls-1" d="M401.39,56.63h-.48a.28.28,0,0,1-.31-.29.29.29,0,0,1,.29-.3h1a.28.28,0,0,1,.31.28c0,.19-.13.29-.33.31h-.45Z"/><path class="cls-1" d="M401.16,9.43A3.57,3.57,0,0,1,400,9.3a1.19,1.19,0,0,1-.38-.21.46.46,0,0,1-.08-.69.75.75,0,0,1,.17-.19,4.2,4.2,0,0,1,2.94-.65c.52.06.75.32.77.69a1,1,0,0,1-.65.95,4.56,4.56,0,0,1-1.66.25h0Z"/><path class="cls-1" d="M693.68,28.13h7.44a.62.62,0,0,1,.59.35,9.61,9.61,0,0,0,9.6,4.43.52.52,0,0,1,.47.15l4.83,4.83a3.25,3.25,0,0,1-1,.36,19,19,0,0,1-11.28.2,15.67,15.67,0,0,1-10.59-9.9c0-.11-.08-.25-.13-.42Z"/><path class="cls-1" d="M766.83,53.57c.78-1.31,1.55-2.62,2.33-3.92s1.49-2.52,2.23-3.79a.57.57,0,0,1,.59-.34c.59,0,1.19,0,1.78,0,.27,0,.4.06.4.36v12.4c0,.3-.1.38-.38.36-.7,0-1.4,0-2.08,0-.33,0-.4-.09-.4-.4,0-2.27,0-4.52,0-6.79v-.4c-.19,0-.21.19-.28.3-1.12,1.84-2.24,3.67-3.34,5.53a.8.8,0,0,1-.66.4,1.33,1.33,0,0,1-1.48-.85c-1-1.78-2.12-3.53-3.22-5.33a.78.78,0,0,0-.07.48v6.63c0,.34-.06.47-.44.45-.68,0-1.36,0-2,0-.27,0-.38-.06-.38-.36V45.9c0-.31.08-.38.38-.38a15.69,15.69,0,0,0,1.68,0,.68.68,0,0,1,.7.4l4.38,7.27a.79.79,0,0,0,.32.4Z"/><path class="cls-1" d="M753.65,51c-.7,1.15-1.38,2.31-2.08,3.46-.5.82-1,1.63-1.46,2.45a.63.63,0,0,1-.51.32,1.44,1.44,0,0,1-1.63-.91c-1-1.78-2.12-3.52-3.28-5.26v7.14c0,.32-.05.47-.43.45-.7,0-1.4,0-2.09,0-.28,0-.34-.1-.34-.36V45.92c0-.33.12-.4.42-.38.59,0,1.15,0,1.74,0a.63.63,0,0,1,.63.38L749,53.11c.1.17.21.32.33.51a1,1,0,0,0,.3-.41c1.44-2.43,2.88-4.85,4.3-7.28a.63.63,0,0,1,.66-.37c.59,0,1.19,0,1.78,0,.25,0,.34.07.34.32v12.5c0,.26-.09.32-.34.32-.72,0-1.42,0-2.14,0-.32,0-.4-.1-.4-.4,0-2.29,0-4.6,0-6.89V51.1a.14.14,0,0,1-.09,0Z"/><path class="cls-1" d="M692.9,22.62a13.47,13.47,0,0,1,.55-3.95c1.84-6.1,6-9.7,12.08-11.27,1.08-.29,1.08-.25,1.59.76.76,1.51,1.52,3,2.29,4.56.14.26.19.38-.21.42a9.61,9.61,0,0,0-7.91,5.15.75.75,0,0,1-.32.34l-8.07,4Z"/><path class="cls-1" d="M732.44,45.29c2.76.06,5,1.06,6.4,3.58a6.71,6.71,0,0,1-4.79,9.85,7.37,7.37,0,0,1-6.61-1.65,6.73,6.73,0,0,1,2.25-11.32,8.54,8.54,0,0,1,1.25-.35,7,7,0,0,1,1.52-.13Zm4.07,6.82a4.1,4.1,0,1,0-4.15,4.16,4.05,4.05,0,0,0,4.15-4.16Z"/><path class="cls-1" d="M653.78,54.57v2.31a.51.51,0,0,1-.23.49c-2.58,1.78-7,2.22-9.7,0a6.55,6.55,0,0,1-2.44-6.68A6.18,6.18,0,0,1,646,45.67a7.8,7.8,0,0,1,7,1c1.1.78,1.1.8.09,1.73-.26.24-.53.47-.77.74s-.35.22-.57,0a4.62,4.62,0,0,0-5.74-.48,4.27,4.27,0,0,0-1.52,4.68,4.06,4.06,0,0,0,3.77,2.94,5.21,5.21,0,0,0,2.31-.38.51.51,0,0,0,.36-.57c0-1,0-2.05,0-3.07,0-.32.1-.4.4-.4.68,0,1.36,0,2,0,.26,0,.36.08.36.34v2.39Z"/><path class="cls-1" d="M711,58.64h-2.93c-.23,0-.3-.11-.38-.3-.3-.74-.63-1.48-.91-2.22-.09-.24-.25-.28-.47-.28h-5.38a.41.41,0,0,0-.46.3l-.9,2.22c-.06.15-.12.28-.33.28H696.4c-.07-.17,0-.28.08-.4q2.73-6.16,5.47-12.32a.58.58,0,0,1,.63-.42c.75,0,1.51,0,2.27,0a.39.39,0,0,1,.43.28c1.9,4.23,3.79,8.43,5.67,12.65l.07.23Zm-9.43-5.15h3.66c.43,0,.41-.13.28-.45L703.81,49c0-.1,0-.25-.21-.29-.66,1.59-1.33,3.18-2,4.81Z"/><path class="cls-1" d="M655.54,58.64c.53-1.19,1-2.33,1.53-3.46,1.38-3.11,2.77-6.2,4.13-9.3a.56.56,0,0,1,.59-.4c.75,0,1.51,0,2.27,0a.41.41,0,0,1,.45.25q2.85,6.36,5.7,12.72v.15h-1.74c-.47,0-1,.19-1.38-.07s-.4-.8-.57-1.23-.32-.74-.45-1.12a.49.49,0,0,0-.55-.38h-5.31a.5.5,0,0,0-.54.38c-.29.72-.59,1.42-.88,2.14a.36.36,0,0,1-.37.28h-2.88Zm7.34-10.07c-.68,1.63-1.3,3.14-2,4.67-.11.27.06.25.23.25h3.43c.26,0,.32-.06.23-.32-.65-1.52-1.27-3-1.94-4.62Z"/><path class="cls-1" d="M689.24,45.29a10.05,10.05,0,0,1,4.61.89c.38.17.53.34.3.76a8.43,8.43,0,0,0-.59,1.38c-.11.36-.24.44-.6.25a6.8,6.8,0,0,0-3.9-.78,2.49,2.49,0,0,0-1.22.4,1.14,1.14,0,0,0,.06,2,9,9,0,0,0,2.37.72,14.23,14.23,0,0,1,2.33.7,3.29,3.29,0,0,1,2.29,2.89A3.63,3.63,0,0,1,693,58a6.74,6.74,0,0,1-3.57.85,10.09,10.09,0,0,1-4.93-1.16c-.57-.3-.55-.32-.3-.89s.43-.94.62-1.42c.12-.3.21-.34.5-.15a7.45,7.45,0,0,0,4.26,1.17,3.45,3.45,0,0,0,1.38-.26,1.19,1.19,0,0,0,.87-1.12A1.21,1.21,0,0,0,691,54a11.63,11.63,0,0,0-2.25-.66,16.27,16.27,0,0,1-2.46-.76,3.19,3.19,0,0,1-2.1-3,3.66,3.66,0,0,1,1.89-3.45,6.16,6.16,0,0,1,3.13-.83Z"/><path class="cls-1" d="M718.33,45.29a6.77,6.77,0,0,1,5.13,2c.21.22.25.34,0,.57a18,18,0,0,0-1.38,1.26c-.24.27-.4.27-.66,0a4.24,4.24,0,0,0-4.68-.94,4.17,4.17,0,0,0-2.38,4.92,4,4,0,0,0,4.29,3.16A4.07,4.07,0,0,0,721.51,55c.19-.21.31-.19.5,0,.47.45.94.89,1.45,1.3.27.23.23.36,0,.61a6.54,6.54,0,0,1-3.8,1.93A7.49,7.49,0,0,1,714,57.66a6.46,6.46,0,0,1-2.82-6,6.76,6.76,0,0,1,7.16-6.3Z"/><path class="cls-1" d="M672.3,52.09V46c0-.34.07-.45.43-.45h9.13c.3,0,.42.06.42.38q0,.85,0,1.68c0,.31-.08.4-.4.4h-6c-.36,0-.5.08-.48.46,0,.87,0,1.74,0,2.63,0,.32.1.4.4.4h5.25c.34,0,.43.09.41.41,0,.57,0,1.14,0,1.69,0,.3-.07.38-.38.38h-5.2c-.4,0-.5.09-.5.49,0,1.29,0,2.57,0,3.86,0,.34-.11.42-.41.42q-1.14,0-2.28,0c-.32,0-.43-.08-.41-.42V52.09Z"/><path class="cls-1" d="M708.56,7a21.84,21.84,0,0,1,4.51.19,19.67,19.67,0,0,1,8.54,3.62c1,.76,1,.74.21,1.72-1,1.27-2,2.56-3,3.85-.21.26-.33.22-.55,0a12.72,12.72,0,0,0-6.31-3.09.51.51,0,0,1-.42-.27c-1-1.93-1.93-3.86-2.89-5.81a1.06,1.06,0,0,1-.1-.25Z"/><path class="cls-1" d="M713.6,32.34a23.23,23.23,0,0,0,2.19-.91.48.48,0,0,0,.33-.51V29.27c0-.32.07-.42.38-.25,1.83.95,3.67,1.88,5.51,2.81a.43.43,0,0,1,.26.45v2.54a.44.44,0,0,1-.25.43,20.75,20.75,0,0,1-3.33,1.86.31.31,0,0,1-.4-.06l-4.69-4.69Z"/><path class="cls-1" d="M722.31,26.49v3.16c0,.28,0,.38-.34.23-1.86-.95-3.71-1.9-5.59-2.83a.43.43,0,0,1-.28-.47V23.29c0-.29.07-.38.38-.38h5.41c.36,0,.42.15.42.45v3.13Z"/><path class="cls-1" d="M700.32,20.92a10.6,10.6,0,0,0,.29,5.11c.07.23,0,.32-.21.32h-6.89a.32.32,0,0,1-.36-.3c-.06-.42-.12-.85-.17-1.27,0-.15.07-.21.18-.26,2.37-1.2,4.76-2.37,7.18-3.58Z"/><path class="cls-1" d="M708.47,22.89H714c.33,0,.4.09.4.4,0,.89,0,1.76,0,2.72l-6-3s0-.05,0-.09Z"/></g></g></g></svg>