<svg xmlns="http://www.w3.org/2000/svg" viewBox="0 0 990.1 85.19"><defs><style>.cls-1{fill:#fff;}</style></defs><g id="Layer_2" data-name="Layer 2"><g id="Pantalla_1" data-name="Pantalla 1"><g id="logos"><path class="cls-1" d="M289.75,71.36,304.6,42.17h41L359.77,71l-16.14.18-6-20.49h-8.22l5.49,20.64c-6.6-.53-13.33.33-20,0l5.49-20.64H312l-6,20.64Z"/><path class="cls-1" d="M306.52,37.49l8.07-16c.08-.68,0-.43-.48-.48-2.63-.38-3.69.66-5.54,2.23L307.2,22.1l4.28-8.83,18.77-.3,1.09.53,12,23.86c.08,1-.35.15-.48.15h-36.3Z"/><path class="cls-1" d="M49.36,50.39,40.43,71c-.1.32-1,.73-1.24.73h-6L40,56.21c-2.43,0-4.86,0-7.26,0-.89,0-1.88-.76-2.38.17l-7,15H16.77l6.45-15.15H14L6.93,71.36H0l9.84-21Z"/><path class="cls-1" d="M172.94,56.21c.94-1.24,1.93-5.52,3.39-5.8,8.17.18,16.37-.28,24.54,0a10.93,10.93,0,0,0,2.3.1c.41,0,.56-.22.43.41l-9.08,20.44c-6.37.15-12.77,0-19.17,0-.84,0-1.65.32-2.56.35-2.25.05-4.58-.46-6.63,0l5.9-13.16,20.56-.2,1.6-2.15h-21.3Zm17.74,7.41h-14l-.81,2.25h14Z"/><path class="cls-1" d="M273.61,50.39l-9.52,21H236.52l5.79-13.08c6.93-.35,13.92-.15,20.77.08l1.17-2.51-21,.33,2-5.41a3.2,3.2,0,0,1,.74-.41h27.57ZM245.85,65.87h14.2l.63-2.58c-1.27-.25-2.51.3-3.7.33-2.75.1-7.26-.46-9.68,0a2.11,2.11,0,0,0-1.47,2.25h0Z"/><path class="cls-1" d="M84.52,50.39l-6,12.85-20,.18L57.1,65.87H77.41c-.6,1.29-1.61,5.21-3.06,5.49l-26.61.33,9.51-21.3Zm-9.66,5.82H61.48l-.64,2.25,13.64-.38Z"/><polygon class="cls-1" points="239.07 50.39 229.56 71.36 222.96 71.36 229.41 56.21 215.37 56.21 208.39 71.31 201.33 71.69 210.36 50.97 211.17 50.39 239.07 50.39"/><path class="cls-1" d="M168.11,50.39l-2.45,5.82L146.51,56,142,65.87h19c-.38,1.37-1.69,5.52-3.06,5.79H133.1l-.36-.65c2.81-7,5.64-14.1,9.39-20.62Z"/><path class="cls-1" d="M80.35,71.69l.48-1,12.42-9.84-6.45-10c0-.81,6.48,0,7.08,0l5,7.62c1-.58,2,0,2.78-.1C105.19,58,109,52.94,112,51.25c2.73-1.52,7.19-.51,10.3-.84l-.48,1-12.42,9.85,6.12,10.17h-6.6c-3.47-3.29-3.75-10.35-10.07-7.16-2.48,1.24-8.17,7.48-10.58,7.48H80.35Z"/><polygon class="cls-1" points="134.54 50.39 125.51 71.36 118.42 71.36 127.94 50.39 134.54 50.39"/><path class="cls-1" d="M573.05,55.46v4.76a1.17,1.17,0,0,1-1.22,1.27h-3.1c-.75,0-1.07-.46-.85-1.2a15.38,15.38,0,0,0,.73-5.27c-.05-2-.05-4.05,0-6.08a15.3,15.3,0,0,0-.73-5.25.48.48,0,0,0,0-.14c-.17-.64.12-1.13.8-1.13,1.44,0,2.91,0,4.37,0a1.7,1.7,0,0,1,1.59,1.13c1.34,2.93,2.66,5.86,4,8.79.1.24.2.56.54.56s.44-.32.56-.59c1.34-2.93,2.66-5.86,4-8.79a1.76,1.76,0,0,1,1.68-1.12h4.2a.8.8,0,0,1,.83,1.12,17.87,17.87,0,0,0-.71,3.4c0,.26,0,.53,0,.8,0,2.49,0,5,0,7.47a14.23,14.23,0,0,0,.73,5,1.84,1.84,0,0,1,.1.51.75.75,0,0,1-.64.76l-.44,0H585.5a.91.91,0,0,1-1-1.31,14.2,14.2,0,0,0,.73-5.15c0-1.49,0-3,0-4.47,0-.17.07-.46-.12-.51s-.25.22-.32.39c-1.12,2.61-2.27,5.2-3.4,7.81a1.91,1.91,0,0,1-1.95,1.27h-.8a1.79,1.79,0,0,1-1.57-1.1c-1.14-2.61-2.29-5.25-3.44-7.86-.07-.2-.14-.54-.36-.49s-.15.39-.15.61v4.76h0Z"/><path class="cls-1" d="M631.15,30.24c0,1,0,2.1.07,3.25a17,17,0,0,0,.64,2.69c.22.8-.1,1.27-1,1.27h-4.29c-.78,0-1.15-.44-.88-1.2a16.12,16.12,0,0,0,.76-5.35c0-1.85,0-3.71,0-5.56a16.23,16.23,0,0,0-.79-5.79.81.81,0,0,1,.81-1.17c1.15,0,2.29-.07,3.44,0a2.17,2.17,0,0,1,1.64.93c2.37,3.15,4.76,6.32,7.13,9.45.14.19.26.51.58.41s.22-.41.22-.68c0-1.22,0-2.47,0-3.69a14.68,14.68,0,0,0-.71-5.13c0-.09-.07-.22-.09-.31a.79.79,0,0,1,.7-1h4.49c.64,0,.93.22,1,.69a1.27,1.27,0,0,1-.05.51,23.6,23.6,0,0,0-.68,2.85,9.67,9.67,0,0,0-.08,1.2V32.2a12.81,12.81,0,0,0,.69,3.73,1.55,1.55,0,0,1,.1.86.8.8,0,0,1-.69.61,32.84,32.84,0,0,1-3.71,0,2.27,2.27,0,0,1-1.51-.93c-2.35-3.1-4.71-6.22-7.08-9.32a1.94,1.94,0,0,0-.34-.4c-.22-.17-.39-.09-.47.18v3.36h0Z"/><path class="cls-1" d="M592.31,18.36c1.3,0,2.86-.05,4.44.05a8.85,8.85,0,0,1,3.81,1,5.69,5.69,0,0,1,3,4.51,8.34,8.34,0,0,1-.44,4.08,5.5,5.5,0,0,1-1.68,2.39l-.25.22a1.21,1.21,0,0,0-.19,1.88,4.4,4.4,0,0,0,2,1.71,1.86,1.86,0,0,1,.34.19.82.82,0,0,1,.29,1.1,3.24,3.24,0,0,1-3.41,1.91,3.36,3.36,0,0,1-2.57-1.66,18.63,18.63,0,0,1-1.12-2.54,5,5,0,0,0-.22-.49,1,1,0,0,0-1-.59c-.64,0-1.27,0-1.93,0s-.46,0-.68.13a.92.92,0,0,0-.56.9,8.82,8.82,0,0,0,.48,2.39c.08.22.13.42.2.64.22.73-.1,1.17-.88,1.19h-4.83a.76.76,0,0,1-.74-1,12.55,12.55,0,0,0,.71-2.93c0-.24,0-.49,0-.73,0-2.61,0-5.22,0-7.83a15,15,0,0,0-.71-5.08,2.35,2.35,0,0,1-.1-.42.79.79,0,0,1,.71-1h5.27Zm-.22,6.88v1.68a1.1,1.1,0,0,0,1.17,1.22c1,0,2,.05,2.93,0a2.61,2.61,0,0,0,2.69-2.64,2.59,2.59,0,0,0-2.27-3.07,15.1,15.1,0,0,0-3.49-.05,1.07,1.07,0,0,0-1,1.2v1.68h0Z"/><path class="cls-1" d="M613.79,37.45H607.4c-.56,0-.83-.18-1-.59a1.06,1.06,0,0,1,0-.56,18.51,18.51,0,0,0,.71-3c0-.25,0-.52,0-.78V23.31a14.09,14.09,0,0,0-.73-3.73.84.84,0,0,1,0-.71.74.74,0,0,1,.61-.49l.48,0h12.18a1.65,1.65,0,0,1,1.84,1.41c.19.73.39,1.49.58,2.25s-.12,1-.8.93-1.52-.27-2.3-.42a13,13,0,0,0-2.15-.17h-3.95c-1.32,0-.59.15-.66.46a5.33,5.33,0,0,0,0,2.25c.07.56.56.85,1.25.85h6.83a.8.8,0,0,1,.68,1,19.25,19.25,0,0,1-.51,1.88,1.59,1.59,0,0,1-1.61,1.05H613.6c-1,0-1.42.42-1.42,1.42v1a1.11,1.11,0,0,0,1.1,1.15,38,38,0,0,0,5.44-.12c.93-.15,1.83-.42,2.76-.64s1.27.07,1,1c-.22.8-.44,1.61-.63,2.41a1.64,1.64,0,0,1-1.74,1.32h-6.32v0Z"/><path class="cls-1" d="M611.77,61.49c-.64,0-1.42,0-2.2-.05a1.37,1.37,0,0,1-1.15-1.15c0-.31-.1-.63-.14-.95a1.34,1.34,0,0,0-1.3-1.2H600.9a1.47,1.47,0,0,0-1.36,1.13c-.08.31-.15.66-.22,1a1.51,1.51,0,0,1-1.54,1.25h-3.71c-.81,0-1-.42-.59-1.1a49.11,49.11,0,0,0,3.42-7.13q2.08-4.86,4.18-9.71a1.79,1.79,0,0,1,1.7-1.15h2.71a1.67,1.67,0,0,1,1.66,1.15q2.79,6.66,5.62,13.3a26.11,26.11,0,0,0,1.83,3.52,1,1,0,0,1,.17.34.52.52,0,0,1-.44.71c-.15,0-.32,0-.46,0h-2.08Zm-7.86-7.2h1.44c.73,0,1-.47.75-1.15-.56-1.51-1.14-3-1.73-4.54a.67.67,0,0,0-.15-.29.3.3,0,0,0-.56,0l-.14.29c-.61,1.54-1.22,3.08-1.81,4.61a.72.72,0,0,0,.71,1.08Z"/><path class="cls-1" d="M650.8,61.49c-.64,0-1.42,0-2.2-.05a1.32,1.32,0,0,1-1.12-1.15c-.05-.31-.1-.61-.12-.92A1.37,1.37,0,0,0,646,58.12h-5.91a1.48,1.48,0,0,0-1.47,1.25c-.05.26-.12.56-.19.85a1.52,1.52,0,0,1-1.52,1.27H633.1c-.73,0-1-.44-.58-1.05a47.61,47.61,0,0,0,3.41-7.13c1.42-3.27,2.81-6.54,4.23-9.81a1.7,1.7,0,0,1,1.66-1.1h2.73a1.71,1.71,0,0,1,1.66,1.15c1.88,4.46,3.73,8.91,5.64,13.37a26.19,26.19,0,0,0,1.78,3.4,1.6,1.6,0,0,1,.2.34.51.51,0,0,1-.44.76,3.73,3.73,0,0,0-.47,0h-2.1ZM643,54.29h1.42c.76,0,1-.44.78-1.15q-.81-2.09-1.59-4.17a2.56,2.56,0,0,0-.27-.64.31.31,0,0,0-.56,0c0,.08-.07.15-.12.25l-1.83,4.66a.71.71,0,0,0,.71,1.07H643Z"/><path class="cls-1" d="M616.11,42.38h1.78a1.74,1.74,0,0,1,1.71,1.14,41.22,41.22,0,0,0,2.86,5.86,1.51,1.51,0,0,0,.1.17c.31.54.78.54,1.07,0,.44-.78.85-1.58,1.29-2.39a30.78,30.78,0,0,0,1.54-3.59,1.76,1.76,0,0,1,1.71-1.19h3.69c.24,0,.51,0,.63.26a.65.65,0,0,1-.12.69c-2.47,3.44-4.22,7.27-6.25,11a5.34,5.34,0,0,0-.51,3.15c.07.95.22,1.93.36,2.88a1,1,0,0,1-.75,1.1,3.66,3.66,0,0,1-.74,0h-3.1a1,1,0,0,1-1.14-.9c0-.22,0-.46.07-.71.12-1,.27-2,.32-3a4.71,4.71,0,0,0-.49-2.32c-1.59-3-3.08-6-4.83-8.84-.47-.78-1-1.51-1.52-2.27-.14-.24-.36-.49-.19-.81s.49-.29.8-.29h1.74Z"/><path class="cls-1" d="M576,18.36h5.64a1.69,1.69,0,0,1,1.81,1.39c.19.9.46,1.78.68,2.66.17.68-.17,1.07-.88.95l-3.69-.66a.89.89,0,0,0-1.12.95v8.82a11.89,11.89,0,0,0,.71,3.68.93.93,0,0,1-1,1.32c-1.51,0-3,0-4.57,0-.78,0-1.14-.44-.87-1.2a16.09,16.09,0,0,0,.75-5.39c0-2.37,0-4.74,0-7.08s-.44-1.2-1.24-1.05l-3.52.63c-.73.13-1.1-.24-.9-1,.24-.9.46-1.81.71-2.71a1.59,1.59,0,0,1,1.73-1.32H576Z"/><path class="cls-1" d="M550.62,47.18v28.1a1,1,0,0,1-.51,1,.89.89,0,0,1-1.27-.8V19a1,1,0,0,1,.93-1.08.86.86,0,0,1,.85.83V47.16h0Z"/><path class="cls-1" d="M592.46,71.62v4c0,.14-.05.22-.22.22h-1.08c-.21,0-.29-.08-.29-.3V68.76c0-.24.08-.29.32-.31a1.43,1.43,0,0,1,1.66.9c.58,1.12,1.29,2.2,1.95,3.29.2.35.2.35.42,0,.75-1.29,1.53-2.58,2.29-3.88a.48.48,0,0,1,.54-.31c.34,0,.78-.15,1,.07s.05.63.05,1v6c0,.29-.08.39-.37.37h-.83c-.29,0-.41-.08-.39-.39V71.84c0-1.2,0-.2,0-.32-.24.42-.51.86-.75,1.27-.39.64-.76,1.29-1.15,1.95a.66.66,0,0,1-1.08,0c-.63-1-1.29-2.1-1.92-3.17h-.08Z"/><path class="cls-1" d="M607.18,71.35v4.1c0,.27,0,.37-.34.34h-1.08c-.17,0-.27,0-.27-.24V68.67c0-.18,0-.25.22-.22h1c.17,0,.25.09.35.22,1.07,1.29,2.12,2.61,3.19,3.9a2.78,2.78,0,0,1,.27.29V68.71c0-.22.08-.29.29-.26H612c.39,0,.25,0,.25.24v6.88c0,.17-.05.25-.22.22h-1c-.17,0-.24-.09-.34-.19-1-1.3-2.13-2.59-3.2-3.88a2.91,2.91,0,0,0-.32-.35h0Z"/><path class="cls-1" d="M625,68.45c-.73.78-1.39,1.51-2.08,2.22a9.46,9.46,0,0,1-.75.8c-.17.17-.15.3,0,.47q1.43,1.78,2.85,3.61s.08.1.17.22c-.39,0-.73,0-1.07,0a1.43,1.43,0,0,1-1.47-.68c-.48-.71-1.07-1.35-1.61-2-.12-.17-.19-.17-.34,0-.78.8-.8.8-.8,1.93s0,.8-.78.78c-.3,0-.66.12-.83,0s0-.56,0-.83V68.76c0-.24,0-.36.31-.34h1c.27,0,.37,0,.37.34v2.66c0,.88,0,.22,0,.37.27-.29.54-.59.81-.85.73-.79,1.48-1.57,2.24-2.35a.35.35,0,0,1,.32-.14H625Z"/><path class="cls-1" d="M653.51,68.45c-.73.78-1.39,1.51-2.08,2.22-.24.27-.49.56-.75.8s-.15.3,0,.47q1.43,1.78,2.85,3.61s.08.1.17.22c-.39,0-.73,0-1.07,0a1.42,1.42,0,0,1-1.47-.68c-.48-.71-1.07-1.35-1.61-2-.12-.17-.19-.17-.34,0-.78.8-.8.8-.8,1.93s0,.8-.79.78c-.29,0-.65.12-.83,0s0-.56,0-.83V68.76c0-.24,0-.36.31-.34h1c.27,0,.37,0,.37.34v2.66c0,.88,0,.22.05.37.27-.29.54-.59.8-.85.74-.79,1.49-1.57,2.25-2.35a.35.35,0,0,1,.32-.14h1.66Z"/><path class="cls-1" d="M635.79,75.79a1.19,1.19,0,0,1-1.2-.8,1.11,1.11,0,0,0-1.15-.78h-2.22a.4.4,0,0,0-.46.31c-.12.35-.27.69-.42,1-.07.17-.14.27-.36.24h-1.25c-.22,0-.22-.05-.14-.22,1-2.29,2-4.59,3.07-6.9.07-.18.15-.25.34-.22h1.22a.29.29,0,0,1,.32.19c1,2.3,2.05,4.59,3.08,6.91.09.22,0,.27-.17.24h-.66Zm-3.23-5.66c-.36.9-.7,1.76-1.07,2.59-.07.17,0,.22.15.22h1.8c.17,0,.25,0,.17-.22l-1.05-2.57h0Z"/><path class="cls-1" d="M645.57,75.79h-1.63c-.17,0-.2-.12-.25-.22-.14-.36-.31-.73-.43-1.12a.34.34,0,0,0-.37-.24h-2.83a.38.38,0,0,0-.42.29c-.12.37-.31.73-.46,1.12,0,.12-.12.2-.27.17h-1.24c-.27,0-.25-.09-.18-.29.52-1.12,1-2.25,1.52-3.39s1-2.27,1.51-3.42a.32.32,0,0,1,.39-.24h1.17c.39,0,.22,0,.3.14,1,2.37,2.12,4.76,3.22,7.2h0Zm-4.15-5.66c-.41,1-.78,1.86-1.14,2.78h2.29c-.36-.9-.73-1.78-1.15-2.78Z"/><path class="cls-1" d="M578.23,68.32a5.2,5.2,0,0,1,2.27.52c.17.07.24.17.14.36s-.19.76-.41.93-.59-.17-.9-.27a3.54,3.54,0,0,0-1.88-.07.77.77,0,0,0-.64.68c0,.29.17.54.61.66.64.2,1.27.34,1.91.54a4.6,4.6,0,0,1,.56.19,1.79,1.79,0,0,1,1.19,1.69,2,2,0,0,1-.92,1.78,3.78,3.78,0,0,1-2.23.56,5.65,5.65,0,0,1-2.39-.51c-.12,0-.24-.12-.34-.17s-.19-.2-.12-.39.24-.54.34-.81.15-.19.34-.1a4.07,4.07,0,0,0,2.88.54.7.7,0,0,0,.39-.15.61.61,0,0,0,0-1.07,3,3,0,0,0-.9-.32,12,12,0,0,1-1.66-.46,1.82,1.82,0,0,1-1.34-1.56,2,2,0,0,1,.92-2,3.88,3.88,0,0,1,2.23-.54h0Z"/><path class="cls-1" d="M570.86,68.45h2.9c.24,0,.32.07.29.29v.78c0,.27-.09.34-.34.32H572.1c-.29,0-.39.07-.39.39v5.2c0,.29-.05.39-.37.36h-1c-.27,0-.37-.05-.37-.34V70.28c0-1.74-.15-.44-.41-.44h-1.66c-.2,0-.3,0-.27-.27v-.88c0-.22.07-.24.27-.24h2.93Z"/><path class="cls-1" d="M584.53,72.13V75.5c0,.22,0,.32-.3.29h-1.17c-.39,0-.24-.05-.24-.24V68.67c0-.18,0-.25.22-.22h1.14c.27,0,.37,0,.37.34v3.34h0Z"/><path class="cls-1" d="M603.17,72.13v3.35c0,.26-.07.34-.34.31h-1.1c-.19,0-.26-.05-.26-.27V68.67c0-.2.07-.25.26-.25h1.18c.24,0,.29.1.29.32v3.37h0Z"/><path class="cls-1" d="M588.53,72.13v3.35c0,.26-.07.34-.34.31h-1.1c-.2,0-.25-.05-.25-.24V68.69c0-.2.08-.27.27-.27h1.15c.22,0,.29,0,.27.27v3.42h0Z"/><path class="cls-1" d="M626.66,71.5c-.39,0-.54-.17-.44-.52,0-.19.09-.39.14-.58s.2-.56-.17-.83a1,1,0,0,1-.07-1.17,1,1,0,0,1,1.2-.42.91.91,0,0,1,.65.91,2.93,2.93,0,0,1-.24,1c-.12.37-.32.71-.41,1.1s-.3.58-.66.46h0Z"/><path class="cls-1" d="M634.71,66.42c-.56.46-1.15.93-1.73,1.37a.9.9,0,0,1-.49,0h-.85c.31-.35.61-.61.85-.93a1.26,1.26,0,0,1,1.29-.56,5.53,5.53,0,0,0,.91,0v.07h0Z"/><path class="cls-1" d="M582.72,67.81c.44-.49.88-.93,1.29-1.37a.3.3,0,0,1,.25-.09h1.61a8.15,8.15,0,0,0-1,.83,2.17,2.17,0,0,1-2.13.63h0Z"/><path class="cls-1" d="M520.35,11.94c.32-.17.66-.32,1-.49a19,19,0,0,1,4.37-1.83,5.85,5.85,0,0,1,2.91,0,3.13,3.13,0,0,1,2.29,2.56,3.75,3.75,0,0,1-.51,2.81,2.36,2.36,0,0,1-3.69.19,1.15,1.15,0,0,1,.51-1.88,1,1,0,0,1,1,.27c.26.22.44.17.56-.14a1.24,1.24,0,0,0-1.2-1.71,6.81,6.81,0,0,0-3.47.85c-1.29.64-2.58,1.32-3.88,1.95a12.29,12.29,0,0,1-3.58,1.2,9.92,9.92,0,0,1-2.93-.07c-2.37-.37-4.67-1.13-7-1.69a20.81,20.81,0,0,0-4.47-.68A5.07,5.07,0,0,0,497,17.53a7.26,7.26,0,0,0,0,2.9,4.33,4.33,0,0,0,8.42,0,3.14,3.14,0,0,0-.08-1.49,1.65,1.65,0,0,0-1.07-1.15,3.71,3.71,0,0,0-1.86-.29,1.91,1.91,0,0,0-1.53,1.41,1.9,1.9,0,0,1-.2.74,1,1,0,0,1-1.19.46,1.11,1.11,0,0,1-.76-1,3.83,3.83,0,0,1,1.46-3,4.69,4.69,0,0,1,2.37-.93,5.68,5.68,0,0,1,2.76.59,29.32,29.32,0,0,0,5.76,2.22,18.78,18.78,0,0,0,5,.32,26.05,26.05,0,0,0,7.78-1.93,1.1,1.1,0,0,1,1.52.49,1.17,1.17,0,0,1-.64,1.56c-.61.25-1.22.49-1.85.71-.18.05-.27.1-.22.34a1.12,1.12,0,0,1-.83,1.25,1,1,0,0,1-1.22-.74c0-.12-.08-.17-.2-.12a.87.87,0,0,0-.22.05c-.46.07-.85.15-.88.78,0,.42-.51.71-.93.73a1.05,1.05,0,0,1-1-.73c0-.19-.12-.24-.31-.19h-.27a1.46,1.46,0,0,0-.56.07c-.2.07-.1.32-.17.46a1.18,1.18,0,0,1-1,.74,1,1,0,0,1-1-.86c0-.27-.14-.39-.41-.34h-.2c-.31-.07-.56-.07-.7.34a1,1,0,0,1-1,.54,1.05,1.05,0,0,1-.92-.93c0-.27-.15-.34-.37-.39a17.56,17.56,0,0,1-2.37-.73c-.22-.1-.27,0-.24.19a4.88,4.88,0,0,1-.27,2c-.07.22,0,.29.17.36a16.72,16.72,0,0,0,4.32,1.42,14.31,14.31,0,0,0,7.5-.66,9.64,9.64,0,0,1,3.73-.64,3.46,3.46,0,0,1,3.39,3.25,1,1,0,0,1-.88,1.05,1.09,1.09,0,0,1-1.17-.76v-.09c0-1.2-1-1.44-1.93-1.4a8.51,8.51,0,0,0-2.56.59,15,15,0,0,1-4.88.95,17.24,17.24,0,0,1-8.42-1.88c-.17-.07-.27-.1-.42.08a6.22,6.22,0,0,1-7.47,1.73,2,2,0,0,0-1.14-.22c-.64.05-1.3,0-2,0A1.5,1.5,0,0,0,494.18,27V66.52a1.55,1.55,0,0,0,1.74,1.73h15.77a1.62,1.62,0,0,0,1.53-.73,1.35,1.35,0,0,0,.22-.76V28.85a1.12,1.12,0,0,1,.39-1,.9.9,0,0,1,1-.1,1,1,0,0,1,.56.85v1.52c0,.19,0,.29.27.29h12.5c.22,0,.29-.07.27-.29V28.8a1,1,0,0,1,1-1.12c.59,0,1,.44,1,1.12,0,6,0,11.92,0,17.87.1,10.82,0,21.63,0,32.44A6,6,0,0,1,525.72,85a5.58,5.58,0,0,1-1.46.15H483.1a6,6,0,0,1-6-4.71,5,5,0,0,1-.12-1.24V14.08a5.9,5.9,0,0,1,5.1-5.88,8.13,8.13,0,0,1,1.1-.07H494c.29,0,.39-.05.36-.39a4.69,4.69,0,0,1,6-4.52,5.39,5.39,0,0,1,1.42.61,8,8,0,0,1,1.19,1,4.64,4.64,0,0,1,1-1.39,3.31,3.31,0,0,1,4.83.44,2.53,2.53,0,0,1,.1,2.56,1,1,0,0,1-1.29.47,1.14,1.14,0,0,1-.61-1.42c.12-.34,0-.46-.27-.58a1.51,1.51,0,0,0-1.88,1,1.46,1.46,0,0,0,.93,1.76,7.18,7.18,0,0,0,3.68-.1,11.08,11.08,0,0,0,2.59-1A7.5,7.5,0,0,1,516,5.61,4.91,4.91,0,0,1,520.35,9a6.32,6.32,0,0,1,.17,2.8.1.1,0,0,0,0,.08h0v-.08h0ZM478.83,47.79V79c0,.29,0,.61,0,.9a4,4,0,0,0,4,3.27H524c13.72,0,.53,0,.8,0a4,4,0,0,0,3.3-3.93q0-17.25,0-34.52c0-.27-.07-.32-.34-.32h-12.4c-.24,0-.32,0-.32.32,0,.85,0,1.73,0,2.59V66.79c0,6.51,0,.36,0,.53a3.54,3.54,0,0,1-3.64,3h-16a2.77,2.77,0,0,1-.9-.1,3.51,3.51,0,0,1-2.76-3.49V28c0-.26,0-.36-.34-.36h-2.32a17.21,17.21,0,0,1-2.27-.05,2.42,2.42,0,0,1-2.07-2,14,14,0,0,1,0-3.54c0-.22,0-.24-.22-.24h-1.25a2.55,2.55,0,0,1-2.63-2.69V17a2.73,2.73,0,0,1,.07-.75c.08-.22,0-.27-.19-.27a4.25,4.25,0,0,1-1.66-.22c-.15-.07-.2,0-.2.15v31.9h0ZM493,12.23v1.15a.85.85,0,0,0,.88.9h1.86c.61,0,.24,0,.31-.17a6.24,6.24,0,0,1,1.2-1.32A7.36,7.36,0,0,1,501.8,11a22.44,22.44,0,0,1,5.59.78c1.88.44,3.73,1,5.61,1.42a5.56,5.56,0,0,0,3.81-.35,2.16,2.16,0,0,0,1.42-2.41,2.59,2.59,0,0,0-1.88-2.37,4.5,4.5,0,0,0-3.35.46,13.47,13.47,0,0,1-5.41,1.64,6.38,6.38,0,0,1-3.08-.46c-.27-.13-.32-.08-.34.19a.82.82,0,1,1-1.59-.29,4,4,0,0,0-1.39-4,3.28,3.28,0,0,0-4.66.12,2.52,2.52,0,0,0,.12,3.71,1.82,1.82,0,0,0,2.71-.32,1.26,1.26,0,0,0-.59-1.9,2,2,0,0,1-.31-.13.77.77,0,0,1-.35-1,.8.8,0,0,1,.91-.51,2.55,2.55,0,0,1,1.17.59A2.88,2.88,0,0,1,501,9.3a3.3,3.3,0,0,1-2.74,2.2,3.74,3.74,0,0,1-3-1.15.47.47,0,0,0-.39-.2c-.34.08-.7,0-1.07,0a.82.82,0,0,0-.83.86v1.15h0v0ZM521.69,40.4h-6.17c-.32,0-.39.1-.37.39v1.05c0,.29.08.34.37.34h12.37c.25,0,.32-.07.32-.32v-1.1c0-.29-.1-.34-.36-.34h-6.16Zm0-6h6.22c.24,0,.34-.05.32-.32v-1.1c0-.27-.05-.37-.34-.37H515.47c-.24,0-.34,0-.32.32V34c0,.3.05.4.37.4h6.13Zm0,2.14h-6.22c-.25,0-.35,0-.32.32v1.07c0,.3,0,.4.36.4h12.33c.27,0,.39-.05.37-.35V36.86c0-.27-.05-.37-.34-.37ZM495.14,16H494a2.5,2.5,0,0,1-2.53-1.9c0-.12-.05-.22-.22-.22a21.2,21.2,0,0,0-2.52.05.78.78,0,0,0-.75.85c0,.74,0,1.47,0,2.2a.94.94,0,0,0,1,1h3.29c.76,0,1.49,0,2.25,0,.14,0,.29,0,.31-.2a9.7,9.7,0,0,1,.37-1.81h0Zm-12.67,2v1.22a.84.84,0,0,0,.85.88H484c1.17,0,2.34,0,3.51,0,.61,0,1.25,0,1.86,0s.27-.24.29-.39-.17-.12-.27-.12h-.73a2.52,2.52,0,0,1-2.44-2.2c-.05-.39,0-.8,0-1.19,0-.15,0-.22-.2-.22h-2.66c-.61,0-.88.36-.88,1v1h0Zm3.88-4.2h-.73a2.52,2.52,0,0,1-2.35-1.8,5.51,5.51,0,0,1-.07-1.52c0-.19-.05-.27-.24-.27a3.91,3.91,0,0,0-3.86,2.57,1.11,1.11,0,0,0,1,1.51c1.91,0,3.84,0,5.74.05q.48,0,.51-.51h0Zm9.57,9.4a7.47,7.47,0,0,1-.81-1.66,10.23,10.23,0,0,1-.36-1.73c0-.1,0-.17-.15-.17a20.06,20.06,0,0,0-2.69.07.78.78,0,0,0-.63.76v2.46a.7.7,0,0,0,.54.76,3.26,3.26,0,0,0,1.78,0,6.49,6.49,0,0,1,2.32-.49Zm-6.37,2.71h2.12c.27,0,.39-.12.41-.34s-.22-.15-.31-.17a2.56,2.56,0,0,1-2.13-2c-.09-.44,0-.9-.05-1.34,0-.12,0-.22-.19-.22h-2c-.61,0-.9.36-.9,1V24.9a.88.88,0,0,0,1,1Zm-1.4-15.72h-2.49c-.83,0-.87,0-.85.88,0,.73.32,1.1,1.07,1.1h5.18c.22,0,.27-.08.27-.3a6.66,6.66,0,0,1,.05-1.41c.05-.25,0-.32-.25-.32h-3Z"/><path class="cls-1" d="M517.64,3.32c-.17-.63-.32-1.22-.49-1.83a.64.64,0,0,1,.39-.83c.35-.1.64.12.76.54.2.75.42,1.53.61,2.32a.66.66,0,0,0,.39.48.77.77,0,0,1,.12,1.3.71.71,0,0,1-.8,0,7.81,7.81,0,0,0-3.49-.78,10,10,0,0,0-4.23,1l-.36.17a.71.71,0,0,1-.83-.24.77.77,0,0,1,.07-1,2.8,2.8,0,0,1,.93-.54c.19-.07.22-.17.17-.39-.19-.71-.39-1.44-.59-2.17a.62.62,0,0,1,.44-.81.6.6,0,0,1,.71.51c.2.69.37,1.37.56,2.05,0,.2.1.3.37.22.61-.17.61-.14.46-.75s-.31-1.2-.46-1.79a.62.62,0,0,1,.41-.83c.35-.07.61.13.74.52.19.73.41,1.46.58,2.22,0,.22.12.32.37.29.8,0,.8,0,.58-.8l-.36-1.4a.63.63,0,0,1,.39-.83c.34-.09.63.1.76.54.19.76.41,1.54.61,2.32a.35.35,0,0,0,.36.34,3.55,3.55,0,0,1,.78.17h0Z"/><path class="cls-1" d="M509.78,61.29h-1.95a.84.84,0,1,1-.07-1.68h4a.83.83,0,0,1,.86.88c0,.49-.34.78-.91.78h-2Z"/><path class="cls-1" d="M497.43,61.29h-1.95a.78.78,0,0,1-.88-.8.83.83,0,0,1,.85-.88h4a.9.9,0,0,1,.91.85.85.85,0,0,1-.93.81h-2Z"/><path class="cls-1" d="M497.45,39.28H495.5a.82.82,0,0,1-.93-.83.86.86,0,0,1,.93-.86h3.86a.86.86,0,0,1,.95.86.85.85,0,0,1-.95.8h-1.88Z"/><path class="cls-1" d="M510.54,50.63h1.19a.82.82,0,0,1,.91.78.81.81,0,0,1-.83.9,17.94,17.94,0,0,1-2.54,0,.84.84,0,0,1-.76-.8.87.87,0,0,1,.71-.83,8.14,8.14,0,0,1,1.29,0h0Z"/><path class="cls-1" d="M496.55,50.63h1.25a.84.84,0,0,1,.83.56.79.79,0,0,1-.2.85.83.83,0,0,1-.46.25,19.68,19.68,0,0,1-2.66,0,.83.83,0,0,1-.05-1.64,11.08,11.08,0,0,1,1.27,0h0Z"/><path class="cls-1" d="M496.62,55.14h1.18a.85.85,0,0,1,.88.81.89.89,0,0,1-.83.88h-2.42a.79.79,0,0,1-.83-.88c0-.49.34-.78.9-.78h1.15Z"/><path class="cls-1" d="M496.65,46.35h1.22a.85.85,0,0,1,.83.79A.9.9,0,0,1,498,48a2.45,2.45,0,0,1-.61,0h-1.88a.84.84,0,0,1-.93-.86c0-.51.34-.83.93-.83h1.12Z"/><path class="cls-1" d="M496.62,65.49H495.4a.79.79,0,0,1-.83-.73.82.82,0,0,1,.69-.93,4.61,4.61,0,0,1,.54,0h1.92a.87.87,0,0,1,1,.85.89.89,0,0,1-1,.83Z"/><path class="cls-1" d="M496.62,43.52H495.4a.79.79,0,0,1-.83-.73.82.82,0,0,1,.69-.93,4.61,4.61,0,0,1,.54,0h1.92a.87.87,0,0,1,1,.85.89.89,0,0,1-1,.83Z"/><path class="cls-1" d="M496.62,33.12h1.23a.84.84,0,0,1,.85.79.85.85,0,0,1-.73.87,18.17,18.17,0,0,1-2.66,0,.3.3,0,0,1-.13,0,.81.81,0,0,1-.58-.9.81.81,0,0,1,.76-.74h1.26Z"/><path class="cls-1" d="M510.59,56.83h-1.15a.85.85,0,1,1,0-1.69h2.29a.81.81,0,0,1,.91.83.83.83,0,0,1-.88.86Z"/><path class="cls-1" d="M496.65,30.29h-1.22a.83.83,0,0,1-.12-1.66,19.68,19.68,0,0,1,2.66,0,.84.84,0,0,1,.73.86.85.85,0,0,1-.85.78h-1.18Z"/><path class="cls-1" d="M510.59,65.49h-1.17a.84.84,0,0,1-.88-.78.83.83,0,0,1,.78-.85c.85,0,1.73,0,2.59,0a.76.76,0,0,1,.73.9.83.83,0,0,1-.86.76h-1.17Z"/><path class="cls-1" d="M510.61,46.35h1.1a.8.8,0,0,1,.9.81.86.86,0,0,1-.9.88H510a2.85,2.85,0,0,1-.8,0,.83.83,0,0,1,.12-1.64h1.34Z"/><path class="cls-1" d="M520.35,11.94h0s0,0,0,0h0Z"/><path class="cls-1" d="M516.84,59.24c0-1.56,0-3.15,0-4.73a3.46,3.46,0,0,1,1.8-3.13,2.91,2.91,0,0,1,1.49-.34h6.23a1.11,1.11,0,0,1,.9,1.88,1.06,1.06,0,0,1-.85.29h-6.23a1.16,1.16,0,0,0-1.27,1.22V64a1.12,1.12,0,0,0,1.25,1.22h6.17a1.08,1.08,0,0,1,1.22,1.13,1,1,0,0,1-1,1.07c-2.22,0-4.47,0-6.69,0a3.16,3.16,0,0,1-3-2.85,5.43,5.43,0,0,1,0-.91V59.17h0Z"/><path class="cls-1" d="M490.6,37.3c0,1.59,0,3.17,0,4.76A3.46,3.46,0,0,1,489,45a2.92,2.92,0,0,1-1.56.44h-6.34a1.1,1.1,0,1,1,0-2.2h6.07c1,0,1.42-.44,1.44-1.44v-9a1.78,1.78,0,0,0-.17-.88,1,1,0,0,0-1.05-.66h-6.32a1,1,0,0,1-1.05-.64,1.12,1.12,0,0,1,.15-1.19,1,1,0,0,1,.9-.37h6.32a3.27,3.27,0,0,1,3.2,2.88,11.91,11.91,0,0,1,.05,1.59v3.76h0Z"/><path class="cls-1" d="M490.6,59.27V64A3.5,3.5,0,0,1,489,67a2.86,2.86,0,0,1-1.59.46H481a1.1,1.1,0,1,1-.08-2.19h6.18a1.25,1.25,0,0,0,1.42-1.39V54.92a1.9,1.9,0,0,0-.13-.85,1.06,1.06,0,0,0-1.1-.76H481a1,1,0,0,1-1-.61,1.11,1.11,0,0,1,.14-1.19,1,1,0,0,1,.93-.4h6.32A3.28,3.28,0,0,1,490.55,54a5.32,5.32,0,0,1,.05.9v4.47h0Z"/><path class="cls-1" d="M503.44,73.43H499a1.62,1.62,0,0,0-.81.14,1.12,1.12,0,0,0-.66,1.05V81a1,1,0,0,1-1.07,1.12,1.08,1.08,0,0,1-1.1-1.15V74.55a3.26,3.26,0,0,1,2.91-3.13,9.35,9.35,0,0,1,1.41,0H508a4,4,0,0,1,2.32.66,3,3,0,0,1,1.34,2.52v6.52a1.08,1.08,0,0,1-.73,1,1.1,1.1,0,0,1-1.27-.41,1.21,1.21,0,0,1-.15-.64v-6.3a1.16,1.16,0,0,0-1.24-1.27h-4.76Z"/><path class="cls-1" d="M486.93,37.18a9.8,9.8,0,0,1-.07,1.88,3,3,0,0,1-3,2.36,4.38,4.38,0,0,1-2.54-.48,2.83,2.83,0,0,1-1.32-2.3c0-.93,0-1.85,0-2.81a2.88,2.88,0,0,1,2.61-2.75,12.18,12.18,0,0,1,1.91,0,3,3,0,0,1,2.37,2.41c.07.56,0,1.15,0,1.69Zm-5.46,0v1.25a1.4,1.4,0,0,0,1.36,1.41h1.1a1.42,1.42,0,0,0,1.49-1.46V36a1.42,1.42,0,0,0-1.34-1.46,3.91,3.91,0,0,0-1.08,0,1.48,1.48,0,0,0-1.56,1.66v1h0Z"/><path class="cls-1" d="M526.94,59.24a11.92,11.92,0,0,1,0,1.69,2.87,2.87,0,0,1-2.88,2.51,8.17,8.17,0,0,1-1.71-.07,2.94,2.94,0,0,1-2.29-2.71,18.87,18.87,0,0,1,0-3.1,2.88,2.88,0,0,1,2.76-2.47h1.34A2.92,2.92,0,0,1,527,57.93v1.31h0Zm-1.46,0V58a1.45,1.45,0,0,0-1.37-1.39H523a1.47,1.47,0,0,0-1.46,1.47v2.41a1.46,1.46,0,0,0,1.29,1.47,4.82,4.82,0,0,0,1.2,0,1.46,1.46,0,0,0,1.46-1.61V59.24h0Z"/><path class="cls-1" d="M486.93,59.19a7.91,7.91,0,0,1-.12,2,2.92,2.92,0,0,1-2.76,2.19h-1.31a2.91,2.91,0,0,1-2.76-2.8V58.05a2.93,2.93,0,0,1,2.85-3c.52,0,1,0,1.54,0a3,3,0,0,1,2.52,2.47c.07.56,0,1.12,0,1.66h0Zm-5.46,0v1.27a1.42,1.42,0,0,0,1.41,1.42h1.05a1.49,1.49,0,0,0,1.52-1.47V58a1.47,1.47,0,0,0-1.23-1.42,4.76,4.76,0,0,0-1.41,0A1.44,1.44,0,0,0,481.47,58v1.17Z"/><path class="cls-1" d="M503.29,81.82a7.83,7.83,0,0,1-1.93-.12,2.86,2.86,0,0,1-2-2.76,7.87,7.87,0,0,1,.05-1.68,2.88,2.88,0,0,1,2.79-2.37,21.74,21.74,0,0,1,3,0,2.94,2.94,0,0,1,2.47,2.59,9.37,9.37,0,0,1-.05,2,2.94,2.94,0,0,1-2.76,2.34h-1.56Zm.17-1.49h1.24a1.41,1.41,0,0,0,1.44-1.46V77.82A1.4,1.4,0,0,0,505,76.4a13,13,0,0,0-2.86,0,1.37,1.37,0,0,0-1.29,1.54v1a1.42,1.42,0,0,0,1.39,1.41Z"/><path class="cls-1" d="M521.65,46.16h3.85a1,1,0,0,1,1,.81,1.09,1.09,0,0,1-.56,1.14,1.28,1.28,0,0,1-.61.12h-7.43a1.1,1.1,0,0,1-1.07-.61,1,1,0,0,1,.1-1,1.06,1.06,0,0,1,.93-.41h3.76Z"/><path class="cls-1" d="M527.65,79.5a1.35,1.35,0,0,1-.39.93q-.56.58-1.17,1.17a1.18,1.18,0,0,1-1.52.17,2.46,2.46,0,0,1-1.14-1.39.86.86,0,0,1,.39-1A2.87,2.87,0,0,0,525,78.16a.92.92,0,0,1,.83-.46,2.1,2.1,0,0,1,1.81,1.8h0Z"/><path class="cls-1" d="M482.49,77a1.12,1.12,0,0,1,.88.49,6.31,6.31,0,0,0,1.34,1.44.56.56,0,0,1,.12.88,11.19,11.19,0,0,1-.9,1.08,1.11,1.11,0,0,1-1.37.14,4,4,0,0,1-1.7-1.93,1.16,1.16,0,0,1,.31-1.44c.61-.51.86-.66,1.3-.66h0Z"/><path class="cls-1" d="M486,78a.7.7,0,0,1-.39-.15,4.31,4.31,0,0,1-1.54-2,.68.68,0,0,1,.22-.83c.34-.27.69-.56,1-.83a.66.66,0,0,1,1.08.15,5.48,5.48,0,0,0,1.34,1.54.24.24,0,0,1,.05.41c-.42.46-.81,1-1.22,1.44a.63.63,0,0,1-.51.24h0Z"/><path class="cls-1" d="M524.33,76.55a1.28,1.28,0,0,1-.34.78c-.27.27-.54.56-.83.83a1.12,1.12,0,0,1-1.78.07,2,2,0,0,1-.52-.63.84.84,0,0,1,.35-1.29,2.06,2.06,0,0,0,.8-.83.89.89,0,0,1,1-.47,1.86,1.86,0,0,1,1.29,1.56h0Z"/><path class="cls-1" d="M490.47,79.6h3.74c.22,0,.39.05.46.29a.33.33,0,0,1-.27.42,1.61,1.61,0,0,1-.31,0h-7.42c-.25,0-.44-.1-.44-.37s.17-.36.44-.36h3.83Z"/><path class="cls-1" d="M516.59,79.6h3.71c.37,0,.54.12.52.37s-.25.36-.54.36h-7.4c-.22,0-.44,0-.51-.27s.1-.46.44-.46Z"/><path class="cls-1" d="M520.62,73.16a.84.84,0,0,1-.22.58c-.29.32-.61.64-.93.93a.77.77,0,0,1-.9.12,1.77,1.77,0,0,1-.85-.9A.63.63,0,0,1,518,73a1.83,1.83,0,0,0,.73-.7.69.69,0,0,1,.73-.37,1.42,1.42,0,0,1,1.15,1.22h0Z"/><path class="cls-1" d="M488.79,74.79a.6.6,0,0,1-.49-.22,4.87,4.87,0,0,1-.93-1.34.73.73,0,0,1,.15-.81c.24-.22.49-.43.76-.65a.48.48,0,0,1,.75.14,8.94,8.94,0,0,0,.81,1.08.6.6,0,0,1,.07.83,7.21,7.21,0,0,1-.68.8.55.55,0,0,1-.44.15h0Z"/><path class="cls-1" d="M482.3,72.42v3.2c0,.37-.13.54-.37.51s-.37-.26-.37-.53V69a.36.36,0,0,1,.39-.37c.25,0,.35.15.35.39V72.4h0Z"/><path class="cls-1" d="M525.48,72.4v3.25c0,.27-.05.48-.37.48s-.39-.21-.39-.48V69.08c0-.24.1-.44.37-.46s.36.17.36.44v3.32h0Z"/><path class="cls-1" d="M491.13,72a.73.73,0,0,1-.56-.26,3.39,3.39,0,0,1-.44-.71.68.68,0,0,1,.12-.88c.3-.27.64-.54,1-.81a.44.44,0,0,1,.63,0c.2.22.42.42.64.64a.46.46,0,0,1,0,.7l-.87,1a.65.65,0,0,1-.54.22h0Z"/><path class="cls-1" d="M480.66,25V22.63c0-.25.1-.44.39-.44s.37.19.37.46v4.84c0,.24-.1.41-.34.44s-.39-.18-.39-.44v-2.4h0Z"/><path class="cls-1" d="M492.06,76.35h-2.12c-.27,0-.49,0-.49-.36s.24-.37.49-.37h4.24c.27,0,.49.08.49.39s-.22.37-.49.37h-2.12Z"/><path class="cls-1" d="M515,76.35h-2.13c-.24,0-.46,0-.46-.34s.19-.39.46-.39h4.25c.27,0,.46.08.49.39s-.22.37-.49.37H515Z"/><path class="cls-1" d="M516.71,72.23c-.44,0-1.05-.61-1-1a.53.53,0,0,1,.3-.42,1.46,1.46,0,0,0,.51-.51.53.53,0,0,1,.78-.19.83.83,0,0,1,.27,1.48l-.44.44a.72.72,0,0,1-.42.2Z"/><path class="cls-1" d="M485.47,70.74V69.13c0-.27.1-.46.39-.46s.37.22.37.46v3.32c0,.24-.1.49-.39.46s-.37-.22-.37-.49V70.76h0Z"/><path class="cls-1" d="M520.82,70.76V69.15c0-.26,0-.48.36-.48s.37.19.37.46v3.29c0,.27-.1.47-.37.47s-.39-.2-.36-.49V70.76Z"/><path class="cls-1" d="M483.66,26.12V24.85c0-.27.1-.46.39-.46s.37.22.37.46v2.61c0,.25-.1.44-.39.44s-.39-.22-.39-.46V26.12h0Z"/><path class="cls-1" d="M489.67,48.28v1.15c0,.24-.1.42-.37.42s-.36-.18-.36-.42V47.09a.35.35,0,0,1,.39-.39c.24,0,.34.17.34.41v1.17Z"/><path class="cls-1" d="M481.05,48.26V47.11c0-.24.1-.41.37-.41s.36.14.36.41v2.32c0,.24-.12.42-.36.42s-.37-.15-.37-.42V48.26Z"/><path class="cls-1" d="M485.74,48.28v1.15c0,.24-.12.42-.37.42s-.36-.18-.36-.42V47.11c0-.24.09-.41.36-.41s.37.17.37.41v1.17Z"/><path class="cls-1" d="M493.67,72.42h-.56a.4.4,0,0,1-.44-.36c0-.25.17-.37.42-.39h1.17a.41.41,0,0,1,.44.36.39.39,0,0,1-.44.39Z"/><path class="cls-1" d="M513.35,72.42h-.61a.36.36,0,0,1-.4-.36.36.36,0,0,1,.37-.39H514a.35.35,0,0,1,.39.36c0,.25-.17.37-.42.39h-.58Z"/><path class="cls-1" d="M513.05,12.06a4.5,4.5,0,0,1-1.44-.17,1.48,1.48,0,0,1-.49-.27.58.58,0,0,1-.09-.88,1,1,0,0,1,.22-.24A5.31,5.31,0,0,1,515,9.67c.65.07,1,.41,1,.88a1.26,1.26,0,0,1-.83,1.22,5.88,5.88,0,0,1-2.12.31h0Z"/><path class="cls-1" d="M887.16,36h9.52a.76.76,0,0,1,.75.44,12.26,12.26,0,0,0,12.28,5.66.69.69,0,0,1,.61.2l6.17,6.17a3.91,3.91,0,0,1-1.21.46,24.25,24.25,0,0,1-14.43.27,20.06,20.06,0,0,1-13.54-12.67c0-.14-.1-.31-.17-.53Z"/><path class="cls-1" d="M980.72,68.51q1.5-2.51,3-5c.95-1.62,1.92-3.22,2.86-4.84a.75.75,0,0,1,.75-.44c.75,0,1.53,0,2.28,0,.34,0,.51.08.51.47V74.54c0,.39-.12.48-.49.46-.89,0-1.79,0-2.66,0-.41,0-.51-.12-.51-.51,0-2.91,0-5.79-.05-8.69v-.51c-.24,0-.27.24-.36.38-1.43,2.35-2.86,4.7-4.27,7.08a1,1,0,0,1-.84.5c-.95.15-1.43-.29-1.89-1.08-1.31-2.28-2.71-4.51-4.12-6.81a1,1,0,0,0-.1.61v8.47c0,.44-.07.61-.55.58-.87,0-1.75,0-2.62,0-.34,0-.48-.07-.48-.46V58.7c0-.39.09-.49.48-.49a19.45,19.45,0,0,0,2.16,0,.89.89,0,0,1,.89.51l5.6,9.3a1,1,0,0,0,.41.51Z"/><path class="cls-1" d="M963.87,65.26c-.9,1.48-1.77,3-2.67,4.43-.63,1-1.26,2.09-1.86,3.13a.81.81,0,0,1-.66.41,1.84,1.84,0,0,1-2.08-1.16c-1.31-2.28-2.71-4.51-4.19-6.73v9.13c0,.41-.07.6-.56.58-.89,0-1.79,0-2.66,0-.36,0-.44-.12-.44-.46V58.72c0-.41.15-.51.54-.48.75,0,1.47,0,2.23,0a.78.78,0,0,1,.79.48c1.85,3.08,3.71,6.13,5.55,9.21.12.21.27.41.41.65a1.28,1.28,0,0,0,.39-.53q2.76-4.65,5.5-9.3a.81.81,0,0,1,.85-.49c.75,0,1.52,0,2.27,0,.32,0,.44.1.44.42v16c0,.34-.12.41-.44.41-.92,0-1.81,0-2.73,0-.42,0-.51-.12-.51-.51,0-2.93,0-5.88,0-8.81v-.39a.17.17,0,0,1-.12,0Z"/><path class="cls-1" d="M886.17,28.93a17.53,17.53,0,0,1,.7-5.06c2.35-7.8,7.71-12.4,15.46-14.41,1.38-.36,1.38-.31,2,1,1,1.94,1.94,3.9,2.93,5.84.17.34.24.48-.27.53a12.33,12.33,0,0,0-10.12,6.59.9.9,0,0,1-.41.43L886.17,29Z"/><path class="cls-1" d="M936.74,57.92c3.54.08,6.44,1.36,8.19,4.58a8.59,8.59,0,0,1-6.13,12.6A9.46,9.46,0,0,1,930.35,73a8.6,8.6,0,0,1,2.88-14.48,10.17,10.17,0,0,1,1.6-.44,8.92,8.92,0,0,1,1.94-.17ZM942,66.64A5.25,5.25,0,1,0,936.64,72,5.2,5.2,0,0,0,942,66.64Z"/><path class="cls-1" d="M836.14,69.79v3a.66.66,0,0,1-.3.63c-3.29,2.27-8.91,2.83-12.4,0a8.34,8.34,0,0,1-3.12-8.54,7.92,7.92,0,0,1,5.86-6.47,10,10,0,0,1,9,1.26c1.41,1,1.41,1,.12,2.2-.34.32-.68.61-1,1s-.44.29-.73,0a5.91,5.91,0,0,0-7.34-.61,5.44,5.44,0,0,0-1.93,6A5.15,5.15,0,0,0,829.14,72a6.49,6.49,0,0,0,3-.49.64.64,0,0,0,.46-.72c0-1.31,0-2.62,0-3.93,0-.41.12-.51.51-.51.87,0,1.74,0,2.62,0,.33,0,.46.1.46.44v3.05Z"/><path class="cls-1" d="M909.33,75h-3.76c-.29,0-.39-.15-.48-.39-.39-.94-.8-1.89-1.17-2.83-.12-.32-.31-.37-.6-.37h-6.88a.52.52,0,0,0-.58.39c-.39,1-.78,1.89-1.16,2.84-.08.19-.15.36-.41.36h-3.64c-.09-.22.05-.36.1-.51,2.32-5.26,4.67-10.51,7-15.77a.75.75,0,0,1,.8-.53c1,0,1.94,0,2.9,0a.5.5,0,0,1,.56.36c2.42,5.4,4.85,10.78,7.24,16.18l.1.29Zm-12.07-6.59h4.68c.56,0,.53-.17.36-.58-.72-1.74-1.45-3.49-2.18-5.23,0-.12,0-.32-.26-.36l-2.57,6.15Z"/><path class="cls-1" d="M838.39,75c.68-1.53,1.31-3,2-4.43,1.77-4,3.54-7.92,5.28-11.89a.72.72,0,0,1,.75-.51c1,0,1.94,0,2.91,0,.26,0,.46,0,.58.31,2.42,5.43,4.87,10.85,7.29,16.28V75h-2.23c-.61,0-1.33.24-1.77-.1s-.51-1-.73-1.57-.41-1-.58-1.43a.61.61,0,0,0-.7-.48h-6.78a.65.65,0,0,0-.7.48c-.37.92-.75,1.82-1.12,2.74a.46.46,0,0,1-.48.36h-3.68Zm9.39-12.89-2.49,6c-.15.34.07.31.29.31H850c.34,0,.42-.07.3-.41-.83-1.94-1.63-3.88-2.48-5.91Z"/><path class="cls-1" d="M881.5,57.92a12.71,12.71,0,0,1,5.88,1.14c.49.22.68.44.39,1A12.05,12.05,0,0,0,887,61.8c-.15.46-.32.56-.78.31a8.71,8.71,0,0,0-5-1,3.14,3.14,0,0,0-1.55.51,1.45,1.45,0,0,0,.07,2.57,11.53,11.53,0,0,0,3,.92,20.81,20.81,0,0,1,3,.89,4.2,4.2,0,0,1,2.93,3.71,4.59,4.59,0,0,1-2.42,4.5,8.61,8.61,0,0,1-4.57,1.09,13,13,0,0,1-6.3-1.47c-.73-.39-.7-.42-.39-1.14s.56-1.21.8-1.82c.15-.39.27-.43.63-.19a9.65,9.65,0,0,0,5.45,1.5,4.5,4.5,0,0,0,1.77-.34,1.52,1.52,0,0,0,1.11-1.43,1.54,1.54,0,0,0-1-1.38,15.34,15.34,0,0,0-2.88-.85,19.74,19.74,0,0,1-3.15-1,4.09,4.09,0,0,1-2.68-3.8A4.7,4.7,0,0,1,877.48,59a7.84,7.84,0,0,1,4-1.06Z"/><path class="cls-1" d="M918.7,57.92a8.68,8.68,0,0,1,6.56,2.6c.27.29.32.43,0,.72-.6.51-1.21,1-1.77,1.62-.31.34-.5.34-.84,0a5.48,5.48,0,0,0-6-1.21,5.36,5.36,0,0,0-3,6.3,5.16,5.16,0,0,0,5.5,4,5.32,5.32,0,0,0,3.66-1.7c.24-.27.38-.24.63,0,.6.58,1.21,1.14,1.86,1.67.34.29.29.46,0,.78a8.34,8.34,0,0,1-4.87,2.47,9.58,9.58,0,0,1-7.21-1.48,8.22,8.22,0,0,1-3.61-7.7c.26-4.7,4.14-8.14,9.15-8.07Z"/><path class="cls-1" d="M859.82,66.62V58.77c0-.43.1-.58.56-.58h11.67c.39,0,.54.07.54.49,0,.72,0,1.45,0,2.15,0,.39-.1.51-.51.51H864.4c-.46,0-.63.1-.61.58.05,1.11,0,2.23,0,3.37,0,.41.12.51.51.51H871c.44,0,.56.12.53.53,0,.72,0,1.45,0,2.15,0,.39-.09.49-.48.49H864.4c-.51,0-.63.12-.63.63,0,1.64,0,3.29,0,4.94,0,.43-.14.53-.53.53q-1.46,0-2.91,0c-.41,0-.55-.1-.53-.53V66.62Z"/><path class="cls-1" d="M906.2,8.9a27,27,0,0,1,5.77.25,25.14,25.14,0,0,1,10.92,4.62c1.28,1,1.28,1,.26,2.21-1.3,1.62-2.59,3.27-3.87,4.91-.27.34-.41.29-.7,0a16.28,16.28,0,0,0-8.07-4,.63.63,0,0,1-.53-.34c-1.24-2.47-2.47-4.94-3.71-7.43a2.5,2.5,0,0,1-.12-.32Z"/><path class="cls-1" d="M912.64,41.36a27,27,0,0,0,2.81-1.16.61.61,0,0,0,.41-.66V37.43c0-.41.1-.53.49-.31q3.52,1.82,7,3.58a.58.58,0,0,1,.34.59v3.24a.6.6,0,0,1-.32.56,27.15,27.15,0,0,1-4.26,2.37.41.41,0,0,1-.51-.07l-6-6Z"/><path class="cls-1" d="M923.78,33.87v4.05c0,.36,0,.48-.43.29C921,37,918.6,35.79,916.2,34.6a.57.57,0,0,1-.36-.6V29.78c0-.36.1-.48.48-.48h6.93c.46,0,.53.19.53.58v4Z"/><path class="cls-1" d="M895.67,26.75a13.46,13.46,0,0,0,.36,6.54c.1.29.07.42-.27.42H887a.42.42,0,0,1-.46-.39c-.08-.54-.15-1.09-.22-1.63,0-.19.1-.26.24-.33,3-1.53,6.08-3,9.18-4.58Z"/><path class="cls-1" d="M906.08,29.27h7.1c.41,0,.5.12.5.51,0,1.14,0,2.25,0,3.49-2.59-1.31-5.11-2.59-7.62-3.88a.34.34,0,0,1,0-.12Z"/></g></g></g></svg>