<svg xmlns="http://www.w3.org/2000/svg" viewBox="0 0 281.41 592.42"><defs><style>.cls-1{fill:#fff;}.cls-2{fill:#62cdb4;}</style></defs><g id="Layer_2" data-name="Layer 2"><g id="Pantalla_1" data-name="Pantalla 1"><g id="logo_tren_maya" data-name="logo tren maya"><path class="cls-1" d="M63.87,346l2.59,9.76c.54,2.06-.71,3.31-2.68,3l-12.27-2.24a3,3,0,0,0-3.67,3v28.65a35.91,35.91,0,0,0,1,7.44L50.35,401a2.72,2.72,0,0,1-2.78,3.67H31.72A2.67,2.67,0,0,1,29,401l1.52-5.29a35.07,35.07,0,0,0,1-7.43V359.53a3,3,0,0,0-3.66-3l-12.09,2.24c-2.06.36-3.32-.89-2.78-3l2.6-9.76a5.16,5.16,0,0,1,4.74-3.67H59.12A5.07,5.07,0,0,1,63.87,346"/><path class="cls-1" d="M95.93,374.39H104c6.53,0,10.39-3.31,10.39-9.67,0-6.09-3.86-9.4-10.39-9.4H95.93a3.78,3.78,0,0,0-3.76,3.76v11.55a3.72,3.72,0,0,0,3.76,3.76m7.43,13H95.93c-2.06,0-3.76,1.43-3.76,3.13a26.9,26.9,0,0,0,1.16,6.63l1.26,3.93a2.61,2.61,0,0,1-2.69,3.59H76.05a2.58,2.58,0,0,1-2.59-3.59l1.25-3.93a29.19,29.19,0,0,0,1.16-7.35V359.08a34.12,34.12,0,0,0-1-7.34L73.28,346a2.75,2.75,0,0,1,2.77-3.67H103.9c16.56,0,26,8,26,21.85,0,8-2.78,14.14-8,18.08-1.62,1.25-2.51,3.58-1.35,5.37,1.43,2.15,3.58,4.93,6.36,6.09,1.88.72,3.76,2.15,3,4.12a10.35,10.35,0,0,1-10,6.81c-13.08,0-11.55-17.28-16.57-17.28"/><path class="cls-1" d="M161.48,391.68h12.18a34.93,34.93,0,0,0,7.43-.9l7.7-1.88c2.06-.54,3.22.72,2.69,2.78L189,401a5.26,5.26,0,0,1-4.84,3.67H141.6a2.74,2.74,0,0,1-2.77-3.67l1.61-5.73a34,34,0,0,0,1-7.34V359.08a35.75,35.75,0,0,0-1-7.43l-1.61-5.73a2.71,2.71,0,0,1,2.77-3.58h41.64a5.3,5.3,0,0,1,4.83,3.58l2.24,8.41c.54,2.06-.63,3.32-2.69,3L181,356a40.77,40.77,0,0,0-7.43-.72H159.51c-1,0-1.79,1.7-1.79,3.76v4.12a3.78,3.78,0,0,0,3.76,3.76H183.6a2.72,2.72,0,0,1,2.77,3.67l-1.52,5.55a5.18,5.18,0,0,1-4.75,3.68l-18.62.08a3.78,3.78,0,0,0-3.76,3.77v4.2a3.79,3.79,0,0,0,3.76,3.77"/><path class="cls-1" d="M220.85,345.29l23.73,31.52c1.25,1.7,2.32,1.34,2.32-.72v-17a35.07,35.07,0,0,0-1-7.43l-1.61-5.73a2.71,2.71,0,0,1,2.78-3.58h14.68a2.7,2.7,0,0,1,2.77,3.58L263,351.65a30.25,30.25,0,0,0-1.08,7.43v29.19A35.26,35.26,0,0,0,263,395.7l1.51,5.29a2.75,2.75,0,0,1-2.77,3.67H251.56a8.42,8.42,0,0,1-6.09-3.05l-23.72-31.34c-1.25-1.61-2.24-1.25-2.24.81v17.19a33.09,33.09,0,0,0,1,7.35L222,401a2.72,2.72,0,0,1-2.77,3.67H204.47a2.67,2.67,0,0,1-2.69-3.67l1.52-5.37a33.69,33.69,0,0,0,1-7.35V359.08a33.6,33.6,0,0,0-1-7.43l-1.61-5.73a2.71,2.71,0,0,1,2.78-3.58h10.38a8.61,8.61,0,0,1,6,3"/><path class="cls-2" d="M232.39,529.85H45.17a3.63,3.63,0,0,1,0-7.26H232.39a3.63,3.63,0,1,1,0,7.26"/><path class="cls-1" d="M22.06,424.11l13.43,29.55c.9,1.88,2.24,1.88,3.14,0l13.43-29.55a6.23,6.23,0,0,1,5.28-3.4H71.13a2.67,2.67,0,0,1,2.77,3.58L72.38,430a35.73,35.73,0,0,0-1,7.43v29.28a34.12,34.12,0,0,0,1,7.34l1.52,5.29A2.72,2.72,0,0,1,71.13,483h-14a2.75,2.75,0,0,1-2.77-3.67L55.91,474a34.12,34.12,0,0,0,1-7.34V447.3c0-2.06-.72-2.24-1.52-.27L43.91,473.36a6.38,6.38,0,0,1-5.28,3.4H35.49a6.25,6.25,0,0,1-5.28-3.4L18.75,447c-.9-2-1.52-1.79-1.52.27v32A3.79,3.79,0,0,1,13.47,483H2.9a2.64,2.64,0,0,1-2.69-3.59l1.53-5.37a35,35,0,0,0,1-7.43V437.45a35.73,35.73,0,0,0-1-7.43L.12,424.29a2.71,2.71,0,0,1,2.78-3.58H16.78a6.37,6.37,0,0,1,5.28,3.4"/><path class="cls-1" d="M125.15,456.08l-5.83-15.22c-.71-2-2-2-2.68,0l-6,15.22c-.81,1.87.27,3.49,2.42,3.49h9.67a2.43,2.43,0,0,0,2.42-3.49M127.56,472H108.13a5.05,5.05,0,0,0-4.65,3.68l-.81,3.67A5.05,5.05,0,0,1,98,483H85.3c-2.06,0-3-1.44-1.88-3.23l2.68-4.56a58.8,58.8,0,0,0,3.41-6.72l19.07-44.32a6.05,6.05,0,0,1,5.28-3.49H123a6,6,0,0,1,5.2,3.49l18.62,44.32c.81,1.88,2.33,4.93,3.32,6.72l2.68,4.56c1.08,1.79.18,3.23-1.88,3.23H136.88a4.67,4.67,0,0,1-4.39-3.76l-.54-3.58a4.6,4.6,0,0,0-4.39-3.68"/><path class="cls-1" d="M188.57,466.73a67.08,67.08,0,0,0,.53,7.34l.72,5.19A3.17,3.17,0,0,1,186.6,483H174.33a3.17,3.17,0,0,1-3.22-3.77l.72-5.19a68.18,68.18,0,0,0,.53-7.07,17.43,17.43,0,0,0-1.79-6.81L158.12,437c-1-1.79-2.68-4.65-3.85-6.44l-4.56-6.72c-1.16-1.7-.45-3.13,1.7-3.13h12.26a6,6,0,0,1,5.2,3.49l2.51,6c.8,1.88,2.24,4.92,3.22,6.8l4,7.17c1,1.79,2.6,1.79,3.58,0l3.85-7.17c1-1.88,2.42-4.92,3.22-6.8l2.33-6a6,6,0,0,1,5.2-3.49h12.26c2.15,0,2.87,1.43,1.7,3.13l-4.38,6.63a64.54,64.54,0,0,0-3.85,6.45l-12.18,22.82a17.86,17.86,0,0,0-1.79,7"/><path class="cls-1" d="M252.43,456.08l-5.82-15.22c-.72-2-2-2-2.69,0l-6,15.22c-.8,1.87.27,3.49,2.42,3.49H250a2.43,2.43,0,0,0,2.42-3.49M254.84,472H235.41a5.07,5.07,0,0,0-4.65,3.68l-.81,3.67A5,5,0,0,1,225.3,483H212.58c-2.06,0-3-1.44-1.88-3.23l2.69-4.56a60.41,60.41,0,0,0,3.4-6.72l19.08-44.32a6,6,0,0,1,5.28-3.49h9.12a6,6,0,0,1,5.2,3.49l18.63,44.32c.8,1.88,2.32,4.93,3.31,6.72l2.69,4.56c1.07,1.79.17,3.23-1.88,3.23H264.16a4.67,4.67,0,0,1-4.39-3.76l-.54-3.58a4.6,4.6,0,0,0-4.39-3.68"/><path class="cls-2" d="M61.16,158.22H83.92c5.92,0,10.74-5.51,10.74-12.26V113.6c0-6.76-4.82-12.26-10.74-12.26H61.16a3.82,3.82,0,0,0,0,7.62H83.92c2,0,3.69,2.08,3.69,4.64V146c0,2.56-1.66,4.64-3.69,4.64H61.16a3.82,3.82,0,0,0,0,7.62"/><path class="cls-2" d="M83.92,234.49c5.92,0,10.74-5.5,10.74-12.26V189.87c0-6.76-4.82-12.26-10.74-12.26H61.16a3.82,3.82,0,0,0,0,7.62H83.92c2,0,3.69,2.08,3.69,4.64v32.36c0,2.56-1.65,4.64-3.69,4.64H61.16a3.82,3.82,0,0,0,0,7.62Z"/><path class="cls-2" d="M196.08,177.61c-5.92,0-10.73,5.5-10.73,12.26v32.36c0,6.76,4.81,12.26,10.73,12.26h22.76a3.82,3.82,0,0,0,0-7.62H196.08c-2,0-3.68-2.08-3.68-4.64V189.87c0-2.56,1.65-4.64,3.68-4.64h22.76a3.82,3.82,0,0,0,0-7.62Z"/><path class="cls-2" d="M155.17,248.17h-32C116.45,248.17,111,253,111,259v23a3.78,3.78,0,0,0,7.54,0V259c0-2.05,2.06-3.72,4.59-3.72h32c2.53,0,4.59,1.67,4.59,3.72v23a3.78,3.78,0,0,0,7.54,0V259c0-6-5.45-10.84-12.13-10.84"/><path class="cls-2" d="M68.21,144h3.6A10.26,10.26,0,0,0,82,133.74v-8.52a10.25,10.25,0,0,0-10.19-10.29h-3.6A10.25,10.25,0,0,0,58,125.22v8.52A10.26,10.26,0,0,0,68.21,144m-5.08-18.82a5.11,5.11,0,0,1,5.08-5.13h3.6a5.11,5.11,0,0,1,5.07,5.13v8.52a5.11,5.11,0,0,1-5.07,5.13h-3.6a5.11,5.11,0,0,1-5.08-5.13Z"/><path class="cls-2" d="M68.21,220.47h3.6A10.26,10.26,0,0,0,82,210.18v-8.53a10.26,10.26,0,0,0-10.19-10.29h-3.6A10.25,10.25,0,0,0,58,201.65v8.53a10.25,10.25,0,0,0,10.19,10.29m-5.08-18.82a5.1,5.1,0,0,1,5.08-5.12h3.6a5.1,5.1,0,0,1,5.07,5.12v8.53a5.11,5.11,0,0,1-5.07,5.12h-3.6a5.11,5.11,0,0,1-5.08-5.12Z"/><path class="cls-2" d="M210.12,191.49h-3.6a10.26,10.26,0,0,0-10.19,10.3v8.52a10.25,10.25,0,0,0,10.19,10.29h3.6a10.25,10.25,0,0,0,10.19-10.29v-8.52a10.26,10.26,0,0,0-10.19-10.3m5.07,18.82-5.12,5.12h-3.55l-5.08-5.07v-8.57l5.13-5.13h3.55l5.07,5.08Z"/><path class="cls-2" d="M143.37,260.36h-8.44a10.26,10.26,0,0,0-10.19,10.3v3.62a10.26,10.26,0,0,0,10.19,10.3h8.44a10.26,10.26,0,0,0,10.19-10.3v-3.62a10.26,10.26,0,0,0-10.19-10.3m5.08,13.92a5.12,5.12,0,0,1-5.08,5.14h-8.44a5.12,5.12,0,0,1-5.08-5.14v-3.62a5.12,5.12,0,0,1,5.08-5.14h8.44a5.12,5.12,0,0,1,5.08,5.14Z"/><path class="cls-2" d="M61.73,97.16A1.29,1.29,0,0,0,63,95.86V78.51a1.29,1.29,0,1,0-2.57,0V95.86a1.3,1.3,0,0,0,1.29,1.3"/><path class="cls-2" d="M72.06,97.22a1.29,1.29,0,0,0,1.28-1.29V86.15a1.28,1.28,0,1,0-2.56,0v9.78a1.28,1.28,0,0,0,1.28,1.29"/><path class="cls-2" d="M75.35,163.67v8.48a1.29,1.29,0,1,0,2.57,0v-8.48a1.29,1.29,0,1,0-2.57,0"/><path class="cls-2" d="M61.76,163.67v8.48a1.29,1.29,0,1,0,2.57,0v-8.48a1.29,1.29,0,1,0-2.57,0"/><path class="cls-2" d="M88.94,163.67v8.48a1.29,1.29,0,1,0,2.57,0v-8.48a1.29,1.29,0,1,0-2.57,0"/><path class="cls-2" d="M77.06,239.93V252.2a1.28,1.28,0,1,0,2.56,0V239.93a1.28,1.28,0,1,0-2.56,0"/><path class="cls-2" d="M63.47,239.93V263.5a1.28,1.28,0,1,0,2.56,0V239.93a1.28,1.28,0,1,0-2.56,0"/><path class="cls-2" d="M107.57,263H92a1.29,1.29,0,0,0-1.29,1.29,1.3,1.3,0,0,0,1.29,1.3h15.55a1.3,1.3,0,0,0,1.29-1.3,1.29,1.29,0,0,0-1.29-1.29"/><path class="cls-2" d="M107.57,276.68H80.83a1.3,1.3,0,0,0,0,2.59h26.74a1.3,1.3,0,0,0,0-2.59"/><path class="cls-2" d="M107.57,249.18h-4.42a1.3,1.3,0,0,0,0,2.6h4.42a1.3,1.3,0,0,0,0-2.6"/><path class="cls-2" d="M199.05,239.93V252.2a1.28,1.28,0,1,0,2.56,0V239.93a1.28,1.28,0,1,0-2.56,0"/><path class="cls-2" d="M212.63,239.93V263.5a1.29,1.29,0,1,0,2.57,0V239.93a1.29,1.29,0,1,0-2.57,0"/><path class="cls-2" d="M169.82,264.25a1.29,1.29,0,0,0,1.28,1.3h15.55a1.3,1.3,0,0,0,0-2.59H171.1a1.28,1.28,0,0,0-1.28,1.29"/><path class="cls-2" d="M197.84,276.68H171.1a1.3,1.3,0,0,0,0,2.59h26.74a1.3,1.3,0,0,0,0-2.59"/><path class="cls-2" d="M171.1,251.78h4.43a1.3,1.3,0,0,0,0-2.6H171.1a1.3,1.3,0,0,0,0,2.6"/><path class="cls-2" d="M231.25,99.72a3.33,3.33,0,1,0-6.66,0V106H179.42V99.72a3.34,3.34,0,1,0-6.67,0v63.67a4,4,0,0,0-.05.5V232a5.21,5.21,0,0,1-5.17,5.23H111.32a5.21,5.21,0,0,1-5.17-5.23V93.18A5.2,5.2,0,0,1,111.32,88h8.28a3.71,3.71,0,0,0,1-.15,22.72,22.72,0,0,0,11.11,2.94,22.25,22.25,0,0,0,3.9-.34A21.08,21.08,0,0,0,149,82a61.36,61.36,0,0,0,23.34,6.89,53,53,0,0,0,23.11-3.1c8.81-3.28,12.55-2.17,14-1.2a4.51,4.51,0,0,1,1.87,3.3A3.63,3.63,0,0,0,215,91.54,3.54,3.54,0,0,0,218.53,88a11.69,11.69,0,0,0-5-9.19c-4.61-3.19-11.58-3.08-20.69.32-19,7.1-36.6-1.29-40.54-3.4a21.58,21.58,0,0,0,1.06-4.77,20.59,20.59,0,0,0,0-3.93,61.25,61.25,0,0,0,10.49,3.26,4,4,0,0,0,.24,1.87,3.62,3.62,0,0,0,4.84,2.18,3.89,3.89,0,0,0,2.23-2.89c1.29.13,2.6.21,3.91.26a4.29,4.29,0,0,0,.26,1.65,3.63,3.63,0,0,0,4.84,2.19,4,4,0,0,0,2.29-3.92c1.37-.08,2.74-.21,4.13-.37a4.22,4.22,0,0,0,.22.9,3.63,3.63,0,0,0,4.84,2.18A4,4,0,0,0,193.92,70c1.33-.28,2.67-.6,4-1a5,5,0,0,0,.21.76A3.62,3.62,0,0,0,203,72,4.06,4.06,0,0,0,205.06,67c2.5-.84,5-1.76,7.56-2.82a4,4,0,0,0,2.09-5.1A3.59,3.59,0,0,0,210,56.79c-21.77,9.08-40.5,9.53-57.26,1.4-2.59-1.26-4.87-2.29-6.87-3.12a10.36,10.36,0,0,0-.93-.5,22.09,22.09,0,0,0-3.39-1.13,11.29,11.29,0,0,0-4.33-.79,2.74,2.74,0,0,0-.64.17,14,14,0,0,0-7.75,2.4A14.21,14.21,0,0,0,122.7,66a3.85,3.85,0,0,0,3.49,4.13A3.77,3.77,0,0,0,130,66.38a6.26,6.26,0,0,1,2.71-4.52,8.17,8.17,0,0,1,6.66-.89c.8.26,1.9.67,3.39,1.28,3.53,2,3.43,6.46,3.29,7.85a14.27,14.27,0,0,1-11.71,12.52,15.62,15.62,0,0,1-13.21-3.84c-3.41-3.2-5.12-7.91-5-13.63.37-12.85,8.37-16.23,11.79-17.68.3-.12.57-.24.78-.34,7.14-2.29,19.2.94,29.84,3.79,6.49,1.74,12.7,3.38,18.1,4,.12,0,.25,0,.37.05a29.73,29.73,0,0,0,6.3.08c7.26-.83,13.9-4.37,20.33-7.78,6.19-3.29,12-6.41,17.41-6.45,2.84,0,4.65.79,5.34,2.41a5.81,5.81,0,0,1-.19,4.41c-.67.32-1.1.35-1.26.23a3.51,3.51,0,0,0-5-.86,4.13,4.13,0,0,0-1,5.48c1.29,2.05,5.24,5.12,10.83,2C233.18,52.7,235,47,233.84,42c-1.31-5.71-6-9.11-12.62-9.11h-.14c-7.06,0-14,3.72-20.62,7.27-1.1.59-2.21,1.17-3.32,1.74a18.94,18.94,0,0,0-.31-9.67A16.33,16.33,0,0,0,188,21.6c-5.73-2.69-12.74-2.12-19.72,1.59-11.15,5.94-19.71,5-22.68,3.6A5.42,5.42,0,0,1,143.2,23a4.88,4.88,0,0,1,1.93-4.47,4.77,4.77,0,0,1,5.69-.41c.32.27.49.4.18,1.15a4,4,0,0,0,1.84,5.21,3.58,3.58,0,0,0,4.86-2,8.84,8.84,0,0,0-2.41-10.63,11.7,11.7,0,0,0-14.82.56,13.86,13.86,0,0,0-3.58,4.84,19.49,19.49,0,0,0-9.73-5.87,16,16,0,0,0-12.33,1.85,16.33,16.33,0,0,0-7.42,10.12,14.23,14.23,0,0,0-.27,5.23H67.53A20.65,20.65,0,0,0,47,49.31V275.39a20.65,20.65,0,0,0,20.52,20.73H210.89a20.65,20.65,0,0,0,20.52-20.73V163.89a3.53,3.53,0,0,0-.16-1ZM210.89,289.07H67.53A13.63,13.63,0,0,1,54,275.39V54.62a8.92,8.92,0,0,0,4.13,1h3.37a8.63,8.63,0,0,0-.59,3.06v8.39a8.78,8.78,0,0,0,8.83,8.72h5.58a8.61,8.61,0,0,0-.58,3v8.4A8.77,8.77,0,0,0,83.55,96H99.17V232a12.22,12.22,0,0,0,12.15,12.27h56.21A12.22,12.22,0,0,0,179.68,232V163.89a3.66,3.66,0,0,0-.26-1.33v-8.39h45.17v8.74a3.52,3.52,0,0,0-.15,1v111.5a13.63,13.63,0,0,1-13.55,13.68M67.53,35.62H69v3.85a8.78,8.78,0,0,0,8.83,8.72h2.36A8.25,8.25,0,0,0,79.76,50h-8a2.09,2.09,0,0,0-.36-.07H58.12c-1.58,0-2.85-1.23-3.79-3.64a13.61,13.61,0,0,1,13.2-10.65m30.21,0a8.58,8.58,0,0,0-.54,2.91v4H89.75a2.09,2.09,0,0,0-.36-.07H77.86a3.07,3.07,0,0,1-3.15-3V35.62ZM83.55,70.15h-.08a2.47,2.47,0,0,0-.41-.09H69.73a3.07,3.07,0,0,1-3.15-3V58.7a3.07,3.07,0,0,1,3.15-3h9.9v3.93a8.78,8.78,0,0,0,8.83,8.72h3.37a9.59,9.59,0,0,0-.46,1.79Zm16,20.09h-16a3.07,3.07,0,0,1-3.15-3v-8.4a3.07,3.07,0,0,1,3.15-3h7.69v3.93a8.78,8.78,0,0,0,8.83,8.71h0a12.23,12.23,0,0,0-.52,1.72M109,62.63l-6.94,0a2.65,2.65,0,0,0-.3-.06H88.46a3.07,3.07,0,0,1-3.15-3v-8.4a3.06,3.06,0,0,1,3.15-3h8.87a8.79,8.79,0,0,0,8.7,7.37h4.37a31.38,31.38,0,0,0-1.37,7m115.56,84.21H179.41v-6.28h45.18Zm0-13.62H179.41V127h45.18ZM111.32,80.9a11.93,11.93,0,0,0-6.41,1.89h-4.84a3.08,3.08,0,0,1-3.16-3v-8.4a3.09,3.09,0,0,1,3.18-3l8.86-.06a25.2,25.2,0,0,0,4.17,12.53Zm113.27,38.71H179.41v-6.27h45.18ZM112.83,24.7a10.73,10.73,0,0,1,4.87-6.65,10.61,10.61,0,0,1,8.1-1.22,14.26,14.26,0,0,1,10.25,17.24,2.79,2.79,0,1,0,5.41,1.37c.15-.62.27-1.25.36-1.87a8.4,8.4,0,0,0,.88.48c5.39,2.45,16.18,2.93,28.81-3.8,4.93-2.62,9.85-3.14,13.5-1.43a8.6,8.6,0,0,1,4.76,5.67c.85,3.13.67,5.55-.57,7.41-2.56,3.83-9.09,5-11.66,5.19-4.86-.54-10.85-2.14-17.13-3.81-12.25-3.28-24.91-6.67-34-3.61l-.44.18c-.16.08-.39.17-.67.29a25.61,25.61,0,0,0-12.24,9.77h-7a3.08,3.08,0,0,1-3.16-3V38.53a3,3,0,0,1,2.75-2.91h3.24a3.38,3.38,0,0,0,.72-.07h.7a13.37,13.37,0,0,0,7,4.43,11.36,11.36,0,0,0,13.85-8.4,9.8,9.8,0,0,0-7.06-11.87,2.78,2.78,0,0,0-3.38,2.05,2.82,2.82,0,0,0,2,3.41,4.18,4.18,0,0,1,3,5.05,5.85,5.85,0,0,1-7.09,4.29,8,8,0,0,1-4.92-3.68,8.1,8.1,0,0,1-.9-6.12"/><path class="cls-2" d="M111.32,105.5h8.38a2.94,2.94,0,0,0,0-5.87h-8.38a2.94,2.94,0,0,0,0,5.87"/><path class="cls-2" d="M111.32,121.1h8.38a2.94,2.94,0,0,0,0-5.87h-8.38a2.94,2.94,0,0,0,0,5.87"/><path class="cls-2" d="M125.31,130.83h-14a2.94,2.94,0,0,0,0,5.87h14a2.94,2.94,0,0,0,0-5.87"/><path class="cls-2" d="M111.32,151.5h8.38a2.94,2.94,0,0,0,0-5.87h-8.38a2.94,2.94,0,0,0,0,5.87"/><path class="cls-2" d="M111.32,167.11h8.38a2.94,2.94,0,0,0,0-5.88h-8.38a2.94,2.94,0,0,0,0,5.88"/><path class="cls-2" d="M111.32,182h8.38a2.94,2.94,0,0,0,0-5.88h-8.38a2.94,2.94,0,0,0,0,5.88"/><path class="cls-2" d="M111.32,197.64h8.38a2.94,2.94,0,0,0,0-5.87h-8.38a2.94,2.94,0,0,0,0,5.87"/><path class="cls-2" d="M111.32,221.89a2.94,2.94,0,0,0,0,5.87h8.38a2.94,2.94,0,0,0,0-5.87Z"/><path class="cls-2" d="M128.21,210.3a2.92,2.92,0,0,0-2.9-2.93h-14a2.94,2.94,0,0,0,0,5.87h14a2.92,2.92,0,0,0,2.9-2.94"/><path class="cls-2" d="M168,161.23h-8.38a2.94,2.94,0,0,0,0,5.87H168a2.94,2.94,0,0,0,0-5.87"/><path class="cls-2" d="M168,176.17h-8.38a2.94,2.94,0,0,0,0,5.87H168a2.94,2.94,0,0,0,0-5.87"/><path class="cls-2" d="M168,191.77h-8.38a2.94,2.94,0,0,0,0,5.87H168a2.94,2.94,0,0,0,0-5.87"/><path class="cls-2" d="M168,221.89h-8.38a2.94,2.94,0,0,0,0,5.87H168a2.94,2.94,0,0,0,0-5.87"/><path class="cls-2" d="M168,207.37H154a2.94,2.94,0,0,0,0,5.87h14a2.94,2.94,0,0,0,0-5.87"/><path class="cls-2" d="M92.93,246.9a14.24,14.24,0,0,0,1.63,2.63,2.46,2.46,0,0,0,3.84.13l3.08-3.64a1.67,1.67,0,0,0-.23-2.36c-.29-.23-.58-.48-.86-.74a10.42,10.42,0,0,1-.87-.89c-.17-.19-.34-.38-.49-.58a1.61,1.61,0,0,0-2.28-.2l-3.17,2.63a2.53,2.53,0,0,0-.65,3"/><path class="cls-2" d="M90.88,252.49l-.77-1.06c-.32-.47-.61-1-.89-1.44a1.62,1.62,0,0,0-2.45-.44l-2.65,2.2a2.4,2.4,0,0,0-.65,2.76,15.22,15.22,0,0,0,3.43,5,2.29,2.29,0,0,0,3.34-.21L92.17,257a2.41,2.41,0,0,0,0-3.06,18,18,0,0,1-1.28-1.49"/><path class="cls-2" d="M85,265.53c.55-.64.5-1,.23-1.22a19.63,19.63,0,0,1-2.83-2.71l-1.07-1.36a19.15,19.15,0,0,1-1.16-1.81,2.18,2.18,0,0,0-3.3-.64l-4,3.35a2.13,2.13,0,0,0-.71,2.29A14.91,14.91,0,0,0,77.81,271a2.18,2.18,0,0,0,2.9-.39Z"/><path class="cls-2" d="M71.58,271.73l-1.09-1.34c-.23-.31-.44-.63-.65-.95a4,4,0,0,0-5.92-.89L62.14,270a4,4,0,0,0-1.23,4.55,14.83,14.83,0,0,0,6.3,7.23,3.89,3.89,0,0,0,4.86-1l2.54-3c1.11-1.32,1-2.59,0-3.26a19.71,19.71,0,0,1-3.08-2.83"/><path class="cls-2" d="M166.28,41c2.75,1.73,11.89,1.28,14.3-.63,1.24-1,2.16-2.18,1.86-3.91a3.34,3.34,0,0,0-2.85-2.77c-3.38-1.12-11.38.73-13.86,3.16-1.61,1.58-1.26,3,.55,4.15"/><path class="cls-2" d="M162.74,20.32A2.3,2.3,0,0,0,164,20c.13-.08,13.37-8.34,27.86-1.14a2.38,2.38,0,0,0,3.25-1.28,2.7,2.7,0,0,0-1.19-3.48c-.35-.17-.68-.3-1-.45L190.28,4a2,2,0,0,0-2.53-1.49,2.21,2.21,0,0,0-1.39,2.71l1.79,6.64a31.72,31.72,0,0,0-3.74-.85l-2.54-9.4A2,2,0,0,0,179.34.09,2.2,2.2,0,0,0,178,2.8l2.1,7.8a34.9,34.9,0,0,0-3.86.11l-2.45-9.1A2,2,0,0,0,171.21.12a2.2,2.2,0,0,0-1.39,2.71l2.29,8.51c-1.13.24-2.18.52-3.16.82l-2.27-8.41a2,2,0,0,0-2.53-1.49A2.21,2.21,0,0,0,162.76,5l2.32,8.62a30.09,30.09,0,0,0-3.61,1.85,2.73,2.73,0,0,0-.83,3.6,2.39,2.39,0,0,0,2.1,1.28"/><path class="cls-2" d="M188.55,167.79h26.73a3.62,3.62,0,0,0,0-7.24H188.55a3.62,3.62,0,0,0,0,7.24"/><path class="cls-2" d="M213.36,271.86a9.67,9.67,0,0,1-1.59,2.29,8.11,8.11,0,0,1-2.16,1.49c-3,1.85-1.54,5.08.61,7.25s4.73,3.09,7.17.62l3.75-3.79c2.45-2.48,1.67-5.2-.48-7.37s-5.23-3.5-7.3-.49"/><path class="cls-2" d="M209.56,262.58c-1.86-1.87-4.52-3-6.3-.42a8.35,8.35,0,0,1-1.37,2,7.26,7.26,0,0,1-1.86,1.3c-2.59,1.59-1.33,4.38.52,6.24s4.08,2.67,6.19.54l3.23-3.27c2.11-2.13,1.44-4.49-.41-6.36"/><path class="cls-2" d="M191.94,251.33a6.85,6.85,0,0,1-1.1,1.6,5.85,5.85,0,0,1-1.51,1c-2.09,1.28-1.07,3.53.42,5s3.29,2.15,5,.43l2.62-2.64c1.7-1.72,1.16-3.62-.34-5.13s-3.64-2.43-5.08-.34"/><path class="cls-2" d="M186.42,250.36l2-2c1.28-1.29.87-2.72-.26-3.86s-2.74-1.83-3.82-.25a5.46,5.46,0,0,1-.83,1.19,4.22,4.22,0,0,1-1.14.79c-1.57,1-.8,2.66.32,3.8s2.48,1.61,3.76.32"/><polygon class="cls-1" points="7.79 572.57 0.12 572.57 0.12 568.06 21 568.06 21 572.57 13.33 572.57 13.33 592.01 7.79 592.01 7.79 572.57"/><path class="cls-1" d="M28.1,591.65a13,13,0,0,1-4.26-2l1.88-4.18a12.91,12.91,0,0,0,3.66,1.82,13.92,13.92,0,0,0,4.24.68,6.73,6.73,0,0,0,3.49-.7,2.11,2.11,0,0,0,1.13-1.86,1.75,1.75,0,0,0-.67-1.42,4.94,4.94,0,0,0-1.71-.91c-.69-.23-1.63-.48-2.82-.76a37.13,37.13,0,0,1-4.48-1.3,7.3,7.3,0,0,1-3-2.08,5.62,5.62,0,0,1-1.25-3.84,6.58,6.58,0,0,1,1.13-3.77,7.54,7.54,0,0,1,3.4-2.69,13.93,13.93,0,0,1,5.56-1,18.62,18.62,0,0,1,4.48.54,13.16,13.16,0,0,1,3.83,1.58L41,574a13.28,13.28,0,0,0-6.63-1.89,6.21,6.21,0,0,0-3.44.76,2.28,2.28,0,0,0-1.12,2,1.94,1.94,0,0,0,1.29,1.83A19.4,19.4,0,0,0,35,577.84a39.06,39.06,0,0,1,4.48,1.3,7.45,7.45,0,0,1,3,2.06A5.48,5.48,0,0,1,43.75,585a6.57,6.57,0,0,1-1.14,3.75,7.84,7.84,0,0,1-3.44,2.69,14.25,14.25,0,0,1-5.58,1,19.73,19.73,0,0,1-5.49-.77"/><path class="cls-1" d="M53.74,561.18h5.75l-6.2,4.92H49.12Zm-4.27,6.88H55v24H49.47Z"/><rect class="cls-1" x="62.6" y="568.06" width="5.54" height="23.95"/><polygon class="cls-1" points="97.53 592.01 97.5 577.64 90.45 589.47 87.96 589.47 80.94 577.94 80.94 592.01 75.74 592.01 75.74 568.06 80.33 568.06 89.29 582.94 98.12 568.06 102.67 568.06 102.73 592.01 97.53 592.01"/><rect class="cls-1" x="110.33" y="568.06" width="5.54" height="23.95"/><polygon class="cls-1" points="145.43 568.06 145.43 592.01 140.88 592.01 128.94 577.47 128.94 592.01 123.47 592.01 123.47 568.06 128.06 568.06 139.96 582.6 139.96 568.06 145.43 568.06"/><polygon class="cls-1" points="173.35 582.6 170.14 585.95 170.14 592.01 164.63 592.01 164.63 568.06 170.14 568.06 170.14 579.25 180.75 568.06 186.9 568.06 176.98 578.73 187.48 592.01 181.02 592.01 173.35 582.6"/><path class="cls-1" d="M195.9,567.25a3.18,3.18,0,0,1,.92,2.38,5.82,5.82,0,0,1-.16,1.37,20.61,20.61,0,0,1-.72,2L194,578h-3.38l1.47-5.41a2.91,2.91,0,0,1-1.34-1.13,3.28,3.28,0,0,1-.48-1.81,3.19,3.19,0,0,1,.94-2.38,3.32,3.32,0,0,1,2.38-.91,3.24,3.24,0,0,1,2.36.91"/><path class="cls-1" d="M217.29,586.87H206.17L204,592h-5.67l10.67-24h5.48l10.7,24h-5.81Zm-1.75-4.21-3.8-9.16L208,582.66Zm-2.26-21.48H219l-6.19,4.93h-4.18Z"/><path class="cls-1" d="M246.2,586.87H235.08L233,592h-5.68l10.67-24h5.48l10.71,24h-5.82Zm-1.75-4.2-3.8-9.17-3.79,9.17Z"/><polygon class="cls-1" points="267.28 582.6 264.06 585.95 264.06 592.01 258.55 592.01 258.55 568.06 264.06 568.06 264.06 579.25 274.67 568.06 280.82 568.06 270.9 578.73 281.41 592.01 274.94 592.01 267.28 582.6"/></g></g></g></svg>