<svg xmlns="http://www.w3.org/2000/svg" viewBox="0 0 359.77 58.77"><defs><style>.cls-1{fill:#fff;}</style></defs><g id="Layer_2" data-name="Layer 2"><g id="Pantalla_1" data-name="Pantalla 1"><path class="cls-1" d="M289.75,58.39l14.85-29.2h41l14.19,28.87-16.14.18-6-20.49h-8.22l5.49,20.64c-6.6-.53-13.33.33-20,0l5.49-20.64H312l-6,20.64Z"/><path class="cls-1" d="M306.52,24.51l8.07-16c.08-.68,0-.43-.48-.48-2.63-.38-3.69.66-5.54,2.23L307.2,9.13,311.48.3,330.25,0l1.09.53,12,23.86c.08,1-.35.15-.48.15h-36.3Z"/><path class="cls-1" d="M49.36,37.42,40.43,58c-.1.33-1,.74-1.24.74h-6L40,43.24c-2.43,0-4.86,0-7.26,0-.89,0-1.88-.76-2.38.17l-7,15H16.77l6.45-15.15H14L6.93,58.39H0l9.84-21Z"/><path class="cls-1" d="M172.94,43.24c.94-1.24,1.93-5.52,3.39-5.8,8.17.18,16.37-.28,24.54,0a10.93,10.93,0,0,0,2.3.1c.41,0,.56-.22.43.41l-9.08,20.44c-6.37.15-12.77,0-19.17,0-.84,0-1.65.33-2.56.36-2.25,0-4.58-.46-6.63,0l5.9-13.16,20.56-.2,1.6-2.15h-21.3Zm17.74,7.41h-14l-.81,2.25h14Z"/><path class="cls-1" d="M273.61,37.42l-9.52,21H236.52l5.79-13.08c6.93-.35,13.92-.15,20.77.08l1.17-2.51-21,.33,2-5.41a3.2,3.2,0,0,1,.74-.41h27.57ZM245.85,52.9h14.2l.63-2.58c-1.27-.25-2.51.3-3.7.33-2.75.1-7.26-.46-9.68,0a2.11,2.11,0,0,0-1.47,2.25h0Z"/><path class="cls-1" d="M84.52,37.42l-6,12.85-20,.18L57.1,52.9H77.41c-.6,1.29-1.61,5.21-3.06,5.49l-26.61.33,9.51-21.3Zm-9.66,5.82H61.48l-.64,2.25,13.64-.38Z"/><polygon class="cls-1" points="239.07 37.42 229.56 58.39 222.96 58.39 229.41 43.24 215.37 43.24 208.39 58.34 201.33 58.72 210.36 38 211.17 37.42 239.07 37.42"/><path class="cls-1" d="M168.11,37.42l-2.45,5.82L146.51,43,142,52.9h19c-.38,1.37-1.69,5.51-3.06,5.79H133.1l-.36-.65c2.81-7,5.64-14.1,9.39-20.62Z"/><path class="cls-1" d="M80.35,58.72l.48-1,12.42-9.84-6.45-10c0-.81,6.48,0,7.08,0l5,7.62c1-.58,2,0,2.78-.1C105.19,45.06,109,40,112,38.28c2.73-1.52,7.19-.51,10.3-.84l-.48,1-12.42,9.84,6.12,10.17h-6.6c-3.47-3.28-3.75-10.34-10.07-7.15-2.48,1.23-8.17,7.48-10.58,7.48H80.35Z"/><polygon class="cls-1" points="134.54 37.42 125.51 58.39 118.42 58.39 127.94 37.42 134.54 37.42"/></g></g></svg>