<svg xmlns="http://www.w3.org/2000/svg" xmlns:xlink="http://www.w3.org/1999/xlink" viewBox="0 0 1067.97 673.85"><defs><style>.cls-1,.cls-10,.cls-11,.cls-12,.cls-14,.cls-15,.cls-16,.cls-17,.cls-18,.cls-19,.cls-20,.cls-4,.cls-6,.cls-7,.cls-8,.cls-9{fill:none;}.cls-2{clip-path:url(#clip-path);}.cls-3{fill:#e6e6dc;opacity:0.9;}.cls-4{stroke:#00524c;stroke-width:1.5px;}.cls-10,.cls-15,.cls-17,.cls-18,.cls-20,.cls-4{stroke-linecap:round;}.cls-10,.cls-11,.cls-14,.cls-15,.cls-17,.cls-18,.cls-19,.cls-20,.cls-4,.cls-6,.cls-9{stroke-linejoin:round;}.cls-5{font-size:18.82px;fill:#00524c;font-family:Montserrat-SemiBold, Montserrat;font-weight:600;}.cls-20,.cls-6{stroke:#62cdb4;}.cls-11,.cls-12,.cls-6,.cls-7,.cls-8,.cls-9{stroke-width:8.88px;}.cls-17,.cls-7{stroke:#91dac7;}.cls-12,.cls-16,.cls-7,.cls-8{stroke-miterlimit:10;}.cls-16,.cls-8{stroke:#97b6b2;}.cls-15,.cls-9{stroke:#65948f;}.cls-10,.cls-14{stroke:#30726d;}.cls-10{stroke-width:11.76px;}.cls-11,.cls-19{stroke:#e1f4ef;}.cls-12,.cls-18{stroke:#bae7db;}.cls-13{fill:#fff;}.cls-14,.cls-15,.cls-16,.cls-17,.cls-18,.cls-19,.cls-20{stroke-width:3.81px;}</style><clipPath id="clip-path" transform="translate(184.19 -222.91)"><rect class="cls-1" width="904" height="893.94"/></clipPath></defs><g id="Layer_2" data-name="Layer 2"><g id="Pantallas_3" data-name="Pantallas 3"><g id="mapa"><g class="cls-2"><path class="cls-3" d="M378,370.35,376.2,376l-1.49,2.21-1.55,4.12-1.65,5.36.16,3.91.51-.41.36-.72h.67l.57.87,1.29.42-.93.82-1.08-.31h-1.39l.36,1.55.62.77.46,1.54-.67.88.16,1.6,1.59,7.41-.92,2.27-.83,1.75.72,1.91-.2,1.64.1,4.48.67,11.13a3.91,3.91,0,0,1,1.08,2.16c.36,1.6.16,3.09-.46,3.56s-1.55.87-1.55,1.95.31,1.81,1.24,4a11.61,11.61,0,0,1,.67,4.89l-.88,1.39-.05,2.63-.41.52-.21.72,1.5,2.88.15,1.24,2.06,2.47.21,1.8-1.19,1.29,1.34,2.78.67.11c.67.1.16.72.1,1.28l.57.62-.41,1.39s-.83,2.42-1.6,2.89a4,4,0,0,0-1.23,1.8l-2.42,4.74-.93.46-.88,2-1.59.93-1.79,1.07-3.15,2.82-4.94,3-4.17,3.06s-3,2.45-5.18,4.71-.79,3.8-1,5-1.89,2.91-2.86,4.35a32.5,32.5,0,0,1-3.38,3.7c2.68.88.92,2.5.92,2.5s2.78,2,2.78,3.33c0,5.09-3.56,9.85-3.56,9.85s.92.65.94,1.11c0,1.4-.8,3.7-.9,5.41a3.2,3.2,0,0,0,.84,2.53,28.13,28.13,0,0,1-.37,6.63c-.65,4.17-2,5.28-2.36,7.31a26,26,0,0,0,.37,6.11c-1.17,4.09-6,8.65-7.59,10.5a49.51,49.51,0,0,1-6.15,5L324.47,571l-5.6,5.18-.88,1.57-13.64,9.35s-9.81,6-10.69,6.66-1.66,1.66-2.22,2.13-2.45,1.62-2.45,1.62v1.06a6.63,6.63,0,0,1-1.16.88c-1,.65-12.26,7.54-14.15,8.28s-7.77,3.38-10,4.26-10.92,5.41-13.65,7.81-5,6.43-6.47,7.82-6,5-7.4,6.06c-.75.55,0,1.58,0,1.58,1.17.81,2.64.22,3.72-.7l9.27-8c1.77-1.52,4-3.15,6.23-2.5.34,1.25-.51,2.51-1.44,3.41a8.41,8.41,0,0,0-2.49,2.94,1.42,1.42,0,0,0,0,1.07,2,2,0,0,0,1,.76,22,22,0,0,1,3.52,2.6,5.7,5.7,0,0,0,4,1.44c1.45-.19,2.77-1.67,2.31-3.06a26.1,26.1,0,0,1,8,5.37,6,6,0,0,1,1.54,2.08A6.53,6.53,0,0,1,272,644a45.29,45.29,0,0,1-1.12,5.54,1.59,1.59,0,0,1-.49.93c-.49.38-1.26.11-1.81.41a1.93,1.93,0,0,0-.61.63,40.68,40.68,0,0,0-6,13,6.3,6.3,0,0,1-1.5,3.27,5.82,5.82,0,0,1-2.22,1.08l-12.4,4c-3.16,1-6.38,2-9,4.08-2.11,1.64-3.78,3.89-6.17,5.08-2.6,1.31-5.68,1.17-8.57.84a82.06,82.06,0,0,1-21.15-5.31c-2.84-1.14-5.74-2.46-8.8-2.3a4.85,4.85,0,0,1-2.46-.2c-.56-.3-1.62-2.17-2-2.63-1.13-1.25-4-1.83-4.51-2.14-1.39-.94-1-2.57-.29-4.1a1.25,1.25,0,0,1,1.34,0c.82-2,2.46-3.52,3-5.63l.31-1c-2.45,0-7.29-2.28-9-5.8a22.74,22.74,0,0,0-4.48-6h-6.5l-31.71,2.72s-10.71.18-17.12,1.06a95.12,95.12,0,0,0-12.12,2.54h-2.38l-4.91,1.76-18.8,3.95H76.62l-1.75-1-2.2,1.67v1.58c-1.62,2.45-5.88,13.08-17,18.18C43.25,686,27.2,685.6,25.59,685.6a12.33,12.33,0,0,1-5.79-2S6.1,684.9-3.39,684.9a197.53,197.53,0,0,0-21,.7c-8.52,1-25.38,6.42-25.38,6.42l-31.8,11.06s-32,11.63-40.4,14c-10.84,3-37.15,8.78-46.72,8.78a21.83,21.83,0,0,1-14.76-5.27L-181.93,895h473a2.74,2.74,0,0,0-1-.83c-.61-.3-1.36-.39-1.83-.89-.89-.95-.1-2.55-.53-3.78a.79.79,0,0,0-.28-.39.85.85,0,0,0-.5-.05,10,10,0,0,1-3.9-.1c-2.13-.66-3.44-2.7-5-4.27a26.06,26.06,0,0,1-2.52-2.52,6.3,6.3,0,0,1-1-3.6,3,3,0,0,0-2.69-2.9c-.88-.06-1.81.26-2.6-.11a2.75,2.75,0,0,1-1.17-1.3,9.17,9.17,0,0,1-1-3.58,2.5,2.5,0,0,1,.17-1.3c.3-.59.95-.93,1.27-1.5a2,2,0,0,0-.05-1.82,3.9,3.9,0,0,0-1.29-1.36,2.41,2.41,0,0,0-.75-.38,3.12,3.12,0,0,0-1.29,0,18.15,18.15,0,0,1-4.54.09,2.15,2.15,0,0,0-.62,0,1.3,1.3,0,0,0-.82,1.36,1.94,1.94,0,0,1,0,.9c-.27.61-1.15.5-1.78.28a.87.87,0,0,1-.31-.18.84.84,0,0,1-.09-.68,4.09,4.09,0,0,0-1.44-3.56c-.37-.3-.8-.53-1.17-.83s-.58-.5-.91-.7c-1.5-.89-3.5.09-5.15-.48-1.21-.42-2-1.76-2.61-2.87l-1.18-3.28H306.1V773.9l.1-.36,248.83,0V755.76h.15c.73.4,1.62-.31,1.93-1.08a13.46,13.46,0,0,1,.75-2.38,2.35,2.35,0,0,1,3.49-.4,5.68,5.68,0,0,1,6.66-3.2,2,2,0,0,1,2-1.83,5.73,5.73,0,0,1,2.83.88l2.24,1.16a2.44,2.44,0,0,1,1.08.84.87.87,0,0,1-.26,1.2,14.72,14.72,0,0,1,2,3.86c.17-.37.33-.73.49-1.1a4.8,4.8,0,0,0,3.49.34,2.28,2.28,0,0,1,1.55-.17c.89.41,1.21,2.15,2.09,1.73a4.18,4.18,0,0,0,2,3.68c1.19.85,2.61,1.34,3.88,2.08s2.77,1.58,3.76.63.12-2.67.43-4c.63-2.8,5.37-2.29,6.76-4.8a8.88,8.88,0,0,1,.74-1.44c.73-.86,2.38-1.09,2.36-2.22,0-.36-.22-.68-.23-1,0-1,1.23-1.46,1.65-2.35a7.48,7.48,0,0,0,.27-1.65c.61-3,5.64-2.67,7.07-5.39a6.24,6.24,0,0,0,.39-3.22,16.62,16.62,0,0,1,.45-5.4,10.08,10.08,0,0,1,3.26-4.94c.49-.4,1.07-.85,1.09-1.48,0-1.17-1.81-1.72-1.77-2.88,0-.74.8-1.19,1.48-1.49l5.65-2.56c2.16-1,4.58-2.27,5-4.59.3-1.49-.31-3.13.35-4.5a5.61,5.61,0,0,0,.72-1.45c.09-.53-.36-1.2-.87-1a6.54,6.54,0,0,0,1.89-2.74c1-2.71,3.76-4.32,5.59-6.54a1.51,1.51,0,0,0,.47-1c0-.49-.49-.82-.68-1.26a2.1,2.1,0,0,1,0-1.44c.77-2.54,2.86-4.57,3.35-7.17a22.68,22.68,0,0,1,.44-2.86,8,8,0,0,1,3-3.43,17.85,17.85,0,0,1,3.1-2.11.84.84,0,0,1,.68-.12c.2.07.33.28.52.38.62.32,1.42-.57,2-.19s.26,1.24.77,1.52a1.06,1.06,0,0,0,1-.14,25.07,25.07,0,0,1,4.67-1.77,1.58,1.58,0,0,1,1,0,2.17,2.17,0,0,1,.72.78,3.43,3.43,0,0,0,3.19,1.35c-.22-.51.67-1.14.67-1.14l2.62-2.72,7.87,2,5.24-10.68,4.37-9.23,3.79-7.48,1.75-1.07,2.91-1.94-1.55-1.94,1-1.26,2,.68-.58-2.43a43.3,43.3,0,0,1,2.23-3.79,23.59,23.59,0,0,0,1.55-3.2l1.17-3.5,2.91-2.91,3.3-4.86,2.72,2.24.2,4.75,2.91,4.18S710,638,710,638.42a33.66,33.66,0,0,0,1.06,3.31l-1.36,6,2.43,2.72-3.49,9.13-2.24,2,.39,4.75-.39,3.89-5.44,4,1,3.5,6.5,2.33,4.76,1.94,5,1.55,1.85,3.79.87,4.57,2.82-.59,1.36,4.18,2.33,1.84-1.07,6.41.39,7.09.29,10.88-.48,3.5-.39,3.59-2.62,3.2-1,2.63s-1.74,2.42-2,2.72-1.55-.2-1.84,0,0,3.49,0,3.49l-3.11,9.32-5.44,12.63-3.69.68,1.56,2.23,5-1.06s5.14-5.35,5.34-5.64,4.08-5.92,4.08-5.92,2.72-7.67,2.81-8,2.33-6.11,2.33-6.11l3.5-5.73,2.43-1.85a23.37,23.37,0,0,0,2.13-2.23c.1-.29-1-1.94-.87-2.24a43.78,43.78,0,0,0-1.16-4.56l-.59-4.08s1.17-7,1.17-7.38.58-6.51.58-7.19,2.72-4.75,2.72-4.75l1.65-3.21,2.91-4.66,1.66-3.11V679.8l.87-6,2.23-2.91V666.1l.68-3.3.68-4.18.29-2.52s.88-5.54,1.17-7.58,1.36-2.71,1.75-3.59a13.77,13.77,0,0,1,2.91-2.91c.39-.29,2.43-4.18,2.3-4.76a12.55,12.55,0,0,1,0-1.94c0-.49.23-1.56,0-1.85a15.76,15.76,0,0,1,.58-3.3l1.17-2.14.19-2,2-2.23v-4.37l1.26-2.53V614l1.84-2.72s.78-2.43,1.17-3.79a11.88,11.88,0,0,1,1.94-3.2l1.46-3.69,1.65-4.27,1.94-2.33.88-2,.48-6.61.22-2.39c0-.13.07-.27.1-.39,1.34-5.64-.56-7.33,3.83-12.33,1.85-2.11,4.15-3.82,5.84-6.06a17.45,17.45,0,0,1,2.11-2.64c.8-.72,1.87-1.29,2.17-2.33a25.46,25.46,0,0,1-3.59-2.8c0,.62-.84.81-1.46.87A14.81,14.81,0,0,0,779,558a1.78,1.78,0,0,0-.79.45c-.23.27-.3.64-.51.93-.53.71-1.62.54-2.5.7a4.89,4.89,0,0,0-1.57.69,18.16,18.16,0,0,0-6.81,7.36,2.58,2.58,0,0,0,1.32-1.62c-.12,1-.36,2.26-1.29,2.76a7.81,7.81,0,0,0-1.1.49,2.31,2.31,0,0,0-.65,1l-1.8,4.07a6.25,6.25,0,0,0-.59,1.77,2.27,2.27,0,0,1-.23,1c-.46.7-1.54.39-2.28,0a.69.69,0,0,1-1.15.35c-.2-.24-.2-.6-.4-.84a1.71,1.71,0,0,0-.93-.43,6.32,6.32,0,0,1-2.71-2.08c-.5-.56-1-1.43-.47-2a3.84,3.84,0,0,1,.91-.44c.3-.16.51-.61.25-.82s-.64,0-1-.05a.66.66,0,0,1-.45-.69,1.77,1.77,0,0,1,.34-.83,10.24,10.24,0,0,1,2.35-2.52,2.19,2.19,0,0,0,.66-.66,1.86,1.86,0,0,0,.14-.94c0-.75,0-1.51,0-2.26a.81.81,0,0,0-.1-.49c-.2-.28-.66-.22-.9-.46s-.09-.8.23-1a9.68,9.68,0,0,0,1-.67c.57-.56.45-1.47.44-2.27a13.86,13.86,0,0,1,.89-3.53c.52-2,1.15-4.21,2.84-5.44a18.38,18.38,0,0,0,1.56-1c1.06-.92,1.6-2.59,3-2.86a6.42,6.42,0,0,0,.86-.14c.51-.19.8-.73,1.21-1.1.78-.69,1.93-.71,2.87-1.16.51-.25,1-.64,1.46-.89a1.69,1.69,0,0,1,1.63,0c.18.54-.56,1-.65,1.51a2.17,2.17,0,0,0,.27,1,2,2,0,0,1-1.6,2.5c1.19-.17,2.51.15,3.51-.51a4.1,4.1,0,0,0,.93-.93l3.16-4a4.13,4.13,0,0,1,1.29-1.21,11.46,11.46,0,0,1,1.54-.48,5.15,5.15,0,0,0,1.81-1.26,16.17,16.17,0,0,0,3.6-5.21,5.4,5.4,0,0,0,.47-1.56,13,13,0,0,0-.06-1.65,13.61,13.61,0,0,1,.56-3.74l.35-1.37a3.91,3.91,0,0,1,.63-1.55,7.21,7.21,0,0,0,.59-.65,2.65,2.65,0,0,0,.34-1.18,18,18,0,0,0,0-5,1.5,1.5,0,0,1-1.45-.86,4.81,4.81,0,0,0-1-1.46c-.32-.23-.72-.34-1-.59-.91-.74-.88-2.62-2.06-2.66.78,1.05,1.55,2.6.63,3.54-.33.34-.9.61-.86,1.09s1,.89.84,1.45a.86.86,0,0,1-.42.44,10.16,10.16,0,0,1-6.44,1.39c.25.07.23.57,0,.74s-.68.12-1,.25-.52.64-.2.78l2.28.28c-1.34.52-2.78,1.13-3.43,2.4a7.06,7.06,0,0,1-.9,1.85c-.48.49-1.57.4-1.61-.29,0-.34.24-.63.29-1,.14-.91-1.12-1.31-2-1.28a37.71,37.71,0,0,0-5.87.83,8.86,8.86,0,0,0-4.29,1.67,12.67,12.67,0,0,0-2.38,3.75c-.71,1.31-1.79,2.61-3.27,2.78a.78.78,0,0,1-.71-.2c-.27-.35.09-.82.27-1.23s-.28-1.07-.55-.72c-.27,0-.32-.41-.11-.59s.52-.23.68-.46c.33-.47-.36-1.06-.94-1.05s-1.2.26-1.72,0l1.77-1.39a1.88,1.88,0,0,0,.89-1.26c0-.91-1.15-1.34-2.05-1.19s-1.82.58-2.67.28c-1.11-.38-1.49-1.74-1.56-2.91a3.72,3.72,0,0,1-4-4.19c.29-1.48,1.53-2.89,1-4.33-.24-.73-.9-1.28-1.14-2a2.53,2.53,0,0,1,.58-2.36,5,5,0,0,1,2.12-1.33c3.34-1.23,7.18-.66,10.41-2.16V506c3-3.52,5-7.82,7.38-11.81,1.08-1.8,2.19-3.89,3.89-5.1l1.06-.76a.49.49,0,0,1,.34-.12c.24.05.25.37.31.61a1.16,1.16,0,0,0,1,.7c.45,0,.9-.08,1.34-.07a13.44,13.44,0,0,0,1.66.14,3.6,3.6,0,0,0,1-.32,7.19,7.19,0,0,0,2.26-1.32,4.51,4.51,0,0,0,.85-1.23h0a20.15,20.15,0,0,0,.86-2.28,18.69,18.69,0,0,1,1-2.43,2.16,2.16,0,0,1,.58-.78c.55-.39,1.38-.25,1.88-.7a1.64,1.64,0,0,0,.41-.71c.37-1.12.3-2.4,1-3.36.17-.23.36-.58.13-.76s-.27-.06-.42-.09c-.36-.08-.52-.49-.61-.85a12.24,12.24,0,0,1-.34-2.48c0-.53.11-1.2.62-1.32s.88.4,1.13.84.61.94,1.1.87.7-.92.6-1.52c-.06-.33-.13-.66-.22-1a.42.42,0,0,0-.11-.22.45.45,0,0,0-.3-.07,2.71,2.71,0,0,1-2.32-1.95,18.16,18.16,0,0,1-1.23-5.16,2.8,2.8,0,0,0-.2-1.22.81.81,0,0,0-1-.45,2.25,2.25,0,0,1-.42-1.91,12.14,12.14,0,0,0,.32-2,8.24,8.24,0,0,0-.49-2.06,12.16,12.16,0,0,1-.19-4.92,37.88,37.88,0,0,1,1.59-6.09c1.38-4.33,2.77-8.67,4.45-12.9a16.55,16.55,0,0,1,1-2.14,19.49,19.49,0,0,1,1.28-1.84c1.62-2.14,3.1-4.18,4.66-6.36a64.19,64.19,0,0,0,5.65-9.42c1.85-3.79,3.34-7.76,5.53-11.36,3.6-5.94,8.93-10.59,14.18-15.15a66.87,66.87,0,0,1,5.74-4.77,58.35,58.35,0,0,0,9-7.12,63.21,63.21,0,0,0,4.56-5.38l1.46-1.87a17.33,17.33,0,0,0,3.19-5.21,4.34,4.34,0,0,1,1.09-2.18c.39-.32.92-.44,1.32-.76s.57-.67.94-.88a3.76,3.76,0,0,1,.86-.28,8.2,8.2,0,0,0,3-1.91,1.45,1.45,0,0,0,.5-.63,2.09,2.09,0,0,0,0-.86,4.9,4.9,0,0,1,1-3l2.47-4.25a10.67,10.67,0,0,1,1.65-2.33,4,4,0,0,1,2.66-1.3c.31.27.78-.08,1-.41l2.82-3.61a6,6,0,0,0,1.26-2.37c.58-1.88.81-3.92,1.93-5.54.27-.38.58-.74.85-1.12a7.74,7.74,0,0,0,1-2.13,21.79,21.79,0,0,0,.56-2.42c.32-1.66.65-3.31,1-5,.61-3,1.26-6.13,2.92-8.73a2,2,0,0,1,1.34-1.08,3.42,3.42,0,0,1,1.54.48c.51.2,1.24.16,1.42-.36a1.34,1.34,0,0,0,0-.66A13.7,13.7,0,0,1,879,302l1.6-3.91a4,4,0,0,1,.65-1.19c.46-.51,1.15-.76,1.62-1.25.1-.11.19-.26.13-.39a.4.4,0,0,0-.2-.16,7.12,7.12,0,0,0-2-.33,5.18,5.18,0,0,1-2.45-1,.91.91,0,0,0-.37-.21c-.31-.06-.61.22-.92.16a.86.86,0,0,1-.36-.2,6.29,6.29,0,0,1-2.42-3.67,9.18,9.18,0,0,1,.12-2.86c.33-2.17.45-4.34.77-6.51a15.45,15.45,0,0,1-2.21-4.9,8.72,8.72,0,0,1,.68-5.18c.51-1.12,1.23-2.13,1.73-3.26,1.48-3.31.91-7.13.29-10.7a1,1,0,0,0-.27-.65c-.18-.16-.53-.12-.59.11a18.24,18.24,0,0,1,.65,2.49,2.25,2.25,0,0,1-1.24-2.08c0-.36.1-.79-.18-1a1.45,1.45,0,0,0-.51-.21c-.48-.16-.83-.58-1.3-.78s-1.19,0-1.14.55a1,1,0,0,0,.23.47c.16.21.32.41.49.61a4.32,4.32,0,0,0,1.55,1.09c-.3.24-.63.55-.57.93s.34.52.56.74a2.1,2.1,0,0,1,.6,1.82l1.09.07a.36.36,0,0,1,.29.09.41.41,0,0,1,.07.27c0,.81.06,1.61.08,2.42,0,1.28,0,2.73-.94,3.58a7,7,0,0,1-1.59.86A2.15,2.15,0,0,0,871.7,269a6.86,6.86,0,0,0-.07,1,7.43,7.43,0,0,1-.41,1.37,1.63,1.63,0,0,0,.09,1.37c.18.26.49.48.46.8,0,.49-.79.53-1.08.93a1.22,1.22,0,0,0-.16.68l-.07,2.27a.93.93,0,0,0,.07.44c.14.25.47.3.72.42s.45.52.21.67l-1.89-.5a3.38,3.38,0,0,1-1.28-.53c-.85-.67-.88-1.9-.91-3a1.83,1.83,0,0,0-.16-.81c-.15-.27-.42-.45-.59-.7-.52-.78.27-2.43-.47-3-.27-.8.4-1.61.41-2.45a3.83,3.83,0,0,0-1.11-2.16,10.46,10.46,0,0,1-2.11-6.45,15.63,15.63,0,0,0,0-2.37,2.68,2.68,0,0,0-1.14-2c-.34-.2-.76-.31-1-.64a6.6,6.6,0,0,1-.32-1c-.25-.53-.94-.82-1-1.4-.06-.36.08-.86-.25-1a1.75,1.75,0,0,0-.33-.05c-.54-.06-.85-.61-1.08-1.09l-1.17-2.52a6.58,6.58,0,0,0-1.25-2,21,21,0,0,1-1.89-1.6.91.91,0,0,0,.94-1c-.08-.39-.4-.69-.49-1.07a3.77,3.77,0,0,1,.15-1.28,3.32,3.32,0,0,0-1.49-2.56,4.42,4.42,0,0,1-1.83-2.4,1.78,1.78,0,0,0-.19-.8,1.4,1.4,0,0,0-.33-.31,17,17,0,0,1-1.8-1.8,10.82,10.82,0,0,0-6.81-3.19c-.19,0-.42,0-.51.17s.09.43.31.51a1.93,1.93,0,0,1,.63.25c.17.14.21.39.33.58s.38.36.55.21.1-.14.16-.2.5,0,.62.23.18.49.38.64a1,1,0,0,0,.46.14,4.27,4.27,0,0,0,1.78,0,1.34,1.34,0,0,1,.4-.07.79.79,0,0,1,.44.23,5.14,5.14,0,0,1,1.49,2.23,2,2,0,0,0-1,.39.71.71,0,0,0-.14.94c.45.52,1.45-.21,1.82.37a2,2,0,0,1,1.15.9c.29.38.6.84.45,1.29a2.81,2.81,0,0,1-.29.54,1.5,1.5,0,0,0,0,1.38,1.39,1.39,0,0,1-.93-1.07,1,1,0,0,0-.08-.35.79.79,0,0,0-.31-.29,9,9,0,0,1-3.19-3.69,2.44,2.44,0,0,0-.4-.68c-.6-.65-1.69-.36-2.52-.67-.49-.19-.87-.58-1.36-.78s-1.19-.08-1.32.43a13.19,13.19,0,0,1-4.67-3.39c-.35-.39-.9-.84-1.32-.53-.22.15-.3.46-.52.61s-.79,0-1,.29a1.28,1.28,0,0,0-.24.64,2.67,2.67,0,0,1-.92,1.19l-1.49,1.3c-.3.27-.64.86-.33,1.11.13.49.7.69,1.2.73a3,3,0,0,1,1.46.28c.6.42.61,1.29.56,2a1.58,1.58,0,0,1-.17.71c-.23.35-.77.5-.86.91a1,1,0,0,0,.08.55c.65,2.16.07,4.49-.51,6.68a.7.7,0,0,0-.84.17,8,8,0,0,0-.54.76,2.57,2.57,0,0,1-3.19.43,2.54,2.54,0,0,0-1-.42,1.6,1.6,0,0,0-1.26.92,4.21,4.21,0,0,1-.92,1.34,3,3,0,0,1-.69.34l-1.89.76a1.2,1.2,0,0,1-1.18,0,3.18,3.18,0,0,0-2.12-.18,1.6,1.6,0,0,0-1.15,1.64,3.8,3.8,0,0,0-1,.08l-.09,1.77a.55.55,0,0,1-.12.4c-.19.2-.52,0-.72-.15-.53-.53-.77-1.32-1.33-1.83-.91-.85-2.38-.69-3.45-1.34a1.7,1.7,0,0,1,.23,1.1,28.39,28.39,0,0,1-3-1,.52.52,0,0,0,0,.55h-1l-1.33-.76-.88-.25-.63.57-1.27.76-2.08-.13L799,249.45l-1.71-.26-1.14-.88-3.09-.19-1-.51-3.29-1.32-1,.25-1.83.5a7.21,7.21,0,0,1-2.21,1c-1.14.25-2.4-.95-2.4-.95l.31-3.1-3-.5s-1.2-.13-4.55-.38-19.52-4.24-19.52-4.24S748.4,237.5,745,237s-13.9-5.5-15.79-6.26-10.43-5.12-12.33-5-8.53-.25-13-.38-7.33-1.71-10.3-1.71a14.12,14.12,0,0,0-5.81,1.52l-.13.89-4,1.51-3.86,3.16-2,1.77a38.27,38.27,0,0,1-8.15,1.39c-5.31.44-4.17-1.07-8.09-1.58a14,14,0,0,0-7,.89l-5.31.88-3.22.76-4.74,1.58-1.77.31h-1.7l-1.58.07-1.21.63s-2.21.38-5.49.82-3.6,2-3.6,2a22.73,22.73,0,0,1-2.6,3.1c-1.39,1.33-5.43,4.36-5.43,4.36l-.63,1.07-1,.57s-4.74,2.34-6.26,3a9.65,9.65,0,0,1-3.73.45l-3,.82-.31,1.2h-1.27l-4.29,1.77a35.23,35.23,0,0,0-5.56.44c-2.15.44-5.63,1.2-5.82,1.33s-3.79.25-3.79.25l-6.82,1.33a19.58,19.58,0,0,0-5.06.5c-2.53.63-9.35,2.09-9.35,2.09l-8.91.63-12.13,1.45-5.63.38-11.06,1.26-3.47.76-16,2.4-8.15,1.65L480.53,274s-5.5,1.39-12.45,2.66-12.51,4-15.61,5.05-8.91,6.13-11.24,7-5.88,1.89-5.88,1.89l-6.45.89-2.08.63s-30.14,19-31.79,20.28-4.55,7.08-5.3,8.91-2.59,9-3,10.56a16,16,0,0,1-1.64,3.47v2.15l-1.58,3.73v3.55l.11,2.58h1v1l-2,3-1.19.57-.61,2.37-.86.52-1.82,2.57-.31,2.06-1,1.39-.16,2.27,1,.92.66.73.06-2.06-.06-.88.06-2.11.31-2.22.77-1.28.43,1.39-.79,9.32-.88,2.57-.29.93" transform="translate(184.19 -222.91)"/><path class="cls-4" d="M378,370.35,376.2,376l-1.49,2.21-1.55,4.12-1.65,5.36.16,3.91.51-.41.36-.72h.67l.57.87,1.29.42-.93.82-1.08-.31h-1.39l.36,1.55.62.77.46,1.54-.67.88.16,1.6,1.59,7.41-.92,2.27-.83,1.75.72,1.91-.2,1.64.1,4.48.67,11.13a3.91,3.91,0,0,1,1.08,2.16c.36,1.6.16,3.09-.46,3.56s-1.55.87-1.55,1.95.31,1.81,1.24,4a11.61,11.61,0,0,1,.67,4.89l-.88,1.39-.05,2.63-.41.52-.21.72,1.5,2.88.15,1.24,2.06,2.47.21,1.8-1.19,1.29,1.34,2.78.67.11c.67.1.16.72.1,1.28l.57.62-.41,1.39s-.83,2.42-1.6,2.89a4,4,0,0,0-1.23,1.8l-2.42,4.74-.93.46-.88,2-1.59.93-1.79,1.07-3.15,2.82-4.94,3-4.17,3.06s-3,2.45-5.18,4.71-.79,3.8-1,5-1.89,2.91-2.86,4.35a32.5,32.5,0,0,1-3.38,3.7c2.68.88.92,2.5.92,2.5s2.78,2,2.78,3.33c0,5.09-3.56,9.85-3.56,9.85s.92.65.94,1.11c0,1.4-.8,3.7-.9,5.41a3.2,3.2,0,0,0,.84,2.53,28.13,28.13,0,0,1-.37,6.63c-.65,4.17-2,5.28-2.36,7.31a26,26,0,0,0,.37,6.11c-1.17,4.09-6,8.65-7.59,10.5a49.51,49.51,0,0,1-6.15,5L324.47,571l-5.6,5.18-.88,1.57-13.64,9.35s-9.81,6-10.69,6.66-1.66,1.66-2.22,2.13-2.45,1.62-2.45,1.62v1.06a6.63,6.63,0,0,1-1.16.88c-1,.65-12.26,7.54-14.15,8.28s-7.77,3.38-10,4.26-10.92,5.41-13.65,7.81-5,6.43-6.47,7.82-6,5-7.4,6.06c-.75.55,0,1.58,0,1.58,1.17.81,2.64.22,3.72-.7l9.27-8c1.77-1.52,4-3.15,6.23-2.5.34,1.25-.51,2.51-1.44,3.41a8.41,8.41,0,0,0-2.49,2.94,1.42,1.42,0,0,0,0,1.07,2,2,0,0,0,1,.76,22,22,0,0,1,3.52,2.6,5.7,5.7,0,0,0,4,1.44c1.45-.19,2.77-1.67,2.31-3.06a26.1,26.1,0,0,1,8,5.37,6,6,0,0,1,1.54,2.08A6.53,6.53,0,0,1,272,644a45.29,45.29,0,0,1-1.12,5.54,1.59,1.59,0,0,1-.49.93c-.49.38-1.26.11-1.81.41a1.93,1.93,0,0,0-.61.63,40.68,40.68,0,0,0-6,13,6.3,6.3,0,0,1-1.5,3.27,5.82,5.82,0,0,1-2.22,1.08l-12.4,4c-3.16,1-6.38,2-9,4.08-2.11,1.64-3.78,3.89-6.17,5.08-2.6,1.31-5.68,1.17-8.57.84a82.06,82.06,0,0,1-21.15-5.31c-2.84-1.14-5.74-2.46-8.8-2.3a4.85,4.85,0,0,1-2.46-.2c-.56-.3-1.62-2.17-2-2.63-1.13-1.25-4-1.83-4.51-2.14-1.39-.94-1-2.57-.29-4.1a1.25,1.25,0,0,1,1.34,0c.82-2,2.46-3.52,3-5.63l.31-1c-2.45,0-7.29-2.28-9-5.8a22.74,22.74,0,0,0-4.48-6h-6.5l-31.71,2.72s-10.71.18-17.12,1.06a95.12,95.12,0,0,0-12.12,2.54h-2.38l-4.91,1.76-18.8,3.95H76.62l-1.75-1-2.2,1.67v1.58c-1.62,2.45-5.88,13.08-17,18.18C43.25,686,27.2,685.6,25.59,685.6a12.33,12.33,0,0,1-5.79-2S6.1,684.9-3.39,684.9a197.53,197.53,0,0,0-21,.7c-8.52,1-25.38,6.42-25.38,6.42l-31.8,11.06s-32,11.63-40.4,14c-10.84,3-37.15,8.78-46.72,8.78a21.83,21.83,0,0,1-14.76-5.27L-181.93,895h473a2.74,2.74,0,0,0-1-.83c-.61-.3-1.36-.39-1.83-.89-.89-.95-.1-2.55-.53-3.78a.79.79,0,0,0-.28-.39.85.85,0,0,0-.5-.05,10,10,0,0,1-3.9-.1c-2.13-.66-3.44-2.7-5-4.27a26.06,26.06,0,0,1-2.52-2.52,6.3,6.3,0,0,1-1-3.6,3,3,0,0,0-2.69-2.9c-.88-.06-1.81.26-2.6-.11a2.75,2.75,0,0,1-1.17-1.3,9.17,9.17,0,0,1-1-3.58,2.5,2.5,0,0,1,.17-1.3c.3-.59.95-.93,1.27-1.5a2,2,0,0,0-.05-1.82,3.9,3.9,0,0,0-1.29-1.36,2.41,2.41,0,0,0-.75-.38,3.12,3.12,0,0,0-1.29,0,18.15,18.15,0,0,1-4.54.09,2.15,2.15,0,0,0-.62,0,1.3,1.3,0,0,0-.82,1.36,1.94,1.94,0,0,1,0,.9c-.27.61-1.15.5-1.78.28a.87.87,0,0,1-.31-.18.84.84,0,0,1-.09-.68,4.09,4.09,0,0,0-1.44-3.56c-.37-.3-.8-.53-1.17-.83s-.58-.5-.91-.7c-1.5-.89-3.5.09-5.15-.48-1.21-.42-2-1.76-2.61-2.87l-1.18-3.28H306.1V773.9l.1-.36,248.83,0V755.76h.15c.73.4,1.62-.31,1.93-1.08a13.46,13.46,0,0,1,.75-2.38,2.35,2.35,0,0,1,3.49-.4,5.68,5.68,0,0,1,6.66-3.2,2,2,0,0,1,2-1.83,5.73,5.73,0,0,1,2.83.88l2.24,1.16a2.44,2.44,0,0,1,1.08.84.87.87,0,0,1-.26,1.2,14.72,14.72,0,0,1,2,3.86c.17-.37.33-.73.49-1.1a4.8,4.8,0,0,0,3.49.34,2.28,2.28,0,0,1,1.55-.17c.89.41,1.21,2.15,2.09,1.73a4.18,4.18,0,0,0,2,3.68c1.19.85,2.61,1.34,3.88,2.08s2.77,1.58,3.76.63.12-2.67.43-4c.63-2.8,5.37-2.29,6.76-4.8a8.88,8.88,0,0,1,.74-1.44c.73-.86,2.38-1.09,2.36-2.22,0-.36-.22-.68-.23-1,0-1,1.23-1.46,1.65-2.35a7.48,7.48,0,0,0,.27-1.65c.61-3,5.64-2.67,7.07-5.39a6.24,6.24,0,0,0,.39-3.22,16.62,16.62,0,0,1,.45-5.4,10.08,10.08,0,0,1,3.26-4.94c.49-.4,1.07-.85,1.09-1.48,0-1.17-1.81-1.72-1.77-2.88,0-.74.8-1.19,1.48-1.49l5.65-2.56c2.16-1,4.58-2.27,5-4.59.3-1.49-.31-3.13.35-4.5a5.61,5.61,0,0,0,.72-1.45c.09-.53-.36-1.2-.87-1a6.54,6.54,0,0,0,1.89-2.74c1-2.71,3.76-4.32,5.59-6.54a1.51,1.51,0,0,0,.47-1c0-.49-.49-.82-.68-1.26a2.1,2.1,0,0,1,0-1.44c.77-2.54,2.86-4.57,3.35-7.17a22.68,22.68,0,0,1,.44-2.86,8,8,0,0,1,3-3.43,17.85,17.85,0,0,1,3.1-2.11.84.84,0,0,1,.68-.12c.2.07.33.28.52.38.62.32,1.42-.57,2-.19s.26,1.24.77,1.52a1.06,1.06,0,0,0,1-.14,25.07,25.07,0,0,1,4.67-1.77,1.58,1.58,0,0,1,1,0,2.17,2.17,0,0,1,.72.78,3.43,3.43,0,0,0,3.19,1.35c-.22-.51.67-1.14.67-1.14l2.62-2.72,7.87,2,5.24-10.68,4.37-9.23,3.79-7.48,1.75-1.07,2.91-1.94-1.55-1.94,1-1.26,2,.68-.58-2.43a43.3,43.3,0,0,1,2.23-3.79,23.59,23.59,0,0,0,1.55-3.2l1.17-3.5,2.91-2.91,3.3-4.86,2.72,2.24.2,4.75,2.91,4.18S710,638,710,638.42a33.66,33.66,0,0,0,1.06,3.31l-1.36,6,2.43,2.72-3.49,9.13-2.24,2,.39,4.75-.39,3.89-5.44,4,1,3.5,6.5,2.33,4.76,1.94,5,1.55,1.85,3.79.87,4.57,2.82-.59,1.36,4.18,2.33,1.84-1.07,6.41.39,7.09.29,10.88-.48,3.5-.39,3.59-2.62,3.2-1,2.63s-1.74,2.42-2,2.72-1.55-.2-1.84,0,0,3.49,0,3.49l-3.11,9.32-5.44,12.63-3.69.68,1.56,2.23,5-1.06s5.14-5.35,5.34-5.64,4.08-5.92,4.08-5.92,2.72-7.67,2.81-8,2.33-6.11,2.33-6.11l3.5-5.73,2.43-1.85a23.37,23.37,0,0,0,2.13-2.23c.1-.29-1-1.94-.87-2.24a43.78,43.78,0,0,0-1.16-4.56l-.59-4.08s1.17-7,1.17-7.38.58-6.51.58-7.19,2.72-4.75,2.72-4.75l1.65-3.21,2.91-4.66,1.66-3.11V679.8l.87-6,2.23-2.91V666.1l.68-3.3.68-4.18.29-2.52s.88-5.54,1.17-7.58,1.36-2.71,1.75-3.59a13.77,13.77,0,0,1,2.91-2.91c.39-.29,2.43-4.18,2.3-4.76a12.55,12.55,0,0,1,0-1.94c0-.49.23-1.56,0-1.85a15.76,15.76,0,0,1,.58-3.3l1.17-2.14.19-2,2-2.23v-4.37l1.26-2.53V614l1.84-2.72s.78-2.43,1.17-3.79a11.88,11.88,0,0,1,1.94-3.2l1.46-3.69,1.65-4.27,1.94-2.33.88-2,.48-6.61.22-2.39c0-.13.07-.27.1-.39,1.34-5.64-.56-7.33,3.83-12.33,1.85-2.11,4.15-3.82,5.84-6.06a17.45,17.45,0,0,1,2.11-2.64c.8-.72,1.87-1.29,2.17-2.33a25.46,25.46,0,0,1-3.59-2.8c0,.62-.84.81-1.46.87A14.81,14.81,0,0,0,779,558a1.78,1.78,0,0,0-.79.45c-.23.27-.3.64-.51.93-.53.71-1.62.54-2.5.7a4.89,4.89,0,0,0-1.57.69,18.16,18.16,0,0,0-6.81,7.36,2.58,2.58,0,0,0,1.32-1.62c-.12,1-.36,2.26-1.29,2.76a7.81,7.81,0,0,0-1.1.49,2.31,2.31,0,0,0-.65,1l-1.8,4.07a6.25,6.25,0,0,0-.59,1.77,2.27,2.27,0,0,1-.23,1c-.46.7-1.54.39-2.28,0a.69.69,0,0,1-1.15.35c-.2-.24-.2-.6-.4-.84a1.71,1.71,0,0,0-.93-.43,6.32,6.32,0,0,1-2.71-2.08c-.5-.56-1-1.43-.47-2a3.84,3.84,0,0,1,.91-.44c.3-.16.51-.61.25-.82s-.64,0-1-.05a.66.66,0,0,1-.45-.69,1.77,1.77,0,0,1,.34-.83,10.24,10.24,0,0,1,2.35-2.52,2.19,2.19,0,0,0,.66-.66,1.86,1.86,0,0,0,.14-.94c0-.75,0-1.51,0-2.26a.81.81,0,0,0-.1-.49c-.2-.28-.66-.22-.9-.46s-.09-.8.23-1a9.68,9.68,0,0,0,1-.67c.57-.56.45-1.47.44-2.27a13.86,13.86,0,0,1,.89-3.53c.52-2,1.15-4.21,2.84-5.44a18.38,18.38,0,0,0,1.56-1c1.06-.92,1.6-2.59,3-2.86a6.42,6.42,0,0,0,.86-.14c.51-.19.8-.73,1.21-1.1.78-.69,1.93-.71,2.87-1.16.51-.25,1-.64,1.46-.89a1.69,1.69,0,0,1,1.63,0c.18.54-.56,1-.65,1.51a2.17,2.17,0,0,0,.27,1,2,2,0,0,1-1.6,2.5c1.19-.17,2.51.15,3.51-.51a4.1,4.1,0,0,0,.93-.93l3.16-4a4.13,4.13,0,0,1,1.29-1.21,11.46,11.46,0,0,1,1.54-.48,5.15,5.15,0,0,0,1.81-1.26,16.17,16.17,0,0,0,3.6-5.21,5.4,5.4,0,0,0,.47-1.56,13,13,0,0,0-.06-1.65,13.61,13.61,0,0,1,.56-3.74l.35-1.37a3.91,3.91,0,0,1,.63-1.55,7.21,7.21,0,0,0,.59-.65,2.65,2.65,0,0,0,.34-1.18,18,18,0,0,0,0-5,1.5,1.5,0,0,1-1.45-.86,4.81,4.81,0,0,0-1-1.46c-.32-.23-.72-.34-1-.59-.91-.74-.88-2.62-2.06-2.66.78,1.05,1.55,2.6.63,3.54-.33.34-.9.61-.86,1.09s1,.89.84,1.45a.86.86,0,0,1-.42.44,10.16,10.16,0,0,1-6.44,1.39c.25.07.23.57,0,.74s-.68.12-1,.25-.52.64-.2.78l2.28.28c-1.34.52-2.78,1.13-3.43,2.4a7.06,7.06,0,0,1-.9,1.85c-.48.49-1.57.4-1.61-.29,0-.34.24-.63.29-1,.14-.91-1.12-1.31-2-1.28a37.71,37.71,0,0,0-5.87.83,8.86,8.86,0,0,0-4.29,1.67,12.67,12.67,0,0,0-2.38,3.75c-.71,1.31-1.79,2.61-3.27,2.78a.78.78,0,0,1-.71-.2c-.27-.35.09-.82.27-1.23s-.28-1.07-.55-.72c-.27,0-.32-.41-.11-.59s.52-.23.68-.46c.33-.47-.36-1.06-.94-1.05s-1.2.26-1.72,0l1.77-1.39a1.88,1.88,0,0,0,.89-1.26c0-.91-1.15-1.34-2.05-1.19s-1.82.58-2.67.28c-1.11-.38-1.49-1.74-1.56-2.91a3.72,3.72,0,0,1-4-4.19c.29-1.48,1.53-2.89,1-4.33-.24-.73-.9-1.28-1.14-2a2.53,2.53,0,0,1,.58-2.36,5,5,0,0,1,2.12-1.33c3.34-1.23,7.18-.66,10.41-2.16V506c3-3.52,5-7.82,7.38-11.81,1.08-1.8,2.19-3.89,3.89-5.1l1.06-.76a.49.49,0,0,1,.34-.12c.24.05.25.37.31.61a1.16,1.16,0,0,0,1,.7c.45,0,.9-.08,1.34-.07a13.44,13.44,0,0,0,1.66.14,3.6,3.6,0,0,0,1-.32,7.19,7.19,0,0,0,2.26-1.32,4.51,4.51,0,0,0,.85-1.23h0a20.15,20.15,0,0,0,.86-2.28,18.69,18.69,0,0,1,1-2.43,2.16,2.16,0,0,1,.58-.78c.55-.39,1.38-.25,1.88-.7a1.64,1.64,0,0,0,.41-.71c.37-1.12.3-2.4,1-3.36.17-.23.36-.58.13-.76s-.27-.06-.42-.09c-.36-.08-.52-.49-.61-.85a12.24,12.24,0,0,1-.34-2.48c0-.53.11-1.2.62-1.32s.88.4,1.13.84.61.94,1.1.87.7-.92.6-1.52c-.06-.33-.13-.66-.22-1a.42.42,0,0,0-.11-.22.45.45,0,0,0-.3-.07,2.71,2.71,0,0,1-2.32-1.95,18.16,18.16,0,0,1-1.23-5.16,2.8,2.8,0,0,0-.2-1.22.81.81,0,0,0-1-.45,2.25,2.25,0,0,1-.42-1.91,12.14,12.14,0,0,0,.32-2,8.24,8.24,0,0,0-.49-2.06,12.16,12.16,0,0,1-.19-4.92,37.88,37.88,0,0,1,1.59-6.09c1.38-4.33,2.77-8.67,4.45-12.9a16.55,16.55,0,0,1,1-2.14,19.49,19.49,0,0,1,1.28-1.84c1.62-2.14,3.1-4.18,4.66-6.36a64.19,64.19,0,0,0,5.65-9.42c1.85-3.79,3.34-7.76,5.53-11.36,3.6-5.94,8.93-10.59,14.18-15.15a66.87,66.87,0,0,1,5.74-4.77,58.35,58.35,0,0,0,9-7.12,63.21,63.21,0,0,0,4.56-5.38l1.46-1.87a17.33,17.33,0,0,0,3.19-5.21,4.34,4.34,0,0,1,1.09-2.18c.39-.32.92-.44,1.32-.76s.57-.67.94-.88a3.76,3.76,0,0,1,.86-.28,8.2,8.2,0,0,0,3-1.91,1.45,1.45,0,0,0,.5-.63,2.09,2.09,0,0,0,0-.86,4.9,4.9,0,0,1,1-3l2.47-4.25a10.67,10.67,0,0,1,1.65-2.33,4,4,0,0,1,2.66-1.3c.31.27.78-.08,1-.41l2.82-3.61a6,6,0,0,0,1.26-2.37c.58-1.88.81-3.92,1.93-5.54.27-.38.58-.74.85-1.12a7.74,7.74,0,0,0,1-2.13,21.79,21.79,0,0,0,.56-2.42c.32-1.66.65-3.31,1-5,.61-3,1.26-6.13,2.92-8.73a2,2,0,0,1,1.34-1.08,3.42,3.42,0,0,1,1.54.48c.51.2,1.24.16,1.42-.36a1.34,1.34,0,0,0,0-.66A13.7,13.7,0,0,1,879,302l1.6-3.91a4,4,0,0,1,.65-1.19c.46-.51,1.15-.76,1.62-1.25.1-.11.19-.26.13-.39a.4.4,0,0,0-.2-.16,7.12,7.12,0,0,0-2-.33,5.18,5.18,0,0,1-2.45-1,.91.91,0,0,0-.37-.21c-.31-.06-.61.22-.92.16a.86.86,0,0,1-.36-.2,6.29,6.29,0,0,1-2.42-3.67,9.18,9.18,0,0,1,.12-2.86c.33-2.17.45-4.34.77-6.51a15.45,15.45,0,0,1-2.21-4.9,8.72,8.72,0,0,1,.68-5.18c.51-1.12,1.23-2.13,1.73-3.26,1.48-3.31.91-7.13.29-10.7a1,1,0,0,0-.27-.65c-.18-.16-.53-.12-.59.11a18.24,18.24,0,0,1,.65,2.49,2.25,2.25,0,0,1-1.24-2.08c0-.36.1-.79-.18-1a1.45,1.45,0,0,0-.51-.21c-.48-.16-.83-.58-1.3-.78s-1.19,0-1.14.55a1,1,0,0,0,.23.47c.16.21.32.41.49.61a4.32,4.32,0,0,0,1.55,1.09c-.3.24-.63.55-.57.93s.34.52.56.74a2.1,2.1,0,0,1,.6,1.82l1.09.07a.36.36,0,0,1,.29.09.41.41,0,0,1,.07.27c0,.81.06,1.61.08,2.42,0,1.28,0,2.73-.94,3.58a7,7,0,0,1-1.59.86A2.15,2.15,0,0,0,871.7,269a6.86,6.86,0,0,0-.07,1,7.43,7.43,0,0,1-.41,1.37,1.63,1.63,0,0,0,.09,1.37c.18.26.49.48.46.8,0,.49-.79.53-1.08.93a1.22,1.22,0,0,0-.16.68l-.07,2.27a.93.93,0,0,0,.07.44c.14.25.47.3.72.42s.45.52.21.67l-1.89-.5a3.38,3.38,0,0,1-1.28-.53c-.85-.67-.88-1.9-.91-3a1.83,1.83,0,0,0-.16-.81c-.15-.27-.42-.45-.59-.7-.52-.78.27-2.43-.47-3-.27-.8.4-1.61.41-2.45a3.83,3.83,0,0,0-1.11-2.16,10.46,10.46,0,0,1-2.11-6.45,15.63,15.63,0,0,0,0-2.37,2.68,2.68,0,0,0-1.14-2c-.34-.2-.76-.31-1-.64a6.6,6.6,0,0,1-.32-1c-.25-.53-.94-.82-1-1.4-.06-.36.08-.86-.25-1a1.75,1.75,0,0,0-.33-.05c-.54-.06-.85-.61-1.08-1.09l-1.17-2.52a6.58,6.58,0,0,0-1.25-2,21,21,0,0,1-1.89-1.6.91.91,0,0,0,.94-1c-.08-.39-.4-.69-.49-1.07a3.77,3.77,0,0,1,.15-1.28,3.32,3.32,0,0,0-1.49-2.56,4.42,4.42,0,0,1-1.83-2.4,1.78,1.78,0,0,0-.19-.8,1.4,1.4,0,0,0-.33-.31,17,17,0,0,1-1.8-1.8,10.82,10.82,0,0,0-6.81-3.19c-.19,0-.42,0-.51.17s.09.43.31.51a1.93,1.93,0,0,1,.63.25c.17.14.21.39.33.58s.38.36.55.21.1-.14.16-.2.5,0,.62.23.18.49.38.64a1,1,0,0,0,.46.14,4.27,4.27,0,0,0,1.78,0,1.34,1.34,0,0,1,.4-.07.79.79,0,0,1,.44.23,5.14,5.14,0,0,1,1.49,2.23,2,2,0,0,0-1,.39.71.71,0,0,0-.14.94c.45.52,1.45-.21,1.82.37a2,2,0,0,1,1.15.9c.29.38.6.84.45,1.29a2.81,2.81,0,0,1-.29.54,1.5,1.5,0,0,0,0,1.38,1.39,1.39,0,0,1-.93-1.07,1,1,0,0,0-.08-.35.79.79,0,0,0-.31-.29,9,9,0,0,1-3.19-3.69,2.44,2.44,0,0,0-.4-.68c-.6-.65-1.69-.36-2.52-.67-.49-.19-.87-.58-1.36-.78s-1.19-.08-1.32.43a13.19,13.19,0,0,1-4.67-3.39c-.35-.39-.9-.84-1.32-.53-.22.15-.3.46-.52.61s-.79,0-1,.29a1.28,1.28,0,0,0-.24.64,2.67,2.67,0,0,1-.92,1.19l-1.49,1.3c-.3.27-.64.86-.33,1.11.13.49.7.69,1.2.73a3,3,0,0,1,1.46.28c.6.42.61,1.29.56,2a1.58,1.58,0,0,1-.17.71c-.23.35-.77.5-.86.91a1,1,0,0,0,.08.55c.65,2.16.07,4.49-.51,6.68a.7.7,0,0,0-.84.17,8,8,0,0,0-.54.76,2.57,2.57,0,0,1-3.19.43,2.54,2.54,0,0,0-1-.42,1.6,1.6,0,0,0-1.26.92,4.21,4.21,0,0,1-.92,1.34,3,3,0,0,1-.69.34l-1.89.76a1.2,1.2,0,0,1-1.18,0,3.18,3.18,0,0,0-2.12-.18,1.6,1.6,0,0,0-1.15,1.64,3.8,3.8,0,0,0-1,.08l-.09,1.77a.55.55,0,0,1-.12.4c-.19.2-.52,0-.72-.15-.53-.53-.77-1.32-1.33-1.83-.91-.85-2.38-.69-3.45-1.34a1.7,1.7,0,0,1,.23,1.1,28.39,28.39,0,0,1-3-1,.52.52,0,0,0,0,.55h-1l-1.33-.76-.88-.25-.63.57-1.27.76-2.08-.13L799,249.45l-1.71-.26-1.14-.88-3.09-.19-1-.51-3.29-1.32-1,.25-1.83.5a7.21,7.21,0,0,1-2.21,1c-1.14.25-2.4-.95-2.4-.95l.31-3.1-3-.5s-1.2-.13-4.55-.38-19.52-4.24-19.52-4.24S748.4,237.5,745,237s-13.9-5.5-15.79-6.26-10.43-5.12-12.33-5-8.53-.25-13-.38-7.33-1.71-10.3-1.71a14.12,14.12,0,0,0-5.81,1.52l-.13.89-4,1.51-3.86,3.16-2,1.77a38.27,38.27,0,0,1-8.15,1.39c-5.31.44-4.17-1.07-8.09-1.58a14,14,0,0,0-7,.89l-5.31.88-3.22.76-4.74,1.58-1.77.31h-1.7l-1.58.07-1.21.63s-2.21.38-5.49.82-3.6,2-3.6,2a22.73,22.73,0,0,1-2.6,3.1c-1.39,1.33-5.43,4.36-5.43,4.36l-.63,1.07-1,.57s-4.74,2.34-6.26,3a9.65,9.65,0,0,1-3.73.45l-3,.82-.31,1.2h-1.27l-4.29,1.77a35.23,35.23,0,0,0-5.56.44c-2.15.44-5.63,1.2-5.82,1.33s-3.79.25-3.79.25l-6.82,1.33a19.58,19.58,0,0,0-5.06.5c-2.53.63-9.35,2.09-9.35,2.09l-8.91.63-12.13,1.45-5.63.38-11.06,1.26-3.47.76-16,2.4-8.15,1.65L480.53,274s-5.5,1.39-12.45,2.66-12.51,4-15.61,5.05-8.91,6.13-11.24,7-5.88,1.89-5.88,1.89l-6.45.89-2.08.63s-30.14,19-31.79,20.28-4.55,7.08-5.3,8.91-2.59,9-3,10.56a16,16,0,0,1-1.64,3.47v2.15l-1.58,3.73v3.55l.11,2.58h1v1l-2,3-1.19.57-.61,2.37-.86.52-1.82,2.57-.31,2.06-1,1.39-.16,2.27,1,.92.66.73.06-2.06-.06-.88.06-2.11.31-2.22.77-1.28.43,1.39-.79,9.32-.88,2.57-.29.93" transform="translate(184.19 -222.91)"/><path class="cls-4" d="M775.16,243.37v71.2l-28.48,50.82-29.76,30h-4.21v3.71l-5,5.62h-2.17v1.91L693,419.28l-12.9-.89-3.95-.38-.64,2.55-5.37,2.81-8.3-1.4-5,1.4.51,1.4-1.53,1.15-4-.76-10.34,6.89h1.91L643,439.2l-9.57-.76v1.25h-1.32l-.1,1.06-4.25-.15v2.28l-2.38-.66-7.29,4.5-.3,1.88,1.31,0L618,455.38l-1.26,3-1.42-.1a8.16,8.16,0,0,0-1.55.81c0-.46-.11-.91-.17-1.37l-1.66-.05c-.12.1,0,.28.16.33s.33.12.32.27a.34.34,0,0,1-.11.18,1,1,0,0,1-.91.26.52.52,0,0,1-.3-.77l-3.91-.12c0,.35,0,.71,0,1.06a4.5,4.5,0,0,1-1.71-.21" transform="translate(184.19 -222.91)"/><polyline class="cls-4" points="789.5 235.71 789.61 237.73 788.44 237.63 788.85 240.67 787.43 240.77 787.63 243.5 786.52 243.65 786.47 244.97 785.91 246.24 786.26 247.55 785.3 249.02 785.25 250.74 783.78 250.18 783.38 251.5 784.7 252.51 784.04 253.78 783.33 254.33 781.76 254.49 776.5 254.49 776.5 256.97 773.66 257.22 774.22 260.56 772.45 263.6 772.4 265.67 771.03 265.47 769.76 267.09 767.59 267.04 767.79 264 765.92 264.2 765.92 263.24 763.69 263.24 763.59 264.05 762.37 265.01 762.47 265.93 760.3 266.13 759.64 269.93 757.01 269.22 753.41 277.26 757.97 276.4 758.07 277.06 761.01 276.35 760.45 279.64 756.1 279.24 755.29 283.39 749.92 282.48 750.02 281.11 743.64 279.85 742.13 292.7 745.47 292.91 745.47 297.31 739.95 297.36 740.61 289.41 734.33 288.4 734.33 289.67 729.92 289.31 730.28 293.62 719.9 301.81"/><polyline class="cls-4" points="569.87 114.06 572.98 114.06 572.08 156.19 577.27 156.69 578.57 153.4 578.97 158.59 593.15 158.29 592.85 161.39 594.35 161.69 592.45 168.68 599.04 170.47 599.24 173.37 606.53 173.17 610.62 175.26 614.62 175.47 615.21 173.77 617.41 174.37 620.51 168.28 623.1 167.68 623.8 166.68 646.37 195.73 641.67 195.43 641.27 200.23 645.87 200.83 645.07 206.52 651.26 207.81 651.16 213.91 652.36 217 658.35 211.01 678.92 237.57 678.02 245.56 679.22 246.16 679.12 248.75 681.11 248.55 680.71 255.14 688.9 269.32 695.69 270.22 695.19 274.51 692.79 274.21 696.49 280.3 699.48 280.3 704.18 287.19 740.52 320.54 740.52 361.78 741.82 362.08 740.22 382.35 740.52 416.39 739.12 416.59 739.82 420.09 739.82 459.93 743.32 459.83 743.32 469.01 741.32 469.11 742.42 482.29 739.42 482.69 738.82 492.98 740.82 492.68 740.42 503.56 733.03 503.56 732.93 512.35 740.62 512.54 740.32 516.24 738.02 516.34 738.23 521.83 732.03 521.33 732.03 530.82 739.12 530.82 739.12 550.69 490.1 550.71"/><path class="cls-4" d="M104.72,654.22a7.68,7.68,0,0,1,.13,2,5.87,5.87,0,0,0-.17,2.81,3.81,3.81,0,0,0,.71,1.08c1.4,1.65,2.79,3.31,4.18,5a6.84,6.84,0,0,1,1,1.49,5,5,0,0,1,.36,2.17,11.16,11.16,0,0,1-.57,3.39,2.74,2.74,0,0,0-.22,1,2.59,2.59,0,0,0,.29.89l1.52,3.15a2,2,0,0,0,.73,1c.54.3,1.24.09,1.81.32a4.1,4.1,0,0,1,1,.8c.85.72,2,1,2.81,1.75a11.27,11.27,0,0,1,1.11,1.75,1.86,1.86,0,0,0,1.7,1c.8-.13,1.21-1,1.58-1.74s1.07-1.51,1.85-1.26c.44.15.71.6,1,1a1.63,1.63,0,0,0,1.24.38c.46,0,17.43,0,17.43,0v11.08l-1.07.43s1.82,3.76,1.82,5.27a43.82,43.82,0,0,1-1.5,6.55l1.07.32.11,2-1.5.32L148,717l-2,1.83.43,1.18-.22,5.16,1.83.64v1.83l2.79,2.46v2.26l1.5.54,3.12,1.39,1.72.75c.19.24,1,.06,1.13-.2s.23-.61.51-.73a2.43,2.43,0,0,1,.61-.07c.2,0,.42-.21.34-.4.13-.26.54-.16.72.07s.26.53.49.7c.83.62,2.11-1.21,2.84-.47a.94.94,0,0,1-.14,1.21,7.67,7.67,0,0,0-.95.94c.06.43.74.22,1.15.35a1.16,1.16,0,0,1,.58.65l1.48,2.93c1.5-.6,2.75,1.66,4.37,1.66-.28-.21.07-.7.42-.64s.55.4.72.71l1.35,2.48a2,2,0,0,0,.51.66,1.85,1.85,0,0,0,.79.26q3.24.52,6.53.74a3.66,3.66,0,0,1,1.23.22,3.47,3.47,0,0,1,.68.42l4.05,2.92c5.2-.84,11,2.23,14,6.59a1.88,1.88,0,0,0,.08-2.14,107.17,107.17,0,0,0,16.78,11.38,25.44,25.44,0,0,0,.78-4.25,4.48,4.48,0,0,1,2.35-1.33c-1.81-3.08-1.14-6.93-.67-10.47.39-3,.6-6,.8-9l.12-1.71c.07-1,.14-2,.25-2.93.14-1.25.5-2.68,1.64-3.18a6.82,6.82,0,0,0,.79-.31c1-.63.54-2.21-.07-3.25a1.91,1.91,0,0,0,1.59-3.42,6.74,6.74,0,0,1,6.75.72,4.82,4.82,0,0,1,3.58-3,3.18,3.18,0,0,0,.51,2.14l-1.45.13a10.08,10.08,0,0,1-.43,3.74l1.8.84.91.42a41.19,41.19,0,0,1,6.1,3.29,20.78,20.78,0,0,0,3.4,2.2,4.16,4.16,0,0,0,3.88-.07c.34,1.32,1.88,2,3.24,2a28,28,0,0,1,4.09,0,9.47,9.47,0,0,1,3.8,2l7.4,5.51a5.7,5.7,0,0,1,1.61,1.56c.29.5.43,1.08.7,1.59,1.25,2.41,4.59,2.53,7.31,2.39s6.1.19,7.11,2.71a4,4,0,0,0,1.61-3.23l1.51.48c.27.15.19.56.07.84s.53.45.23.51" transform="translate(184.19 -222.91)"/><polyline class="cls-4" points="490.19 529.87 490.19 538.57 489.01 538.57 489.01 542 490.19 542.54 490.19 631.56 428.55 631.56"/><path class="cls-4" d="M-50.33,845.21-38.9,829a26.29,26.29,0,0,0,1.6-3.78,4.69,4.69,0,0,0,.3-3.51,2.27,2.27,0,0,1-.33-1c0-.56.65-.88,1-1.32a4.17,4.17,0,0,0,.6-1.85,17.76,17.76,0,0,1,1.82-4.69,2.61,2.61,0,0,1,1.31-1.47c1.21-.4,2.33,1.08,3.61,1,.14-1.73.28-3.46.43-5.19a1,1,0,0,1,.19-.63,1,1,0,0,1,.73-.22c1,0,2.06.21,2.83-.4,1.14-.89.68-2.81,1.55-4,.58-.77,1.61-1,2.43-1.52s1.49-1.66.87-2.39l4-.54a1.47,1.47,0,0,1-.41-1.42c.08-.52.3-1,.38-1.51A8.12,8.12,0,0,0-16,793c-.05-1.79.33-3.66-.3-5.34a9.43,9.43,0,0,0-1.56-2.45l-1.53-1.91a7.16,7.16,0,0,1-1.29-3.51.69.69,0,0,1,.05-.47c.26-.42.86.07,1.17.45a3.28,3.28,0,0,0,3.14,1.13,2.25,2.25,0,0,0,1.88-2c0-1-1.19-1.84-2-1.28-.36.25-.57.71-1,.88-.68.29-1.43-.53-1.27-1.24A1.73,1.73,0,0,1-17,776.15a5.07,5.07,0,0,1,2.09.57c.7-.53,0-1.59-.14-2.45a3.37,3.37,0,0,1,.16-1.6,18.42,18.42,0,0,1,1.51-3.78,1.09,1.09,0,0,0,.2-.86c-.1-.28-.4-.42-.64-.59a3,3,0,0,1-1.15-2.6,7.44,7.44,0,0,1,.85-2.82,4.65,4.65,0,0,0,.7-2.77,12.94,12.94,0,0,1-.36-1.32c-.05-.46.19-1,.65-1.06a1.53,1.53,0,0,1,.63.15,4,4,0,0,0,4.67-1.59c-.34-.46.09-1.08.49-1.49,1.17-1.24,2.22-2.87,1.85-4.53,1,.16,1.66,1.12,2.27,1.93s1.56,1.64,2.54,1.35a1.58,1.58,0,0,0,1.83,2.08,4.7,4.7,0,0,0,1-.59,4.71,4.71,0,0,1,3.72-.67,1.69,1.69,0,0,1,.76.37c.56.54.32,1.59.9,2.12a1.9,1.9,0,0,0,1.09.36l2.51.29c.54.06,1.18.18,1.4.68s0,1,.29,1.36,1,.26,1.33.59.32.79.65,1.05a1.64,1.64,0,0,0,1.12.1,5.57,5.57,0,0,1,3.55,1.46,1.24,1.24,0,0,1,.51.53,1.16,1.16,0,0,1-.27,1,4.37,4.37,0,0,1-3.47,1.8l-1.29,2.23a2.21,2.21,0,0,0-.39,1.06,2.16,2.16,0,0,0,.38,1.05c.62,1.11,1.25,2.21,1.88,3.32l1.45-3.1A16.79,16.79,0,0,0,23,770a6.76,6.76,0,0,1,3.55.15A5.68,5.68,0,0,1,29,773.05l.57,1.16a5,5,0,0,1,.75,3.17c-.38,1.81-2.5,2.57-3.81,3.88A7.16,7.16,0,0,0,25,787.79c.49.51,1.42.56,2,1,.84.7.7,2,.46,3.07a29.66,29.66,0,0,0-1.17,7.34c.08,2.48,1.07,5.1,3.18,6.4a7.25,7.25,0,0,1,.8.51c.23.19.41.42.63.61a4.23,4.23,0,0,1,.72.61,2.43,2.43,0,0,1,.09,1.95,1.85,1.85,0,0,0,.35,1.87c.59.44,1.68.27,1.86,1a5.93,5.93,0,0,0,.07.59c.19.59,1.28.78,1.07,1.35a1.93,1.93,0,0,0-1,.1.65.65,0,0,0-.34.8,1.61,1.61,0,0,0,.4.38,1.33,1.33,0,0,1,.22,1.71c.21.27.66.13.91-.11s.44-.58.77-.67c.63-.19,1.09.56,1.34,1.16a31.71,31.71,0,0,0,1.5,3.24,1,1,0,0,0,.42.5c.35.15.75-.14.91-.49a6.83,6.83,0,0,0,.23-1.11A2.22,2.22,0,0,1,43,818.06a2.22,2.22,0,0,0,.61.89.72.72,0,0,0,1-.06c.24-.3.15-.84.5-1s.51.08.75.17a1.17,1.17,0,0,0,1.52-1,9.14,9.14,0,0,1,2.57.64,3.06,3.06,0,0,1,1.9,1.8,13.33,13.33,0,0,1,.21,2.2c.11.74.63,1.53,1.37,1.5s1.08-.65,1.27-1.25c.07-.23.15-.5.37-.6a.53.53,0,0,1,.63.24,1.53,1.53,0,0,1,.2.7c.08.77.17,1.53.25,2.29a2.44,2.44,0,0,0,.25,1c.14.21.34.38.5.58a2.19,2.19,0,0,1-.39,2.83,4.29,4.29,0,0,1-2.9,1,3.91,3.91,0,0,0-1.14.11,1,1,0,0,0-.69.82,1,1,0,0,0,.59.83,4.75,4.75,0,0,0,1,.3,4.42,4.42,0,0,1,2.22,1.37,2.24,2.24,0,0,0,0-1.33,16.62,16.62,0,0,0,5.91-1.5c.07.3-.19.56-.31.83-.33.73.28,1.55.93,2s1.46.85,1.74,1.6c.47,1.23-.74,2.63-.28,3.87l1.33.19a.68.68,0,0,1,.42.16.66.66,0,0,1,.11.39c0,.44.07.87.1,1.31a7.41,7.41,0,0,0,4.47-1.47,23.76,23.76,0,0,1,3.68-2.41,5.19,5.19,0,0,0,2.44-1.39c-.18-1.08-.37-2.09-.55-3.17a2.72,2.72,0,0,1,0-1.17,5.65,5.65,0,0,1,.86-1.34c.9-1.4.38-3.25.68-4.88.06-.32.25-.71.57-.66a.62.62,0,0,1,.3.18,3.43,3.43,0,0,1,1.07,2,2.59,2.59,0,0,1,1.3-2.34A13.5,13.5,0,0,1,83,823.18a12,12,0,0,0,4-2.52c.3-.3.61-.7.48-1.1-.09-.24-.32-.42-.34-.67s.31-.56.54-.8a1.49,1.49,0,0,0-.26-2.17l2.53-3.59a1.26,1.26,0,0,1,.43-.43c.57-.27,1.11.37,1.67.65a2.94,2.94,0,0,0,2.38-.18c1.37-.53,2.9-1.47,2.93-2.94a.77.77,0,0,1,.14-.58.63.63,0,0,1,.36-.13l4-.66a13,13,0,0,1,3.57-.24,25.27,25.27,0,0,0,3.63.62c1.57,0,3.05-.92,4.62-.78l.29-1,6.9-4.84-1.07-2.91.36-2.35.92-.21-.07-7,1.5-.14.14-.92h2.27l1,.64,2.91,1.13,2.28,1.07,5.61-7.32,5.27-4.62.64,1.06,2.34-2.56,2.63.93.43,2.06,2.56-.07-.71-1.78.92-.85-2.27-4.2,3.48,2.7,1.92-2.34.14-2.35.85-.78-1.13-.92.49-1.57,1.78-.21.14-.71,4.55,1.28.79-.71.21-.93-1-1.49-1.92.07-.28-.85,6-2.21,1.28.71.22-1.35,2.06.57,1.35-3.84-1-3.34,1.14,1.42,1.64,2.92a5.89,5.89,0,0,0,2.48.28c1.35-.14,2.56-.35,3.06.57s-.92,2.06-1.78,3-1.13,3.13.36,3.34,2.56.43,3-.85-.28-2.28.57-3.56,2.21-1.49,3-.57.71,2,2,1.5a5.16,5.16,0,0,1,2.56-.5c.57.07.85,1.28,2.27,1.06a8.17,8.17,0,0,0,3.91-1.77c1-.86,1.92-1.92,1.85-.07s.43,4.12,1.5,4.69,2.91,1.21,2.06,2.13-2.06,2.85-1,4.84,1.64,3.62,1.07,5.61-1.28,2.56-1.28,3.41-.43,1.21-1.42.72-.64-.93-1.85-.5a4.48,4.48,0,0,0-2,1.63l1.78,1.57,3.69.85c.46,0,.68.91.78,1.36s.34,1,.8,1c.05-.34.5-.46.82-.34a5.24,5.24,0,0,1,.87.54,3.27,3.27,0,0,0,2.08.15,1,1,0,0,0,.52-.17c.24-.19.38-.61.69-.56s.32.43.41.71a1.46,1.46,0,0,0,1,.86,12.74,12.74,0,0,0,1.38.2.47.47,0,0,1,.38.23,1.13,1.13,0,0,1,0,.18c.05.31.41.45.72.45a4.7,4.7,0,0,1,.92,0,1,1,0,0,1,.71,1.17c.36-.39,1-.14,1.43.2s.83.78,1.36.71,1-.83,1.64-.84.93.57,1,1.12a14.94,14.94,0,0,1-.14,1.63,2.88,2.88,0,0,0,.76,2,1.08,1.08,0,0,1,.38.55.86.86,0,0,1-.13.49,4.75,4.75,0,0,0-.56,1.1.88.88,0,0,0,.39,1.06,3.22,3.22,0,0,0,.82.08c.28,0,.58.28.48.54a.62.62,0,0,1-.24.24l-1.89,1.29c-.34.23,0,.84.27,1.11a7,7,0,0,0,1.06.62,3.39,3.39,0,0,1,1.45,2.15,6.4,6.4,0,0,1,0,2.65,1.45,1.45,0,0,0,.08,1.16c.13.18.35.29.46.49.26.46-.24,1-.14,1.54.06.31.34.6.24.9a1.11,1.11,0,0,1-.25.32,2,2,0,0,0-.53,1.33c0,.2,0,.44-.14.57a1.88,1.88,0,0,1-.39.16c-.36.16-.35.66-.36,1,0,1.88-1.47,3.37-2.69,4.78a2.23,2.23,0,0,0-.65,1.19c-.08.91.93,1.74.62,2.61a2.94,2.94,0,0,0-.28.69c0,.48.48.8.92,1L217.8,829a3.46,3.46,0,0,0,.1-1.11,4.65,4.65,0,0,1,1.63.79,1.78,1.78,0,0,0,1.73.2c.07.49.13,1,.19,1.47l6.88,2.41.08-2.84,2.84.07.07,2,3.55,2.13.86-1.06,6.89,3.48,1.28-1.42,1.5.64,1.06.57,1.21.71.21,1.49.22,1-.5,1.43,2.35.71,2.63,3.2-1.5,2.48-2.2-1.13-2.63.71-.43,4.48-1.21,1.92.93,4.4c.63,1.12,1.41,2.46,2.61,2.88,1.66.57,3.65-.41,5.16.48.32.2.6.47.9.7s.8.53,1.17.83a4.06,4.06,0,0,1,1.44,3.56.84.84,0,0,0,.09.68.73.73,0,0,0,.31.17c.63.23,1.51.34,1.79-.27a2.09,2.09,0,0,0,0-.9,1.3,1.3,0,0,1,.82-1.36,1.84,1.84,0,0,1,.62,0,18.15,18.15,0,0,0,4.54-.09,3.17,3.17,0,0,1,1.3,0,2.36,2.36,0,0,1,.74.38,3.82,3.82,0,0,1,1.29,1.36,2,2,0,0,1,.05,1.81c-.32.58-1,.92-1.26,1.51a2.49,2.49,0,0,0-.18,1.3,9.07,9.07,0,0,0,1,3.57,2.77,2.77,0,0,0,1.17,1.31c.79.37,1.73.05,2.6.11a3,3,0,0,1,2.69,2.9,6.31,6.31,0,0,0,1,3.6,25,25,0,0,0,2.52,2.52c1.57,1.56,2.89,3.61,5,4.27a10,10,0,0,0,3.9.1.85.85,0,0,1,.5.05.75.75,0,0,1,.28.39c.44,1.23-.35,2.83.54,3.78.46.5,1.21.58,1.82.89A2.66,2.66,0,0,1,291.4,896" transform="translate(184.19 -222.91)"/><path class="cls-4" d="M555.08,755.85c.73.4,1.62-.31,1.93-1.08a13.48,13.48,0,0,1,.76-2.38,2.35,2.35,0,0,1,3.49-.41,5.66,5.66,0,0,1,6.65-3.19,2,2,0,0,1,2-1.83,5.73,5.73,0,0,1,2.83.88L575,749a2.42,2.42,0,0,1,1.07.84.86.86,0,0,1-.26,1.2,14.75,14.75,0,0,1,2.05,3.86l.48-1.1a4.8,4.8,0,0,0,3.49.34,2.29,2.29,0,0,1,1.55-.17c.89.41,1.21,2.15,2.09,1.73a4.21,4.21,0,0,0,2,3.68c1.2.85,2.61,1.34,3.88,2.07s2.77,1.59,3.76.64.12-2.68.43-4c.63-2.8,5.37-2.29,6.77-4.8a8.11,8.11,0,0,1,.73-1.44c.73-.86,2.38-1.09,2.36-2.22,0-.36-.21-.68-.23-1,0-1,1.24-1.46,1.65-2.35a7.48,7.48,0,0,0,.27-1.65c.61-3,5.64-2.67,7.07-5.39a6.25,6.25,0,0,0,.39-3.22,16.59,16.59,0,0,1,.45-5.4,10.08,10.08,0,0,1,3.26-4.94c.49-.4,1.07-.85,1.09-1.48,0-1.17-1.81-1.72-1.76-2.88,0-.74.8-1.19,1.47-1.49l5.65-2.56c2.16-1,4.58-2.27,5-4.59.3-1.49-.3-3.13.36-4.5a6.09,6.09,0,0,0,.71-1.45c.1-.53-.36-1.2-.87-1a6.6,6.6,0,0,0,1.89-2.74c1-2.71,3.77-4.32,5.6-6.54a1.55,1.55,0,0,0,.46-1c0-.48-.48-.81-.68-1.25a2,2,0,0,1,0-1.44c.76-2.54,2.85-4.57,3.35-7.17a21,21,0,0,1,.44-2.86,8,8,0,0,1,3-3.44,17.9,17.9,0,0,1,3.09-2.1.84.84,0,0,1,.68-.12c.21.07.33.27.52.38.62.32,1.42-.57,2-.19s.25,1.24.76,1.52c.29.16.65,0,1-.14a25.17,25.17,0,0,1,4.68-1.77,1.49,1.49,0,0,1,1,0,2.13,2.13,0,0,1,.72.77,3.43,3.43,0,0,0,3.19,1.36c-.26-.59.48-1.18,1.13-1.18s1.26.33,1.9.33a19,19,0,0,0,2.19-.56c2.1-.28,3.83,2.18,5.93,1.91l-.59.34" transform="translate(184.19 -222.91)"/><text class="cls-5" transform="translate(298.16 641.65)">CHIAPAS</text><text class="cls-5" transform="translate(223.39 529.98)">TABASCO</text><text class="cls-5" transform="translate(561.43 501.04)">CAMPECHE</text><text class="cls-5" transform="translate(810.88 76.84)">YUCATÁN</text><text class="cls-5" transform="translate(758.62 324.96)">QUINTANA<tspan x="0" y="22.59">ROO</tspan></text><polyline class="cls-6" points="830.68 449 825.95 451.9 821.03 451.9 816.57 453.93 804.76 455.82 795.92 455.41 793.42 455.82 767.88 460.71 711.54 452.46 704.92 448 690.71 448.97 684.93 447.16 670.48 448.13 664.83 449.69 655.55 449.93 652.3 449.33 646.04 448.73 643.27 447.16 639.54 447.16 626.06 446.2 618.35 439.94 615.46 439.34 603.3 431.51 589.82 430.79 582.24 430.07 572.6 433.08 563.21 444.15 523.51 440.58"/><path class="cls-7" d="M566.16,324.37l1.82,3.74,3.74,4.18,4.82,1.17,1.51,3.59,3.41,8.08,67.31,11.77,10.6-1.28,13.8-3.11A35,35,0,0,1,679,352c3,0,7.49.64,10.06.32s21.08-5,21.08-5l25-7.81L755.46,333l13.27-1.4,19.69-3.21,3.64-.1,22.79-8.56,3.32-1.07,2-.65,31.14-17.65,9.31,7.17,1.39,3.85,4.4.88" transform="translate(184.19 -222.91)"/><path class="cls-8" d="M431.57,403.22c1.27-4.63,3.39-11.21,4.35-13.57,1.39-3.43,7-16.81,7-16.81l6.1-4.38,11.45-13.27,3.1-8.67,4.28-10.27,9.21.85,3.21-2.57L495,332.29l3.64-3.53a34.58,34.58,0,0,0,4.18-.65,9.27,9.27,0,0,0,4.17-5c.64-2.35-.11-5.35,1.71-5.67a65.29,65.29,0,0,1,8,0l3.85-.85h9.52l36.07,7.81" transform="translate(184.19 -222.91)"/><path class="cls-9" d="M340.58,660.6l1.92-3.21v-3.32l3.85-9.31.43-3.64,3.85-5.13,4.18-13.49v-2.35l10.49-20.33,1.39-3.21,1.17-5.35,5-3,2.89-7.92.43-4.6v-2.57l1.39-1.82.54-4.71-2.79-8.34,1.4-4.07L377,551l3.21-3.32,2.35-3.1,2.36-.21a3.54,3.54,0,0,0,4.39,0c2.46-1.72,2.67-5,2.35-8.24s-1.07-11.24-1.71-14.77-1.18-6.74-1.18-6.74l-1-2.89-6.32-4-2.88.43s-2.68-4.07-2.15-5.57,3.22-3.21,2-4.6-1.71-2.57-2.78-3.1a4.33,4.33,0,0,1-2-4.61c.43-2.35,4.93-12.2,4.93-12.2l-1.07-3.21,13.8-8.13,6.63-5.88,11.35-6.75,8.13-16.8,4.5-2.67s9.09-18.94,9.31-20.44-.75-4.17-.65-6.53a30.19,30.19,0,0,1,1-4.51" transform="translate(184.19 -222.91)"/><path class="cls-10" d="M169.52,812.73l6.3-2.75,3.54,1.38h7.88l5.71,1.37,5.72,1.58h3.54l2.95,1.77,4.11,7,7,1.81,3.85,1,2.35-1.18L234,827l3.85,1.92,3-1.71.64-1.71L246,824l12.09-11,5.78-3.64L268,796.51l9-6.1,1.18-3,6-6.21v-1.49l-1.71-1.93-2.89-12.52,2.14-9.1,1.39-1.07s7.28-18.62,7.28-18.94v-3.64l6.52-10.06.54-1.49,7.06-1.5s13.17-13.38,13.17-13.7.74-3.64.74-3.64l12.74-15.3,7.7-20.23v-3.1l1.72-2.89" transform="translate(184.19 -222.91)"/><polyline class="cls-11" points="951.21 212.85 941.68 229.01 926.7 239.5 916.43 250.74 916.43 255.23 909.58 271.5 894.28 291.19 886.57 294.5 885.61 297.29 890.32 303.39 892.46 314.3 883.04 340.95 880.69 383.43 877.05 386.96 872.02 387.71 843.98 422.6 842.27 423.45 840.45 427.31 840.45 429.98 833.5 442.72 832.11 444.43 832.11 447.75 833.6 448.39 840.99 449.46 847.73 452.24 849.12 450.85 852.01 451.49"/><polyline class="cls-11" points="976.89 199.58 969.72 201.19 962.66 204.51 959.98 206.86 956.45 208.47 951.21 212.85"/><path class="cls-12" d="M867.18,313.88s-.85,10.81-2.46,14.66-9.52,15.52-9.52,15.52l-4.92,8-3,1.93-12.84,17.12-6.85,5.14-3.53,3-3.85,4.92-6.75,5.35s-5.88,6.74-7.81,10.27-10.06,18-10.06,18l-2.89,6.09" transform="translate(184.19 -222.91)"/><path class="cls-13" d="M256.34,822.56a7.52,7.52,0,1,1-7.52-7.52,7.52,7.52,0,0,1,7.52,7.52" transform="translate(184.19 -222.91)"/><circle class="cls-14" cx="433.01" cy="599.64" r="7.52"/><path class="cls-13" d="M287.25,760.42a7.52,7.52,0,1,1-7.52-7.52,7.52,7.52,0,0,1,7.52,7.52" transform="translate(184.19 -222.91)"/><path class="cls-14" d="M287.25,760.42a7.52,7.52,0,1,1-7.52-7.52A7.52,7.52,0,0,1,287.25,760.42Z" transform="translate(184.19 -222.91)"/><path class="cls-13" d="M306.16,721.85a7.52,7.52,0,1,1-7.52-7.52,7.52,7.52,0,0,1,7.52,7.52" transform="translate(184.19 -222.91)"/><circle class="cls-14" cx="482.83" cy="498.94" r="7.52"/><path class="cls-13" d="M346.37,663.43a7.52,7.52,0,1,1-7.52-7.52,7.52,7.52,0,0,1,7.52,7.52" transform="translate(184.19 -222.91)"/><circle class="cls-14" cx="523.04" cy="440.51" r="7.52"/><path class="cls-13" d="M376.53,591.86a7.52,7.52,0,1,1-7.52-7.52,7.52,7.52,0,0,1,7.52,7.52" transform="translate(184.19 -222.91)"/><circle class="cls-15" cx="369.01" cy="591.86" r="7.52" transform="translate(-107.61 592.1) rotate(-76.72)"/><path class="cls-13" d="M397.67,520.59a7.52,7.52,0,1,1-7.52-7.52,7.51,7.51,0,0,1,7.52,7.52" transform="translate(184.19 -222.91)"/><path class="cls-15" d="M397.67,520.59a7.52,7.52,0,1,1-7.52-7.52A7.51,7.51,0,0,1,397.67,520.59Z" transform="translate(184.19 -222.91)"/><path class="cls-13" d="M383.08,485.18a7.52,7.52,0,1,1-7.52-7.52,7.52,7.52,0,0,1,7.52,7.52" transform="translate(184.19 -222.91)"/><path class="cls-15" d="M383.08,485.18a7.52,7.52,0,1,1-7.52-7.52A7.52,7.52,0,0,1,383.08,485.18Z" transform="translate(184.19 -222.91)"/><path class="cls-13" d="M416.52,453.62A7.52,7.52,0,1,1,409,446.1a7.52,7.52,0,0,1,7.52,7.52" transform="translate(184.19 -222.91)"/><path class="cls-15" d="M416.52,453.62A7.52,7.52,0,1,1,409,446.1,7.52,7.52,0,0,1,416.52,453.62Z" transform="translate(184.19 -222.91)"/><path class="cls-13" d="M427.88,434.76a7.52,7.52,0,1,1-7.52-7.52,7.52,7.52,0,0,1,7.52,7.52" transform="translate(184.19 -222.91)"/><circle class="cls-15" cx="420.36" cy="434.76" r="7.52" transform="translate(84.84 521.07) rotate(-76.72)"/><path class="cls-13" d="M439.09,404a7.52,7.52,0,1,1-7.52-7.52,7.52,7.52,0,0,1,7.52,7.52" transform="translate(184.19 -222.91)"/><path class="cls-16" d="M439.09,404a7.52,7.52,0,1,1-7.52-7.52A7.52,7.52,0,0,1,439.09,404Z" transform="translate(184.19 -222.91)"/><path class="cls-13" d="M452.5,372.14a7.52,7.52,0,1,1-7.52-7.52,7.52,7.52,0,0,1,7.52,7.52" transform="translate(184.19 -222.91)"/><circle class="cls-16" cx="444.98" cy="372.14" r="7.52" transform="translate(164.75 496.8) rotate(-76.72)"/><path class="cls-13" d="M475.21,339a7.53,7.53,0,1,1-7.53-7.52,7.53,7.53,0,0,1,7.53,7.52" transform="translate(184.19 -222.91)"/><path class="cls-16" d="M475.21,339a7.53,7.53,0,1,1-7.53-7.52A7.53,7.53,0,0,1,475.21,339Z" transform="translate(184.19 -222.91)"/><path class="cls-13" d="M512.55,324.81a7.52,7.52,0,1,1-7.52-7.52,7.51,7.51,0,0,1,7.52,7.52" transform="translate(184.19 -222.91)"/><path class="cls-16" d="M512.55,324.81a7.52,7.52,0,1,1-7.52-7.52A7.51,7.51,0,0,1,512.55,324.81Z" transform="translate(184.19 -222.91)"/><path class="cls-13" d="M530.47,316.56A7.52,7.52,0,1,1,523,309a7.52,7.52,0,0,1,7.52,7.52" transform="translate(184.19 -222.91)"/><circle class="cls-16" cx="522.95" cy="316.56" r="7.52" transform="translate(329.06 574) rotate(-82.98)"/><path class="cls-13" d="M572.16,324.08a7.52,7.52,0,1,1-7.52-7.52,7.52,7.52,0,0,1,7.52,7.52" transform="translate(184.19 -222.91)"/><circle class="cls-16" cx="564.64" cy="324.08" r="7.52" transform="translate(358.19 621.97) rotate(-82.98)"/><path class="cls-13" d="M645.78,355.06a7.52,7.52,0,1,1-7.52-7.52,7.52,7.52,0,0,1,7.52,7.52" transform="translate(184.19 -222.91)"/><path class="cls-17" d="M645.78,355.06a7.52,7.52,0,1,1-7.52-7.52A7.52,7.52,0,0,1,645.78,355.06Z" transform="translate(184.19 -222.91)"/><path class="cls-13" d="M692.9,352.46a7.52,7.52,0,1,1-7.52-7.52,7.52,7.52,0,0,1,7.52,7.52" transform="translate(184.19 -222.91)"/><circle class="cls-17" cx="685.38" cy="352.46" r="7.52" transform="translate(436 766.73) rotate(-82.98)"/><path class="cls-13" d="M774.24,331.67a7.52,7.52,0,1,1-7.52-7.52,7.52,7.52,0,0,1,7.52,7.52" transform="translate(184.19 -222.91)"/><path class="cls-17" d="M774.24,331.67a7.52,7.52,0,1,1-7.52-7.52A7.52,7.52,0,0,1,774.24,331.67Z" transform="translate(184.19 -222.91)"/><path class="cls-13" d="M826.37,318a7.52,7.52,0,1,1-7.52-7.52,7.52,7.52,0,0,1,7.52,7.52" transform="translate(184.19 -222.91)"/><path class="cls-17" d="M826.37,318a7.52,7.52,0,1,1-7.52-7.52A7.52,7.52,0,0,1,826.37,318Z" transform="translate(184.19 -222.91)"/><path class="cls-13" d="M873.54,310.5A7.52,7.52,0,1,1,866,303a7.52,7.52,0,0,1,7.52,7.52" transform="translate(184.19 -222.91)"/><path class="cls-17" d="M873.54,310.5A7.52,7.52,0,1,1,866,303,7.52,7.52,0,0,1,873.54,310.5Z" transform="translate(184.19 -222.91)"/><path class="cls-13" d="M866.63,337.38a7.52,7.52,0,1,1-7.52-7.52,7.51,7.51,0,0,1,7.52,7.52" transform="translate(184.19 -222.91)"/><circle class="cls-18" cx="859.11" cy="337.38" r="7.52" transform="matrix(0.99, -0.12, 0.12, 0.99, 149.4, -115.42)"/><path class="cls-13" d="M845.28,367.51a7.52,7.52,0,1,1-7.52-7.53,7.52,7.52,0,0,1,7.52,7.53" transform="translate(184.19 -222.91)"/><circle class="cls-18" cx="837.76" cy="367.51" r="7.52" transform="translate(116.49 14.04) rotate(-15.48)"/><path class="cls-13" d="M800.22,423.28a7.52,7.52,0,1,1-7.52-7.52,7.52,7.52,0,0,1,7.52,7.52" transform="translate(184.19 -222.91)"/><path class="cls-18" d="M800.22,423.28a7.52,7.52,0,1,1-7.52-7.52A7.52,7.52,0,0,1,800.22,423.28Z" transform="translate(184.19 -222.91)"/><path class="cls-13" d="M772.74,438.32a7.52,7.52,0,1,1-7.52-7.52,7.52,7.52,0,0,1,7.52,7.52" transform="translate(184.19 -222.91)"/><path class="cls-19" d="M772.74,438.32a7.52,7.52,0,1,1-7.52-7.52A7.52,7.52,0,0,1,772.74,438.32Z" transform="translate(184.19 -222.91)"/><path class="cls-13" d="M713.1,520.33a7.52,7.52,0,1,1-7.52-7.52,7.51,7.51,0,0,1,7.52,7.52" transform="translate(184.19 -222.91)"/><path class="cls-19" d="M713.1,520.33a7.52,7.52,0,1,1-7.52-7.52A7.51,7.51,0,0,1,713.1,520.33Z" transform="translate(184.19 -222.91)"/><path class="cls-13" d="M703.88,600.44a7.52,7.52,0,1,1-7.52-7.52,7.52,7.52,0,0,1,7.52,7.52" transform="translate(184.19 -222.91)"/><path class="cls-19" d="M703.88,600.44a7.52,7.52,0,1,1-7.52-7.52A7.52,7.52,0,0,1,703.88,600.44Z" transform="translate(184.19 -222.91)"/><path class="cls-13" d="M666.13,647.91a7.52,7.52,0,1,1-7.52-7.52,7.52,7.52,0,0,1,7.52,7.52" transform="translate(184.19 -222.91)"/><path class="cls-19" d="M666.13,647.91a7.52,7.52,0,1,1-7.52-7.52A7.52,7.52,0,0,1,666.13,647.91Z" transform="translate(184.19 -222.91)"/><path class="cls-13" d="M591.21,683.63a7.52,7.52,0,1,1-7.52-7.52,7.52,7.52,0,0,1,7.52,7.52" transform="translate(184.19 -222.91)"/><path class="cls-20" d="M591.21,683.63a7.52,7.52,0,1,1-7.52-7.52A7.52,7.52,0,0,1,591.21,683.63Z" transform="translate(184.19 -222.91)"/><path class="cls-13" d="M529.36,673.46a7.53,7.53,0,1,1-7.53-7.52,7.53,7.53,0,0,1,7.53,7.52" transform="translate(184.19 -222.91)"/><path class="cls-20" d="M529.36,673.46a7.53,7.53,0,1,1-7.53-7.52A7.53,7.53,0,0,1,529.36,673.46Z" transform="translate(184.19 -222.91)"/><path class="cls-13" d="M459.62,669.09a7.52,7.52,0,1,1-7.52-7.52,7.51,7.51,0,0,1,7.52,7.52" transform="translate(184.19 -222.91)"/><path class="cls-20" d="M459.62,669.09a7.52,7.52,0,1,1-7.52-7.52A7.51,7.51,0,0,1,459.62,669.09Z" transform="translate(184.19 -222.91)"/><path class="cls-13" d="M407.5,653.87a7.52,7.52,0,1,1-7.52-7.52,7.52,7.52,0,0,1,7.52,7.52" transform="translate(184.19 -222.91)"/><circle class="cls-20" cx="584.17" cy="430.95" r="7.52"/><path class="cls-13" d="M678.11,671.69a7.52,7.52,0,1,1-7.52-7.52,7.52,7.52,0,0,1,7.52,7.52" transform="translate(184.19 -222.91)"/><circle class="cls-19" cx="854.78" cy="448.77" r="7.52"/><path class="cls-13" d="M241.3,827.58a7.52,7.52,0,1,1-7.52-7.52,7.52,7.52,0,0,1,7.52,7.52" transform="translate(184.19 -222.91)"/><path class="cls-14" d="M241.3,827.58a7.52,7.52,0,1,1-7.52-7.52A7.52,7.52,0,0,1,241.3,827.58Z" transform="translate(184.19 -222.91)"/><path class="cls-13" d="M174.4,813.81a7.52,7.52,0,1,1-7.52-7.52,7.53,7.53,0,0,1,7.52,7.52" transform="translate(184.19 -222.91)"/><path class="cls-14" d="M174.4,813.81a7.52,7.52,0,1,1-7.52-7.52A7.53,7.53,0,0,1,174.4,813.81Z" transform="translate(184.19 -222.91)"/></g></g></g></g></svg>