<svg xmlns="http://www.w3.org/2000/svg" xmlns:xlink="http://www.w3.org/1999/xlink" viewBox="0 0 1226.59 874.73"><defs><style>.cls-1,.cls-10,.cls-11,.cls-12,.cls-14,.cls-15,.cls-16,.cls-17,.cls-18,.cls-19,.cls-20,.cls-4,.cls-6,.cls-7,.cls-8,.cls-9{fill:none;}.cls-2{clip-path:url(#clip-path);}.cls-3{fill:#e6e6dc;opacity:0.9;}.cls-4{stroke:#00524c;stroke-width:1.49px;}.cls-10,.cls-15,.cls-17,.cls-18,.cls-20,.cls-4{stroke-linecap:round;}.cls-10,.cls-11,.cls-14,.cls-15,.cls-17,.cls-18,.cls-19,.cls-20,.cls-4,.cls-6,.cls-9{stroke-linejoin:round;}.cls-5{font-size:18.82px;fill:#00524c;font-family:Montserrat-SemiBold, Montserrat;font-weight:600;}.cls-20,.cls-6{stroke:#62cdb4;}.cls-11,.cls-12,.cls-6,.cls-7,.cls-8,.cls-9{stroke-width:8.85px;}.cls-17,.cls-7{stroke:#91dac7;}.cls-12,.cls-16,.cls-7,.cls-8{stroke-miterlimit:10;}.cls-16,.cls-8{stroke:#97b6b2;}.cls-15,.cls-9{stroke:#65948f;}.cls-10,.cls-14{stroke:#30726d;}.cls-10{stroke-width:11.71px;}.cls-11,.cls-19{stroke:#e1f4ef;}.cls-12,.cls-18{stroke:#bae7db;}.cls-13{fill:#fff;}.cls-14,.cls-15,.cls-16,.cls-17,.cls-18,.cls-19,.cls-20{stroke-width:3.79px;}</style><clipPath id="clip-path" transform="translate(182.77)"><rect class="cls-1" width="1043.82" height="873.2"/></clipPath></defs><g id="Layer_2" data-name="Layer 2"><g id="Capa_1" data-name="Capa 1"><g class="cls-2"><path class="cls-3" d="M377,351.55l-1.76,5.59-1.49,2.2-1.54,4.1-1.64,5.34.16,3.9.51-.41.36-.72h.67l.56.87,1.28.41-.92.82-1.08-.31h-1.38l.36,1.54.61.77.46,1.54-.66.87.15,1.59,1.59,7.39-.92,2.25-.82,1.75.71,1.89-.2,1.65.1,4.46.67,11.08a3.8,3.8,0,0,1,1.07,2.15c.36,1.59.16,3.08-.46,3.54s-1.54.87-1.54,1.95.31,1.79,1.24,4a11.6,11.6,0,0,1,.66,4.87L372.9,428l0,2.61-.41.51-.21.72,1.49,2.87.15,1.24,2.06,2.46.2,1.79L375,441.5l1.34,2.77.66.11c.67.1.16.71.1,1.28l.57.61-.41,1.39s-.82,2.41-1.59,2.87a4,4,0,0,0-1.23,1.8L372,457l-.93.47-.87,2-1.59.92-1.78,1.07-3.13,2.81-4.93,2.95-4.14,3a66.7,66.7,0,0,0-5.16,4.7c-2.17,2.25-.78,3.77-1,5s-1.89,2.9-2.86,4.33a31.63,31.63,0,0,1-3.36,3.69c2.67.87.92,2.48.92,2.48s2.76,2,2.76,3.32c0,5.07-3.54,9.81-3.54,9.81s.92.65.93,1.11c0,1.39-.8,3.68-.89,5.39a3.17,3.17,0,0,0,.83,2.51,27.3,27.3,0,0,1-.37,6.61c-.64,4.14-2,5.25-2.35,7.28a26.38,26.38,0,0,0,.37,6.08c-1.16,4.07-5.94,8.61-7.55,10.45a50,50,0,0,1-6.13,5l-3.45,3.32-5.58,5.16-.87,1.56-13.59,9.31s-9.77,6-10.64,6.63-1.66,1.66-2.21,2.12-2.44,1.61-2.44,1.61v1.06a6.63,6.63,0,0,1-1.16.88c-1,.64-12.2,7.51-14.09,8.24s-7.74,3.37-10,4.24-10.87,5.39-13.59,7.79-5,6.4-6.45,7.78-6,5-7.36,6c-.75.55,0,1.58,0,1.58,1.17.8,2.63.22,3.7-.7l9.23-7.92c1.77-1.52,4-3.14,6.2-2.5.35,1.25-.5,2.5-1.43,3.4a8.34,8.34,0,0,0-2.47,2.93,1.39,1.39,0,0,0,0,1.06,2,2,0,0,0,1,.76,22.53,22.53,0,0,1,3.51,2.59,5.72,5.72,0,0,0,4,1.44c1.45-.19,2.77-1.67,2.31-3.06a26.1,26.1,0,0,1,8,5.35,6.23,6.23,0,0,1,1.54,2.07,6.49,6.49,0,0,1,.14,3.25,43.15,43.15,0,0,1-1.11,5.52,1.67,1.67,0,0,1-.48.93c-.5.38-1.26.11-1.81.4a1.93,1.93,0,0,0-.61.63,40.47,40.47,0,0,0-6,13,6.27,6.27,0,0,1-1.5,3.25,5.85,5.85,0,0,1-2.21,1.08l-12.35,3.94c-3.14,1-6.35,2-9,4.06-2.11,1.63-3.77,3.87-6.15,5.06-2.59,1.3-5.65,1.16-8.53.84a81.37,81.37,0,0,1-21.06-5.29c-2.83-1.13-5.72-2.44-8.76-2.29a4.8,4.8,0,0,1-2.45-.2c-.56-.29-1.62-2.16-2-2.62-1.12-1.24-4-1.82-4.48-2.13-1.39-.94-1-2.56-.29-4.09a1.27,1.27,0,0,1,1.33,0c.81-2,2.45-3.5,2.95-5.6l.32-1c-2.45,0-7.26-2.28-9-5.78a22.42,22.42,0,0,0-4.46-5.94h-6.47l-31.58,2.71s-10.67.17-17.05,1a94,94,0,0,0-12.07,2.53h-2.36l-4.9,1.75L80.7,639.76H76.94l-1.75-1L73,640.46V642c-1.62,2.44-5.86,13-16.88,18.11-12.42,5.71-28.4,5.33-30,5.33a12.3,12.3,0,0,1-5.77-2s-13.65,1.31-23.09,1.31a195.82,195.82,0,0,0-20.9.7c-8.49,1-25.28,6.39-25.28,6.39l-31.66,11s-31.86,11.58-40.23,13.9c-10.79,3-37,8.75-46.53,8.75A21.73,21.73,0,0,1-182,700.28l1.5,173.7h471a2.64,2.64,0,0,0-1-.83c-.61-.31-1.35-.39-1.82-.88-.89-.95-.1-2.55-.53-3.77a.75.75,0,0,0-.28-.39.85.85,0,0,0-.5-.05,9.91,9.91,0,0,1-3.88-.1c-2.12-.65-3.42-2.69-5-4.26a24.69,24.69,0,0,1-2.51-2.5,6.18,6.18,0,0,1-1-3.58,3,3,0,0,0-2.68-2.9c-.87-.06-1.8.27-2.59-.1a2.8,2.8,0,0,1-1.17-1.3,9,9,0,0,1-1-3.56,2.5,2.5,0,0,1,.18-1.3c.29-.59.94-.92,1.26-1.5a2,2,0,0,0,0-1.81,3.87,3.87,0,0,0-1.29-1.35,2.6,2.6,0,0,0-.74-.38,3.3,3.3,0,0,0-1.29,0,17.91,17.91,0,0,1-4.51.09,1.84,1.84,0,0,0-.62,0,1.28,1.28,0,0,0-.82,1.35,2,2,0,0,1-.05.9c-.27.6-1.15.49-1.77.27a.75.75,0,0,1-.31-.18.83.83,0,0,1-.09-.68,4.06,4.06,0,0,0-1.44-3.54c-.36-.3-.79-.53-1.16-.82s-.58-.5-.9-.7c-1.5-.89-3.49.09-5.13-.48-1.2-.42-2-1.76-2.61-2.86l-1.17-3.27h61.38V753.4l.1-.36,247.79,0V735.33h.14c.73.4,1.62-.3,1.92-1.08a14.14,14.14,0,0,1,.76-2.36,2.34,2.34,0,0,1,3.47-.41,5.66,5.66,0,0,1,6.63-3.18,2,2,0,0,1,2-1.82,5.66,5.66,0,0,1,2.82.88l2.23,1.15a2.5,2.5,0,0,1,1.08.84.85.85,0,0,1-.27,1.19,14.46,14.46,0,0,1,2,3.84c.16-.36.32-.73.49-1.09a4.7,4.7,0,0,0,3.47.33,2.32,2.32,0,0,1,1.54-.16c.89.41,1.21,2.14,2.09,1.72a4.18,4.18,0,0,0,2,3.67c1.2.84,2.61,1.33,3.87,2.06s2.76,1.58,3.74.63.12-2.66.43-4c.63-2.79,5.35-2.28,6.74-4.78a8,8,0,0,1,.73-1.43c.72-.86,2.37-1.09,2.35-2.21,0-.36-.21-.68-.23-1,0-1,1.23-1.46,1.64-2.35a7.4,7.4,0,0,0,.27-1.64c.61-3,5.62-2.66,7-5.37a6.27,6.27,0,0,0,.38-3.2,16.47,16.47,0,0,1,.45-5.38,10.12,10.12,0,0,1,3.25-4.92c.49-.4,1.06-.85,1.08-1.48,0-1.16-1.8-1.71-1.76-2.87,0-.73.8-1.18,1.47-1.48l5.63-2.54c2.15-1,4.56-2.26,5-4.57.3-1.49-.31-3.13.35-4.49a5.55,5.55,0,0,0,.72-1.44c.09-.53-.37-1.2-.87-1a6.58,6.58,0,0,0,1.88-2.73c1-2.69,3.75-4.29,5.57-6.51a1.43,1.43,0,0,0,.46-1c0-.48-.48-.81-.67-1.25a2.07,2.07,0,0,1,0-1.43c.77-2.53,2.85-4.55,3.34-7.14a20.62,20.62,0,0,1,.44-2.85A7.92,7.92,0,0,1,642,659a17.9,17.9,0,0,1,3.09-2.1.91.91,0,0,1,.68-.12c.2.07.32.28.51.38.61.32,1.41-.57,2-.18s.25,1.23.76,1.51a1,1,0,0,0,.94-.15,26.43,26.43,0,0,1,4.66-1.76,1.62,1.62,0,0,1,1,0,2.08,2.08,0,0,1,.72.78,3.46,3.46,0,0,0,3.18,1.35c-.23-.51.66-1.14.66-1.14l2.61-2.71,7.84,2,5.22-10.64,4.35-9.18,3.77-7.45,1.74-1.06,2.9-1.94-1.54-1.93,1-1.26,2,.68-.58-2.42a41.74,41.74,0,0,1,2.23-3.77,23.52,23.52,0,0,0,1.55-3.19l1.16-3.48,2.9-2.9,3.29-4.84,2.7,2.22.2,4.74,2.9,4.16s1.16,3.48,1.16,3.87a33.11,33.11,0,0,0,1.06,3.29l-1.35,6,2.42,2.71-3.49,9.09-2.22,2,.39,4.74-.39,3.87-5.42,4,1,3.49,6.48,2.32,4.74,1.93,4.93,1.55,1.84,3.77.87,4.55,2.8-.59,1.36,4.16,2.32,1.84-1.06,6.38.38,7.06.29,10.83-.48,3.49-.39,3.57-2.61,3.2-1,2.61s-1.74,2.41-2,2.7-1.54-.19-1.83,0,0,3.49,0,3.49l-3.1,9.28-5.41,12.57-3.68.68,1.55,2.22,5-1.06s5.12-5.32,5.32-5.61,4.06-5.9,4.06-5.9l2.8-7.93c.1-.29,2.32-6.09,2.32-6.09l3.48-5.71,2.42-1.84a24.44,24.44,0,0,0,2.13-2.22c.1-.29-1-1.93-.87-2.22a43.56,43.56,0,0,0-1.16-4.55l-.58-4.06s1.16-7,1.16-7.35.58-6.48.58-7.16,2.71-4.74,2.71-4.74l1.64-3.19,2.9-4.64,1.65-3.09v-8.22l.87-6,2.22-2.9v-4.74l.68-3.29.67-4.16.29-2.51s.87-5.51,1.16-7.54,1.36-2.71,1.75-3.58a13.45,13.45,0,0,1,2.9-2.9c.38-.29,2.41-4.16,2.29-4.74a12.42,12.42,0,0,1,0-1.93c0-.49.22-1.55,0-1.84s.58-3.29.58-3.29l1.16-2.13.19-2,1.94-2.22v-4.35l1.25-2.52v-2.9l1.84-2.71s.77-2.42,1.16-3.77a11.82,11.82,0,0,1,1.93-3.19l1.46-3.68,1.64-4.25,1.93-2.32.87-2,.49-6.58.21-2.38c0-.13.07-.27.1-.39,1.34-5.62-.55-7.3,3.82-12.28,1.85-2.1,4.13-3.8,5.82-6a17.25,17.25,0,0,1,2.09-2.63c.8-.72,1.87-1.28,2.17-2.32a25.31,25.31,0,0,1-3.58-2.79c0,.62-.84.81-1.45.87a15.27,15.27,0,0,0-3.33.74,1.8,1.8,0,0,0-.78.45,10.45,10.45,0,0,0-.51.93c-.53.71-1.62.53-2.49.7a4.86,4.86,0,0,0-1.57.68,18.14,18.14,0,0,0-6.78,7.33,2.51,2.51,0,0,0,1.31-1.62c-.11,1-.35,2.26-1.28,2.75a8.36,8.36,0,0,0-1.1.49,2.39,2.39,0,0,0-.64,1l-1.79,4.05a6.25,6.25,0,0,0-.59,1.77,2.26,2.26,0,0,1-.23,1c-.46.7-1.53.39-2.27,0a.68.68,0,0,1-1.14.35c-.2-.24-.21-.59-.4-.84a1.71,1.71,0,0,0-.93-.43,6.25,6.25,0,0,1-2.7-2.07c-.49-.55-1-1.42-.46-1.94.24-.24.6-.28.9-.45s.51-.6.25-.82-.64,0-1,0a.66.66,0,0,1-.44-.69,1.68,1.68,0,0,1,.33-.82,10.39,10.39,0,0,1,2.34-2.52,2.16,2.16,0,0,0,.66-.65,1.86,1.86,0,0,0,.14-.94c0-.75,0-1.5,0-2.25a.91.91,0,0,0-.11-.49c-.2-.27-.65-.22-.89-.46s-.09-.79.22-1,.72-.38,1-.66c.55-.56.44-1.47.43-2.26a13.84,13.84,0,0,1,.88-3.53c.52-2,1.15-4.19,2.84-5.41.5-.36,1.07-.62,1.54-1,1.06-.92,1.6-2.59,3-2.85a6.19,6.19,0,0,0,.86-.15c.51-.18.8-.72,1.21-1.09.77-.68,1.92-.7,2.85-1.16.51-.25,1-.63,1.46-.88a1.67,1.67,0,0,1,1.62,0c.18.54-.56.94-.65,1.5a2.29,2.29,0,0,0,.27,1,2,2,0,0,1-1.59,2.49c1.18-.17,2.5.15,3.5-.5a3.91,3.91,0,0,0,.92-.94l3.15-3.93a4.22,4.22,0,0,1,1.28-1.21,13.08,13.08,0,0,1,1.54-.47,5.31,5.31,0,0,0,1.8-1.25,16.34,16.34,0,0,0,3.58-5.2,5.25,5.25,0,0,0,.47-1.55,12.91,12.91,0,0,0-.06-1.64,13.59,13.59,0,0,1,.56-3.73c.11-.45.23-.9.34-1.35a3.87,3.87,0,0,1,.64-1.55c.18-.22.42-.41.58-.65a2.61,2.61,0,0,0,.34-1.17,18.2,18.2,0,0,0,0-5,1.51,1.51,0,0,1-1.45-.86,4.76,4.76,0,0,0-1-1.46c-.31-.23-.71-.33-1-.58-.91-.74-.89-2.61-2.06-2.65.78,1,1.55,2.59.63,3.52-.33.35-.9.61-.85,1.09s1,.88.83,1.44a.86.86,0,0,1-.42.44,10.07,10.07,0,0,1-6.41,1.38c.25.08.23.58,0,.74s-.67.12-1,.25-.52.64-.21.78L778,502c-1.33.51-2.76,1.12-3.41,2.39a7,7,0,0,1-.9,1.84c-.48.49-1.56.4-1.6-.29,0-.33.24-.63.29-1,.13-.91-1.12-1.31-2-1.28a37.46,37.46,0,0,0-5.85.83,8.78,8.78,0,0,0-4.27,1.66,12.54,12.54,0,0,0-2.37,3.73c-.71,1.3-1.78,2.6-3.26,2.77a.76.76,0,0,1-.7-.2c-.27-.34.08-.81.26-1.22s-.27-1.07-.54-.72c-.27.05-.32-.41-.11-.59s.51-.23.67-.45c.34-.47-.35-1.05-.93-1.05s-1.2.26-1.71,0l1.76-1.4a1.92,1.92,0,0,0,.89-1.25c0-.91-1.15-1.34-2-1.19s-1.8.58-2.66.29c-1.1-.38-1.48-1.74-1.55-2.9a3.7,3.7,0,0,1-4-4.17c.29-1.48,1.52-2.88,1-4.32-.25-.73-.9-1.27-1.14-2a2.54,2.54,0,0,1,.57-2.35,5.1,5.1,0,0,1,2.12-1.33c3.32-1.21,7.15-.65,10.36-2.14,0,.3,0,.61,0,.92,3-3.5,5-7.79,7.34-11.76,1.08-1.79,2.18-3.87,3.88-5.08l1.06-.75a.47.47,0,0,1,.33-.12c.24,0,.25.37.31.6a1.14,1.14,0,0,0,1,.7c.44,0,.89-.07,1.33-.06a13.25,13.25,0,0,0,1.65.13,3.71,3.71,0,0,0,1-.32,6.88,6.88,0,0,0,2.25-1.32,4.27,4.27,0,0,0,.85-1.21h0a22.21,22.21,0,0,0,.85-2.28,19.17,19.17,0,0,1,1-2.42,2.09,2.09,0,0,1,.58-.77c.54-.39,1.37-.25,1.87-.7a1.57,1.57,0,0,0,.4-.71c.37-1.11.31-2.39,1-3.34.17-.23.36-.58.13-.76s-.27-.06-.41-.09c-.36-.08-.53-.49-.62-.85a12.88,12.88,0,0,1-.34-2.47c0-.52.11-1.19.63-1.3s.87.39,1.11.83.61.94,1.11.86.69-.92.59-1.51c-.06-.33-.13-.66-.22-1a.45.45,0,0,0-.11-.23.58.58,0,0,0-.3-.07,2.7,2.7,0,0,1-2.31-1.94,18.37,18.37,0,0,1-1.22-5.13,2.78,2.78,0,0,0-.2-1.22.82.82,0,0,0-1-.45,2.22,2.22,0,0,1-.41-1.9,12.17,12.17,0,0,0,.31-2,8.25,8.25,0,0,0-.48-2.05,11.9,11.9,0,0,1-.19-4.9,37.62,37.62,0,0,1,1.58-6.07c1.38-4.31,2.76-8.63,4.43-12.84a16.55,16.55,0,0,1,1-2.14,17.44,17.44,0,0,1,1.27-1.82c1.61-2.13,3.09-4.16,4.65-6.33a66.05,66.05,0,0,0,5.62-9.39c1.84-3.77,3.32-7.73,5.5-11.31,3.59-5.91,8.9-10.55,14.13-15.09a64.77,64.77,0,0,1,5.72-4.74,58.87,58.87,0,0,0,8.93-7.1,62.59,62.59,0,0,0,4.53-5.36c.49-.62,1-1.23,1.46-1.85a17.58,17.58,0,0,0,3.18-5.2,4.15,4.15,0,0,1,1.08-2.16c.39-.32.92-.45,1.32-.76s.56-.67.93-.88a3.61,3.61,0,0,1,.86-.28,8.09,8.09,0,0,0,3-1.9,1.54,1.54,0,0,0,.49-.62,2.09,2.09,0,0,0,0-.86,4.92,4.92,0,0,1,1-3q1.24-2.12,2.47-4.23a10.57,10.57,0,0,1,1.64-2.32,4,4,0,0,1,2.65-1.3c.31.28.77-.08,1-.41.94-1.19,1.87-2.39,2.81-3.59a9.34,9.34,0,0,0,.63-.88,7.13,7.13,0,0,0,.62-1.48c.57-1.87.8-3.91,1.92-5.51.27-.39.58-.74.85-1.12a8,8,0,0,0,1-2.13,21.45,21.45,0,0,0,.56-2.4c.32-1.65.65-3.3,1-4.95.6-3,1.25-6.11,2.91-8.7a2,2,0,0,1,1.32-1.07,3.38,3.38,0,0,1,1.54.48c.51.19,1.23.15,1.42-.36a1.34,1.34,0,0,0,0-.66,13.64,13.64,0,0,1,1.25-7.25l1.59-3.9a4,4,0,0,1,.65-1.19c.46-.5,1.14-.75,1.61-1.24.1-.11.19-.26.13-.39a.42.42,0,0,0-.19-.16,6.78,6.78,0,0,0-2-.32,5.29,5.29,0,0,1-2.44-1,.81.81,0,0,0-.37-.21c-.31-.06-.61.21-.91.16a1,1,0,0,1-.36-.2,6.31,6.31,0,0,1-2.41-3.65,9.11,9.11,0,0,1,.12-2.85c.33-2.16.44-4.33.77-6.49a15.34,15.34,0,0,1-2.21-4.88,8.63,8.63,0,0,1,.69-5.15c.5-1.12,1.22-2.13,1.72-3.25,1.47-3.3.9-7.1.29-10.66a1.06,1.06,0,0,0-.27-.65c-.19-.15-.54-.11-.59.12a19.09,19.09,0,0,1,.65,2.47,2.24,2.24,0,0,1-1.24-2.07c0-.36.1-.78-.18-1a1.45,1.45,0,0,0-.51-.21c-.47-.16-.83-.58-1.29-.77s-1.19,0-1.14.54a1,1,0,0,0,.24.47c.15.2.31.41.48.6a4.32,4.32,0,0,0,1.55,1.09c-.3.24-.63.55-.58.93s.34.51.57.74a2.09,2.09,0,0,1,.59,1.81l1.09.06a.43.43,0,0,1,.29.1.39.39,0,0,1,.07.26c0,.81,0,1.61.08,2.42,0,1.27,0,2.71-.94,3.56a6.86,6.86,0,0,1-1.58.85,2.16,2.16,0,0,0-1.23,1.25,8.26,8.26,0,0,0-.07,1,8.43,8.43,0,0,1-.4,1.36,1.64,1.64,0,0,0,.08,1.37c.18.26.49.48.46.79,0,.49-.79.53-1.07.93a1.2,1.2,0,0,0-.16.68l-.07,2.25a.93.93,0,0,0,.06.44c.14.25.47.3.73.42s.44.52.2.66l-1.88-.49a3.44,3.44,0,0,1-1.28-.53c-.84-.66-.88-1.89-.9-3a1.83,1.83,0,0,0-.16-.81c-.15-.27-.42-.45-.59-.7-.52-.78.28-2.42-.47-3-.26-.79.4-1.6.41-2.44a3.79,3.79,0,0,0-1.1-2.15,10.37,10.37,0,0,1-2.1-6.42,15.5,15.5,0,0,0,0-2.36,2.69,2.69,0,0,0-1.12-2c-.35-.2-.77-.31-1-.64a7.37,7.37,0,0,1-.33-1c-.24-.53-.93-.82-1-1.4-.06-.36.08-.85-.25-1a.91.91,0,0,0-.33,0c-.53-.06-.84-.61-1.07-1.09-.39-.84-.78-1.67-1.16-2.5a7,7,0,0,0-1.25-2,19.25,19.25,0,0,1-1.88-1.59.91.91,0,0,0,.93-1c-.07-.39-.4-.68-.49-1.07a4.22,4.22,0,0,1,.15-1.26,3.28,3.28,0,0,0-1.48-2.56,4.39,4.39,0,0,1-1.82-2.39,1.81,1.81,0,0,0-.19-.8,1.36,1.36,0,0,0-.33-.3,16.91,16.91,0,0,1-1.79-1.8,10.77,10.77,0,0,0-6.79-3.17c-.18,0-.42,0-.5.17s.09.43.3.51a1.92,1.92,0,0,1,.63.24,2,2,0,0,1,.33.59c.11.19.38.35.55.2s.1-.14.16-.2.49,0,.62.23.18.49.38.64a1,1,0,0,0,.45.13,4.45,4.45,0,0,0,1.78,0,.9.9,0,0,1,.39-.07.79.79,0,0,1,.44.23,5,5,0,0,1,1.48,2.22,1.94,1.94,0,0,0-1,.39.69.69,0,0,0-.14.93c.45.52,1.44-.2,1.81.38a2,2,0,0,1,1.15.88,1.57,1.57,0,0,1,.45,1.3,3.06,3.06,0,0,1-.29.53,1.49,1.49,0,0,0,0,1.38,1.36,1.36,0,0,1-.92-1.07,1.45,1.45,0,0,0-.08-.36,1,1,0,0,0-.32-.28,8.94,8.94,0,0,1-3.17-3.67,2.44,2.44,0,0,0-.4-.68c-.6-.65-1.68-.36-2.51-.67-.49-.19-.87-.58-1.36-.77s-1.18-.08-1.31.42a13.15,13.15,0,0,1-4.65-3.37c-.35-.39-.89-.84-1.32-.54-.22.16-.29.46-.51.61s-.79,0-1,.3a1.28,1.28,0,0,0-.24.64,2.66,2.66,0,0,1-.91,1.18l-1.49,1.3c-.3.26-.63.85-.32,1.1.12.48.7.69,1.19.72a2.92,2.92,0,0,1,1.45.28c.6.42.61,1.29.56,2a1.42,1.42,0,0,1-.17.7c-.23.35-.77.5-.86.91a1.25,1.25,0,0,0,.08.54c.65,2.16.08,4.48-.5,6.65a.7.7,0,0,0-.84.18,6.93,6.93,0,0,0-.54.76,2.57,2.57,0,0,1-3.17.43,2.43,2.43,0,0,0-1-.43,1.58,1.58,0,0,0-1.25.92,4.22,4.22,0,0,1-.92,1.33,3,3,0,0,1-.69.35l-1.88.75a1.91,1.91,0,0,1-.52.14,1.84,1.84,0,0,1-.65-.17,3.18,3.18,0,0,0-2.12-.18,1.59,1.59,0,0,0-1.14,1.64,3.12,3.12,0,0,0-1,.08c0,.58-.06,1.17-.08,1.76a.61.61,0,0,1-.12.4c-.19.19-.53,0-.72-.15-.53-.53-.77-1.32-1.32-1.83-.91-.84-2.38-.68-3.44-1.33a1.67,1.67,0,0,1,.23,1.09,24.3,24.3,0,0,1-3-1,.54.54,0,0,0,0,.56h-1l-1.32-.76L802,232l-.63.57-1.26.75-2.07-.12-1.76-2.08-1.7-.25-1.14-.88-3.08-.19-1-.51L786,228l-.94.26-1.83.5a7.33,7.33,0,0,1-2.2,1c-1.13.25-2.39-1-2.39-1l.31-3.08-3-.51s-1.2-.12-4.53-.37-19.45-4.22-19.45-4.22-6.16-1.38-9.56-1.89-13.85-5.47-15.73-6.23-10.39-5.09-12.27-5-8.5-.25-12.9-.37-7.3-1.7-10.26-1.7a14.1,14.1,0,0,0-5.79,1.51l-.12.88-4,1.51-3.84,3.14-2,1.77a38.51,38.51,0,0,1-8.12,1.38c-5.28.44-4.15-1.07-8.05-1.57a13.8,13.8,0,0,0-6.92.88l-5.29.88-3.21.75-4.72,1.58-1.76.31h-1.7l-1.57.06-1.2.63s-2.2.38-5.47.82-3.59,2-3.59,2a21.62,21.62,0,0,1-2.58,3.08c-1.38,1.32-5.41,4.34-5.41,4.34l-.63,1.07-1,.57s-4.72,2.32-6.23,2.95a9.46,9.46,0,0,1-3.71.44l-3,.82-.31,1.2H599.9l-4.28,1.76a34.86,34.86,0,0,0-5.53.44c-2.14.44-5.61,1.2-5.79,1.32s-3.78.25-3.78.25l-6.79,1.33a19.43,19.43,0,0,0-5,.5c-2.52.63-9.31,2.07-9.31,2.07l-8.87.63-12.09,1.45-5.6.38-11,1.26-3.46.75-16,2.39-8.12,1.64-15.1,2.89s-5.47,1.39-12.4,2.65-12.46,4-15.54,5-8.87,6.1-11.2,7-5.85,1.88-5.85,1.88l-6.42.88-2.08.63s-30,18.88-31.65,20.2-4.53,7.05-5.28,8.87-2.58,8.94-3,10.51a15.82,15.82,0,0,1-1.64,3.46v2.14l-1.57,3.72v3.54l.1,2.56h1v1l-2,3-1.18.56-.62,2.36L379,336l-1.81,2.56-.31,2.05-1,1.39-.16,2.25,1,.93.66.71.06-2-.06-.87.06-2.1.3-2.21.77-1.28.43,1.39-.79,9.28-.87,2.56-.29.93" transform="translate(182.77)"/><path class="cls-4" d="M377,351.55l-1.76,5.59-1.49,2.2-1.54,4.1-1.64,5.34.16,3.9.51-.41.36-.72h.67l.56.87,1.28.41-.92.82-1.08-.31h-1.38l.36,1.54.61.77.46,1.54-.66.87.15,1.59,1.59,7.39-.92,2.25-.82,1.75.71,1.89-.2,1.65.1,4.46.67,11.08a3.8,3.8,0,0,1,1.07,2.15c.36,1.59.16,3.08-.46,3.54s-1.54.87-1.54,1.95.31,1.79,1.24,4a11.6,11.6,0,0,1,.66,4.87L372.9,428l0,2.61-.41.51-.21.72,1.49,2.87.15,1.24,2.06,2.46.2,1.79L375,441.5l1.34,2.77.66.11c.67.1.16.71.1,1.28l.57.61-.41,1.39s-.82,2.41-1.59,2.87a4,4,0,0,0-1.23,1.8L372,457l-.93.47-.87,2-1.59.92-1.78,1.07-3.13,2.81-4.93,2.95-4.14,3a66.7,66.7,0,0,0-5.16,4.7c-2.17,2.25-.78,3.77-1,5s-1.89,2.9-2.86,4.33a31.63,31.63,0,0,1-3.36,3.69c2.67.87.92,2.48.92,2.48s2.76,2,2.76,3.32c0,5.07-3.54,9.81-3.54,9.81s.92.65.93,1.11c0,1.39-.8,3.68-.89,5.39a3.17,3.17,0,0,0,.83,2.51,27.3,27.3,0,0,1-.37,6.61c-.64,4.14-2,5.25-2.35,7.28a26.38,26.38,0,0,0,.37,6.08c-1.16,4.07-5.94,8.61-7.55,10.45a50,50,0,0,1-6.13,5l-3.45,3.32-5.58,5.16-.87,1.56-13.59,9.31s-9.77,6-10.64,6.63-1.66,1.66-2.21,2.12-2.44,1.61-2.44,1.61v1.06a6.63,6.63,0,0,1-1.16.88c-1,.64-12.2,7.51-14.09,8.24s-7.74,3.37-10,4.24-10.87,5.39-13.59,7.79-5,6.4-6.45,7.78-6,5-7.36,6c-.75.55,0,1.58,0,1.58,1.17.8,2.63.22,3.7-.7l9.23-7.92c1.77-1.52,4-3.14,6.2-2.5.35,1.25-.5,2.5-1.43,3.4a8.34,8.34,0,0,0-2.47,2.93,1.39,1.39,0,0,0,0,1.06,2,2,0,0,0,1,.76,22.53,22.53,0,0,1,3.51,2.59,5.72,5.72,0,0,0,4,1.44c1.45-.19,2.77-1.67,2.31-3.06a26.1,26.1,0,0,1,8,5.35,6.23,6.23,0,0,1,1.54,2.07,6.49,6.49,0,0,1,.14,3.25,43.15,43.15,0,0,1-1.11,5.52,1.67,1.67,0,0,1-.48.93c-.5.38-1.26.11-1.81.4a1.93,1.93,0,0,0-.61.63,40.47,40.47,0,0,0-6,13,6.27,6.27,0,0,1-1.5,3.25,5.85,5.85,0,0,1-2.21,1.08l-12.35,3.94c-3.14,1-6.35,2-9,4.06-2.11,1.63-3.77,3.87-6.15,5.06-2.59,1.3-5.65,1.16-8.53.84a81.37,81.37,0,0,1-21.06-5.29c-2.83-1.13-5.72-2.44-8.76-2.29a4.8,4.8,0,0,1-2.45-.2c-.56-.29-1.62-2.16-2-2.62-1.12-1.24-4-1.82-4.48-2.13-1.39-.94-1-2.56-.29-4.09a1.27,1.27,0,0,1,1.33,0c.81-2,2.45-3.5,2.95-5.6l.32-1c-2.45,0-7.26-2.28-9-5.78a22.42,22.42,0,0,0-4.46-5.94h-6.47l-31.58,2.71s-10.67.17-17.05,1a94,94,0,0,0-12.07,2.53h-2.36l-4.9,1.75L80.7,639.76H76.94l-1.75-1L73,640.46V642c-1.62,2.44-5.86,13-16.88,18.11-12.42,5.71-28.4,5.33-30,5.33a12.3,12.3,0,0,1-5.77-2s-13.65,1.31-23.09,1.31a195.82,195.82,0,0,0-20.9.7c-8.49,1-25.28,6.39-25.28,6.39l-31.66,11s-31.86,11.58-40.23,13.9c-10.79,3-37,8.75-46.53,8.75A21.73,21.73,0,0,1-182,700.28l1.5,173.7h471a2.64,2.64,0,0,0-1-.83c-.61-.31-1.35-.39-1.82-.88-.89-.95-.1-2.55-.53-3.77a.75.75,0,0,0-.28-.39.85.85,0,0,0-.5-.05,9.91,9.91,0,0,1-3.88-.1c-2.12-.65-3.42-2.69-5-4.26a24.69,24.69,0,0,1-2.51-2.5,6.18,6.18,0,0,1-1-3.58,3,3,0,0,0-2.68-2.9c-.87-.06-1.8.27-2.59-.1a2.8,2.8,0,0,1-1.17-1.3,9,9,0,0,1-1-3.56,2.5,2.5,0,0,1,.18-1.3c.29-.59.94-.92,1.26-1.5a2,2,0,0,0,0-1.81,3.87,3.87,0,0,0-1.29-1.35,2.6,2.6,0,0,0-.74-.38,3.3,3.3,0,0,0-1.29,0,17.91,17.91,0,0,1-4.51.09,1.84,1.84,0,0,0-.62,0,1.28,1.28,0,0,0-.82,1.35,2,2,0,0,1-.05.9c-.27.6-1.15.49-1.77.27a.75.75,0,0,1-.31-.18.83.83,0,0,1-.09-.68,4.06,4.06,0,0,0-1.44-3.54c-.36-.3-.79-.53-1.16-.82s-.58-.5-.9-.7c-1.5-.89-3.49.09-5.13-.48-1.2-.42-2-1.76-2.61-2.86l-1.17-3.27h61.38V753.4l.1-.36,247.79,0V735.33h.14c.73.4,1.62-.3,1.92-1.08a14.14,14.14,0,0,1,.76-2.36,2.34,2.34,0,0,1,3.47-.41,5.66,5.66,0,0,1,6.63-3.18,2,2,0,0,1,2-1.82,5.66,5.66,0,0,1,2.82.88l2.23,1.15a2.5,2.5,0,0,1,1.08.84.85.85,0,0,1-.27,1.19,14.46,14.46,0,0,1,2,3.84c.16-.36.32-.73.49-1.09a4.7,4.7,0,0,0,3.47.33,2.32,2.32,0,0,1,1.54-.16c.89.41,1.21,2.14,2.09,1.72a4.18,4.18,0,0,0,2,3.67c1.2.84,2.61,1.33,3.87,2.06s2.76,1.58,3.74.63.12-2.66.43-4c.63-2.79,5.35-2.28,6.74-4.78a8,8,0,0,1,.73-1.43c.72-.86,2.37-1.09,2.35-2.21,0-.36-.21-.68-.23-1,0-1,1.23-1.46,1.64-2.35a7.4,7.4,0,0,0,.27-1.64c.61-3,5.62-2.66,7-5.37a6.27,6.27,0,0,0,.38-3.2,16.47,16.47,0,0,1,.45-5.38,10.12,10.12,0,0,1,3.25-4.92c.49-.4,1.06-.85,1.08-1.48,0-1.16-1.8-1.71-1.76-2.87,0-.73.8-1.18,1.47-1.48l5.63-2.54c2.15-1,4.56-2.26,5-4.57.3-1.49-.31-3.13.35-4.49a5.55,5.55,0,0,0,.72-1.44c.09-.53-.37-1.2-.87-1a6.58,6.58,0,0,0,1.88-2.73c1-2.69,3.75-4.29,5.57-6.51a1.43,1.43,0,0,0,.46-1c0-.48-.48-.81-.67-1.25a2.07,2.07,0,0,1,0-1.43c.77-2.53,2.85-4.55,3.34-7.14a20.62,20.62,0,0,1,.44-2.85A7.92,7.92,0,0,1,642,659a17.9,17.9,0,0,1,3.09-2.1.91.91,0,0,1,.68-.12c.2.07.32.28.51.38.61.32,1.41-.57,2-.18s.25,1.23.76,1.51a1,1,0,0,0,.94-.15,26.43,26.43,0,0,1,4.66-1.76,1.62,1.62,0,0,1,1,0,2.08,2.08,0,0,1,.72.78,3.46,3.46,0,0,0,3.18,1.35c-.23-.51.66-1.14.66-1.14l2.61-2.71,7.84,2,5.22-10.64,4.35-9.18,3.77-7.45,1.74-1.06,2.9-1.94-1.54-1.93,1-1.26,2,.68-.58-2.42a41.74,41.74,0,0,1,2.23-3.77,23.52,23.52,0,0,0,1.55-3.19l1.16-3.48,2.9-2.9,3.29-4.84,2.7,2.22.2,4.74,2.9,4.16s1.16,3.48,1.16,3.87a33.11,33.11,0,0,0,1.06,3.29l-1.35,6,2.42,2.71-3.49,9.09-2.22,2,.39,4.74-.39,3.87-5.42,4,1,3.49,6.48,2.32,4.74,1.93,4.93,1.55,1.84,3.77.87,4.55,2.8-.59,1.36,4.16,2.32,1.84-1.06,6.38.38,7.06.29,10.83-.48,3.49-.39,3.57-2.61,3.2-1,2.61s-1.74,2.41-2,2.7-1.54-.19-1.83,0,0,3.49,0,3.49l-3.1,9.28-5.41,12.57-3.68.68,1.55,2.22,5-1.06s5.12-5.32,5.32-5.61,4.06-5.9,4.06-5.9l2.8-7.93c.1-.29,2.32-6.09,2.32-6.09l3.48-5.71,2.42-1.84a24.44,24.44,0,0,0,2.13-2.22c.1-.29-1-1.93-.87-2.22a43.56,43.56,0,0,0-1.16-4.55l-.58-4.06s1.16-7,1.16-7.35.58-6.48.58-7.16,2.71-4.74,2.71-4.74l1.64-3.19,2.9-4.64,1.65-3.09v-8.22l.87-6,2.22-2.9v-4.74l.68-3.29.67-4.16.29-2.51s.87-5.51,1.16-7.54,1.36-2.71,1.75-3.58a13.45,13.45,0,0,1,2.9-2.9c.38-.29,2.41-4.16,2.29-4.74a12.42,12.42,0,0,1,0-1.93c0-.49.22-1.55,0-1.84s.58-3.29.58-3.29l1.16-2.13.19-2,1.94-2.22v-4.35l1.25-2.52v-2.9l1.84-2.71s.77-2.42,1.16-3.77a11.82,11.82,0,0,1,1.93-3.19l1.46-3.68,1.64-4.25,1.93-2.32.87-2,.49-6.58.21-2.38c0-.13.07-.27.1-.39,1.34-5.62-.55-7.3,3.82-12.28,1.85-2.1,4.13-3.8,5.82-6a17.25,17.25,0,0,1,2.09-2.63c.8-.72,1.87-1.28,2.17-2.32a25.31,25.31,0,0,1-3.58-2.79c0,.62-.84.81-1.45.87a15.27,15.27,0,0,0-3.33.74,1.8,1.8,0,0,0-.78.45,10.45,10.45,0,0,0-.51.93c-.53.71-1.62.53-2.49.7a4.86,4.86,0,0,0-1.57.68,18.14,18.14,0,0,0-6.78,7.33,2.51,2.51,0,0,0,1.31-1.62c-.11,1-.35,2.26-1.28,2.75a8.36,8.36,0,0,0-1.1.49,2.39,2.39,0,0,0-.64,1l-1.79,4.05a6.25,6.25,0,0,0-.59,1.77,2.26,2.26,0,0,1-.23,1c-.46.7-1.53.39-2.27,0a.68.68,0,0,1-1.14.35c-.2-.24-.21-.59-.4-.84a1.71,1.71,0,0,0-.93-.43,6.25,6.25,0,0,1-2.7-2.07c-.49-.55-1-1.42-.46-1.94.24-.24.6-.28.9-.45s.51-.6.25-.82-.64,0-1,0a.66.66,0,0,1-.44-.69,1.68,1.68,0,0,1,.33-.82,10.39,10.39,0,0,1,2.34-2.52,2.16,2.16,0,0,0,.66-.65,1.86,1.86,0,0,0,.14-.94c0-.75,0-1.5,0-2.25a.91.91,0,0,0-.11-.49c-.2-.27-.65-.22-.89-.46s-.09-.79.22-1,.72-.38,1-.66c.55-.56.44-1.47.43-2.26a13.84,13.84,0,0,1,.88-3.53c.52-2,1.15-4.19,2.84-5.41.5-.36,1.07-.62,1.54-1,1.06-.92,1.6-2.59,3-2.85a6.19,6.19,0,0,0,.86-.15c.51-.18.8-.72,1.21-1.09.77-.68,1.92-.7,2.85-1.16.51-.25,1-.63,1.46-.88a1.67,1.67,0,0,1,1.62,0c.18.54-.56.94-.65,1.5a2.29,2.29,0,0,0,.27,1,2,2,0,0,1-1.59,2.49c1.18-.17,2.5.15,3.5-.5a3.91,3.91,0,0,0,.92-.94l3.15-3.93a4.22,4.22,0,0,1,1.28-1.21,13.08,13.08,0,0,1,1.54-.47,5.31,5.31,0,0,0,1.8-1.25,16.34,16.34,0,0,0,3.58-5.2,5.25,5.25,0,0,0,.47-1.55,12.91,12.91,0,0,0-.06-1.64,13.59,13.59,0,0,1,.56-3.73c.11-.45.23-.9.34-1.35a3.87,3.87,0,0,1,.64-1.55c.18-.22.42-.41.58-.65a2.61,2.61,0,0,0,.34-1.17,18.2,18.2,0,0,0,0-5,1.51,1.51,0,0,1-1.45-.86,4.76,4.76,0,0,0-1-1.46c-.31-.23-.71-.33-1-.58-.91-.74-.89-2.61-2.06-2.65.78,1,1.55,2.59.63,3.52-.33.35-.9.61-.85,1.09s1,.88.83,1.44a.86.86,0,0,1-.42.44,10.07,10.07,0,0,1-6.41,1.38c.25.08.23.58,0,.74s-.67.12-1,.25-.52.64-.21.78L778,502c-1.33.51-2.76,1.12-3.41,2.39a7,7,0,0,1-.9,1.84c-.48.49-1.56.4-1.6-.29,0-.33.24-.63.29-1,.13-.91-1.12-1.31-2-1.28a37.46,37.46,0,0,0-5.85.83,8.78,8.78,0,0,0-4.27,1.66,12.54,12.54,0,0,0-2.37,3.73c-.71,1.3-1.78,2.6-3.26,2.77a.76.76,0,0,1-.7-.2c-.27-.34.08-.81.26-1.22s-.27-1.07-.54-.72c-.27.05-.32-.41-.11-.59s.51-.23.67-.45c.34-.47-.35-1.05-.93-1.05s-1.2.26-1.71,0l1.76-1.4a1.92,1.92,0,0,0,.89-1.25c0-.91-1.15-1.34-2-1.19s-1.8.58-2.66.29c-1.1-.38-1.48-1.74-1.55-2.9a3.7,3.7,0,0,1-4-4.17c.29-1.48,1.52-2.88,1-4.32-.25-.73-.9-1.27-1.14-2a2.54,2.54,0,0,1,.57-2.35,5.1,5.1,0,0,1,2.12-1.33c3.32-1.21,7.15-.65,10.36-2.14,0,.3,0,.61,0,.92,3-3.5,5-7.79,7.34-11.76,1.08-1.79,2.18-3.87,3.88-5.08l1.06-.75a.47.47,0,0,1,.33-.12c.24,0,.25.37.31.6a1.14,1.14,0,0,0,1,.7c.44,0,.89-.07,1.33-.06a13.25,13.25,0,0,0,1.65.13,3.71,3.71,0,0,0,1-.32,6.88,6.88,0,0,0,2.25-1.32,4.27,4.27,0,0,0,.85-1.21h0a22.21,22.21,0,0,0,.85-2.28,19.17,19.17,0,0,1,1-2.42,2.09,2.09,0,0,1,.58-.77c.54-.39,1.37-.25,1.87-.7a1.57,1.57,0,0,0,.4-.71c.37-1.11.31-2.39,1-3.34.17-.23.36-.58.13-.76s-.27-.06-.41-.09c-.36-.08-.53-.49-.62-.85a12.88,12.88,0,0,1-.34-2.47c0-.52.11-1.19.63-1.3s.87.39,1.11.83.61.94,1.11.86.69-.92.59-1.51c-.06-.33-.13-.66-.22-1a.45.45,0,0,0-.11-.23.58.58,0,0,0-.3-.07,2.7,2.7,0,0,1-2.31-1.94,18.37,18.37,0,0,1-1.22-5.13,2.78,2.78,0,0,0-.2-1.22.82.82,0,0,0-1-.45,2.22,2.22,0,0,1-.41-1.9,12.17,12.17,0,0,0,.31-2,8.25,8.25,0,0,0-.48-2.05,11.9,11.9,0,0,1-.19-4.9,37.62,37.62,0,0,1,1.58-6.07c1.38-4.31,2.76-8.63,4.43-12.84a16.55,16.55,0,0,1,1-2.14,17.44,17.44,0,0,1,1.27-1.82c1.61-2.13,3.09-4.16,4.65-6.33a66.05,66.05,0,0,0,5.62-9.39c1.84-3.77,3.32-7.73,5.5-11.31,3.59-5.91,8.9-10.55,14.13-15.09a64.77,64.77,0,0,1,5.72-4.74,58.87,58.87,0,0,0,8.93-7.1,62.59,62.59,0,0,0,4.53-5.36c.49-.62,1-1.23,1.46-1.85a17.58,17.58,0,0,0,3.18-5.2,4.15,4.15,0,0,1,1.08-2.16c.39-.32.92-.45,1.32-.76s.56-.67.93-.88a3.61,3.61,0,0,1,.86-.28,8.09,8.09,0,0,0,3-1.9,1.54,1.54,0,0,0,.49-.62,2.09,2.09,0,0,0,0-.86,4.92,4.92,0,0,1,1-3q1.24-2.12,2.47-4.23a10.57,10.57,0,0,1,1.64-2.32,4,4,0,0,1,2.65-1.3c.31.28.77-.08,1-.41.94-1.19,1.87-2.39,2.81-3.59a9.34,9.34,0,0,0,.63-.88,7.13,7.13,0,0,0,.62-1.48c.57-1.87.8-3.91,1.92-5.51.27-.39.58-.74.85-1.12a8,8,0,0,0,1-2.13,21.45,21.45,0,0,0,.56-2.4c.32-1.65.65-3.3,1-4.95.6-3,1.25-6.11,2.91-8.7a2,2,0,0,1,1.32-1.07,3.38,3.38,0,0,1,1.54.48c.51.19,1.23.15,1.42-.36a1.34,1.34,0,0,0,0-.66,13.64,13.64,0,0,1,1.25-7.25l1.59-3.9a4,4,0,0,1,.65-1.19c.46-.5,1.14-.75,1.61-1.24.1-.11.19-.26.13-.39a.42.42,0,0,0-.19-.16,6.78,6.78,0,0,0-2-.32,5.29,5.29,0,0,1-2.44-1,.81.81,0,0,0-.37-.21c-.31-.06-.61.21-.91.16a1,1,0,0,1-.36-.2,6.31,6.31,0,0,1-2.41-3.65,9.11,9.11,0,0,1,.12-2.85c.33-2.16.44-4.33.77-6.49a15.34,15.34,0,0,1-2.21-4.88,8.63,8.63,0,0,1,.69-5.15c.5-1.12,1.22-2.13,1.72-3.25,1.47-3.3.9-7.1.29-10.66a1.06,1.06,0,0,0-.27-.65c-.19-.15-.54-.11-.59.12a19.09,19.09,0,0,1,.65,2.47,2.24,2.24,0,0,1-1.24-2.07c0-.36.1-.78-.18-1a1.45,1.45,0,0,0-.51-.21c-.47-.16-.83-.58-1.29-.77s-1.19,0-1.14.54a1,1,0,0,0,.24.47c.15.2.31.41.48.6a4.32,4.32,0,0,0,1.55,1.09c-.3.24-.63.55-.58.93s.34.51.57.74a2.09,2.09,0,0,1,.59,1.81l1.09.06a.43.43,0,0,1,.29.1.39.39,0,0,1,.07.26c0,.81,0,1.61.08,2.42,0,1.27,0,2.71-.94,3.56a6.86,6.86,0,0,1-1.58.85,2.16,2.16,0,0,0-1.23,1.25,8.26,8.26,0,0,0-.07,1,8.43,8.43,0,0,1-.4,1.36,1.64,1.64,0,0,0,.08,1.37c.18.26.49.48.46.79,0,.49-.79.53-1.07.93a1.2,1.2,0,0,0-.16.68l-.07,2.25a.93.93,0,0,0,.06.44c.14.25.47.3.73.42s.44.52.2.66l-1.88-.49a3.44,3.44,0,0,1-1.28-.53c-.84-.66-.88-1.89-.9-3a1.83,1.83,0,0,0-.16-.81c-.15-.27-.42-.45-.59-.7-.52-.78.28-2.42-.47-3-.26-.79.4-1.6.41-2.44a3.79,3.79,0,0,0-1.1-2.15,10.37,10.37,0,0,1-2.1-6.42,15.5,15.5,0,0,0,0-2.36,2.69,2.69,0,0,0-1.12-2c-.35-.2-.77-.31-1-.64a7.37,7.37,0,0,1-.33-1c-.24-.53-.93-.82-1-1.4-.06-.36.08-.85-.25-1a.91.91,0,0,0-.33,0c-.53-.06-.84-.61-1.07-1.09-.39-.84-.78-1.67-1.16-2.5a7,7,0,0,0-1.25-2,19.25,19.25,0,0,1-1.88-1.59.91.91,0,0,0,.93-1c-.07-.39-.4-.68-.49-1.07a4.22,4.22,0,0,1,.15-1.26,3.28,3.28,0,0,0-1.48-2.56,4.39,4.39,0,0,1-1.82-2.39,1.81,1.81,0,0,0-.19-.8,1.36,1.36,0,0,0-.33-.3,16.91,16.91,0,0,1-1.79-1.8,10.77,10.77,0,0,0-6.79-3.17c-.18,0-.42,0-.5.17s.09.43.3.51a1.92,1.92,0,0,1,.63.24,2,2,0,0,1,.33.59c.11.19.38.35.55.2s.1-.14.16-.2.49,0,.62.23.18.49.38.64a1,1,0,0,0,.45.13,4.45,4.45,0,0,0,1.78,0,.9.9,0,0,1,.39-.07.79.79,0,0,1,.44.23,5,5,0,0,1,1.48,2.22,1.94,1.94,0,0,0-1,.39.69.69,0,0,0-.14.93c.45.52,1.44-.2,1.81.38a2,2,0,0,1,1.15.88,1.57,1.57,0,0,1,.45,1.3,3.06,3.06,0,0,1-.29.53,1.49,1.49,0,0,0,0,1.38,1.36,1.36,0,0,1-.92-1.07,1.45,1.45,0,0,0-.08-.36,1,1,0,0,0-.32-.28,8.94,8.94,0,0,1-3.17-3.67,2.44,2.44,0,0,0-.4-.68c-.6-.65-1.68-.36-2.51-.67-.49-.19-.87-.58-1.36-.77s-1.18-.08-1.31.42a13.15,13.15,0,0,1-4.65-3.37c-.35-.39-.89-.84-1.32-.54-.22.16-.29.46-.51.61s-.79,0-1,.3a1.28,1.28,0,0,0-.24.64,2.66,2.66,0,0,1-.91,1.18l-1.49,1.3c-.3.26-.63.85-.32,1.1.12.48.7.69,1.19.72a2.92,2.92,0,0,1,1.45.28c.6.42.61,1.29.56,2a1.42,1.42,0,0,1-.17.7c-.23.35-.77.5-.86.91a1.25,1.25,0,0,0,.08.54c.65,2.16.08,4.48-.5,6.65a.7.7,0,0,0-.84.18,6.93,6.93,0,0,0-.54.76,2.57,2.57,0,0,1-3.17.43,2.43,2.43,0,0,0-1-.43,1.58,1.58,0,0,0-1.25.92,4.22,4.22,0,0,1-.92,1.33,3,3,0,0,1-.69.35l-1.88.75a1.91,1.91,0,0,1-.52.14,1.84,1.84,0,0,1-.65-.17,3.18,3.18,0,0,0-2.12-.18,1.59,1.59,0,0,0-1.14,1.64,3.12,3.12,0,0,0-1,.08c0,.58-.06,1.17-.08,1.76a.61.61,0,0,1-.12.4c-.19.19-.53,0-.72-.15-.53-.53-.77-1.32-1.32-1.83-.91-.84-2.38-.68-3.44-1.33a1.67,1.67,0,0,1,.23,1.09,24.3,24.3,0,0,1-3-1,.54.54,0,0,0,0,.56h-1l-1.32-.76L802,232l-.63.57-1.26.75-2.07-.12-1.76-2.08-1.7-.25-1.14-.88-3.08-.19-1-.51L786,228l-.94.26-1.83.5a7.33,7.33,0,0,1-2.2,1c-1.13.25-2.39-1-2.39-1l.31-3.08-3-.51s-1.2-.12-4.53-.37-19.45-4.22-19.45-4.22-6.16-1.38-9.56-1.89-13.85-5.47-15.73-6.23-10.39-5.09-12.27-5-8.5-.25-12.9-.37-7.3-1.7-10.26-1.7a14.1,14.1,0,0,0-5.79,1.51l-.12.88-4,1.51-3.84,3.14-2,1.77a38.51,38.51,0,0,1-8.12,1.38c-5.28.44-4.15-1.07-8.05-1.57a13.8,13.8,0,0,0-6.92.88l-5.29.88-3.21.75-4.72,1.58-1.76.31h-1.7l-1.57.06-1.2.63s-2.2.38-5.47.82-3.59,2-3.59,2a21.62,21.62,0,0,1-2.58,3.08c-1.38,1.32-5.41,4.34-5.41,4.34l-.63,1.07-1,.57s-4.72,2.32-6.23,2.95a9.46,9.46,0,0,1-3.71.44l-3,.82-.31,1.2H599.9l-4.28,1.76a34.86,34.86,0,0,0-5.53.44c-2.14.44-5.61,1.2-5.79,1.32s-3.78.25-3.78.25l-6.79,1.33a19.43,19.43,0,0,0-5,.5c-2.52.63-9.31,2.07-9.31,2.07l-8.87.63-12.09,1.45-5.6.38-11,1.26-3.46.75-16,2.39-8.12,1.64-15.1,2.89s-5.47,1.39-12.4,2.65-12.46,4-15.54,5-8.87,6.1-11.2,7-5.85,1.88-5.85,1.88l-6.42.88-2.08.63s-30,18.88-31.65,20.2-4.53,7.05-5.28,8.87-2.58,8.94-3,10.51a15.82,15.82,0,0,1-1.64,3.46v2.14l-1.57,3.72v3.54l.1,2.56h1v1l-2,3-1.18.56-.62,2.36L379,336l-1.81,2.56-.31,2.05-1,1.39-.16,2.25,1,.93.66.71.06-2-.06-.87.06-2.1.3-2.21.77-1.28.43,1.39-.79,9.28-.87,2.56-.29.93" transform="translate(182.77)"/><path class="cls-4" d="M772.53,225.1V296l-28.35,50.61-29.63,29.88h-4.2v3.69l-5,5.59h-2.16v1.91l-12.46,12.59-12.85-.89L674,399l-.63,2.54-5.35,2.8-8.26-1.4-5,1.4.51,1.4-1.53,1.14-3.94-.76L639.52,413h1.91l-.51,7.12-9.54-.76v1.24h-1.31l-.1,1.06-4.23-.15v2.27l-2.37-.66-7.26,4.49-.3,1.86,1.31.05L616,436.22l-1.26,3-1.41-.1a8.39,8.39,0,0,0-1.54.81c-.06-.46-.11-.91-.17-1.36l-1.66,0c-.11.09,0,.27.17.32s.32.13.31.27a.29.29,0,0,1-.11.18,1,1,0,0,1-.9.27.53.53,0,0,1-.3-.78l-3.89-.12c0,.36,0,.71,0,1.06a4.67,4.67,0,0,1-1.7-.2" transform="translate(182.77)"/><polyline class="cls-4" points="786.18 439.44 786.28 441.46 785.12 441.36 785.52 444.38 784.11 444.48 784.31 447.2 783.21 447.36 783.15 448.67 782.6 449.93 782.95 451.24 782 452.7 781.95 454.41 780.48 453.86 780.08 455.17 781.39 456.18 780.74 457.44 780.03 457.99 778.47 458.14 773.23 458.14 773.23 460.61 770.4 460.87 770.96 464.19 769.19 467.22 769.14 469.28 767.78 469.08 766.52 470.69 764.35 470.64 764.55 467.62 762.69 467.82 762.69 466.86 760.47 466.86 760.37 467.67 759.16 468.63 759.26 469.54 757.09 469.74 756.44 473.52 753.82 472.81 750.24 480.83 754.78 479.97 754.88 480.63 757.8 479.92 757.25 483.19 752.91 482.79 752.1 486.93 746.76 486.02 746.86 484.66 740.51 483.4 739 496.2 742.33 496.4 742.33 500.79 736.83 500.84 737.49 492.92 731.24 491.92 731.24 493.18 726.85 492.82 727.2 497.11 716.87 505.27"/><polyline class="cls-4" points="567.47 318.31 570.57 318.31 569.67 360.27 574.84 360.76 576.13 357.48 576.53 362.65 590.65 362.35 590.35 365.44 591.84 365.73 589.95 372.69 596.52 374.48 596.72 377.37 603.97 377.17 608.05 379.26 612.03 379.45 612.62 377.76 614.81 378.36 617.89 372.3 620.48 371.7 621.17 370.71 643.64 399.64 638.97 399.34 638.57 404.11 643.15 404.71 642.35 410.38 648.51 411.67 648.42 417.73 649.61 420.82 655.58 414.85 676.06 441.3 675.16 449.25 676.36 449.85 676.25 452.43 678.24 452.24 677.85 458.8 686 472.92 692.76 473.81 692.26 478.08 689.88 477.79 693.55 483.85 696.54 483.85 701.21 490.71 737.4 523.92 737.4 564.98 738.69 565.28 737.1 585.47 737.4 619.37 736.01 619.57 736.71 623.05 736.71 662.72 740.19 662.62 740.19 671.77 738.2 671.87 739.29 684.99 736.31 685.39 735.71 695.63 737.7 695.33 737.3 706.17 729.95 706.17 729.85 714.92 737.5 715.12 737.2 718.79 734.92 718.89 735.12 724.36 728.95 723.87 728.95 733.31 736.01 733.31 736.01 753.1 488.03 753.12"/><path class="cls-4" d="M104.92,634.22a7.21,7.21,0,0,1,.13,2,5.8,5.8,0,0,0-.17,2.79,3.89,3.89,0,0,0,.71,1.08c1.39,1.65,2.77,3.3,4.16,4.94a6.84,6.84,0,0,1,1,1.49,5.08,5.08,0,0,1,.36,2.15,11.11,11.11,0,0,1-.58,3.38,2.73,2.73,0,0,0-.21,1,2.27,2.27,0,0,0,.29.89l1.51,3.13a2,2,0,0,0,.73,1c.53.31,1.23.1,1.8.33a4.1,4.1,0,0,1,1,.8c.84.71,2,.94,2.8,1.74a12.36,12.36,0,0,1,1.1,1.73,1.85,1.85,0,0,0,1.69,1c.8-.13,1.21-1,1.57-1.73s1.07-1.5,1.84-1.25c.45.15.72.59,1,.94A1.55,1.55,0,0,0,127,662c.46,0,17.35,0,17.35,0v11l-1.06.43s1.81,3.74,1.81,5.24a43.79,43.79,0,0,1-1.49,6.52l1.07.32.1,2-1.49.32,4.81,8.88-2,1.82.42,1.17-.21,5.13,1.82.65v1.81l2.78,2.46v2.25l1.49.53,3.11,1.39,1.71.75c.19.23,1,.06,1.12-.2s.24-.6.52-.73a2.35,2.35,0,0,1,.6-.06c.2,0,.42-.21.34-.4.12-.27.54-.17.72.06s.26.53.49.7c.82.62,2.1-1.2,2.82-.47a.92.92,0,0,1-.14,1.2,10.42,10.42,0,0,0-.94.94c.06.44.73.22,1.15.36a1.13,1.13,0,0,1,.57.64l1.48,2.92c1.49-.6,2.74,1.65,4.34,1.65-.28-.21.08-.7.42-.64s.56.41.72.71l1.35,2.47a1.9,1.9,0,0,0,.5.66,2,2,0,0,0,.79.26q3.23.53,6.5.73a3.93,3.93,0,0,1,1.23.22,3.47,3.47,0,0,1,.68.42l4,2.9c5.19-.83,11,2.23,14,6.57a1.88,1.88,0,0,0,.08-2.14,106.39,106.39,0,0,0,16.71,11.35,25.49,25.49,0,0,0,.77-4.24,4.41,4.41,0,0,1,2.34-1.32c-1.8-3.07-1.13-6.91-.67-10.43.39-3,.6-6,.81-9l.11-1.71c.07-1,.14-1.95.25-2.92.14-1.23.5-2.66,1.64-3.16a6.67,6.67,0,0,0,.78-.31c1-.63.54-2.2-.06-3.24a1.9,1.9,0,0,0,1.58-3.4,6.69,6.69,0,0,1,6.72.72,4.77,4.77,0,0,1,3.57-3,3.09,3.09,0,0,0,.5,2.13l-1.45.13a10,10,0,0,1-.42,3.72l1.79.84.9.42a40.38,40.38,0,0,1,6.08,3.27,20.32,20.32,0,0,0,3.38,2.19,4.16,4.16,0,0,0,3.87-.06c.34,1.31,1.87,2,3.23,2a27.67,27.67,0,0,1,4.07,0,9.53,9.53,0,0,1,3.79,2l7.36,5.48a5.8,5.8,0,0,1,1.6,1.56c.3.5.43,1.07.7,1.58,1.25,2.41,4.58,2.52,7.28,2.38s6.08.19,7.08,2.7a3.92,3.92,0,0,0,1.6-3.21l1.51.47c.27.16.19.56.07.84s.53.44.22.51" transform="translate(182.77)"/><polyline class="cls-4" points="488.12 732.37 488.12 741.03 486.95 741.03 486.95 744.45 488.12 744.98 488.12 833.63 426.75 833.63"/><path class="cls-4" d="M-49.48,824.4l11.38-16.11a26.05,26.05,0,0,0,1.6-3.76,4.67,4.67,0,0,0,.3-3.5,2.23,2.23,0,0,1-.33-1c.05-.56.65-.87,1-1.31a4.16,4.16,0,0,0,.59-1.85,18.12,18.12,0,0,1,1.82-4.67,2.55,2.55,0,0,1,1.3-1.46c1.21-.4,2.32,1.07,3.59,1,.15-1.73.29-3.45.43-5.18a1,1,0,0,1,.19-.62,1,1,0,0,1,.73-.22c1,0,2.05.2,2.82-.4,1.13-.89.67-2.8,1.54-3.95.58-.77,1.6-1,2.42-1.52s1.49-1.65.87-2.38l3.94-.54a1.45,1.45,0,0,1-.41-1.41c.08-.51.3-1,.38-1.5a8.12,8.12,0,0,0,0-1.56c-.05-1.78.33-3.64-.29-5.31a9.25,9.25,0,0,0-1.57-2.44c-.5-.64-1-1.27-1.51-1.9a7,7,0,0,1-1.29-3.5.65.65,0,0,1,.05-.46c.26-.42.86.06,1.17.44a3.23,3.23,0,0,0,3.12,1.12,2.25,2.25,0,0,0,1.88-2c0-1-1.19-1.83-2-1.27-.37.25-.57.71-1,.88-.67.28-1.42-.53-1.26-1.24a1.71,1.71,0,0,1,1.66-1.16,4.93,4.93,0,0,1,2.08.56c.7-.52,0-1.58-.14-2.44a3.65,3.65,0,0,1,.16-1.6,18.74,18.74,0,0,1,1.51-3.75,1.1,1.1,0,0,0,.2-.86c-.1-.28-.4-.42-.64-.59a3,3,0,0,1-1.14-2.59,7.43,7.43,0,0,1,.84-2.81,4.58,4.58,0,0,0,.7-2.75,12.94,12.94,0,0,1-.36-1.32c-.05-.46.19-1,.65-1a1.45,1.45,0,0,1,.63.15A4,4,0,0,0-7.16,735c-.35-.46.09-1.07.48-1.49,1.16-1.22,2.22-2.85,1.85-4.5,1,.16,1.65,1.11,2.26,1.92S-1,732.56,0,732.27a1.57,1.57,0,0,0,1.82,2.07,4.09,4.09,0,0,0,1-.58,4.7,4.7,0,0,1,3.7-.67,1.61,1.61,0,0,1,.75.37c.56.54.33,1.58.9,2.11a1.87,1.87,0,0,0,1.09.36l2.5.28c.53.06,1.17.19,1.39.69s0,1,.29,1.35,1,.26,1.33.58.31.8.65,1,.73.13,1.11.1A5.61,5.61,0,0,1,20,741.43a1.3,1.3,0,0,1,.5.54,1.17,1.17,0,0,1-.26,1,4.38,4.38,0,0,1-3.47,1.79c-.42.74-.85,1.48-1.28,2.22a2.21,2.21,0,0,0-.39,1.06,2.13,2.13,0,0,0,.38,1l1.87,3.3,1.45-3.08a16.58,16.58,0,0,0,4.77.18,6.76,6.76,0,0,1,3.55.15,5.66,5.66,0,0,1,2.37,2.92l.57,1.16a5,5,0,0,1,.75,3.15c-.39,1.8-2.49,2.56-3.79,3.87a7.1,7.1,0,0,0-1.48,6.5c.49.51,1.41.56,1.95,1,.83.7.69,2,.46,3.06a29,29,0,0,0-1.16,7.31c.07,2.47,1.06,5.07,3.16,6.37a8.33,8.33,0,0,1,.8.51c.22.19.41.42.63.6a4.71,4.71,0,0,1,.71.62,2.38,2.38,0,0,1,.09,1.93c-.14.66-.18,1.46.35,1.86s1.67.28,1.85,1c0,.19,0,.4.07.6.19.57,1.28.77,1.06,1.34a1.7,1.7,0,0,0-1,.1.63.63,0,0,0-.34.79,1.45,1.45,0,0,0,.4.38,1.31,1.31,0,0,1,.22,1.7c.21.27.66.13.9-.11s.44-.57.77-.67c.63-.18,1.09.56,1.33,1.16.45,1.1,1,2.18,1.5,3.23a1,1,0,0,0,.42.5.75.75,0,0,0,.9-.49,8.11,8.11,0,0,0,.24-1.11,2.2,2.2,0,0,1,2.6-1.53,2.1,2.1,0,0,0,.6.88.73.73,0,0,0,1,0c.23-.3.15-.85.5-1s.5.08.74.17a1.18,1.18,0,0,0,1.52-1,9.1,9.1,0,0,1,2.55.64,3.09,3.09,0,0,1,1.9,1.79,13.32,13.32,0,0,1,.21,2.19c.11.73.62,1.53,1.36,1.5s1.07-.65,1.26-1.25c.08-.23.15-.49.37-.59a.53.53,0,0,1,.63.23,1.44,1.44,0,0,1,.19.7c.09.76.17,1.52.26,2.28a2.07,2.07,0,0,0,.25,1,5.57,5.57,0,0,0,.5.59,2.18,2.18,0,0,1-.4,2.81,4.25,4.25,0,0,1-2.89,1,3.56,3.56,0,0,0-1.13.11,1,1,0,0,0-.69.82,1,1,0,0,0,.6.83,5.07,5.07,0,0,0,1,.29A4.44,4.44,0,0,1,56,812.64a2.2,2.2,0,0,0,0-1.32A16.72,16.72,0,0,0,62,809.83c.06.29-.19.55-.32.83-.32.72.28,1.53.94,2s1.44.85,1.73,1.59c.47,1.23-.74,2.63-.28,3.86l1.32.19a.63.63,0,0,1,.41.16.65.65,0,0,1,.12.39c0,.43.06.87.1,1.3a7.35,7.35,0,0,0,4.45-1.46,23.87,23.87,0,0,1,3.67-2.4,5.22,5.22,0,0,0,2.42-1.39c-.18-1.07-.37-2.08-.55-3.15a2.84,2.84,0,0,1,0-1.16,5.2,5.2,0,0,1,.85-1.35c.89-1.39.38-3.23.68-4.85.06-.32.25-.7.57-.65a.51.51,0,0,1,.29.17,3.41,3.41,0,0,1,1.07,2,2.56,2.56,0,0,1,1.29-2.32,13.35,13.35,0,0,1,2.58-1.1A11.63,11.63,0,0,0,87.2,800c.31-.29.62-.69.48-1.09-.08-.24-.31-.42-.33-.67s.31-.55.53-.8a1.47,1.47,0,0,0-.26-2.15l2.52-3.57a1.24,1.24,0,0,1,.44-.44c.56-.27,1.1.37,1.65.65a2.91,2.91,0,0,0,2.37-.18c1.37-.53,2.89-1.46,2.92-2.92,0-.21,0-.44.14-.58a.64.64,0,0,1,.36-.14l4-.64a12.49,12.49,0,0,1,3.55-.25,25.24,25.24,0,0,0,3.61.62c1.56,0,3-.91,4.6-.78l.3-1,6.87-4.82-1.07-2.9.36-2.34.92-.21-.07-6.94,1.48-.14.14-.92h2.27l1,.64,2.9,1.13,2.27,1.06,5.59-7.29,5.24-4.6.64,1.06,2.33-2.55,2.62.92.43,2.06,2.55-.08-.71-1.77.92-.84-2.27-4.18,3.47,2.69,1.91-2.34.15-2.33.85-.78-1.14-.92.5-1.56,1.77-.21.14-.71,4.53,1.27.78-.7.21-.92-1-1.49-1.91.07-.28-.85,6-2.19,1.28.7.21-1.34,2,.56,1.35-3.82-1-3.33,1.13,1.42,1.63,2.9a6,6,0,0,0,2.48.29c1.34-.15,2.54-.36,3,.56s-.92,2.06-1.77,3-1.13,3.11.35,3.32,2.55.43,3-.85-.29-2.26.56-3.54,2.2-1.48,3-.56.7,2,2,1.48a5.18,5.18,0,0,1,2.55-.49c.56.07.85,1.27,2.26,1.06a8.18,8.18,0,0,0,3.9-1.77c1-.85,1.91-1.91,1.84-.07s.42,4.11,1.48,4.67,2.91,1.21,2.06,2.13-2.06,2.83-1,4.81,1.62,3.61,1.06,5.59-1.28,2.55-1.28,3.4-.42,1.2-1.41.71-.64-.92-1.84-.5a4.55,4.55,0,0,0-2,1.63l1.77,1.56,3.69.85c.45,0,.67.91.77,1.35s.34,1,.79,1c.06-.34.51-.46.83-.34a5.6,5.6,0,0,1,.86.54,3.32,3.32,0,0,0,2.07.15,1.18,1.18,0,0,0,.52-.17c.24-.19.38-.61.68-.56s.33.43.41.71a1.45,1.45,0,0,0,1,.85,12.58,12.58,0,0,0,1.37.21.46.46,0,0,1,.38.22,1.13,1.13,0,0,1,0,.18c.05.31.41.45.72.45a4.62,4.62,0,0,1,.91,0,1,1,0,0,1,.72,1.17c.35-.39,1-.15,1.41.19s.83.78,1.36.72,1-.83,1.63-.85.93.57,1,1.12a15.15,15.15,0,0,1-.14,1.63,2.79,2.79,0,0,0,.76,2,1.15,1.15,0,0,1,.37.56.85.85,0,0,1-.13.48,5.61,5.61,0,0,0-.56,1.09.92.92,0,0,0,.4,1.07,3.13,3.13,0,0,0,.82.07c.27,0,.57.28.47.54a.69.69,0,0,1-.24.24l-1.88,1.28c-.34.23,0,.84.27,1.11a8,8,0,0,0,1.06.62,3.36,3.36,0,0,1,1.44,2.14,6.31,6.31,0,0,1,0,2.63,1.45,1.45,0,0,0,.08,1.16c.13.18.35.29.46.49.25.46-.25,1-.14,1.53.06.31.34.6.23.9a.93.93,0,0,1-.25.32,2,2,0,0,0-.53,1.32c0,.2,0,.44-.13.57s-.26.09-.39.15c-.36.17-.35.66-.36,1.06,0,1.86-1.46,3.35-2.68,4.76a2.16,2.16,0,0,0-.64,1.18c-.08.9.92,1.73.62,2.59a3.12,3.12,0,0,0-.28.69c0,.48.47.8.91,1l3.76,1.65a3.2,3.2,0,0,0,.1-1.11,4.8,4.8,0,0,1,1.63.78,1.78,1.78,0,0,0,1.73.2l.18,1.47,6.86,2.4.07-2.83,2.83.07.07,2,3.54,2.12.85-1.06,6.87,3.47,1.27-1.42L245,815l1.06.57,1.2.7.21,1.49.22,1-.5,1.42,2.34.71,2.62,3.18-1.49,2.48-2.2-1.13-2.61.7-.43,4.46-1.2,1.92.92,4.39c.62,1.1,1.4,2.44,2.6,2.86,1.65.57,3.64-.41,5.13.48a7.5,7.5,0,0,1,.9.7c.38.29.8.52,1.17.82a4,4,0,0,1,1.43,3.54.83.83,0,0,0,.09.68.75.75,0,0,0,.31.18c.63.22,1.5.33,1.78-.27a2.09,2.09,0,0,0,0-.9,1.29,1.29,0,0,1,.82-1.35,1.84,1.84,0,0,1,.62,0,18,18,0,0,0,4.52-.09,3.3,3.3,0,0,1,1.29,0,2.36,2.36,0,0,1,.74.38,3.85,3.85,0,0,1,1.28,1.35,1.94,1.94,0,0,1,.05,1.81c-.31.58-1,.91-1.26,1.5a2.59,2.59,0,0,0-.17,1.3,9.12,9.12,0,0,0,1,3.56,2.73,2.73,0,0,0,1.16,1.3c.79.37,1.72,0,2.59.1a3,3,0,0,1,2.68,2.89,6.21,6.21,0,0,0,1,3.58,23.79,23.79,0,0,0,2.51,2.51c1.57,1.56,2.88,3.6,5,4.26a10.12,10.12,0,0,0,3.88.1.84.84,0,0,1,.5.05.65.65,0,0,1,.28.39c.44,1.22-.35,2.82.54,3.76.46.5,1.21.58,1.82.89" transform="translate(182.77)"/><path class="cls-4" d="M553.39,735.42c.73.4,1.61-.31,1.92-1.08a13.62,13.62,0,0,1,.75-2.37,2.34,2.34,0,0,1,3.47-.4,5.66,5.66,0,0,1,6.63-3.18,2,2,0,0,1,2-1.82,5.75,5.75,0,0,1,2.82.87l2.24,1.16a2.42,2.42,0,0,1,1.07.84.85.85,0,0,1-.26,1.19,15.06,15.06,0,0,1,2,3.84l.48-1.09a4.7,4.7,0,0,0,3.47.33,2.28,2.28,0,0,1,1.55-.16c.88.41,1.2,2.14,2.08,1.72a4.16,4.16,0,0,0,2,3.66c1.19.85,2.6,1.34,3.86,2.07s2.76,1.58,3.75.63.12-2.66.42-4c.64-2.79,5.35-2.28,6.74-4.78a8,8,0,0,1,.73-1.43c.73-.86,2.38-1.09,2.35-2.22,0-.35-.21-.67-.22-1,0-1,1.23-1.45,1.64-2.34a7.49,7.49,0,0,0,.27-1.64c.6-3,5.61-2.66,7-5.37a6.18,6.18,0,0,0,.38-3.2,16.73,16.73,0,0,1,.45-5.38,10,10,0,0,1,3.25-4.92c.49-.4,1.07-.85,1.09-1.48,0-1.16-1.81-1.71-1.76-2.87,0-.73.8-1.18,1.46-1.48l5.64-2.55c2.14-1,4.55-2.26,5-4.57.3-1.48-.3-3.12.36-4.48a6,6,0,0,0,.71-1.44c.09-.53-.36-1.2-.87-1a6.55,6.55,0,0,0,1.88-2.73c1-2.69,3.75-4.3,5.57-6.51a1.51,1.51,0,0,0,.47-1c0-.48-.48-.81-.68-1.25a2,2,0,0,1,0-1.44c.76-2.52,2.84-4.54,3.33-7.14a22.37,22.37,0,0,1,.44-2.84,7.88,7.88,0,0,1,2.94-3.42A17.45,17.45,0,0,1,645,657a.88.88,0,0,1,.68-.12c.2.07.33.28.52.38.61.32,1.41-.57,2-.19s.25,1.23.76,1.51a1.06,1.06,0,0,0,.95-.14,25.85,25.85,0,0,1,4.65-1.76,1.58,1.58,0,0,1,1.05,0,2.14,2.14,0,0,1,.71.78,3.43,3.43,0,0,0,3.18,1.34c-.26-.58.48-1.18,1.12-1.17s1.25.33,1.9.33a19.39,19.39,0,0,0,2.18-.56c2.08-.28,3.81,2.17,5.89,1.9l-.58.34" transform="translate(182.77)"/><text class="cls-5" transform="translate(297.75 850.31)">CHIAPAS</text><text class="cls-5" transform="translate(222.45 732.48)">TABASCO</text><text class="cls-5" transform="translate(591.15 574.61)">CAMPECHE</text><text class="cls-5" transform="translate(794.85 283.29)">YUCATÁN</text><text class="cls-5" transform="translate(778.95 481.3)">QUINTANA<tspan x="0" y="22.59">ROO</tspan></text><polyline class="cls-6" points="827.18 651.84 822.47 654.73 817.57 654.73 813.13 656.74 801.37 658.63 792.57 658.22 790.08 658.63 764.64 663.5 708.54 655.28 701.95 650.85 687.8 651.81 682.05 650.01 667.66 650.97 662.02 652.53 652.79 652.77 649.56 652.17 643.32 651.57 640.57 650.01 636.85 650.01 623.42 649.05 615.75 642.82 612.87 642.22 600.76 634.42 587.34 633.7 579.78 632.98 570.19 635.98 560.84 647.01 521.31 643.45"/><path class="cls-7" d="M564.42,305.76l1.81,3.73,3.73,4.15,4.79,1.17,1.51,3.58,3.39,8,67,11.72,10.55-1.28L671,333.78a34.67,34.67,0,0,1,5.75-.53c3,0,7.46.64,10,.32s21-5,21-5l24.94-7.78,20.24-6.39L766.14,313l19.6-3.19,3.63-.11,22.7-8.53,3.3-1.06,2-.64,31-17.58,9.27,7.14,1.39,3.83,4.38.88" transform="translate(182.77)"/><path class="cls-8" d="M430.4,384.28c1.26-4.62,3.38-11.17,4.33-13.52,1.39-3.41,6.93-16.73,6.93-16.73l6.07-4.37,11.4-13.21,3.09-8.64,4.27-10.23,9.16.86,3.2-2.56,14.7-2.24,3.63-3.51a33.52,33.52,0,0,0,4.15-.64,9.28,9.28,0,0,0,4.16-5c.64-2.35-.11-5.33,1.7-5.65a64.64,64.64,0,0,1,8,0L519,298h9.48l35.92,7.78" transform="translate(182.77)"/><path class="cls-9" d="M339.78,640.57l1.92-3.19v-3.31l3.84-9.27.42-3.62,3.84-5.12L354,602.64v-2.35l10.44-20.24,1.39-3.2,1.17-5.33,5-3,2.87-7.89.43-4.58v-2.56l1.38-1.81.54-4.69-2.77-8.31,1.38-4.05.22-3.2,3.19-3.3,2.35-3.09,2.34-.21a3.52,3.52,0,0,0,4.37,0c2.45-1.71,2.66-5,2.34-8.21s-1.06-11.19-1.7-14.7-1.17-6.72-1.17-6.72l-1-2.87-6.29-4-2.88.43s-2.66-4.05-2.13-5.54,3.2-3.2,2-4.58-1.71-2.56-2.77-3.09a4.32,4.32,0,0,1-2-4.59c.43-2.34,4.9-12.14,4.9-12.14l-1.06-3.2,13.74-8.1,6.61-5.86L408.2,435l8.1-16.73,4.47-2.67s9.06-18.86,9.27-20.35-.74-4.16-.64-6.5a29.57,29.57,0,0,1,1-4.49" transform="translate(182.77)"/><path class="cls-10" d="M169.45,792.07l6.27-2.75,3.53,1.37h7.85l5.68,1.38,5.69,1.56H202l2.94,1.77,4.09,6.93,6.93,1.81,3.84,1,2.34-1.17,11.51,2.35,3.84,1.91,3-1.7.64-1.71,4.47-1.49,12-11,5.75-3.63,4.16-12.78,8.95-6.08,1.17-3,6-6.18v-1.49l-1.71-1.92L279,744.79l2.14-9.06,1.38-1.06s7.25-18.55,7.25-18.87v-3.62l6.5-10,.53-1.5,7-1.49S317,685.86,317,685.54s.75-3.62.75-3.62l12.68-15.24,7.67-20.14v-3.09l1.7-2.88" transform="translate(182.77)"/><polyline class="cls-11" points="947.2 416.69 937.72 432.78 922.8 443.22 912.57 454.41 912.57 458.88 905.75 475.08 890.51 494.69 882.84 497.99 881.88 500.76 886.57 506.84 888.7 517.71 879.32 544.24 876.98 586.55 873.36 590.06 868.35 590.81 840.43 625.55 838.72 626.4 836.91 630.24 836.91 632.9 829.99 645.58 828.6 647.29 828.6 650.59 830.09 651.23 837.44 652.29 844.16 655.07 845.54 653.68 848.42 654.32"/><polyline class="cls-11" points="972.78 403.47 965.64 405.07 958.61 408.38 955.94 410.72 952.42 412.32 947.2 416.69"/><path class="cls-12" d="M864.17,295.31s-.85,10.77-2.45,14.6-9.48,15.45-9.48,15.45l-4.9,8-3,1.91-12.78,17.05-6.82,5.12-3.52,3-3.84,4.9-6.71,5.33s-5.86,6.72-7.78,10.23-10,17.9-10,17.9L790,404.84" transform="translate(182.77)"/><path class="cls-13" d="M255.9,801.85a7.49,7.49,0,1,1-7.49-7.49,7.49,7.49,0,0,1,7.49,7.49" transform="translate(182.77)"/><circle class="cls-14" cx="431.18" cy="801.85" r="7.49"/><path class="cls-13" d="M286.68,740a7.49,7.49,0,1,1-7.48-7.49,7.49,7.49,0,0,1,7.48,7.49" transform="translate(182.77)"/><path class="cls-14" d="M286.68,740a7.49,7.49,0,1,1-7.48-7.49A7.49,7.49,0,0,1,286.68,740Z" transform="translate(182.77)"/><path class="cls-13" d="M305.51,701.56a7.49,7.49,0,1,1-7.49-7.48,7.49,7.49,0,0,1,7.49,7.48" transform="translate(182.77)"/><circle class="cls-14" cx="480.79" cy="701.56" r="7.49"/><path class="cls-13" d="M345.56,643.39a7.49,7.49,0,1,1-7.49-7.49,7.49,7.49,0,0,1,7.49,7.49" transform="translate(182.77)"/><circle class="cls-14" cx="520.84" cy="643.39" r="7.49"/><path class="cls-13" d="M375.58,572.12a7.49,7.49,0,1,1-7.49-7.49,7.49,7.49,0,0,1,7.49,7.49" transform="translate(182.77)"/><circle class="cls-15" cx="368.09" cy="572.12" r="7.49" transform="translate(-90.52 798.92) rotate(-76.72)"/><path class="cls-13" d="M396.64,501.15a7.49,7.49,0,1,1-7.49-7.48,7.49,7.49,0,0,1,7.49,7.48" transform="translate(182.77)"/><path class="cls-15" d="M396.64,501.15a7.49,7.49,0,1,1-7.49-7.48A7.49,7.49,0,0,1,396.64,501.15Z" transform="translate(182.77)"/><path class="cls-13" d="M382.11,465.89a7.49,7.49,0,1,1-7.49-7.49,7.49,7.49,0,0,1,7.49,7.49" transform="translate(182.77)"/><path class="cls-15" d="M382.11,465.89a7.49,7.49,0,1,1-7.49-7.49A7.49,7.49,0,0,1,382.11,465.89Z" transform="translate(182.77)"/><path class="cls-13" d="M415.41,434.46a7.49,7.49,0,1,1-7.49-7.49,7.49,7.49,0,0,1,7.49,7.49" transform="translate(182.77)"/><path class="cls-15" d="M415.41,434.46a7.49,7.49,0,1,1-7.49-7.49A7.49,7.49,0,0,1,415.41,434.46Z" transform="translate(182.77)"/><path class="cls-13" d="M426.72,415.68a7.49,7.49,0,1,1-7.49-7.48,7.49,7.49,0,0,1,7.49,7.48" transform="translate(182.77)"/><circle class="cls-15" cx="419.23" cy="415.68" r="7.49" transform="matrix(0.23, -0.97, 0.97, 0.23, 101.12, 728.19)"/><path class="cls-13" d="M437.89,385a7.49,7.49,0,1,1-7.49-7.49,7.5,7.5,0,0,1,7.49,7.49" transform="translate(182.77)"/><path class="cls-16" d="M437.89,385a7.49,7.49,0,1,1-7.49-7.49A7.5,7.5,0,0,1,437.89,385Z" transform="translate(182.77)"/><path class="cls-13" d="M451.24,353.33a7.49,7.49,0,1,1-7.49-7.49,7.5,7.5,0,0,1,7.49,7.49" transform="translate(182.77)"/><circle class="cls-16" cx="443.75" cy="353.33" r="7.49" transform="translate(180.69 704.03) rotate(-76.72)"/><path class="cls-13" d="M473.85,320.32a7.49,7.49,0,1,1-7.49-7.49,7.49,7.49,0,0,1,7.49,7.49" transform="translate(182.77)"/><path class="cls-16" d="M473.85,320.32a7.49,7.49,0,1,1-7.49-7.49A7.49,7.49,0,0,1,473.85,320.32Z" transform="translate(182.77)"/><path class="cls-13" d="M511,306.2a7.49,7.49,0,1,1-7.49-7.49A7.49,7.49,0,0,1,511,306.2" transform="translate(182.77)"/><path class="cls-16" d="M511,306.2a7.49,7.49,0,1,1-7.49-7.49A7.49,7.49,0,0,1,511,306.2Z" transform="translate(182.77)"/><path class="cls-13" d="M528.88,298a7.49,7.49,0,1,1-7.49-7.49,7.49,7.49,0,0,1,7.49,7.49" transform="translate(182.77)"/><circle class="cls-16" cx="521.39" cy="297.98" r="7.49" transform="translate(344.71 779.05) rotate(-82.98)"/><path class="cls-13" d="M570.39,305.47A7.49,7.49,0,1,1,562.9,298a7.48,7.48,0,0,1,7.49,7.49" transform="translate(182.77)"/><circle class="cls-16" cx="562.9" cy="305.47" r="7.49" transform="translate(373.72 826.83) rotate(-82.98)"/><path class="cls-13" d="M643.7,336.32a7.49,7.49,0,1,1-7.49-7.49,7.49,7.49,0,0,1,7.49,7.49" transform="translate(182.77)"/><path class="cls-17" d="M643.7,336.32a7.49,7.49,0,1,1-7.49-7.49A7.49,7.49,0,0,1,643.7,336.32Z" transform="translate(182.77)"/><path class="cls-13" d="M690.62,333.73a7.49,7.49,0,1,1-7.49-7.48,7.49,7.49,0,0,1,7.49,7.48" transform="translate(182.77)"/><circle class="cls-17" cx="683.13" cy="333.73" r="7.49" transform="translate(451.2 970.97) rotate(-82.98)"/><path class="cls-13" d="M771.62,313a7.49,7.49,0,1,1-7.49-7.49,7.49,7.49,0,0,1,7.49,7.49" transform="translate(182.77)"/><path class="cls-17" d="M771.62,313a7.49,7.49,0,1,1-7.49-7.49A7.49,7.49,0,0,1,771.62,313Z" transform="translate(182.77)"/><path class="cls-13" d="M823.53,299.43a7.49,7.49,0,1,1-7.49-7.49,7.49,7.49,0,0,1,7.49,7.49" transform="translate(182.77)"/><path class="cls-17" d="M823.53,299.43a7.49,7.49,0,1,1-7.49-7.49A7.49,7.49,0,0,1,823.53,299.43Z" transform="translate(182.77)"/><path class="cls-13" d="M870.51,291.94a7.49,7.49,0,1,1-7.49-7.49,7.49,7.49,0,0,1,7.49,7.49" transform="translate(182.77)"/><path class="cls-17" d="M870.51,291.94a7.49,7.49,0,1,1-7.49-7.49A7.49,7.49,0,0,1,870.51,291.94Z" transform="translate(182.77)"/><path class="cls-13" d="M863.63,318.72a7.49,7.49,0,1,1-7.49-7.49,7.5,7.5,0,0,1,7.49,7.49" transform="translate(182.77)"/><circle class="cls-18" cx="856.14" cy="318.72" r="7.49" transform="translate(150.24 106.99) rotate(-7.02)"/><path class="cls-13" d="M842.36,348.71a7.49,7.49,0,1,1-7.49-7.49,7.49,7.49,0,0,1,7.49,7.49" transform="translate(182.77)"/><circle class="cls-18" cx="834.87" cy="348.71" r="7.49" transform="translate(119.98 235.51) rotate(-15.48)"/><path class="cls-13" d="M797.5,404.25a7.49,7.49,0,1,1-7.49-7.49,7.49,7.49,0,0,1,7.49,7.49" transform="translate(182.77)"/><path class="cls-18" d="M797.5,404.25a7.49,7.49,0,1,1-7.49-7.49A7.49,7.49,0,0,1,797.5,404.25Z" transform="translate(182.77)"/><path class="cls-13" d="M770.13,419.23a7.49,7.49,0,1,1-7.49-7.49,7.49,7.49,0,0,1,7.49,7.49" transform="translate(182.77)"/><path class="cls-19" d="M770.13,419.23a7.49,7.49,0,1,1-7.49-7.49A7.49,7.49,0,0,1,770.13,419.23Z" transform="translate(182.77)"/><path class="cls-13" d="M710.74,500.89a7.49,7.49,0,1,1-7.49-7.48,7.49,7.49,0,0,1,7.49,7.48" transform="translate(182.77)"/><path class="cls-19" d="M710.74,500.89a7.49,7.49,0,1,1-7.49-7.48A7.49,7.49,0,0,1,710.74,500.89Z" transform="translate(182.77)"/><path class="cls-13" d="M701.56,580.66a7.49,7.49,0,1,1-7.49-7.49,7.49,7.49,0,0,1,7.49,7.49" transform="translate(182.77)"/><path class="cls-19" d="M701.56,580.66a7.49,7.49,0,1,1-7.49-7.49A7.49,7.49,0,0,1,701.56,580.66Z" transform="translate(182.77)"/><path class="cls-13" d="M664,627.93a7.49,7.49,0,1,1-7.49-7.49,7.49,7.49,0,0,1,7.49,7.49" transform="translate(182.77)"/><path class="cls-19" d="M664,627.93a7.49,7.49,0,1,1-7.49-7.49A7.49,7.49,0,0,1,664,627.93Z" transform="translate(182.77)"/><path class="cls-13" d="M589.36,663.5a7.49,7.49,0,1,1-7.49-7.49,7.49,7.49,0,0,1,7.49,7.49" transform="translate(182.77)"/><path class="cls-20" d="M589.36,663.5a7.49,7.49,0,1,1-7.49-7.49A7.49,7.49,0,0,1,589.36,663.5Z" transform="translate(182.77)"/><path class="cls-13" d="M527.77,653.38a7.49,7.49,0,1,1-7.49-7.49,7.48,7.48,0,0,1,7.49,7.49" transform="translate(182.77)"/><path class="cls-20" d="M527.77,653.38a7.49,7.49,0,1,1-7.49-7.49A7.48,7.48,0,0,1,527.77,653.38Z" transform="translate(182.77)"/><path class="cls-13" d="M458.33,649a7.49,7.49,0,1,1-7.49-7.49,7.49,7.49,0,0,1,7.49,7.49" transform="translate(182.77)"/><path class="cls-20" d="M458.33,649a7.49,7.49,0,1,1-7.49-7.49A7.49,7.49,0,0,1,458.33,649Z" transform="translate(182.77)"/><path class="cls-13" d="M406.43,633.87a7.49,7.49,0,1,1-7.49-7.49,7.49,7.49,0,0,1,7.49,7.49" transform="translate(182.77)"/><circle class="cls-20" cx="581.71" cy="633.87" r="7.49"/><path class="cls-13" d="M675.9,651.61a7.49,7.49,0,1,1-7.49-7.49,7.49,7.49,0,0,1,7.49,7.49" transform="translate(182.77)"/><circle class="cls-19" cx="851.18" cy="651.61" r="7.49"/><path class="cls-13" d="M240.92,806.84a7.49,7.49,0,1,1-7.49-7.48,7.49,7.49,0,0,1,7.49,7.48" transform="translate(182.77)"/><path class="cls-14" d="M240.92,806.84a7.49,7.49,0,1,1-7.49-7.48A7.49,7.49,0,0,1,240.92,806.84Z" transform="translate(182.77)"/><path class="cls-13" d="M174.93,792.73a7.49,7.49,0,1,1-7.49-7.49,7.49,7.49,0,0,1,7.49,7.49" transform="translate(182.77)"/><path class="cls-14" d="M174.93,792.73a7.49,7.49,0,1,1-7.49-7.49A7.49,7.49,0,0,1,174.93,792.73Z" transform="translate(182.77)"/></g></g><g id="Layer_137" data-name="Layer 137"><rect class="cls-1" x="182.77" width="1043.82" height="873.2"/></g></g></svg>