<svg xmlns="http://www.w3.org/2000/svg" xmlns:xlink="http://www.w3.org/1999/xlink" viewBox="0 0 2160 166.54"><defs><style>.cls-1{fill:none;}.cls-2{clip-path:url(#clip-path);}.cls-3{fill:#68ccb2;}.cls-4{fill:#00524c;}</style><clipPath id="clip-path" transform="translate(-15.83 -1.17)"><rect class="cls-1" width="2191.67" height="169.71"/></clipPath></defs><g id="Layer_2" data-name="Layer 2"><g id="Pantalla_1" data-name="Pantalla 1"><g class="cls-2"><path class="cls-3" d="M85.55,46a14.9,14.9,0,0,1-2.41,3.48,12.48,12.48,0,0,1-3.29,2.27c-4.56,2.81-2.34,7.72.92,11s7.18,4.68,10.9.92L97.37,58c3.71-3.75,2.52-7.9-.74-11.19S88.69,41.47,85.55,46" transform="translate(-15.83 -1.17)"/><path class="cls-3" d="M79.77,31.94c-2.82-2.84-6.86-4.57-9.56-.64a13.21,13.21,0,0,1-2.08,3,10.84,10.84,0,0,1-2.83,2c-3.94,2.42-2,6.65.78,9.5s6.2,4.05,9.41.8l4.91-5c3.21-3.24,2.17-6.82-.63-9.66" transform="translate(-15.83 -1.17)"/><path class="cls-3" d="M53,14.85a10.26,10.26,0,0,1-1.68,2.42A8.58,8.58,0,0,1,49,18.86c-3.17,1.95-1.63,5.37.64,7.66s5,3.26,7.59.64l4-4c2.58-2.61,1.76-5.5-.52-7.79s-5.53-3.69-7.71-.52" transform="translate(-15.83 -1.17)"/><path class="cls-3" d="M44.63,13.37l3-3c1.94-2,1.32-4.14-.39-5.86h0c-1.71-1.72-4.16-2.78-5.8-.38a8.15,8.15,0,0,1-1.27,1.82,6.47,6.47,0,0,1-1.72,1.19c-2.39,1.47-1.22,4,.49,5.77s3.76,2.45,5.71.48" transform="translate(-15.83 -1.17)"/><path class="cls-3" d="M131.38,46a14.9,14.9,0,0,0,2.41,3.48,12.31,12.31,0,0,0,3.29,2.27c4.55,2.81,2.34,7.72-.92,11s-7.19,4.68-10.9.92L119.56,58c-3.71-3.75-2.53-7.9.73-11.19s8-5.31,11.09-.75" transform="translate(-15.83 -1.17)"/><path class="cls-3" d="M137.17,31.94c2.8-2.84,6.84-4.57,9.55-.64a13.21,13.21,0,0,0,2.08,3,10.84,10.84,0,0,0,2.83,2c3.94,2.42,2,6.65-.78,9.5s-6.2,4.05-9.41.8l-4.91-5c-3.21-3.24-2.18-6.82.64-9.66" transform="translate(-15.83 -1.17)"/><path class="cls-3" d="M163.92,14.85a10.26,10.26,0,0,0,1.68,2.42,8.58,8.58,0,0,0,2.29,1.59c3.17,1.95,1.63,5.37-.64,7.66s-5,3.26-7.59.64l-4-4c-2.58-2.61-1.76-5.5.52-7.79s5.53-3.69,7.71-.52" transform="translate(-15.83 -1.17)"/><path class="cls-3" d="M172.3,13.37l-3-3c-1.94-2-1.31-4.14.39-5.86h0c1.71-1.72,4.17-2.78,5.81-.38a7.78,7.78,0,0,0,1.27,1.82,6.47,6.47,0,0,0,1.72,1.19c2.38,1.47,1.23,4-.48,5.77s-3.78,2.45-5.72.48" transform="translate(-15.83 -1.17)"/><path class="cls-3" d="M247.14,46a15.06,15.06,0,0,1-2.4,3.48,12.48,12.48,0,0,1-3.29,2.27c-4.56,2.81-2.34,7.72.92,11s7.18,4.68,10.89.92L259,58c3.72-3.75,2.53-7.9-.73-11.19s-8-5.31-11.09-.75" transform="translate(-15.83 -1.17)"/><path class="cls-3" d="M241.36,31.94c-2.81-2.84-6.85-4.57-9.56-.64a13.21,13.21,0,0,1-2.08,3,10.84,10.84,0,0,1-2.83,2c-3.93,2.42-2,6.65.79,9.5s6.2,4.05,9.4.8l4.92-5c3.2-3.24,2.17-6.82-.64-9.66" transform="translate(-15.83 -1.17)"/><path class="cls-3" d="M214.61,14.85a10.62,10.62,0,0,1-1.68,2.42,8.75,8.75,0,0,1-2.29,1.59c-3.18,1.95-1.63,5.37.64,7.66s5,3.26,7.58.64l4-4c2.59-2.61,1.76-5.5-.51-7.79s-5.53-3.69-7.71-.52" transform="translate(-15.83 -1.17)"/><path class="cls-3" d="M206.22,13.37l3-3c1.94-2,1.32-4.14-.39-5.86h0c-1.71-1.72-4.16-2.78-5.81-.38a7.78,7.78,0,0,1-1.27,1.82A6.47,6.47,0,0,1,200,7.12c-2.38,1.47-1.22,4,.49,5.77s3.77,2.45,5.71.48" transform="translate(-15.83 -1.17)"/><path class="cls-3" d="M293,46a14.7,14.7,0,0,0,2.4,3.48,12.48,12.48,0,0,0,3.29,2.27c4.56,2.81,2.34,7.72-.92,11s-7.18,4.68-10.89.92L281.16,58c-3.72-3.75-2.53-7.9.73-11.19S289.84,41.47,293,46" transform="translate(-15.83 -1.17)"/><path class="cls-3" d="M298.76,31.94c2.81-2.84,6.85-4.57,9.56-.64a13.21,13.21,0,0,0,2.08,3,10.84,10.84,0,0,0,2.83,2c3.93,2.42,2,6.65-.79,9.5s-6.2,4.05-9.4.8l-4.92-5c-3.2-3.24-2.17-6.82.64-9.66" transform="translate(-15.83 -1.17)"/><path class="cls-3" d="M325.51,14.85a10.62,10.62,0,0,0,1.68,2.42,8.58,8.58,0,0,0,2.29,1.59c3.17,1.95,1.63,5.37-.64,7.66s-5,3.26-7.58.64l-4-4c-2.59-2.61-1.76-5.5.51-7.79s5.53-3.69,7.71-.52" transform="translate(-15.83 -1.17)"/><path class="cls-3" d="M333.9,13.37l-3-3c-1.94-2-1.32-4.14.39-5.86h0c1.71-1.72,4.16-2.78,5.8-.38a8.15,8.15,0,0,0,1.27,1.82,6.44,6.44,0,0,0,1.73,1.19c2.38,1.47,1.22,4-.5,5.77s-3.76,2.45-5.7.48" transform="translate(-15.83 -1.17)"/><path class="cls-3" d="M97.86,23.3a2,2,0,0,0,0-2.77L79.36,1.77A1.94,1.94,0,1,0,76.59,4.5l18.5,18.77a2,2,0,0,0,2.77,0" transform="translate(-15.83 -1.17)"/><path class="cls-3" d="M123.73,23.3a2,2,0,0,1,0-2.77L142.24,1.77A1.94,1.94,0,1,1,145,4.5L126.5,23.27a2,2,0,0,1-2.77,0" transform="translate(-15.83 -1.17)"/><path class="cls-3" d="M258.3,23.3a2,2,0,0,0,0-2.77L239.79,1.77A1.94,1.94,0,1,0,237,4.5l18.5,18.77a2,2,0,0,0,2.77,0" transform="translate(-15.83 -1.17)"/><path class="cls-3" d="M285.5,23.3a2,2,0,0,1,0-2.77L304,1.77a1.94,1.94,0,1,1,2.77,2.73L288.27,23.27a2,2,0,0,1-2.77,0" transform="translate(-15.83 -1.17)"/><path class="cls-3" d="M309,76.76A2,2,0,0,1,309,74l50.31-50.58a2,2,0,1,1,2.78,2.74L311.81,76.73a2,2,0,0,1-2.77,0" transform="translate(-15.83 -1.17)"/><path class="cls-3" d="M199.84,47.54a2,2,0,0,0,0,2.77l18.51,18.77a1.95,1.95,0,1,0,2.77-2.74L202.61,47.57a2,2,0,0,0-2.77,0" transform="translate(-15.83 -1.17)"/><path class="cls-3" d="M177.1,47.54a2,2,0,0,1,0,2.77L158.59,69.08a1.95,1.95,0,1,1-2.77-2.74l18.51-18.77a2,2,0,0,1,2.77,0" transform="translate(-15.83 -1.17)"/><path class="cls-3" d="M69.49,76.76a2,2,0,0,0,0-2.76L19.18,23.42a1.95,1.95,0,1,0-2.77,2.74L66.72,76.73a2,2,0,0,0,2.77,0" transform="translate(-15.83 -1.17)"/><path class="cls-4" d="M263.69,36.48V41a5.45,5.45,0,0,0,5.41,5.48H271A5.47,5.47,0,0,0,276.44,41V36.48A5.46,5.46,0,0,0,271,31H269.1a5.45,5.45,0,0,0-5.41,5.47m2.71,0a2.72,2.72,0,0,1,2.7-2.72H271a2.71,2.71,0,0,1,2.7,2.72V41a2.72,2.72,0,0,1-2.7,2.73H269.1A2.73,2.73,0,0,1,266.4,41Z" transform="translate(-15.83 -1.17)"/><path class="cls-4" d="M102.09,36.48V41a5.46,5.46,0,0,0,5.42,5.48h1.91A5.46,5.46,0,0,0,114.84,41V36.48A5.45,5.45,0,0,0,109.42,31h-1.91a5.45,5.45,0,0,0-5.42,5.47m2.72,0a2.71,2.71,0,0,1,2.7-2.72h1.91a2.71,2.71,0,0,1,2.7,2.72V41a2.72,2.72,0,0,1-2.7,2.73h-1.91a2.72,2.72,0,0,1-2.7-2.73Z" transform="translate(-15.83 -1.17)"/><path class="cls-3" d="M177.68,28.59V35a7.69,7.69,0,0,0,7.64,7.72H188A7.7,7.7,0,0,0,195.67,35V28.59A7.69,7.69,0,0,0,188,20.87h-2.7a7.68,7.68,0,0,0-7.64,7.72m3-.47a4.42,4.42,0,0,1,4.39-4.43h3.11a4.4,4.4,0,0,1,4.37,4.43v7.35a4.41,4.41,0,0,1-4.37,4.43h-3.11a4.42,4.42,0,0,1-4.39-4.43Z" transform="translate(-15.83 -1.17)"/><path class="cls-3" d="M293,122.85a14.74,14.74,0,0,1,2.4-3.47,12.37,12.37,0,0,1,3.29-2.28c4.56-2.8,2.34-7.71-.92-11s-7.18-4.68-10.89-.92l-5.7,5.74c-3.72,3.76-2.53,7.9.73,11.2s7.95,5.31,11.09.74" transform="translate(-15.83 -1.17)"/><path class="cls-3" d="M298.76,137c2.81,2.84,6.85,4.58,9.56.64a13.21,13.21,0,0,1,2.08-3,11,11,0,0,1,2.83-2c3.93-2.41,2-6.65-.79-9.49s-6.2-4-9.4-.8l-4.92,5c-3.2,3.23-2.17,6.81.64,9.66" transform="translate(-15.83 -1.17)"/><path class="cls-3" d="M325.51,154a11.11,11.11,0,0,1,1.68-2.42,8.69,8.69,0,0,1,2.29-1.58c3.17-1.95,1.63-5.37-.64-7.66s-5-3.26-7.58-.65l-4,4c-2.59,2.61-1.76,5.5.51,7.8s5.53,3.69,7.71.51" transform="translate(-15.83 -1.17)"/><path class="cls-3" d="M333.9,155.52l-3,3c-1.94,2-1.32,4.13.39,5.86s4.16,2.79,5.8.39a8.39,8.39,0,0,1,1.27-1.82,6.44,6.44,0,0,1,1.73-1.19c2.38-1.47,1.22-4-.5-5.77s-3.76-2.45-5.7-.48" transform="translate(-15.83 -1.17)"/><path class="cls-3" d="M247.14,122.85a15.1,15.1,0,0,0-2.4-3.47,12.37,12.37,0,0,0-3.29-2.28c-4.56-2.8-2.34-7.71.92-11s7.18-4.68,10.89-.92l5.7,5.74c3.72,3.76,2.53,7.9-.73,11.2s-8,5.31-11.09.74" transform="translate(-15.83 -1.17)"/><path class="cls-3" d="M241.36,137c-2.81,2.84-6.85,4.58-9.56.64a13.21,13.21,0,0,0-2.08-3,11,11,0,0,0-2.83-2c-3.93-2.41-2-6.65.79-9.49s6.2-4,9.4-.8l4.92,5c3.2,3.23,2.17,6.81-.64,9.66" transform="translate(-15.83 -1.17)"/><path class="cls-3" d="M214.61,154a11.11,11.11,0,0,0-1.68-2.42,8.87,8.87,0,0,0-2.29-1.58c-3.18-1.95-1.63-5.37.64-7.66s5-3.26,7.58-.65l4,4c2.59,2.61,1.76,5.5-.51,7.8s-5.53,3.69-7.71.51" transform="translate(-15.83 -1.17)"/><path class="cls-3" d="M206.22,155.52l3,3c1.94,2,1.32,4.13-.39,5.86s-4.16,2.79-5.81.39a8,8,0,0,0-1.27-1.82,6.47,6.47,0,0,0-1.72-1.19c-2.38-1.47-1.22-4,.49-5.77s3.77-2.45,5.71-.48" transform="translate(-15.83 -1.17)"/><path class="cls-3" d="M131.38,122.85a15,15,0,0,1,2.41-3.47,12.2,12.2,0,0,1,3.29-2.28c4.55-2.8,2.34-7.71-.92-11s-7.19-4.68-10.9-.92l-5.7,5.74c-3.71,3.76-2.53,7.9.73,11.2s8,5.31,11.09.74" transform="translate(-15.83 -1.17)"/><path class="cls-3" d="M137.17,137c2.8,2.84,6.84,4.58,9.55.64a13.21,13.21,0,0,1,2.08-3,11,11,0,0,1,2.83-2c3.94-2.41,2-6.65-.78-9.49s-6.2-4-9.41-.8l-4.91,5c-3.21,3.23-2.18,6.81.64,9.66" transform="translate(-15.83 -1.17)"/><path class="cls-3" d="M163.92,154a10.71,10.71,0,0,1,1.68-2.42,8.69,8.69,0,0,1,2.29-1.58c3.17-1.95,1.63-5.37-.64-7.66s-5-3.26-7.59-.65l-4,4c-2.58,2.61-1.76,5.5.52,7.8s5.53,3.69,7.71.51" transform="translate(-15.83 -1.17)"/><path class="cls-3" d="M172.3,155.52l-3,3c-1.94,2-1.31,4.13.39,5.86s4.17,2.79,5.81.39a8,8,0,0,1,1.27-1.82,6.47,6.47,0,0,1,1.72-1.19c2.38-1.47,1.23-4-.48-5.77s-3.78-2.45-5.72-.48" transform="translate(-15.83 -1.17)"/><path class="cls-3" d="M85.55,122.85a15,15,0,0,0-2.41-3.47,12.37,12.37,0,0,0-3.29-2.28c-4.56-2.8-2.34-7.71.92-11s7.18-4.68,10.9-.92l5.7,5.74c3.71,3.76,2.52,7.9-.74,11.2s-7.94,5.31-11.08.74" transform="translate(-15.83 -1.17)"/><path class="cls-3" d="M79.77,137c-2.82,2.84-6.86,4.58-9.56.64a13.21,13.21,0,0,0-2.08-3,11,11,0,0,0-2.83-2c-3.94-2.41-2-6.65.78-9.49s6.2-4,9.41-.8l4.91,5c3.21,3.23,2.17,6.81-.63,9.66" transform="translate(-15.83 -1.17)"/><path class="cls-3" d="M53,154a10.71,10.71,0,0,0-1.68-2.42A8.69,8.69,0,0,0,49,150c-3.17-1.95-1.63-5.37.64-7.66s5-3.26,7.59-.65l4,4c2.58,2.61,1.76,5.5-.52,7.8s-5.53,3.69-7.71.51" transform="translate(-15.83 -1.17)"/><path class="cls-3" d="M44.63,155.52l3,3c1.94,2,1.32,4.13-.39,5.86s-4.16,2.79-5.8.39A8.39,8.39,0,0,0,40.15,163a6.47,6.47,0,0,0-1.72-1.19c-2.39-1.47-1.22-4,.49-5.77s3.76-2.45,5.71-.48" transform="translate(-15.83 -1.17)"/><path class="cls-3" d="M280.66,145.59a2,2,0,0,0,0,2.77l18.52,18.77a1.95,1.95,0,1,0,2.77-2.74l-18.51-18.77a2,2,0,0,0-2.77,0" transform="translate(-15.83 -1.17)"/><path class="cls-3" d="M254.79,145.59a2,2,0,0,1,0,2.77l-18.51,18.77a1.95,1.95,0,1,1-2.77-2.74L252,145.62a2,2,0,0,1,2.77,0" transform="translate(-15.83 -1.17)"/><path class="cls-3" d="M120.22,145.59a2,2,0,0,0,0,2.77l18.52,18.77a1.95,1.95,0,1,0,2.77-2.74L123,145.62a2,2,0,0,0-2.77,0" transform="translate(-15.83 -1.17)"/><path class="cls-3" d="M93,145.59a2,2,0,0,1,0,2.77L74.51,167.13a1.95,1.95,0,1,1-2.77-2.74l18.51-18.77a2,2,0,0,1,2.77,0" transform="translate(-15.83 -1.17)"/><path class="cls-3" d="M69.49,92.13a2,2,0,0,1,0,2.77L19.18,145.47a1.95,1.95,0,1,1-2.77-2.74L66.72,92.16a2,2,0,0,1,2.77,0" transform="translate(-15.83 -1.17)"/><path class="cls-3" d="M178.68,121.35a2,2,0,0,0,0-2.77L160.17,99.81a1.95,1.95,0,1,0-2.77,2.74l18.51,18.77a2,2,0,0,0,2.77,0" transform="translate(-15.83 -1.17)"/><path class="cls-3" d="M201.42,121.35a2,2,0,0,1,0-2.77l18.51-18.77a1.95,1.95,0,1,1,2.77,2.74l-18.51,18.77a2,2,0,0,1-2.77,0" transform="translate(-15.83 -1.17)"/><path class="cls-3" d="M309,92.13a2,2,0,0,0,0,2.77l50.31,50.57a2,2,0,1,0,2.78-2.74L311.81,92.16a2,2,0,0,0-2.77,0" transform="translate(-15.83 -1.17)"/><path class="cls-4" d="M114.84,132.4v-4.54a5.45,5.45,0,0,0-5.42-5.47h-1.91a5.45,5.45,0,0,0-5.42,5.47v4.54a5.46,5.46,0,0,0,5.42,5.48h1.91a5.46,5.46,0,0,0,5.42-5.48m-2.72,0a2.71,2.71,0,0,1-2.7,2.73h-1.91a2.71,2.71,0,0,1-2.7-2.73v-4.54a2.71,2.71,0,0,1,2.7-2.72h1.91a2.71,2.71,0,0,1,2.7,2.72Z" transform="translate(-15.83 -1.17)"/><path class="cls-4" d="M276.43,132.4v-4.54a5.45,5.45,0,0,0-5.41-5.47H269.1a5.45,5.45,0,0,0-5.41,5.47v4.54a5.45,5.45,0,0,0,5.41,5.48H271a5.45,5.45,0,0,0,5.41-5.48m-2.71,0a2.71,2.71,0,0,1-2.7,2.73H269.1a2.71,2.71,0,0,1-2.69-2.73v-4.54a2.71,2.71,0,0,1,2.69-2.72H271a2.71,2.71,0,0,1,2.7,2.72Z" transform="translate(-15.83 -1.17)"/><path class="cls-3" d="M200.85,140.3v-6.4a7.69,7.69,0,0,0-7.64-7.73H190.5a7.69,7.69,0,0,0-7.64,7.73v6.4A7.69,7.69,0,0,0,190.5,148h2.71a7.69,7.69,0,0,0,7.64-7.72m-3.06.48a4.42,4.42,0,0,1-4.39,4.42h-3.1a4.41,4.41,0,0,1-4.38-4.42v-7.37A4.41,4.41,0,0,1,190.3,129h3.1a4.42,4.42,0,0,1,4.39,4.42Z" transform="translate(-15.83 -1.17)"/><path class="cls-3" d="M93.09,79v6.4a7.69,7.69,0,0,0,7.65,7.72h2.7a7.68,7.68,0,0,0,7.64-7.72V79a7.69,7.69,0,0,0-7.64-7.73h-2.7A7.7,7.7,0,0,0,93.09,79m3.06-.48a4.42,4.42,0,0,1,4.39-4.43h3.1A4.41,4.41,0,0,1,108,78.48v7.36a4.41,4.41,0,0,1-4.38,4.42h-3.1a4.42,4.42,0,0,1-4.39-4.42Z" transform="translate(-15.83 -1.17)"/><path class="cls-3" d="M177.67,79v6.4a7.69,7.69,0,0,0,7.65,7.72H188a7.7,7.7,0,0,0,7.65-7.72V79A7.71,7.71,0,0,0,188,71.23h-2.7A7.7,7.7,0,0,0,177.67,79m3.06-.48a4.42,4.42,0,0,1,4.39-4.43h3.1a4.41,4.41,0,0,1,4.38,4.43v7.36a4.41,4.41,0,0,1-4.38,4.42h-3.1a4.42,4.42,0,0,1-4.39-4.42Z" transform="translate(-15.83 -1.17)"/><path class="cls-3" d="M262.25,79v6.4a7.69,7.69,0,0,0,7.65,7.72h2.7a7.69,7.69,0,0,0,7.65-7.72V79a7.7,7.7,0,0,0-7.65-7.73h-2.7A7.7,7.7,0,0,0,262.25,79m3.07-.48a4.41,4.41,0,0,1,4.37-4.43h3.11a4.41,4.41,0,0,1,4.38,4.43v7.36a4.41,4.41,0,0,1-4.38,4.42h-3.11a4.4,4.4,0,0,1-4.37-4.42Z" transform="translate(-15.83 -1.17)"/><path class="cls-3" d="M446.54,46a14.9,14.9,0,0,1-2.41,3.48,12.34,12.34,0,0,1-3.28,2.27c-4.56,2.81-2.35,7.72.91,11s7.18,4.68,10.91.92L458.36,58c3.72-3.75,2.53-7.9-.73-11.19s-7.95-5.31-11.09-.75" transform="translate(-15.83 -1.17)"/><path class="cls-3" d="M440.76,31.94c-2.81-2.84-6.85-4.57-9.56-.64a13.21,13.21,0,0,1-2.08,3,10.84,10.84,0,0,1-2.83,2c-3.94,2.42-2,6.65.79,9.5s6.2,4.05,9.4.8l4.92-5c3.2-3.24,2.17-6.82-.64-9.66" transform="translate(-15.83 -1.17)"/><path class="cls-3" d="M414,14.85a10.26,10.26,0,0,1-1.68,2.42A8.62,8.62,0,0,1,410,18.86c-3.18,1.95-1.63,5.37.64,7.66s5,3.26,7.59.64l4-4c2.59-2.61,1.76-5.5-.51-7.79s-5.54-3.69-7.72-.52" transform="translate(-15.83 -1.17)"/><path class="cls-3" d="M405.62,13.37l3-3c1.94-2,1.32-4.14-.39-5.86h0c-1.71-1.72-4.16-2.78-5.8-.38a8.15,8.15,0,0,1-1.27,1.82,6.44,6.44,0,0,1-1.73,1.19c-2.38,1.47-1.22,4,.49,5.77s3.76,2.45,5.71.48" transform="translate(-15.83 -1.17)"/><path class="cls-3" d="M492.38,46a15.06,15.06,0,0,0,2.4,3.48,12.48,12.48,0,0,0,3.29,2.27c4.56,2.81,2.34,7.72-.92,11s-7.18,4.68-10.9.92L480.55,58c-3.71-3.75-2.52-7.9.74-11.19s7.95-5.31,11.09-.75" transform="translate(-15.83 -1.17)"/><path class="cls-3" d="M498.16,31.94c2.81-2.84,6.85-4.57,9.55-.64a13.21,13.21,0,0,0,2.08,3,11,11,0,0,0,2.83,2c3.94,2.42,2,6.65-.78,9.5s-6.2,4.05-9.41.8l-4.91-5c-3.2-3.24-2.18-6.82.64-9.66" transform="translate(-15.83 -1.17)"/><path class="cls-3" d="M524.91,14.85a10.26,10.26,0,0,0,1.68,2.42,8.58,8.58,0,0,0,2.29,1.59c3.17,1.95,1.63,5.37-.64,7.66s-5,3.26-7.59.64l-4-4c-2.59-2.61-1.76-5.5.51-7.79s5.53-3.69,7.71-.52" transform="translate(-15.83 -1.17)"/><path class="cls-3" d="M533.3,13.37l-3-3c-1.95-2-1.32-4.14.39-5.86h0c1.71-1.72,4.16-2.78,5.8-.38a8.15,8.15,0,0,0,1.27,1.82,6.47,6.47,0,0,0,1.72,1.19c2.39,1.47,1.23,4-.48,5.77s-3.77,2.45-5.71.48" transform="translate(-15.83 -1.17)"/><path class="cls-3" d="M608.13,46a14.7,14.7,0,0,1-2.4,3.48,12.48,12.48,0,0,1-3.29,2.27c-4.56,2.81-2.34,7.72.92,11s7.18,4.68,10.9.92L620,58c3.72-3.75,2.53-7.9-.73-11.19s-8-5.31-11.09-.75" transform="translate(-15.83 -1.17)"/><path class="cls-3" d="M602.35,31.94c-2.81-2.84-6.85-4.57-9.56-.64a13.38,13.38,0,0,1-2.07,3,11,11,0,0,1-2.84,2c-3.93,2.42-2,6.65.79,9.5s6.2,4.05,9.4.8l4.92-5c3.2-3.24,2.18-6.82-.64-9.66" transform="translate(-15.83 -1.17)"/><path class="cls-3" d="M575.6,14.85a10.26,10.26,0,0,1-1.68,2.42,8.58,8.58,0,0,1-2.29,1.59c-3.17,1.95-1.63,5.37.64,7.66s5,3.26,7.59.64l4-4c2.59-2.61,1.76-5.5-.51-7.79s-5.53-3.69-7.71-.52" transform="translate(-15.83 -1.17)"/><path class="cls-3" d="M567.22,13.37l3-3c1.95-2,1.32-4.14-.39-5.86h0c-1.71-1.72-4.16-2.78-5.8-.38a8.15,8.15,0,0,1-1.27,1.82A6.47,6.47,0,0,1,561,7.12c-2.39,1.47-1.23,4,.48,5.77s3.77,2.45,5.72.48" transform="translate(-15.83 -1.17)"/><path class="cls-3" d="M654,46a14.9,14.9,0,0,0,2.41,3.48,12.31,12.31,0,0,0,3.29,2.27c4.55,2.81,2.33,7.72-.93,11s-7.17,4.68-10.89.92L642.15,58c-3.72-3.75-2.53-7.9.73-11.19s8-5.31,11.09-.75" transform="translate(-15.83 -1.17)"/><path class="cls-3" d="M659.75,31.94c2.81-2.84,6.85-4.57,9.56-.64a13.21,13.21,0,0,0,2.08,3,10.84,10.84,0,0,0,2.83,2c3.94,2.42,2,6.65-.79,9.5s-6.2,4.05-9.4.8l-4.92-5c-3.2-3.24-2.17-6.82.64-9.66" transform="translate(-15.83 -1.17)"/><path class="cls-3" d="M686.5,14.85a10.62,10.62,0,0,0,1.68,2.42,8.75,8.75,0,0,0,2.29,1.59c3.18,1.95,1.64,5.37-.64,7.66s-5,3.26-7.58.64l-4-4c-2.59-2.61-1.76-5.5.51-7.79s5.53-3.69,7.71-.52" transform="translate(-15.83 -1.17)"/><path class="cls-3" d="M694.89,13.37l-3-3c-1.94-2-1.32-4.14.39-5.86h0c1.71-1.72,4.16-2.78,5.8-.38a8.15,8.15,0,0,0,1.27,1.82,6.61,6.61,0,0,0,1.73,1.19c2.38,1.47,1.22,4-.49,5.77s-3.77,2.45-5.71.48" transform="translate(-15.83 -1.17)"/><path class="cls-3" d="M458.86,23.3a2,2,0,0,0,0-2.77L440.35,1.77a1.94,1.94,0,1,0-2.77,2.73l18.51,18.77a2,2,0,0,0,2.77,0" transform="translate(-15.83 -1.17)"/><path class="cls-3" d="M484.72,23.3a2,2,0,0,1,0-2.77L503.23,1.77A1.94,1.94,0,1,1,506,4.5L487.49,23.27a2,2,0,0,1-2.77,0" transform="translate(-15.83 -1.17)"/><path class="cls-3" d="M619.3,23.3a2,2,0,0,0,0-2.77L600.78,1.77a1.94,1.94,0,0,0-2.76,0,2,2,0,0,0,0,2.77l18.51,18.77a2,2,0,0,0,2.77,0" transform="translate(-15.83 -1.17)"/><path class="cls-3" d="M646.5,23.3a2,2,0,0,1,0-2.77L665,1.77a1.94,1.94,0,0,1,2.76,0,2,2,0,0,1,0,2.77L649.27,23.27a2,2,0,0,1-2.77,0" transform="translate(-15.83 -1.17)"/><path class="cls-3" d="M670,76.76A2,2,0,0,1,670,74l50.32-50.58a1.95,1.95,0,1,1,2.77,2.74L672.8,76.73a2,2,0,0,1-2.77,0" transform="translate(-15.83 -1.17)"/><path class="cls-3" d="M560.84,47.54a2,2,0,0,0,0,2.77l18.52,18.77a1.94,1.94,0,1,0,2.76-2.74L563.6,47.57a2,2,0,0,0-2.76,0" transform="translate(-15.83 -1.17)"/><path class="cls-3" d="M538.09,47.54a2,2,0,0,1,0,2.77L519.58,69.08a1.95,1.95,0,1,1-2.77-2.74l18.52-18.77a2,2,0,0,1,2.76,0" transform="translate(-15.83 -1.17)"/><path class="cls-3" d="M430.48,76.76a2,2,0,0,0,0-2.76L380.17,23.42a1.95,1.95,0,1,0-2.77,2.74l50.31,50.57a2,2,0,0,0,2.77,0" transform="translate(-15.83 -1.17)"/><path class="cls-4" d="M624.68,36.48V41a5.46,5.46,0,0,0,5.42,5.48H632A5.46,5.46,0,0,0,637.43,41V36.48A5.45,5.45,0,0,0,632,31H630.1a5.45,5.45,0,0,0-5.42,5.47m2.72,0a2.71,2.71,0,0,1,2.7-2.72H632a2.71,2.71,0,0,1,2.7,2.72V41a2.72,2.72,0,0,1-2.7,2.73H630.1A2.72,2.72,0,0,1,627.4,41Z" transform="translate(-15.83 -1.17)"/><path class="cls-4" d="M463.09,36.48V41a5.45,5.45,0,0,0,5.41,5.48h1.91A5.46,5.46,0,0,0,475.83,41V36.48A5.45,5.45,0,0,0,470.41,31H468.5a5.45,5.45,0,0,0-5.41,5.47m2.71,0a2.71,2.71,0,0,1,2.7-2.72h1.91a2.71,2.71,0,0,1,2.7,2.72V41a2.72,2.72,0,0,1-2.7,2.73H468.5A2.72,2.72,0,0,1,465.8,41Z" transform="translate(-15.83 -1.17)"/><path class="cls-3" d="M538.67,28.59V35a7.7,7.7,0,0,0,7.64,7.72H549A7.71,7.71,0,0,0,556.67,35V28.59A7.7,7.7,0,0,0,549,20.87h-2.7a7.69,7.69,0,0,0-7.64,7.72m3.06-.47a4.41,4.41,0,0,1,4.38-4.43h3.11a4.41,4.41,0,0,1,4.38,4.43v7.35a4.42,4.42,0,0,1-4.38,4.43h-3.11a4.42,4.42,0,0,1-4.38-4.43Z" transform="translate(-15.83 -1.17)"/><path class="cls-3" d="M654,122.85a15,15,0,0,1,2.41-3.47,12.2,12.2,0,0,1,3.29-2.28c4.55-2.8,2.33-7.71-.93-11s-7.17-4.68-10.89-.92l-5.7,5.74c-3.72,3.76-2.53,7.9.73,11.2s8,5.31,11.09.74" transform="translate(-15.83 -1.17)"/><path class="cls-3" d="M659.75,137c2.81,2.84,6.85,4.58,9.56.64a13.21,13.21,0,0,1,2.08-3,11,11,0,0,1,2.83-2c3.94-2.41,2-6.65-.79-9.49s-6.2-4-9.4-.8l-4.92,5c-3.2,3.23-2.17,6.81.64,9.66" transform="translate(-15.83 -1.17)"/><path class="cls-3" d="M686.5,154a11.11,11.11,0,0,1,1.68-2.42,8.87,8.87,0,0,1,2.29-1.58c3.18-1.95,1.64-5.37-.64-7.66s-5-3.26-7.58-.65l-4,4c-2.59,2.61-1.76,5.5.51,7.8s5.53,3.69,7.71.51" transform="translate(-15.83 -1.17)"/><path class="cls-3" d="M694.89,155.52l-3,3c-1.94,2-1.32,4.13.39,5.86s4.16,2.79,5.8.39a8.39,8.39,0,0,1,1.27-1.82,6.61,6.61,0,0,1,1.73-1.19c2.38-1.47,1.22-4-.49-5.77s-3.77-2.45-5.71-.48" transform="translate(-15.83 -1.17)"/><path class="cls-3" d="M608.13,122.85a14.74,14.74,0,0,0-2.4-3.47,12.37,12.37,0,0,0-3.29-2.28c-4.56-2.8-2.34-7.71.92-11s7.18-4.68,10.9-.92l5.69,5.74c3.72,3.76,2.53,7.9-.73,11.2s-8,5.31-11.09.74" transform="translate(-15.83 -1.17)"/><path class="cls-3" d="M602.35,137c-2.81,2.84-6.85,4.58-9.56.64a13.38,13.38,0,0,0-2.07-3,11.16,11.16,0,0,0-2.84-2c-3.93-2.41-2-6.65.79-9.49s6.2-4,9.4-.8l4.92,5c3.2,3.23,2.18,6.81-.64,9.66" transform="translate(-15.83 -1.17)"/><path class="cls-3" d="M575.6,154a10.71,10.71,0,0,0-1.68-2.42,8.69,8.69,0,0,0-2.29-1.58c-3.17-1.95-1.63-5.37.64-7.66s5-3.26,7.59-.65l4,4c2.59,2.61,1.76,5.5-.51,7.8s-5.53,3.69-7.71.51" transform="translate(-15.83 -1.17)"/><path class="cls-3" d="M567.22,155.52l3,3c1.95,2,1.32,4.13-.39,5.86s-4.16,2.79-5.8.39a8.39,8.39,0,0,0-1.27-1.82,6.47,6.47,0,0,0-1.72-1.19c-2.39-1.47-1.23-4,.48-5.77s3.77-2.45,5.72-.48" transform="translate(-15.83 -1.17)"/><path class="cls-3" d="M492.38,122.85a15.1,15.1,0,0,1,2.4-3.47,12.37,12.37,0,0,1,3.29-2.28c4.56-2.8,2.34-7.71-.92-11s-7.18-4.68-10.9-.92l-5.7,5.74c-3.71,3.76-2.52,7.9.74,11.2s7.95,5.31,11.09.74" transform="translate(-15.83 -1.17)"/><path class="cls-3" d="M498.16,137c2.81,2.84,6.85,4.58,9.55.64a13.21,13.21,0,0,1,2.08-3,11.2,11.2,0,0,1,2.83-2c3.94-2.41,2-6.65-.78-9.49s-6.2-4-9.41-.8l-4.91,5c-3.2,3.23-2.18,6.81.64,9.66" transform="translate(-15.83 -1.17)"/><path class="cls-3" d="M524.91,154a10.71,10.71,0,0,1,1.68-2.42,8.69,8.69,0,0,1,2.29-1.58c3.17-1.95,1.63-5.37-.64-7.66s-5-3.26-7.59-.65l-4,4c-2.59,2.61-1.76,5.5.51,7.8s5.53,3.69,7.71.51" transform="translate(-15.83 -1.17)"/><path class="cls-3" d="M533.3,155.52l-3,3c-1.95,2-1.32,4.13.39,5.86s4.16,2.79,5.8.39a8.39,8.39,0,0,1,1.27-1.82,6.47,6.47,0,0,1,1.72-1.19c2.39-1.47,1.23-4-.48-5.77s-3.77-2.45-5.71-.48" transform="translate(-15.83 -1.17)"/><path class="cls-3" d="M446.54,122.85a15,15,0,0,0-2.41-3.47,12.23,12.23,0,0,0-3.28-2.28c-4.56-2.8-2.35-7.71.91-11s7.18-4.68,10.91-.92l5.69,5.74c3.72,3.76,2.53,7.9-.73,11.2s-7.95,5.31-11.09.74" transform="translate(-15.83 -1.17)"/><path class="cls-3" d="M440.76,137c-2.81,2.84-6.85,4.58-9.56.64a13.21,13.21,0,0,0-2.08-3,11,11,0,0,0-2.83-2c-3.94-2.41-2-6.65.79-9.49s6.2-4,9.4-.8l4.92,5c3.2,3.23,2.17,6.81-.64,9.66" transform="translate(-15.83 -1.17)"/><path class="cls-3" d="M414,154a10.71,10.71,0,0,0-1.68-2.42A8.73,8.73,0,0,0,410,150c-3.18-1.95-1.63-5.37.64-7.66s5-3.26,7.59-.65l4,4c2.59,2.61,1.76,5.5-.51,7.8s-5.54,3.69-7.72.51" transform="translate(-15.83 -1.17)"/><path class="cls-3" d="M405.62,155.52l3,3c1.94,2,1.32,4.13-.39,5.86s-4.16,2.79-5.8.39a8.39,8.39,0,0,0-1.27-1.82,6.44,6.44,0,0,0-1.73-1.19c-2.38-1.47-1.22-4,.49-5.77s3.76-2.45,5.71-.48" transform="translate(-15.83 -1.17)"/><path class="cls-3" d="M641.65,145.59a2,2,0,0,0,0,2.77l18.51,18.77a1.95,1.95,0,1,0,2.77-2.74l-18.51-18.77a2,2,0,0,0-2.77,0" transform="translate(-15.83 -1.17)"/><path class="cls-3" d="M615.79,145.59a2,2,0,0,1,0,2.77l-18.51,18.77a1.95,1.95,0,1,1-2.77-2.74L613,145.62a2,2,0,0,1,2.77,0" transform="translate(-15.83 -1.17)"/><path class="cls-3" d="M481.21,145.59a2,2,0,0,0,0,2.77l18.52,18.77a1.94,1.94,0,1,0,2.76-2.74L484,145.62a2,2,0,0,0-2.77,0" transform="translate(-15.83 -1.17)"/><path class="cls-3" d="M454,145.59a2,2,0,0,1,0,2.77L435.5,167.13a1.95,1.95,0,1,1-2.77-2.74l18.52-18.77a2,2,0,0,1,2.77,0" transform="translate(-15.83 -1.17)"/><path class="cls-3" d="M430.48,92.13a2,2,0,0,1,0,2.77l-50.32,50.57a1.95,1.95,0,1,1-2.77-2.74l50.31-50.57a2,2,0,0,1,2.77,0" transform="translate(-15.83 -1.17)"/><path class="cls-3" d="M539.68,121.35a2,2,0,0,0,0-2.77L521.16,99.81a1.95,1.95,0,1,0-2.77,2.74l18.52,18.77a2,2,0,0,0,2.77,0" transform="translate(-15.83 -1.17)"/><path class="cls-3" d="M562.42,121.35a2,2,0,0,1,0-2.77l18.52-18.77a1.95,1.95,0,1,1,2.77,2.74l-18.51,18.77a2,2,0,0,1-2.77,0" transform="translate(-15.83 -1.17)"/><path class="cls-3" d="M670,92.13a2,2,0,0,0,0,2.77l50.32,50.57a1.95,1.95,0,1,0,2.77-2.74L672.8,92.16a2,2,0,0,0-2.77,0" transform="translate(-15.83 -1.17)"/><path class="cls-4" d="M475.83,132.4v-4.54a5.45,5.45,0,0,0-5.41-5.47H468.5a5.45,5.45,0,0,0-5.42,5.47v4.54a5.46,5.46,0,0,0,5.42,5.48h1.92a5.45,5.45,0,0,0,5.41-5.48m-2.72,0a2.71,2.71,0,0,1-2.69,2.73H468.5a2.71,2.71,0,0,1-2.7-2.73v-4.54a2.71,2.71,0,0,1,2.7-2.72h1.92a2.71,2.71,0,0,1,2.69,2.72Z" transform="translate(-15.83 -1.17)"/><path class="cls-4" d="M637.42,132.4v-4.54a5.45,5.45,0,0,0-5.41-5.47H630.1a5.45,5.45,0,0,0-5.42,5.47v4.54a5.46,5.46,0,0,0,5.42,5.48H632a5.45,5.45,0,0,0,5.41-5.48m-2.71,0a2.71,2.71,0,0,1-2.7,2.73H630.1a2.71,2.71,0,0,1-2.7-2.73v-4.54a2.71,2.71,0,0,1,2.7-2.72H632a2.71,2.71,0,0,1,2.7,2.72Z" transform="translate(-15.83 -1.17)"/><path class="cls-3" d="M561.84,140.3v-6.4a7.69,7.69,0,0,0-7.64-7.73h-2.7a7.69,7.69,0,0,0-7.65,7.73v6.4A7.69,7.69,0,0,0,551.5,148h2.7a7.69,7.69,0,0,0,7.64-7.72m-3.06.48a4.41,4.41,0,0,1-4.38,4.42h-3.11a4.41,4.41,0,0,1-4.38-4.42v-7.37a4.41,4.41,0,0,1,4.38-4.42h3.11a4.41,4.41,0,0,1,4.38,4.42Z" transform="translate(-15.83 -1.17)"/><path class="cls-3" d="M454.08,79v6.4a7.69,7.69,0,0,0,7.65,7.72h2.71a7.69,7.69,0,0,0,7.64-7.72V79a7.7,7.7,0,0,0-7.64-7.73h-2.71A7.7,7.7,0,0,0,454.08,79m3.07-.48a4.41,4.41,0,0,1,4.38-4.43h3.1A4.42,4.42,0,0,1,469,78.48v7.36a4.42,4.42,0,0,1-4.39,4.42h-3.1a4.41,4.41,0,0,1-4.38-4.42Z" transform="translate(-15.83 -1.17)"/><path class="cls-3" d="M538.66,79v6.4a7.7,7.7,0,0,0,7.65,7.72H549a7.69,7.69,0,0,0,7.65-7.72V79A7.7,7.7,0,0,0,549,71.23h-2.7A7.71,7.71,0,0,0,538.66,79m3.07-.48a4.42,4.42,0,0,1,4.38-4.43h3.11a4.42,4.42,0,0,1,4.38,4.43v7.36a4.41,4.41,0,0,1-4.38,4.42h-3.11a4.41,4.41,0,0,1-4.38-4.42Z" transform="translate(-15.83 -1.17)"/><path class="cls-3" d="M623.25,79v6.4a7.68,7.68,0,0,0,7.64,7.72h2.7a7.69,7.69,0,0,0,7.65-7.72V79a7.7,7.7,0,0,0-7.65-7.73h-2.7A7.69,7.69,0,0,0,623.25,79m3.06-.48a4.41,4.41,0,0,1,4.38-4.43h3.1a4.41,4.41,0,0,1,4.38,4.43v7.36a4.41,4.41,0,0,1-4.38,4.42h-3.1a4.41,4.41,0,0,1-4.38-4.42Z" transform="translate(-15.83 -1.17)"/><path class="cls-3" d="M811.62,46a15.06,15.06,0,0,1-2.4,3.48,12.48,12.48,0,0,1-3.29,2.27c-4.56,2.81-2.34,7.72.92,11s7.18,4.68,10.9.92l5.7-5.75c3.71-3.75,2.52-7.9-.74-11.19s-7.94-5.31-11.09-.75" transform="translate(-15.83 -1.17)"/><path class="cls-3" d="M805.84,31.94c-2.81-2.84-6.85-4.57-9.55-.64a13.21,13.21,0,0,1-2.08,3,11,11,0,0,1-2.83,2c-3.94,2.42-2,6.65.78,9.5s6.2,4.05,9.41.8l4.91-5c3.2-3.24,2.17-6.82-.64-9.66" transform="translate(-15.83 -1.17)"/><path class="cls-3" d="M779.09,14.85a10.26,10.26,0,0,1-1.68,2.42,8.75,8.75,0,0,1-2.29,1.59c-3.18,1.95-1.63,5.37.64,7.66s5,3.26,7.59.64l4-4c2.59-2.61,1.76-5.5-.51-7.79s-5.53-3.69-7.71-.52" transform="translate(-15.83 -1.17)"/><path class="cls-3" d="M770.7,13.37l3-3c1.94-2,1.32-4.14-.39-5.86h0c-1.71-1.72-4.16-2.78-5.8-.38a8.15,8.15,0,0,1-1.27,1.82,6.47,6.47,0,0,1-1.72,1.19c-2.39,1.47-1.23,4,.48,5.77s3.77,2.45,5.71.48" transform="translate(-15.83 -1.17)"/><path class="cls-3" d="M857.46,46a14.9,14.9,0,0,0,2.41,3.48,12.34,12.34,0,0,0,3.28,2.27c4.56,2.81,2.35,7.72-.91,11s-7.19,4.68-10.9.92L845.64,58c-3.72-3.75-2.53-7.9.73-11.19s8-5.31,11.09-.75" transform="translate(-15.83 -1.17)"/><path class="cls-3" d="M863.24,31.94c2.81-2.84,6.85-4.57,9.56-.64a13.21,13.21,0,0,0,2.08,3,10.84,10.84,0,0,0,2.83,2c3.94,2.42,2,6.65-.79,9.5s-6.19,4.05-9.4.8l-4.92-5c-3.2-3.24-2.17-6.82.64-9.66" transform="translate(-15.83 -1.17)"/><path class="cls-3" d="M890,14.85a10.26,10.26,0,0,0,1.68,2.42A8.62,8.62,0,0,0,894,18.86c3.18,1.95,1.64,5.37-.64,7.66s-5,3.26-7.58.64l-4-4c-2.59-2.61-1.76-5.5.51-7.79s5.54-3.69,7.72-.52" transform="translate(-15.83 -1.17)"/><path class="cls-3" d="M898.38,13.37l-3-3c-1.94-2-1.32-4.14.39-5.86h0c1.71-1.72,4.16-2.78,5.8-.38a8.15,8.15,0,0,0,1.27,1.82,6.44,6.44,0,0,0,1.73,1.19c2.38,1.47,1.22,4-.49,5.77s-3.77,2.45-5.71.48" transform="translate(-15.83 -1.17)"/><path class="cls-3" d="M973.22,46a14.9,14.9,0,0,1-2.41,3.48,12.34,12.34,0,0,1-3.28,2.27c-4.57,2.81-2.35,7.72.92,11s7.18,4.68,10.89.92L985,58c3.71-3.75,2.53-7.9-.74-11.19s-7.94-5.31-11.08-.75" transform="translate(-15.83 -1.17)"/><path class="cls-3" d="M967.44,31.94c-2.82-2.84-6.86-4.57-9.56-.64a13.21,13.21,0,0,1-2.08,3,11,11,0,0,1-2.84,2c-3.93,2.42-2,6.65.8,9.5s6.19,4.05,9.4.8l4.92-5c3.19-3.24,2.17-6.82-.64-9.66" transform="translate(-15.83 -1.17)"/><path class="cls-3" d="M940.68,14.85A10.26,10.26,0,0,1,939,17.27a8.58,8.58,0,0,1-2.29,1.59c-3.17,1.95-1.63,5.37.65,7.66s5,3.26,7.58.64l4-4c2.58-2.61,1.75-5.5-.51-7.79s-5.54-3.69-7.72-.52" transform="translate(-15.83 -1.17)"/><path class="cls-3" d="M932.29,13.37l3-3c1.94-2,1.31-4.14-.39-5.86h0c-1.71-1.72-4.16-2.78-5.81-.38a7.78,7.78,0,0,1-1.27,1.82,6.47,6.47,0,0,1-1.72,1.19c-2.38,1.47-1.23,4,.49,5.77s3.76,2.45,5.7.48" transform="translate(-15.83 -1.17)"/><path class="cls-3" d="M1019.05,46a14.9,14.9,0,0,0,2.41,3.48,12.34,12.34,0,0,0,3.28,2.27c4.57,2.81,2.35,7.72-.91,11s-7.18,4.68-10.9.92l-5.7-5.75c-3.71-3.75-2.52-7.9.74-11.19s7.94-5.31,11.08-.75" transform="translate(-15.83 -1.17)"/><path class="cls-3" d="M1024.83,31.94c2.82-2.84,6.86-4.57,9.56-.64a13.21,13.21,0,0,0,2.08,3,11,11,0,0,0,2.84,2c3.93,2.42,2,6.65-.79,9.5s-6.2,4.05-9.41.8l-4.92-5c-3.19-3.24-2.17-6.82.64-9.66" transform="translate(-15.83 -1.17)"/><path class="cls-3" d="M1051.59,14.85a10.26,10.26,0,0,0,1.68,2.42,8.58,8.58,0,0,0,2.29,1.59c3.17,1.95,1.63,5.37-.65,7.66s-5,3.26-7.58.64l-4-4c-2.58-2.61-1.75-5.5.51-7.79s5.54-3.69,7.72-.52" transform="translate(-15.83 -1.17)"/><path class="cls-3" d="M1060,13.37l-3-3c-1.94-2-1.31-4.14.39-5.86h0c1.71-1.72,4.17-2.78,5.81-.38a7.78,7.78,0,0,0,1.27,1.82,6.47,6.47,0,0,0,1.72,1.19c2.38,1.47,1.23,4-.49,5.77s-3.76,2.45-5.7.48" transform="translate(-15.83 -1.17)"/><path class="cls-3" d="M823.94,23.3a2,2,0,0,0,0-2.77L805.43,1.77a1.94,1.94,0,1,0-2.77,2.73l18.51,18.77a2,2,0,0,0,2.77,0" transform="translate(-15.83 -1.17)"/><path class="cls-3" d="M849.8,23.3a2,2,0,0,1,0-2.77L868.32,1.77a1.94,1.94,0,1,1,2.76,2.73L852.57,23.27a2,2,0,0,1-2.77,0" transform="translate(-15.83 -1.17)"/><path class="cls-3" d="M984.38,23.3a2,2,0,0,0,0-2.77L965.87,1.77a1.94,1.94,0,0,0-2.76,0,2,2,0,0,0,0,2.77l18.51,18.77a2,2,0,0,0,2.77,0" transform="translate(-15.83 -1.17)"/><path class="cls-3" d="M1011.58,23.3a2,2,0,0,1,0-2.77l18.52-18.76a1.94,1.94,0,1,1,2.77,2.73l-18.51,18.77a2,2,0,0,1-2.77,0" transform="translate(-15.83 -1.17)"/><path class="cls-3" d="M1035.11,76.76a2,2,0,0,1,0-2.76l50.31-50.58a2,2,0,1,1,2.78,2.74l-50.32,50.57a2,2,0,0,1-2.77,0" transform="translate(-15.83 -1.17)"/><path class="cls-3" d="M925.92,47.54a2,2,0,0,0,0,2.77l18.52,18.77a1.95,1.95,0,1,0,2.77-2.74L928.69,47.57a2,2,0,0,0-2.77,0" transform="translate(-15.83 -1.17)"/><path class="cls-3" d="M903.18,47.54a2,2,0,0,1,0,2.77L884.67,69.08a1.95,1.95,0,1,1-2.77-2.74l18.51-18.77a2,2,0,0,1,2.77,0" transform="translate(-15.83 -1.17)"/><path class="cls-3" d="M795.57,76.76a2,2,0,0,0,0-2.76L745.25,23.42a1.95,1.95,0,1,0-2.77,2.74L792.8,76.73a2,2,0,0,0,2.77,0" transform="translate(-15.83 -1.17)"/><path class="cls-4" d="M989.76,36.48V41a5.45,5.45,0,0,0,5.41,5.48h1.92a5.46,5.46,0,0,0,5.42-5.48V36.48A5.45,5.45,0,0,0,997.09,31h-1.92a5.45,5.45,0,0,0-5.41,5.47m2.72,0a2.71,2.71,0,0,1,2.69-2.72h1.92a2.71,2.71,0,0,1,2.7,2.72V41a2.72,2.72,0,0,1-2.7,2.73h-1.92A2.72,2.72,0,0,1,992.48,41Z" transform="translate(-15.83 -1.17)"/><path class="cls-4" d="M828.17,36.48V41a5.45,5.45,0,0,0,5.41,5.48h1.92A5.46,5.46,0,0,0,840.92,41V36.48A5.45,5.45,0,0,0,835.5,31h-1.92a5.45,5.45,0,0,0-5.41,5.47m2.72,0a2.71,2.71,0,0,1,2.69-2.72h1.92a2.71,2.71,0,0,1,2.7,2.72V41a2.72,2.72,0,0,1-2.7,2.73h-1.92A2.72,2.72,0,0,1,830.89,41Z" transform="translate(-15.83 -1.17)"/><path class="cls-3" d="M903.75,28.59V35a7.7,7.7,0,0,0,7.64,7.72h2.71A7.7,7.7,0,0,0,921.75,35V28.59a7.69,7.69,0,0,0-7.65-7.72h-2.71a7.69,7.69,0,0,0-7.64,7.72m3.06-.47a4.41,4.41,0,0,1,4.38-4.43h3.11a4.41,4.41,0,0,1,4.38,4.43v7.35a4.42,4.42,0,0,1-4.38,4.43h-3.11a4.42,4.42,0,0,1-4.38-4.43Z" transform="translate(-15.83 -1.17)"/><path class="cls-3" d="M1019.05,122.85a15,15,0,0,1,2.41-3.47,12.23,12.23,0,0,1,3.28-2.28c4.57-2.8,2.35-7.71-.91-11s-7.18-4.68-10.9-.92l-5.7,5.74c-3.71,3.76-2.52,7.9.74,11.2s7.94,5.31,11.08.74" transform="translate(-15.83 -1.17)"/><path class="cls-3" d="M1024.83,137c2.82,2.84,6.86,4.58,9.56.64a13.21,13.21,0,0,1,2.08-3,11.16,11.16,0,0,1,2.84-2c3.93-2.41,2-6.65-.79-9.49s-6.2-4-9.41-.8l-4.92,5c-3.19,3.23-2.17,6.81.64,9.66" transform="translate(-15.83 -1.17)"/><path class="cls-3" d="M1051.59,154a10.71,10.71,0,0,1,1.68-2.42,8.69,8.69,0,0,1,2.29-1.58c3.17-1.95,1.63-5.37-.65-7.66s-5-3.26-7.58-.65l-4,4c-2.58,2.61-1.75,5.5.51,7.8s5.54,3.69,7.72.51" transform="translate(-15.83 -1.17)"/><path class="cls-3" d="M1060,155.52l-3,3c-1.94,2-1.31,4.13.39,5.86s4.17,2.79,5.81.39a8,8,0,0,1,1.27-1.82,6.47,6.47,0,0,1,1.72-1.19c2.38-1.47,1.23-4-.49-5.77s-3.76-2.45-5.7-.48" transform="translate(-15.83 -1.17)"/><path class="cls-3" d="M973.22,122.85a15,15,0,0,0-2.41-3.47,12.23,12.23,0,0,0-3.28-2.28c-4.57-2.8-2.35-7.71.92-11s7.18-4.68,10.89-.92l5.7,5.74c3.71,3.76,2.53,7.9-.74,11.2s-7.94,5.31-11.08.74" transform="translate(-15.83 -1.17)"/><path class="cls-3" d="M967.44,137c-2.82,2.84-6.86,4.58-9.56.64a13.21,13.21,0,0,0-2.08-3,11.16,11.16,0,0,0-2.84-2c-3.93-2.41-2-6.65.8-9.49s6.19-4,9.4-.8l4.92,5c3.19,3.23,2.17,6.81-.64,9.66" transform="translate(-15.83 -1.17)"/><path class="cls-3" d="M940.68,154a10.71,10.71,0,0,0-1.68-2.42,8.69,8.69,0,0,0-2.29-1.58c-3.17-1.95-1.63-5.37.65-7.66s5-3.26,7.58-.65l4,4c2.58,2.61,1.75,5.5-.51,7.8s-5.54,3.69-7.72.51" transform="translate(-15.83 -1.17)"/><path class="cls-3" d="M932.29,155.52l3,3c1.94,2,1.31,4.13-.39,5.86s-4.16,2.79-5.81.39a8,8,0,0,0-1.27-1.82,6.47,6.47,0,0,0-1.72-1.19c-2.38-1.47-1.23-4,.49-5.77s3.76-2.45,5.7-.48" transform="translate(-15.83 -1.17)"/><path class="cls-3" d="M857.46,122.85a15,15,0,0,1,2.41-3.47,12.23,12.23,0,0,1,3.28-2.28c4.56-2.8,2.35-7.71-.91-11s-7.19-4.68-10.9-.92l-5.7,5.74c-3.72,3.76-2.53,7.9.73,11.2s8,5.31,11.09.74" transform="translate(-15.83 -1.17)"/><path class="cls-3" d="M863.24,137c2.81,2.84,6.85,4.58,9.56.64a13.21,13.21,0,0,1,2.08-3,11,11,0,0,1,2.83-2c3.94-2.41,2-6.65-.79-9.49s-6.19-4-9.4-.8l-4.92,5c-3.2,3.23-2.17,6.81.64,9.66" transform="translate(-15.83 -1.17)"/><path class="cls-3" d="M890,154a10.71,10.71,0,0,1,1.68-2.42A8.73,8.73,0,0,1,894,150c3.18-1.95,1.64-5.37-.64-7.66s-5-3.26-7.58-.65l-4,4c-2.59,2.61-1.76,5.5.51,7.8s5.54,3.69,7.72.51" transform="translate(-15.83 -1.17)"/><path class="cls-3" d="M898.38,155.52l-3,3c-1.94,2-1.32,4.13.39,5.86s4.16,2.79,5.8.39a8.39,8.39,0,0,1,1.27-1.82,6.44,6.44,0,0,1,1.73-1.19c2.38-1.47,1.22-4-.49-5.77s-3.77-2.45-5.71-.48" transform="translate(-15.83 -1.17)"/><path class="cls-3" d="M811.62,122.85a15.1,15.1,0,0,0-2.4-3.47,12.37,12.37,0,0,0-3.29-2.28c-4.56-2.8-2.34-7.71.92-11s7.18-4.68,10.9-.92l5.7,5.74c3.71,3.76,2.52,7.9-.74,11.2s-7.94,5.31-11.09.74" transform="translate(-15.83 -1.17)"/><path class="cls-3" d="M805.84,137c-2.81,2.84-6.85,4.58-9.55.64a13.21,13.21,0,0,0-2.08-3,11.2,11.2,0,0,0-2.83-2c-3.94-2.41-2-6.65.78-9.49s6.2-4,9.41-.8l4.91,5c3.2,3.23,2.17,6.81-.64,9.66" transform="translate(-15.83 -1.17)"/><path class="cls-3" d="M779.09,154a10.71,10.71,0,0,0-1.68-2.42,8.87,8.87,0,0,0-2.29-1.58c-3.18-1.95-1.63-5.37.64-7.66s5-3.26,7.59-.65l4,4c2.59,2.61,1.76,5.5-.51,7.8s-5.53,3.69-7.71.51" transform="translate(-15.83 -1.17)"/><path class="cls-3" d="M770.7,155.52l3,3c1.94,2,1.32,4.13-.39,5.86s-4.16,2.79-5.8.39a8.39,8.39,0,0,0-1.27-1.82,6.47,6.47,0,0,0-1.72-1.19c-2.39-1.47-1.23-4,.48-5.77s3.77-2.45,5.71-.48" transform="translate(-15.83 -1.17)"/><path class="cls-3" d="M1006.73,145.59a2,2,0,0,0,0,2.77l18.52,18.77a1.95,1.95,0,1,0,2.77-2.74l-18.52-18.77a2,2,0,0,0-2.77,0" transform="translate(-15.83 -1.17)"/><path class="cls-3" d="M980.87,145.59a2,2,0,0,1,0,2.77l-18.52,18.77a1.95,1.95,0,1,1-2.77-2.74l18.51-18.77a2,2,0,0,1,2.77,0" transform="translate(-15.83 -1.17)"/><path class="cls-3" d="M846.3,145.59a2,2,0,0,0,0,2.77l18.51,18.77a1.95,1.95,0,1,0,2.77-2.74l-18.5-18.77a2,2,0,0,0-2.77,0" transform="translate(-15.83 -1.17)"/><path class="cls-3" d="M819.1,145.59a2,2,0,0,1,0,2.77l-18.52,18.77a1.95,1.95,0,1,1-2.77-2.74l18.51-18.77a2,2,0,0,1,2.77,0" transform="translate(-15.83 -1.17)"/><path class="cls-3" d="M795.57,92.13a2,2,0,0,1,0,2.77l-50.32,50.57a1.95,1.95,0,1,1-2.77-2.74L792.8,92.16a2,2,0,0,1,2.77,0" transform="translate(-15.83 -1.17)"/><path class="cls-3" d="M904.76,121.35a2,2,0,0,0,0-2.77L886.25,99.81a1.95,1.95,0,1,0-2.77,2.74L902,121.32a2,2,0,0,0,2.77,0" transform="translate(-15.83 -1.17)"/><path class="cls-3" d="M927.5,121.35a2,2,0,0,1,0-2.77L946,99.81a1.95,1.95,0,1,1,2.77,2.74l-18.51,18.77a2,2,0,0,1-2.77,0" transform="translate(-15.83 -1.17)"/><path class="cls-3" d="M1035.11,92.13a2,2,0,0,0,0,2.77l50.31,50.57a2,2,0,1,0,2.78-2.74l-50.32-50.57a2,2,0,0,0-2.77,0" transform="translate(-15.83 -1.17)"/><path class="cls-4" d="M840.91,132.4v-4.54a5.45,5.45,0,0,0-5.41-5.47h-1.91a5.45,5.45,0,0,0-5.42,5.47v4.54a5.46,5.46,0,0,0,5.42,5.48h1.91a5.45,5.45,0,0,0,5.41-5.48m-2.71,0a2.71,2.71,0,0,1-2.7,2.73h-1.91a2.71,2.71,0,0,1-2.7-2.73v-4.54a2.71,2.71,0,0,1,2.7-2.72h1.91a2.71,2.71,0,0,1,2.7,2.72Z" transform="translate(-15.83 -1.17)"/><path class="cls-4" d="M1002.51,132.4v-4.54a5.45,5.45,0,0,0-5.41-5.47h-1.92a5.45,5.45,0,0,0-5.42,5.47v4.54a5.46,5.46,0,0,0,5.42,5.48h1.92a5.45,5.45,0,0,0,5.41-5.48m-2.72,0a2.71,2.71,0,0,1-2.69,2.73h-1.92a2.71,2.71,0,0,1-2.7-2.73v-4.54a2.71,2.71,0,0,1,2.7-2.72h1.92a2.71,2.71,0,0,1,2.69,2.72Z" transform="translate(-15.83 -1.17)"/><path class="cls-3" d="M926.93,140.3v-6.4a7.69,7.69,0,0,0-7.65-7.73h-2.7a7.69,7.69,0,0,0-7.65,7.73v6.4a7.69,7.69,0,0,0,7.65,7.72h2.7a7.69,7.69,0,0,0,7.65-7.72m-3.07.48a4.41,4.41,0,0,1-4.38,4.42h-3.11a4.41,4.41,0,0,1-4.38-4.42v-7.37a4.41,4.41,0,0,1,4.38-4.42h3.11a4.41,4.41,0,0,1,4.38,4.42Z" transform="translate(-15.83 -1.17)"/><path class="cls-3" d="M819.17,79v6.4a7.69,7.69,0,0,0,7.65,7.72h2.7a7.69,7.69,0,0,0,7.64-7.72V79a7.7,7.7,0,0,0-7.64-7.73h-2.7A7.7,7.7,0,0,0,819.17,79m3.06-.48a4.42,4.42,0,0,1,4.38-4.43h3.11a4.42,4.42,0,0,1,4.38,4.43v7.36a4.41,4.41,0,0,1-4.38,4.42h-3.11a4.41,4.41,0,0,1-4.38-4.42Z" transform="translate(-15.83 -1.17)"/><path class="cls-3" d="M903.75,79v6.4a7.68,7.68,0,0,0,7.64,7.72h2.71a7.69,7.69,0,0,0,7.64-7.72V79a7.7,7.7,0,0,0-7.64-7.73h-2.71A7.69,7.69,0,0,0,903.75,79m3.06-.48a4.42,4.42,0,0,1,4.38-4.43h3.11a4.42,4.42,0,0,1,4.38,4.43v7.36a4.41,4.41,0,0,1-4.38,4.42h-3.11a4.41,4.41,0,0,1-4.38-4.42Z" transform="translate(-15.83 -1.17)"/><path class="cls-3" d="M988.33,79v6.4A7.69,7.69,0,0,0,996,93.08h2.69a7.7,7.7,0,0,0,7.66-7.72V79a7.71,7.71,0,0,0-7.66-7.73H996A7.7,7.7,0,0,0,988.33,79m3.06-.48a4.42,4.42,0,0,1,4.38-4.43h3.11a4.41,4.41,0,0,1,4.38,4.43v7.36a4.41,4.41,0,0,1-4.38,4.42h-3.11a4.41,4.41,0,0,1-4.38-4.42Z" transform="translate(-15.83 -1.17)"/><path class="cls-3" d="M1172.62,46a14.9,14.9,0,0,1-2.41,3.48,12.31,12.31,0,0,1-3.29,2.27c-4.55,2.81-2.34,7.72.92,11s7.18,4.68,10.91.92l5.69-5.75c3.71-3.75,2.53-7.9-.73-11.19s-8-5.31-11.09-.75" transform="translate(-15.83 -1.17)"/><path class="cls-3" d="M1166.83,31.94c-2.8-2.84-6.84-4.57-9.55-.64a13.21,13.21,0,0,1-2.08,3,10.84,10.84,0,0,1-2.83,2c-3.94,2.42-2,6.65.78,9.5s6.2,4.05,9.41.8l4.91-5c3.21-3.24,2.18-6.82-.64-9.66" transform="translate(-15.83 -1.17)"/><path class="cls-3" d="M1140.08,14.85a10.26,10.26,0,0,1-1.68,2.42,8.62,8.62,0,0,1-2.28,1.59c-3.18,1.95-1.64,5.37.63,7.66s5,3.26,7.59.64l4-4c2.59-2.61,1.76-5.5-.52-7.79s-5.53-3.69-7.71-.52" transform="translate(-15.83 -1.17)"/><path class="cls-3" d="M1131.7,13.37l3-3c2-2,1.32-4.14-.39-5.86h0c-1.7-1.72-4.16-2.78-5.8-.38a8.15,8.15,0,0,1-1.27,1.82,6.47,6.47,0,0,1-1.72,1.19c-2.38,1.47-1.23,4,.48,5.77s3.77,2.45,5.72.48" transform="translate(-15.83 -1.17)"/><path class="cls-3" d="M1218.45,46a14.9,14.9,0,0,0,2.41,3.48,12.48,12.48,0,0,0,3.29,2.27c4.56,2.81,2.34,7.72-.92,11s-7.18,4.68-10.9.92l-5.7-5.75c-3.72-3.75-2.52-7.9.74-11.19s7.94-5.31,11.08-.75" transform="translate(-15.83 -1.17)"/><path class="cls-3" d="M1224.23,31.94c2.81-2.84,6.86-4.57,9.56-.64a13.21,13.21,0,0,0,2.08,3,10.84,10.84,0,0,0,2.83,2c3.94,2.42,2,6.65-.78,9.5s-6.2,4.05-9.41.8l-4.91-5c-3.21-3.24-2.18-6.82.63-9.66" transform="translate(-15.83 -1.17)"/><path class="cls-3" d="M1251,14.85a10.26,10.26,0,0,0,1.68,2.42,8.58,8.58,0,0,0,2.29,1.59c3.17,1.95,1.63,5.37-.65,7.66s-5,3.26-7.58.64l-4-4c-2.58-2.61-1.76-5.5.51-7.79s5.54-3.69,7.72-.52" transform="translate(-15.83 -1.17)"/><path class="cls-3" d="M1259.37,13.37l-3-3c-2-2-1.32-4.14.39-5.86h0c1.71-1.72,4.16-2.78,5.8-.38a8.15,8.15,0,0,0,1.27,1.82,6.47,6.47,0,0,0,1.72,1.19c2.39,1.47,1.22,4-.49,5.77s-3.76,2.45-5.71.48" transform="translate(-15.83 -1.17)"/><path class="cls-3" d="M1334.21,46a15.06,15.06,0,0,1-2.4,3.48,12.48,12.48,0,0,1-3.29,2.27c-4.56,2.81-2.34,7.72.92,11s7.18,4.68,10.9.92L1346,58c3.72-3.75,2.53-7.9-.73-11.19s-8-5.31-11.09-.75" transform="translate(-15.83 -1.17)"/><path class="cls-3" d="M1328.43,31.94c-2.82-2.84-6.85-4.57-9.56-.64a13.38,13.38,0,0,1-2.07,3,11,11,0,0,1-2.84,2c-3.94,2.42-2,6.65.79,9.5s6.19,4.05,9.4.8l4.92-5c3.2-3.24,2.17-6.82-.64-9.66" transform="translate(-15.83 -1.17)"/><path class="cls-3" d="M1301.67,14.85a10.41,10.41,0,0,1-1.67,2.42,8.55,8.55,0,0,1-2.3,1.59c-3.17,1.95-1.62,5.37.65,7.66s5,3.26,7.59.64l4-4c2.58-2.61,1.76-5.5-.51-7.79s-5.53-3.69-7.72-.52" transform="translate(-15.83 -1.17)"/><path class="cls-3" d="M1293.29,13.37l3-3c1.94-2,1.32-4.14-.39-5.86h0c-1.71-1.72-4.16-2.78-5.81-.38a7.93,7.93,0,0,1-1.26,1.82,6.44,6.44,0,0,1-1.73,1.19c-2.38,1.47-1.22,4,.49,5.77s3.76,2.45,5.71.48" transform="translate(-15.83 -1.17)"/><path class="cls-3" d="M1380,46a14.76,14.76,0,0,0,2.42,3.48,12.34,12.34,0,0,0,3.28,2.27c4.56,2.81,2.34,7.72-.92,11s-7.18,4.68-10.9.92l-5.7-5.75c-3.71-3.75-2.52-7.9.74-11.19s7.94-5.31,11.08-.75" transform="translate(-15.83 -1.17)"/><path class="cls-3" d="M1385.83,31.94c2.81-2.84,6.85-4.57,9.55-.64a13.21,13.21,0,0,0,2.08,3,11,11,0,0,0,2.84,2c3.93,2.42,2,6.65-.8,9.5s-6.19,4.05-9.4.8l-4.91-5c-3.2-3.24-2.18-6.82.64-9.66" transform="translate(-15.83 -1.17)"/><path class="cls-3" d="M1412.58,14.85a10.62,10.62,0,0,0,1.68,2.42,8.58,8.58,0,0,0,2.29,1.59c3.17,1.95,1.63,5.37-.64,7.66s-5,3.26-7.59.64l-4-4c-2.58-2.61-1.75-5.5.52-7.79s5.53-3.69,7.71-.52" transform="translate(-15.83 -1.17)"/><path class="cls-3" d="M1421,13.37l-3-3c-2-2-1.32-4.14.39-5.86h0c1.7-1.72,4.16-2.78,5.8-.38a8.15,8.15,0,0,0,1.27,1.82,6.47,6.47,0,0,0,1.72,1.19c2.38,1.47,1.23,4-.48,5.77s-3.77,2.45-5.71.48" transform="translate(-15.83 -1.17)"/><path class="cls-3" d="M1184.93,23.3a2,2,0,0,0,0-2.77L1166.43,1.77a1.94,1.94,0,1,0-2.77,2.73l18.5,18.77a2,2,0,0,0,2.77,0" transform="translate(-15.83 -1.17)"/><path class="cls-3" d="M1210.8,23.3a2,2,0,0,1,0-2.77l18.51-18.76a1.94,1.94,0,1,1,2.77,2.73l-18.51,18.77a2,2,0,0,1-2.77,0" transform="translate(-15.83 -1.17)"/><path class="cls-3" d="M1345.37,23.3a2,2,0,0,0,0-2.77L1326.86,1.77a1.94,1.94,0,0,0-2.76,0,2,2,0,0,0,0,2.77l18.51,18.77a2,2,0,0,0,2.77,0" transform="translate(-15.83 -1.17)"/><path class="cls-3" d="M1372.57,23.3a2,2,0,0,1,0-2.77l18.51-18.76a1.94,1.94,0,1,1,2.77,2.73l-18.51,18.77a2,2,0,0,1-2.77,0" transform="translate(-15.83 -1.17)"/><path class="cls-3" d="M1396.11,76.76a2,2,0,0,1,0-2.76l50.32-50.58a1.95,1.95,0,1,1,2.77,2.74l-50.31,50.57a2,2,0,0,1-2.77,0" transform="translate(-15.83 -1.17)"/><path class="cls-3" d="M1286.91,47.54a2,2,0,0,0,0,2.77l18.51,18.77a1.95,1.95,0,1,0,2.77-2.74l-18.51-18.77a2,2,0,0,0-2.77,0" transform="translate(-15.83 -1.17)"/><path class="cls-3" d="M1264.17,47.54a2,2,0,0,1,0,2.77l-18.52,18.77a1.95,1.95,0,1,1-2.77-2.74l18.51-18.77a2,2,0,0,1,2.77,0" transform="translate(-15.83 -1.17)"/><path class="cls-3" d="M1156.56,76.76a2,2,0,0,0,0-2.76l-50.32-50.58a1.94,1.94,0,1,0-2.76,2.74l50.31,50.57a2,2,0,0,0,2.77,0" transform="translate(-15.83 -1.17)"/><path class="cls-4" d="M1350.75,36.48V41a5.46,5.46,0,0,0,5.42,5.48h1.92A5.45,5.45,0,0,0,1363.5,41V36.48a5.45,5.45,0,0,0-5.41-5.47h-1.92a5.46,5.46,0,0,0-5.42,5.47m2.72,0a2.71,2.71,0,0,1,2.7-2.72h1.92a2.72,2.72,0,0,1,2.7,2.72V41a2.73,2.73,0,0,1-2.7,2.73h-1.92a2.72,2.72,0,0,1-2.7-2.73Z" transform="translate(-15.83 -1.17)"/><path class="cls-4" d="M1189.16,36.48V41a5.46,5.46,0,0,0,5.42,5.48h1.91a5.46,5.46,0,0,0,5.42-5.48V36.48a5.45,5.45,0,0,0-5.42-5.47h-1.91a5.45,5.45,0,0,0-5.42,5.47m2.72,0a2.71,2.71,0,0,1,2.7-2.72h1.91a2.71,2.71,0,0,1,2.7,2.72V41a2.72,2.72,0,0,1-2.7,2.73h-1.91a2.72,2.72,0,0,1-2.7-2.73Z" transform="translate(-15.83 -1.17)"/><path class="cls-3" d="M1264.75,28.59V35a7.69,7.69,0,0,0,7.64,7.72h2.7a7.7,7.7,0,0,0,7.65-7.72V28.59a7.69,7.69,0,0,0-7.65-7.72h-2.7a7.68,7.68,0,0,0-7.64,7.72m3-.47a4.41,4.41,0,0,1,4.39-4.43h3.1a4.4,4.4,0,0,1,4.38,4.43v7.35a4.41,4.41,0,0,1-4.38,4.43h-3.1a4.42,4.42,0,0,1-4.39-4.43Z" transform="translate(-15.83 -1.17)"/><path class="cls-3" d="M1380,122.85a14.8,14.8,0,0,1,2.42-3.47,12.23,12.23,0,0,1,3.28-2.28c4.56-2.8,2.34-7.71-.92-11s-7.18-4.68-10.9-.92l-5.7,5.74c-3.71,3.76-2.52,7.9.74,11.2s7.94,5.31,11.08.74" transform="translate(-15.83 -1.17)"/><path class="cls-3" d="M1385.83,137c2.81,2.84,6.85,4.58,9.55.64a13.21,13.21,0,0,1,2.08-3,11.16,11.16,0,0,1,2.84-2c3.93-2.41,2-6.65-.8-9.49s-6.19-4-9.4-.8l-4.91,5c-3.2,3.23-2.18,6.81.64,9.66" transform="translate(-15.83 -1.17)"/><path class="cls-3" d="M1412.58,154a11.11,11.11,0,0,1,1.68-2.42,8.69,8.69,0,0,1,2.29-1.58c3.17-1.95,1.63-5.37-.64-7.66s-5-3.26-7.59-.65l-4,4c-2.58,2.61-1.75,5.5.52,7.8s5.53,3.69,7.71.51" transform="translate(-15.83 -1.17)"/><path class="cls-3" d="M1421,155.52l-3,3c-2,2-1.32,4.13.39,5.86s4.16,2.79,5.8.39a8.39,8.39,0,0,1,1.27-1.82,6.47,6.47,0,0,1,1.72-1.19c2.38-1.47,1.23-4-.48-5.77s-3.77-2.45-5.71-.48" transform="translate(-15.83 -1.17)"/><path class="cls-3" d="M1334.21,122.85a15.1,15.1,0,0,0-2.4-3.47,12.37,12.37,0,0,0-3.29-2.28c-4.56-2.8-2.34-7.71.92-11s7.18-4.68,10.9-.92l5.69,5.74c3.72,3.76,2.53,7.9-.73,11.2s-8,5.31-11.09.74" transform="translate(-15.83 -1.17)"/><path class="cls-3" d="M1328.43,137c-2.82,2.84-6.85,4.58-9.56.64a13.38,13.38,0,0,0-2.07-3,11.16,11.16,0,0,0-2.84-2c-3.94-2.41-2-6.65.79-9.49s6.19-4,9.4-.8l4.92,5c3.2,3.23,2.17,6.81-.64,9.66" transform="translate(-15.83 -1.17)"/><path class="cls-3" d="M1301.67,154a10.88,10.88,0,0,0-1.67-2.42,8.66,8.66,0,0,0-2.3-1.58c-3.17-1.95-1.62-5.37.65-7.66s5-3.26,7.59-.65l4,4c2.58,2.61,1.76,5.5-.51,7.8s-5.53,3.69-7.72.51" transform="translate(-15.83 -1.17)"/><path class="cls-3" d="M1293.29,155.52l3,3c1.94,2,1.32,4.13-.39,5.86s-4.16,2.79-5.81.39a8.17,8.17,0,0,0-1.26-1.82,6.44,6.44,0,0,0-1.73-1.19c-2.38-1.47-1.22-4,.49-5.77s3.76-2.45,5.71-.48" transform="translate(-15.83 -1.17)"/><path class="cls-3" d="M1218.45,122.85a15,15,0,0,1,2.41-3.47,12.37,12.37,0,0,1,3.29-2.28c4.56-2.8,2.34-7.71-.92-11s-7.18-4.68-10.9-.92l-5.7,5.74c-3.72,3.76-2.52,7.9.74,11.2s7.94,5.31,11.08.74" transform="translate(-15.83 -1.17)"/><path class="cls-3" d="M1224.23,137c2.81,2.84,6.86,4.58,9.56.64a13.21,13.21,0,0,1,2.08-3,11,11,0,0,1,2.83-2c3.94-2.41,2-6.65-.78-9.49s-6.2-4-9.41-.8l-4.91,5c-3.21,3.23-2.18,6.81.63,9.66" transform="translate(-15.83 -1.17)"/><path class="cls-3" d="M1251,154a10.71,10.71,0,0,1,1.68-2.42A8.69,8.69,0,0,1,1255,150c3.17-1.95,1.63-5.37-.65-7.66s-5-3.26-7.58-.65l-4,4c-2.58,2.61-1.76,5.5.51,7.8s5.54,3.69,7.72.51" transform="translate(-15.83 -1.17)"/><path class="cls-3" d="M1259.37,155.52l-3,3c-2,2-1.32,4.13.39,5.86s4.16,2.79,5.8.39a8.39,8.39,0,0,1,1.27-1.82,6.47,6.47,0,0,1,1.72-1.19c2.39-1.47,1.22-4-.49-5.77s-3.76-2.45-5.71-.48" transform="translate(-15.83 -1.17)"/><path class="cls-3" d="M1172.62,122.85a15,15,0,0,0-2.41-3.47,12.2,12.2,0,0,0-3.29-2.28c-4.55-2.8-2.34-7.71.92-11s7.18-4.68,10.91-.92l5.69,5.74c3.71,3.76,2.53,7.9-.73,11.2s-8,5.31-11.09.74" transform="translate(-15.83 -1.17)"/><path class="cls-3" d="M1166.83,137c-2.8,2.84-6.84,4.58-9.55.64a13.21,13.21,0,0,0-2.08-3,11,11,0,0,0-2.83-2c-3.94-2.41-2-6.65.78-9.49s6.2-4,9.41-.8l4.91,5c3.21,3.23,2.18,6.81-.64,9.66" transform="translate(-15.83 -1.17)"/><path class="cls-3" d="M1140.08,154a10.71,10.71,0,0,0-1.68-2.42,8.73,8.73,0,0,0-2.28-1.58c-3.18-1.95-1.64-5.37.63-7.66s5-3.26,7.59-.65l4,4c2.59,2.61,1.76,5.5-.52,7.8s-5.53,3.69-7.71.51" transform="translate(-15.83 -1.17)"/><path class="cls-3" d="M1131.7,155.52l3,3c2,2,1.32,4.13-.39,5.86s-4.16,2.79-5.8.39a8.39,8.39,0,0,0-1.27-1.82,6.47,6.47,0,0,0-1.72-1.19c-2.38-1.47-1.23-4,.48-5.77s3.77-2.45,5.72-.48" transform="translate(-15.83 -1.17)"/><path class="cls-3" d="M1367.73,145.59a2,2,0,0,0,0,2.77l18.51,18.77a1.95,1.95,0,1,0,2.77-2.74l-18.51-18.77a2,2,0,0,0-2.77,0" transform="translate(-15.83 -1.17)"/><path class="cls-3" d="M1341.86,145.59a2,2,0,0,1,0,2.77l-18.51,18.77a1.95,1.95,0,1,1-2.77-2.74l18.5-18.77a2,2,0,0,1,2.77,0" transform="translate(-15.83 -1.17)"/><path class="cls-3" d="M1207.29,145.59a2,2,0,0,0,0,2.77l18.52,18.77a1.95,1.95,0,1,0,2.77-2.74l-18.51-18.77a2,2,0,0,0-2.77,0" transform="translate(-15.83 -1.17)"/><path class="cls-3" d="M1180.09,145.59a2,2,0,0,1,0,2.77l-18.52,18.77a1.95,1.95,0,1,1-2.77-2.74l18.51-18.77a2,2,0,0,1,2.77,0" transform="translate(-15.83 -1.17)"/><path class="cls-3" d="M1156.56,92.13a2,2,0,0,1,0,2.77l-50.32,50.57a1.94,1.94,0,1,1-2.76-2.74l50.31-50.57a2,2,0,0,1,2.77,0" transform="translate(-15.83 -1.17)"/><path class="cls-3" d="M1265.75,121.35a2,2,0,0,0,0-2.77l-18.52-18.77a1.95,1.95,0,1,0-2.77,2.74L1263,121.32a2,2,0,0,0,2.77,0" transform="translate(-15.83 -1.17)"/><path class="cls-3" d="M1288.49,121.35a2,2,0,0,1,0-2.77L1307,99.81a2,2,0,0,1,2.76,0,2,2,0,0,1,0,2.77l-18.52,18.77a2,2,0,0,1-2.77,0" transform="translate(-15.83 -1.17)"/><path class="cls-3" d="M1396.11,92.13a2,2,0,0,0,0,2.77l50.32,50.57a1.95,1.95,0,1,0,2.77-2.74l-50.31-50.57a2,2,0,0,0-2.77,0" transform="translate(-15.83 -1.17)"/><path class="cls-4" d="M1201.91,132.4v-4.54a5.45,5.45,0,0,0-5.42-5.47h-1.91a5.45,5.45,0,0,0-5.42,5.47v4.54a5.46,5.46,0,0,0,5.42,5.48h1.91a5.46,5.46,0,0,0,5.42-5.48m-2.72,0a2.71,2.71,0,0,1-2.7,2.73h-1.91a2.71,2.71,0,0,1-2.7-2.73v-4.54a2.71,2.71,0,0,1,2.7-2.72h1.91a2.71,2.71,0,0,1,2.7,2.72Z" transform="translate(-15.83 -1.17)"/><path class="cls-4" d="M1363.5,132.4v-4.54a5.45,5.45,0,0,0-5.41-5.47h-1.92a5.46,5.46,0,0,0-5.42,5.47v4.54a5.46,5.46,0,0,0,5.42,5.48h1.92a5.45,5.45,0,0,0,5.41-5.48m-2.71,0a2.72,2.72,0,0,1-2.7,2.73h-1.92a2.72,2.72,0,0,1-2.7-2.73v-4.54a2.72,2.72,0,0,1,2.7-2.72h1.92a2.72,2.72,0,0,1,2.7,2.72Z" transform="translate(-15.83 -1.17)"/><path class="cls-3" d="M1287.92,140.3v-6.4a7.69,7.69,0,0,0-7.65-7.73h-2.7a7.69,7.69,0,0,0-7.65,7.73v6.4a7.69,7.69,0,0,0,7.65,7.72h2.7a7.69,7.69,0,0,0,7.65-7.72m-3.06.48a4.41,4.41,0,0,1-4.38,4.42h-3.11a4.41,4.41,0,0,1-4.38-4.42v-7.37a4.41,4.41,0,0,1,4.38-4.42h3.11a4.41,4.41,0,0,1,4.38,4.42Z" transform="translate(-15.83 -1.17)"/><path class="cls-3" d="M1180.16,79v6.4a7.69,7.69,0,0,0,7.65,7.72h2.7a7.7,7.7,0,0,0,7.65-7.72V79a7.71,7.71,0,0,0-7.65-7.73h-2.7a7.7,7.7,0,0,0-7.65,7.73m3.06-.48a4.42,4.42,0,0,1,4.39-4.43h3.1a4.41,4.41,0,0,1,4.38,4.43v7.36a4.41,4.41,0,0,1-4.38,4.42h-3.1a4.42,4.42,0,0,1-4.39-4.42Z" transform="translate(-15.83 -1.17)"/><path class="cls-3" d="M1264.74,79v6.4a7.69,7.69,0,0,0,7.65,7.72h2.7a7.7,7.7,0,0,0,7.65-7.72V79a7.71,7.71,0,0,0-7.65-7.73h-2.7a7.7,7.7,0,0,0-7.65,7.73m3.06-.48a4.42,4.42,0,0,1,4.39-4.43h3.1a4.41,4.41,0,0,1,4.38,4.43v7.36a4.41,4.41,0,0,1-4.38,4.42h-3.1a4.42,4.42,0,0,1-4.39-4.42Z" transform="translate(-15.83 -1.17)"/><path class="cls-3" d="M1349.32,79v6.4a7.69,7.69,0,0,0,7.65,7.72h2.7a7.7,7.7,0,0,0,7.65-7.72V79a7.71,7.71,0,0,0-7.65-7.73H1357a7.7,7.7,0,0,0-7.65,7.73m3.07-.48a4.41,4.41,0,0,1,4.38-4.43h3.1a4.41,4.41,0,0,1,4.38,4.43v7.36a4.41,4.41,0,0,1-4.38,4.42h-3.1a4.41,4.41,0,0,1-4.38-4.42Z" transform="translate(-15.83 -1.17)"/><path class="cls-3" d="M1537.7,46a14.9,14.9,0,0,1-2.41,3.48,12.34,12.34,0,0,1-3.28,2.27c-4.57,2.81-2.34,7.72.92,11s7.18,4.68,10.9.92l5.7-5.75c3.7-3.75,2.52-7.9-.75-11.19s-7.93-5.31-11.08-.75" transform="translate(-15.83 -1.17)"/><path class="cls-3" d="M1531.92,31.94c-2.82-2.84-6.86-4.57-9.55-.64a13.43,13.43,0,0,1-2.09,3,10.84,10.84,0,0,1-2.83,2c-3.94,2.42-2,6.65.79,9.5s6.19,4.05,9.4.8l4.92-5c3.2-3.24,2.17-6.82-.64-9.66" transform="translate(-15.83 -1.17)"/><path class="cls-3" d="M1505.16,14.85a10.26,10.26,0,0,1-1.68,2.42,8.58,8.58,0,0,1-2.29,1.59c-3.17,1.95-1.62,5.37.65,7.66s5,3.26,7.59.64l4-4c2.58-2.61,1.76-5.5-.51-7.79s-5.54-3.69-7.72-.52" transform="translate(-15.83 -1.17)"/><path class="cls-3" d="M1496.78,13.37l3-3c1.94-2,1.32-4.14-.39-5.86h0c-1.71-1.72-4.16-2.78-5.8-.38a8.15,8.15,0,0,1-1.27,1.82,6.44,6.44,0,0,1-1.73,1.19c-2.38,1.47-1.22,4,.49,5.77s3.76,2.45,5.71.48" transform="translate(-15.83 -1.17)"/><path class="cls-3" d="M1583.53,46a14.9,14.9,0,0,0,2.41,3.48,12.31,12.31,0,0,0,3.29,2.27c4.56,2.81,2.34,7.72-.92,11s-7.18,4.68-10.9.92l-5.7-5.75c-3.71-3.75-2.52-7.9.74-11.19s7.94-5.31,11.08-.75" transform="translate(-15.83 -1.17)"/><path class="cls-3" d="M1589.32,31.94c2.81-2.84,6.85-4.57,9.55-.64a13.21,13.21,0,0,0,2.08,3,11,11,0,0,0,2.84,2c3.93,2.42,2,6.65-.79,9.5s-6.2,4.05-9.41.8l-4.91-5c-3.2-3.24-2.18-6.82.64-9.66" transform="translate(-15.83 -1.17)"/><path class="cls-3" d="M1616.07,14.85a10.26,10.26,0,0,0,1.68,2.42,8.75,8.75,0,0,0,2.29,1.59c3.18,1.95,1.63,5.37-.64,7.66s-5,3.26-7.59.64l-4-4c-2.58-2.61-1.75-5.5.52-7.79s5.53-3.69,7.71-.52" transform="translate(-15.83 -1.17)"/><path class="cls-3" d="M1624.46,13.37l-3-3c-1.94-2-1.31-4.14.39-5.86h0c1.71-1.72,4.17-2.78,5.81-.38a7.78,7.78,0,0,0,1.27,1.82,6.47,6.47,0,0,0,1.72,1.19c2.38,1.47,1.23,4-.48,5.77s-3.77,2.45-5.71.48" transform="translate(-15.83 -1.17)"/><path class="cls-3" d="M1699.3,46a14.9,14.9,0,0,1-2.41,3.48,12.48,12.48,0,0,1-3.29,2.27c-4.56,2.81-2.34,7.72.92,11s7.18,4.68,10.9.92l5.69-5.75c3.72-3.75,2.53-7.9-.73-11.19s-7.94-5.31-11.08-.75" transform="translate(-15.83 -1.17)"/><path class="cls-3" d="M1693.51,31.94c-2.81-2.84-6.85-4.57-9.56-.64a13.21,13.21,0,0,1-2.08,3,10.84,10.84,0,0,1-2.83,2c-3.93,2.42-2,6.65.79,9.5s6.2,4.05,9.4.8l4.92-5c3.2-3.24,2.17-6.82-.64-9.66" transform="translate(-15.83 -1.17)"/><path class="cls-3" d="M1666.76,14.85a10.62,10.62,0,0,1-1.68,2.42,8.58,8.58,0,0,1-2.29,1.59c-3.17,1.95-1.63,5.37.64,7.66s5,3.26,7.58.64l4-4c2.59-2.61,1.76-5.5-.51-7.79s-5.53-3.69-7.71-.52" transform="translate(-15.83 -1.17)"/><path class="cls-3" d="M1658.37,13.37l3-3c1.94-2,1.32-4.14-.39-5.86h0c-1.71-1.72-4.16-2.78-5.8-.38a8.15,8.15,0,0,1-1.27,1.82,6.44,6.44,0,0,1-1.73,1.19c-2.38,1.47-1.22,4,.5,5.77s3.76,2.45,5.7.48" transform="translate(-15.83 -1.17)"/><path class="cls-3" d="M1745.13,46a15.06,15.06,0,0,0,2.4,3.48,12.48,12.48,0,0,0,3.29,2.27c4.56,2.81,2.34,7.72-.92,11s-7.18,4.68-10.89.92l-5.7-5.75c-3.71-3.75-2.53-7.9.73-11.19s8-5.31,11.09-.75" transform="translate(-15.83 -1.17)"/><path class="cls-3" d="M1750.91,31.94c2.81-2.84,6.85-4.57,9.56-.64a13.21,13.21,0,0,0,2.08,3,10.84,10.84,0,0,0,2.83,2c3.93,2.42,2,6.65-.79,9.5s-6.2,4.05-9.4.8l-4.92-5c-3.2-3.24-2.17-6.82.64-9.66" transform="translate(-15.83 -1.17)"/><path class="cls-3" d="M1777.67,14.85a10.41,10.41,0,0,0,1.67,2.42,8.75,8.75,0,0,0,2.29,1.59c3.18,1.95,1.63,5.37-.64,7.66s-5,3.26-7.58.64l-4-4c-2.58-2.61-1.76-5.5.51-7.79s5.53-3.69,7.72-.52" transform="translate(-15.83 -1.17)"/><path class="cls-3" d="M1786.05,13.37l-3-3c-1.94-2-1.32-4.14.39-5.86h0c1.71-1.72,4.17-2.78,5.81-.38a7.78,7.78,0,0,0,1.27,1.82,6.47,6.47,0,0,0,1.72,1.19c2.38,1.47,1.22,4-.49,5.77s-3.77,2.45-5.71.48" transform="translate(-15.83 -1.17)"/><path class="cls-3" d="M1550,23.3a2,2,0,0,0,0-2.77L1531.51,1.77a1.94,1.94,0,1,0-2.77,2.73l18.51,18.77a2,2,0,0,0,2.77,0" transform="translate(-15.83 -1.17)"/><path class="cls-3" d="M1575.88,23.3a2,2,0,0,1,0-2.77l18.52-18.76a1.94,1.94,0,1,1,2.77,2.73l-18.51,18.77a2,2,0,0,1-2.77,0" transform="translate(-15.83 -1.17)"/><path class="cls-3" d="M1710.45,23.3a2,2,0,0,0,0-2.77L1692,1.77a1.94,1.94,0,1,0-2.77,2.73l18.5,18.77a2,2,0,0,0,2.77,0" transform="translate(-15.83 -1.17)"/><path class="cls-3" d="M1737.66,23.3a2,2,0,0,1,0-2.77l18.51-18.76a1.94,1.94,0,1,1,2.77,2.73l-18.5,18.77a2,2,0,0,1-2.77,0" transform="translate(-15.83 -1.17)"/><path class="cls-3" d="M1761.19,76.76a2,2,0,0,1,0-2.76l50.32-50.58a1.95,1.95,0,1,1,2.77,2.74L1764,76.73a2,2,0,0,1-2.77,0" transform="translate(-15.83 -1.17)"/><path class="cls-3" d="M1652,47.54a2,2,0,0,0,0,2.77l18.51,18.77a1.95,1.95,0,1,0,2.77-2.74l-18.5-18.77a2,2,0,0,0-2.77,0" transform="translate(-15.83 -1.17)"/><path class="cls-3" d="M1629.26,47.54a2,2,0,0,1,0,2.77l-18.52,18.77a1.95,1.95,0,1,1-2.77-2.74l18.52-18.77a2,2,0,0,1,2.77,0" transform="translate(-15.83 -1.17)"/><path class="cls-3" d="M1521.64,76.76a2,2,0,0,0,0-2.76l-50.32-50.58a1.95,1.95,0,1,0-2.77,2.74l50.31,50.57a2,2,0,0,0,2.77,0" transform="translate(-15.83 -1.17)"/><path class="cls-4" d="M1715.84,36.48V41a5.45,5.45,0,0,0,5.41,5.48h1.91a5.46,5.46,0,0,0,5.43-5.48V36.48a5.46,5.46,0,0,0-5.43-5.47h-1.91a5.45,5.45,0,0,0-5.41,5.47m2.72,0a2.71,2.71,0,0,1,2.69-2.72h1.91a2.71,2.71,0,0,1,2.7,2.72V41a2.71,2.71,0,0,1-2.7,2.73h-1.91a2.72,2.72,0,0,1-2.69-2.73Z" transform="translate(-15.83 -1.17)"/><path class="cls-4" d="M1554.24,36.48V41a5.46,5.46,0,0,0,5.42,5.48h1.92A5.45,5.45,0,0,0,1567,41V36.48a5.45,5.45,0,0,0-5.41-5.47h-1.92a5.45,5.45,0,0,0-5.42,5.47m2.72,0a2.71,2.71,0,0,1,2.7-2.72h1.92a2.71,2.71,0,0,1,2.69,2.72V41a2.72,2.72,0,0,1-2.69,2.73h-1.92A2.72,2.72,0,0,1,1557,41Z" transform="translate(-15.83 -1.17)"/><path class="cls-3" d="M1629.83,28.59V35a7.7,7.7,0,0,0,7.64,7.72h2.7a7.71,7.71,0,0,0,7.66-7.72V28.59a7.7,7.7,0,0,0-7.66-7.72h-2.7a7.69,7.69,0,0,0-7.64,7.72m3.06-.47a4.41,4.41,0,0,1,4.38-4.43h3.11a4.41,4.41,0,0,1,4.38,4.43v7.35a4.42,4.42,0,0,1-4.38,4.43h-3.11a4.42,4.42,0,0,1-4.38-4.43Z" transform="translate(-15.83 -1.17)"/><path class="cls-3" d="M1745.13,122.85a15.1,15.1,0,0,1,2.4-3.47,12.37,12.37,0,0,1,3.29-2.28c4.56-2.8,2.34-7.71-.92-11s-7.18-4.68-10.89-.92l-5.7,5.74c-3.71,3.76-2.53,7.9.73,11.2s8,5.31,11.09.74" transform="translate(-15.83 -1.17)"/><path class="cls-3" d="M1750.91,137c2.81,2.84,6.85,4.58,9.56.64a13.21,13.21,0,0,1,2.08-3,11,11,0,0,1,2.83-2c3.93-2.41,2-6.65-.79-9.49s-6.2-4-9.4-.8l-4.92,5c-3.2,3.23-2.17,6.81.64,9.66" transform="translate(-15.83 -1.17)"/><path class="cls-3" d="M1777.67,154a10.88,10.88,0,0,1,1.67-2.42,8.87,8.87,0,0,1,2.29-1.58c3.18-1.95,1.63-5.37-.64-7.66s-5-3.26-7.58-.65l-4,4c-2.58,2.61-1.76,5.5.51,7.8s5.53,3.69,7.72.51" transform="translate(-15.83 -1.17)"/><path class="cls-3" d="M1786.05,155.52l-3,3c-1.94,2-1.32,4.13.39,5.86s4.17,2.79,5.81.39a8,8,0,0,1,1.27-1.82,6.47,6.47,0,0,1,1.72-1.19c2.38-1.47,1.22-4-.49-5.77s-3.77-2.45-5.71-.48" transform="translate(-15.83 -1.17)"/><path class="cls-3" d="M1699.3,122.85a15,15,0,0,0-2.41-3.47,12.37,12.37,0,0,0-3.29-2.28c-4.56-2.8-2.34-7.71.92-11s7.18-4.68,10.9-.92l5.69,5.74c3.72,3.76,2.53,7.9-.73,11.2s-7.94,5.31-11.08.74" transform="translate(-15.83 -1.17)"/><path class="cls-3" d="M1693.51,137c-2.81,2.84-6.85,4.58-9.56.64a13.21,13.21,0,0,0-2.08-3,11,11,0,0,0-2.83-2c-3.93-2.41-2-6.65.79-9.49s6.2-4,9.4-.8l4.92,5c3.2,3.23,2.17,6.81-.64,9.66" transform="translate(-15.83 -1.17)"/><path class="cls-3" d="M1666.76,154a11.11,11.11,0,0,0-1.68-2.42,8.69,8.69,0,0,0-2.29-1.58c-3.17-1.95-1.63-5.37.64-7.66s5-3.26,7.58-.65l4,4c2.59,2.61,1.76,5.5-.51,7.8s-5.53,3.69-7.71.51" transform="translate(-15.83 -1.17)"/><path class="cls-3" d="M1658.37,155.52l3,3c1.94,2,1.32,4.13-.39,5.86s-4.16,2.79-5.8.39a8.39,8.39,0,0,0-1.27-1.82,6.44,6.44,0,0,0-1.73-1.19c-2.38-1.47-1.22-4,.5-5.77s3.76-2.45,5.7-.48" transform="translate(-15.83 -1.17)"/><path class="cls-3" d="M1583.53,122.85a15,15,0,0,1,2.41-3.47,12.2,12.2,0,0,1,3.29-2.28c4.56-2.8,2.34-7.71-.92-11s-7.18-4.68-10.9-.92l-5.7,5.74c-3.71,3.76-2.52,7.9.74,11.2s7.94,5.31,11.08.74" transform="translate(-15.83 -1.17)"/><path class="cls-3" d="M1589.32,137c2.81,2.84,6.85,4.58,9.55.64a13.21,13.21,0,0,1,2.08-3,11.16,11.16,0,0,1,2.84-2c3.93-2.41,2-6.65-.79-9.49s-6.2-4-9.41-.8l-4.91,5c-3.2,3.23-2.18,6.81.64,9.66" transform="translate(-15.83 -1.17)"/><path class="cls-3" d="M1616.07,154a10.71,10.71,0,0,1,1.68-2.42A8.87,8.87,0,0,1,1620,150c3.18-1.95,1.63-5.37-.64-7.66s-5-3.26-7.59-.65l-4,4c-2.58,2.61-1.75,5.5.52,7.8s5.53,3.69,7.71.51" transform="translate(-15.83 -1.17)"/><path class="cls-3" d="M1624.46,155.52l-3,3c-1.94,2-1.31,4.13.39,5.86s4.17,2.79,5.81.39a8,8,0,0,1,1.27-1.82,6.47,6.47,0,0,1,1.72-1.19c2.38-1.47,1.23-4-.48-5.77s-3.77-2.45-5.71-.48" transform="translate(-15.83 -1.17)"/><path class="cls-3" d="M1537.7,122.85a15,15,0,0,0-2.41-3.47,12.23,12.23,0,0,0-3.28-2.28c-4.57-2.8-2.34-7.71.92-11s7.18-4.68,10.9-.92l5.7,5.74c3.7,3.76,2.52,7.9-.75,11.2s-7.93,5.31-11.08.74" transform="translate(-15.83 -1.17)"/><path class="cls-3" d="M1531.92,137c-2.82,2.84-6.86,4.58-9.55.64a13.43,13.43,0,0,0-2.09-3,11,11,0,0,0-2.83-2c-3.94-2.41-2-6.65.79-9.49s6.19-4,9.4-.8l4.92,5c3.2,3.23,2.17,6.81-.64,9.66" transform="translate(-15.83 -1.17)"/><path class="cls-3" d="M1505.16,154a10.71,10.71,0,0,0-1.68-2.42,8.69,8.69,0,0,0-2.29-1.58c-3.17-1.95-1.62-5.37.65-7.66s5-3.26,7.59-.65l4,4c2.58,2.61,1.76,5.5-.51,7.8s-5.54,3.69-7.72.51" transform="translate(-15.83 -1.17)"/><path class="cls-3" d="M1496.78,155.52l3,3c1.94,2,1.32,4.13-.39,5.86s-4.16,2.79-5.8.39a8.39,8.39,0,0,0-1.27-1.82,6.44,6.44,0,0,0-1.73-1.19c-2.38-1.47-1.22-4,.49-5.77s3.76-2.45,5.71-.48" transform="translate(-15.83 -1.17)"/><path class="cls-3" d="M1732.81,145.59a2,2,0,0,0,0,2.77l18.52,18.77a1.95,1.95,0,1,0,2.77-2.74l-18.51-18.77a2,2,0,0,0-2.77,0" transform="translate(-15.83 -1.17)"/><path class="cls-3" d="M1707,145.59a2,2,0,0,1,0,2.77l-18.51,18.77a1.95,1.95,0,1,1-2.77-2.74l18.51-18.77a2,2,0,0,1,2.77,0" transform="translate(-15.83 -1.17)"/><path class="cls-3" d="M1572.37,145.59a2,2,0,0,0,0,2.77l18.51,18.77a1.95,1.95,0,1,0,2.77-2.74l-18.51-18.77a2,2,0,0,0-2.77,0" transform="translate(-15.83 -1.17)"/><path class="cls-3" d="M1545.18,145.59a2,2,0,0,1,0,2.77l-18.52,18.77a1.95,1.95,0,1,1-2.77-2.74l18.52-18.77a2,2,0,0,1,2.77,0" transform="translate(-15.83 -1.17)"/><path class="cls-3" d="M1521.64,92.13a2,2,0,0,1,0,2.77l-50.32,50.57a1.95,1.95,0,1,1-2.77-2.74l50.31-50.57a2,2,0,0,1,2.77,0" transform="translate(-15.83 -1.17)"/><path class="cls-3" d="M1630.84,121.35a2,2,0,0,0,0-2.77l-18.52-18.77a1.95,1.95,0,1,0-2.77,2.74l18.52,18.77a2,2,0,0,0,2.77,0" transform="translate(-15.83 -1.17)"/><path class="cls-3" d="M1653.58,121.35a2,2,0,0,1,0-2.77l18.51-18.77a1.95,1.95,0,1,1,2.77,2.74l-18.5,18.77a2,2,0,0,1-2.77,0" transform="translate(-15.83 -1.17)"/><path class="cls-3" d="M1761.19,92.13a2,2,0,0,0,0,2.77l50.32,50.57a1.95,1.95,0,1,0,2.77-2.74L1764,92.16a2,2,0,0,0-2.77,0" transform="translate(-15.83 -1.17)"/><path class="cls-4" d="M1567,132.4v-4.54a5.45,5.45,0,0,0-5.41-5.47h-1.92a5.45,5.45,0,0,0-5.42,5.47v4.54a5.46,5.46,0,0,0,5.42,5.48h1.92a5.45,5.45,0,0,0,5.41-5.48m-2.71,0a2.72,2.72,0,0,1-2.7,2.73h-1.92a2.71,2.71,0,0,1-2.7-2.73v-4.54a2.71,2.71,0,0,1,2.7-2.72h1.92a2.72,2.72,0,0,1,2.7,2.72Z" transform="translate(-15.83 -1.17)"/><path class="cls-4" d="M1728.58,132.4v-4.54a5.45,5.45,0,0,0-5.41-5.47h-1.91a5.45,5.45,0,0,0-5.42,5.47v4.54a5.45,5.45,0,0,0,5.42,5.48h1.91a5.45,5.45,0,0,0,5.41-5.48m-2.71,0a2.71,2.71,0,0,1-2.7,2.73h-1.91a2.71,2.71,0,0,1-2.7-2.73v-4.54a2.71,2.71,0,0,1,2.7-2.72h1.91a2.71,2.71,0,0,1,2.7,2.72Z" transform="translate(-15.83 -1.17)"/><path class="cls-3" d="M1653,140.3v-6.4a7.68,7.68,0,0,0-7.64-7.73h-2.71a7.69,7.69,0,0,0-7.64,7.73v6.4a7.69,7.69,0,0,0,7.64,7.72h2.71a7.68,7.68,0,0,0,7.64-7.72m-3.06.48a4.41,4.41,0,0,1-4.38,4.42h-3.11a4.41,4.41,0,0,1-4.38-4.42v-7.37a4.41,4.41,0,0,1,4.38-4.42h3.11a4.41,4.41,0,0,1,4.38,4.42Z" transform="translate(-15.83 -1.17)"/><path class="cls-3" d="M1545.25,79v6.4a7.68,7.68,0,0,0,7.64,7.72h2.7a7.69,7.69,0,0,0,7.65-7.72V79a7.7,7.7,0,0,0-7.65-7.73h-2.7a7.69,7.69,0,0,0-7.64,7.73m3-.48a4.42,4.42,0,0,1,4.39-4.43h3.11a4.41,4.41,0,0,1,4.37,4.43v7.36a4.4,4.4,0,0,1-4.37,4.42h-3.11a4.42,4.42,0,0,1-4.39-4.42Z" transform="translate(-15.83 -1.17)"/><path class="cls-3" d="M1629.82,79v6.4a7.69,7.69,0,0,0,7.65,7.72h2.7a7.69,7.69,0,0,0,7.65-7.72V79a7.7,7.7,0,0,0-7.65-7.73h-2.7a7.7,7.7,0,0,0-7.65,7.73m3.07-.48a4.41,4.41,0,0,1,4.38-4.43h3.1a4.42,4.42,0,0,1,4.39,4.43v7.36a4.42,4.42,0,0,1-4.39,4.42h-3.1a4.41,4.41,0,0,1-4.38-4.42Z" transform="translate(-15.83 -1.17)"/><path class="cls-3" d="M1714.41,79v6.4a7.68,7.68,0,0,0,7.64,7.72h2.7a7.69,7.69,0,0,0,7.65-7.72V79a7.7,7.7,0,0,0-7.65-7.73h-2.7a7.69,7.69,0,0,0-7.64,7.73m3.06-.48a4.42,4.42,0,0,1,4.38-4.43H1725a4.41,4.41,0,0,1,4.37,4.43v7.36a4.4,4.4,0,0,1-4.37,4.42h-3.11a4.41,4.41,0,0,1-4.38-4.42Z" transform="translate(-15.83 -1.17)"/><path class="cls-3" d="M1898.7,46a14.76,14.76,0,0,1-2.42,3.48,12.34,12.34,0,0,1-3.28,2.27c-4.56,2.81-2.34,7.72.92,11s7.18,4.68,10.9.92l5.7-5.75c3.71-3.75,2.52-7.9-.74-11.19s-7.94-5.31-11.08-.75" transform="translate(-15.83 -1.17)"/><path class="cls-3" d="M1892.91,31.94c-2.81-2.84-6.85-4.57-9.55-.64a13.21,13.21,0,0,1-2.08,3,11,11,0,0,1-2.84,2c-3.93,2.42-2,6.65.79,9.5s6.2,4.05,9.4.8l4.92-5c3.2-3.24,2.17-6.82-.64-9.66" transform="translate(-15.83 -1.17)"/><path class="cls-3" d="M1866.15,14.85a10.06,10.06,0,0,1-1.67,2.42,8.75,8.75,0,0,1-2.29,1.59c-3.18,1.95-1.63,5.37.64,7.66s5,3.26,7.59.64l4-4c2.58-2.61,1.75-5.5-.52-7.79s-5.53-3.69-7.72-.52" transform="translate(-15.83 -1.17)"/><path class="cls-3" d="M1857.77,13.37l3-3c1.94-2,1.32-4.14-.39-5.86h0c-1.7-1.72-4.16-2.78-5.8-.38a8.15,8.15,0,0,1-1.27,1.82,6.47,6.47,0,0,1-1.72,1.19c-2.39,1.47-1.23,4,.48,5.77s3.77,2.45,5.71.48" transform="translate(-15.83 -1.17)"/><path class="cls-3" d="M1944.53,46a14.9,14.9,0,0,0,2.41,3.48,12.34,12.34,0,0,0,3.28,2.27c4.56,2.81,2.34,7.72-.92,11s-7.18,4.68-10.9.92L1932.7,58c-3.71-3.75-2.52-7.9.74-11.19s8-5.31,11.09-.75" transform="translate(-15.83 -1.17)"/><path class="cls-3" d="M1950.31,31.94c2.81-2.84,6.85-4.57,9.55-.64a13.6,13.6,0,0,0,2.08,3,11,11,0,0,0,2.84,2c3.94,2.42,2,6.65-.79,9.5s-6.19,4.05-9.4.8l-4.92-5c-3.2-3.24-2.17-6.82.64-9.66" transform="translate(-15.83 -1.17)"/><path class="cls-3" d="M1977.07,14.85a10.41,10.41,0,0,0,1.67,2.42,8.72,8.72,0,0,0,2.3,1.59c3.17,1.95,1.62,5.37-.65,7.66s-5,3.26-7.59.64l-4-4c-2.58-2.61-1.76-5.5.51-7.79s5.53-3.69,7.72-.52" transform="translate(-15.83 -1.17)"/><path class="cls-3" d="M1985.45,13.37l-3-3c-1.94-2-1.32-4.14.39-5.86h0c1.71-1.72,4.16-2.78,5.8-.38a8.15,8.15,0,0,0,1.27,1.82,6.44,6.44,0,0,0,1.73,1.19c2.38,1.47,1.22,4-.49,5.77s-3.76,2.45-5.71.48" transform="translate(-15.83 -1.17)"/><path class="cls-3" d="M2060.29,46a14.9,14.9,0,0,1-2.41,3.48,12.48,12.48,0,0,1-3.29,2.27c-4.56,2.81-2.34,7.72.92,11s7.18,4.68,10.9.92l5.7-5.75c3.72-3.75,2.52-7.9-.74-11.19s-7.94-5.31-11.08-.75" transform="translate(-15.83 -1.17)"/><path class="cls-3" d="M2054.51,31.94c-2.82-2.84-6.86-4.57-9.56-.64a13.6,13.6,0,0,1-2.08,3,10.8,10.8,0,0,1-2.84,2c-3.93,2.42-2,6.65.79,9.5s6.2,4.05,9.4.8l4.92-5c3.21-3.24,2.18-6.82-.63-9.66" transform="translate(-15.83 -1.17)"/><path class="cls-3" d="M2027.75,14.85a10.26,10.26,0,0,1-1.68,2.42,8.42,8.42,0,0,1-2.29,1.59c-3.17,1.95-1.63,5.37.64,7.66s5,3.26,7.59.64l4-4c2.58-2.61,1.76-5.5-.51-7.79s-5.54-3.69-7.72-.52" transform="translate(-15.83 -1.17)"/><path class="cls-3" d="M2019.37,13.37l3-3c2-2,1.33-4.14-.39-5.86h0c-1.71-1.72-4.16-2.78-5.8-.38a8.15,8.15,0,0,1-1.27,1.82,6.47,6.47,0,0,1-1.72,1.19c-2.39,1.47-1.22,4,.49,5.77s3.76,2.45,5.71.48" transform="translate(-15.83 -1.17)"/><path class="cls-3" d="M2106.12,46a14.9,14.9,0,0,0,2.41,3.48,12.31,12.31,0,0,0,3.29,2.27c4.56,2.81,2.33,7.72-.93,11s-7.17,4.68-10.89.92L2094.3,58c-3.71-3.75-2.53-7.9.73-11.19s7.95-5.31,11.09-.75" transform="translate(-15.83 -1.17)"/><path class="cls-3" d="M2111.91,31.94c2.8-2.84,6.84-4.57,9.55-.64a13.21,13.21,0,0,0,2.08,3,10.84,10.84,0,0,0,2.83,2c3.94,2.42,2,6.65-.79,9.5s-6.2,4.05-9.4.8l-4.91-5c-3.21-3.24-2.18-6.82.64-9.66" transform="translate(-15.83 -1.17)"/><path class="cls-3" d="M2138.66,14.85a10.41,10.41,0,0,0,1.67,2.42,8.72,8.72,0,0,0,2.3,1.59c3.17,1.95,1.63,5.37-.65,7.66s-5,3.26-7.58.64l-4-4c-2.58-2.61-1.75-5.5.52-7.79s5.52-3.69,7.71-.52" transform="translate(-15.83 -1.17)"/><path class="cls-3" d="M2147,13.37l-3-3c-1.95-2-1.32-4.14.39-5.86h0c1.7-1.72,4.16-2.78,5.8-.38a8.15,8.15,0,0,0,1.27,1.82,6.47,6.47,0,0,0,1.72,1.19c2.38,1.47,1.23,4-.48,5.77s-3.78,2.45-5.72.48" transform="translate(-15.83 -1.17)"/><path class="cls-3" d="M1911,23.3a2,2,0,0,0,0-2.77L1892.5,1.77a1.94,1.94,0,1,0-2.77,2.73l18.51,18.77a2,2,0,0,0,2.77,0" transform="translate(-15.83 -1.17)"/><path class="cls-3" d="M1936.87,23.3a2,2,0,0,1,0-2.77l18.52-18.76a1.94,1.94,0,0,1,2.76,0,2,2,0,0,1,0,2.77l-18.52,18.77a2,2,0,0,1-2.77,0" transform="translate(-15.83 -1.17)"/><path class="cls-3" d="M2071.45,23.3a2,2,0,0,0,0-2.77L2052.94,1.77a1.94,1.94,0,1,0-2.77,2.73l18.51,18.77a2,2,0,0,0,2.77,0" transform="translate(-15.83 -1.17)"/><path class="cls-3" d="M2098.65,23.3a2,2,0,0,1,0-2.77l18.52-18.76a1.94,1.94,0,1,1,2.77,2.73l-18.51,18.77a2,2,0,0,1-2.77,0" transform="translate(-15.83 -1.17)"/><path class="cls-3" d="M2122.18,76.76a2,2,0,0,1,0-2.76l50.31-50.58a1.95,1.95,0,1,1,2.77,2.74L2125,76.73a2,2,0,0,1-2.77,0" transform="translate(-15.83 -1.17)"/><path class="cls-3" d="M2013,47.54a2,2,0,0,0,0,2.77l18.52,18.77a1.94,1.94,0,1,0,2.76-2.74l-18.5-18.77a2,2,0,0,0-2.77,0" transform="translate(-15.83 -1.17)"/><path class="cls-3" d="M1990.25,47.54a2,2,0,0,1,0,2.77l-18.52,18.77a2,2,0,0,1-2.76,0,2,2,0,0,1,0-2.77l18.52-18.77a2,2,0,0,1,2.77,0" transform="translate(-15.83 -1.17)"/><path class="cls-3" d="M1882.63,76.76a2,2,0,0,0,0-2.76l-50.32-50.58a1.95,1.95,0,1,0-2.77,2.74l50.31,50.57a2,2,0,0,0,2.77,0" transform="translate(-15.83 -1.17)"/><path class="cls-4" d="M2076.83,36.48V41a5.46,5.46,0,0,0,5.42,5.48h1.91a5.46,5.46,0,0,0,5.42-5.48V36.48a5.45,5.45,0,0,0-5.42-5.47h-1.91a5.45,5.45,0,0,0-5.42,5.47m2.72,0a2.71,2.71,0,0,1,2.7-2.72h1.91a2.71,2.71,0,0,1,2.7,2.72V41a2.72,2.72,0,0,1-2.7,2.73h-1.91a2.72,2.72,0,0,1-2.7-2.73Z" transform="translate(-15.83 -1.17)"/><path class="cls-4" d="M1915.24,36.48V41a5.45,5.45,0,0,0,5.41,5.48h1.92A5.46,5.46,0,0,0,1928,41V36.48a5.46,5.46,0,0,0-5.42-5.47h-1.92a5.45,5.45,0,0,0-5.41,5.47m2.71,0a2.72,2.72,0,0,1,2.7-2.72h1.92a2.72,2.72,0,0,1,2.7,2.72V41a2.73,2.73,0,0,1-2.7,2.73h-1.92A2.73,2.73,0,0,1,1918,41Z" transform="translate(-15.83 -1.17)"/><path class="cls-3" d="M1990.82,28.59V35a7.7,7.7,0,0,0,7.65,7.72h2.7a7.7,7.7,0,0,0,7.65-7.72V28.59a7.7,7.7,0,0,0-7.65-7.72h-2.7a7.69,7.69,0,0,0-7.65,7.72m3.06-.47a4.41,4.41,0,0,1,4.38-4.43h3.11a4.41,4.41,0,0,1,4.38,4.43v7.35a4.42,4.42,0,0,1-4.38,4.43h-3.11a4.42,4.42,0,0,1-4.38-4.43Z" transform="translate(-15.83 -1.17)"/><path class="cls-3" d="M2106.12,122.85a15,15,0,0,1,2.41-3.47,12.2,12.2,0,0,1,3.29-2.28c4.56-2.8,2.33-7.71-.93-11s-7.17-4.68-10.89-.92l-5.7,5.74c-3.71,3.76-2.53,7.9.73,11.2s7.95,5.31,11.09.74" transform="translate(-15.83 -1.17)"/><path class="cls-3" d="M2111.91,137c2.8,2.84,6.84,4.58,9.55.64a13.21,13.21,0,0,1,2.08-3,11,11,0,0,1,2.83-2c3.94-2.41,2-6.65-.79-9.49s-6.2-4-9.4-.8l-4.91,5c-3.21,3.23-2.18,6.81.64,9.66" transform="translate(-15.83 -1.17)"/><path class="cls-3" d="M2138.66,154a10.88,10.88,0,0,1,1.67-2.42,8.83,8.83,0,0,1,2.3-1.58c3.17-1.95,1.63-5.37-.65-7.66s-5-3.26-7.58-.65l-4,4c-2.58,2.61-1.75,5.5.52,7.8s5.52,3.69,7.71.51" transform="translate(-15.83 -1.17)"/><path class="cls-3" d="M2147,155.52l-3,3c-1.95,2-1.32,4.13.39,5.86s4.16,2.79,5.8.39a8.39,8.39,0,0,1,1.27-1.82,6.47,6.47,0,0,1,1.72-1.19c2.38-1.47,1.23-4-.48-5.77s-3.78-2.45-5.72-.48" transform="translate(-15.83 -1.17)"/><path class="cls-3" d="M2060.29,122.85a15,15,0,0,0-2.41-3.47,12.37,12.37,0,0,0-3.29-2.28c-4.56-2.8-2.34-7.71.92-11s7.18-4.68,10.9-.92l5.7,5.74c3.72,3.76,2.52,7.9-.74,11.2s-7.94,5.31-11.08.74" transform="translate(-15.83 -1.17)"/><path class="cls-3" d="M2054.51,137c-2.82,2.84-6.86,4.58-9.56.64a13.6,13.6,0,0,0-2.08-3,11,11,0,0,0-2.84-2c-3.93-2.41-2-6.65.79-9.49s6.2-4,9.4-.8l4.92,5c3.21,3.23,2.18,6.81-.63,9.66" transform="translate(-15.83 -1.17)"/><path class="cls-3" d="M2027.75,154a10.71,10.71,0,0,0-1.68-2.42,8.52,8.52,0,0,0-2.29-1.58c-3.17-1.95-1.63-5.37.64-7.66s5-3.26,7.59-.65l4,4c2.58,2.61,1.76,5.5-.51,7.8s-5.54,3.69-7.72.51" transform="translate(-15.83 -1.17)"/><path class="cls-3" d="M2019.37,155.52l3,3c2,2,1.33,4.13-.39,5.86s-4.16,2.79-5.8.39a8.39,8.39,0,0,0-1.27-1.82,6.47,6.47,0,0,0-1.72-1.19c-2.39-1.47-1.22-4,.49-5.77s3.76-2.45,5.71-.48" transform="translate(-15.83 -1.17)"/><path class="cls-3" d="M1944.53,122.85a15,15,0,0,1,2.41-3.47,12.23,12.23,0,0,1,3.28-2.28c4.56-2.8,2.34-7.71-.92-11s-7.18-4.68-10.9-.92l-5.7,5.74c-3.71,3.76-2.52,7.9.74,11.2s8,5.31,11.09.74" transform="translate(-15.83 -1.17)"/><path class="cls-3" d="M1950.31,137c2.81,2.84,6.85,4.58,9.55.64a13.6,13.6,0,0,1,2.08-3,11.16,11.16,0,0,1,2.84-2c3.94-2.41,2-6.65-.79-9.49s-6.19-4-9.4-.8l-4.92,5c-3.2,3.23-2.17,6.81.64,9.66" transform="translate(-15.83 -1.17)"/><path class="cls-3" d="M1977.07,154a10.88,10.88,0,0,1,1.67-2.42A8.83,8.83,0,0,1,1981,150c3.17-1.95,1.62-5.37-.65-7.66s-5-3.26-7.59-.65l-4,4c-2.58,2.61-1.76,5.5.51,7.8s5.53,3.69,7.72.51" transform="translate(-15.83 -1.17)"/><path class="cls-3" d="M1985.45,155.52l-3,3c-1.94,2-1.32,4.13.39,5.86s4.16,2.79,5.8.39a8.39,8.39,0,0,1,1.27-1.82,6.44,6.44,0,0,1,1.73-1.19c2.38-1.47,1.22-4-.49-5.77s-3.76-2.45-5.71-.48" transform="translate(-15.83 -1.17)"/><path class="cls-3" d="M1898.7,122.85a14.8,14.8,0,0,0-2.42-3.47,12.23,12.23,0,0,0-3.28-2.28c-4.56-2.8-2.34-7.71.92-11s7.18-4.68,10.9-.92l5.7,5.74c3.71,3.76,2.52,7.9-.74,11.2s-7.94,5.31-11.08.74" transform="translate(-15.83 -1.17)"/><path class="cls-3" d="M1892.91,137c-2.81,2.84-6.85,4.58-9.55.64a13.21,13.21,0,0,0-2.08-3,11.16,11.16,0,0,0-2.84-2c-3.93-2.41-2-6.65.79-9.49s6.2-4,9.4-.8l4.92,5c3.2,3.23,2.17,6.81-.64,9.66" transform="translate(-15.83 -1.17)"/><path class="cls-3" d="M1866.15,154a10.5,10.5,0,0,0-1.67-2.42,8.87,8.87,0,0,0-2.29-1.58c-3.18-1.95-1.63-5.37.64-7.66s5-3.26,7.59-.65l4,4c2.58,2.61,1.75,5.5-.52,7.8s-5.53,3.69-7.72.51" transform="translate(-15.83 -1.17)"/><path class="cls-3" d="M1857.77,155.52l3,3c1.94,2,1.32,4.13-.39,5.86s-4.16,2.79-5.8.39a8.39,8.39,0,0,0-1.27-1.82,6.47,6.47,0,0,0-1.72-1.19c-2.39-1.47-1.23-4,.48-5.77s3.77-2.45,5.71-.48" transform="translate(-15.83 -1.17)"/><path class="cls-3" d="M2093.8,145.59a2,2,0,0,0,0,2.77l18.52,18.77a1.95,1.95,0,1,0,2.77-2.74l-18.52-18.77a2,2,0,0,0-2.77,0" transform="translate(-15.83 -1.17)"/><path class="cls-3" d="M2067.94,145.59a2,2,0,0,1,0,2.77l-18.51,18.77a1.95,1.95,0,1,1-2.77-2.74l18.51-18.77a2,2,0,0,1,2.77,0" transform="translate(-15.83 -1.17)"/><path class="cls-3" d="M1933.37,145.59a2,2,0,0,0,0,2.77l18.52,18.77a1.94,1.94,0,1,0,2.76-2.74l-18.51-18.77a2,2,0,0,0-2.76,0" transform="translate(-15.83 -1.17)"/><path class="cls-3" d="M1906.17,145.59a2,2,0,0,1,0,2.77l-18.52,18.77a1.94,1.94,0,1,1-2.76-2.74l18.51-18.77a2,2,0,0,1,2.77,0" transform="translate(-15.83 -1.17)"/><path class="cls-3" d="M1882.63,92.13a2,2,0,0,1,0,2.77l-50.32,50.57a1.95,1.95,0,1,1-2.77-2.74l50.31-50.57a2,2,0,0,1,2.77,0" transform="translate(-15.83 -1.17)"/><path class="cls-3" d="M1991.83,121.35a2,2,0,0,0,0-2.77l-18.51-18.77a1.95,1.95,0,1,0-2.77,2.74l18.51,18.77a2,2,0,0,0,2.77,0" transform="translate(-15.83 -1.17)"/><path class="cls-3" d="M2014.57,121.35a2,2,0,0,1,0-2.77l18.52-18.77a1.95,1.95,0,1,1,2.77,2.74l-18.51,18.77a2,2,0,0,1-2.77,0" transform="translate(-15.83 -1.17)"/><path class="cls-3" d="M2122.18,92.13a2,2,0,0,0,0,2.77l50.31,50.57a1.95,1.95,0,1,0,2.77-2.74L2125,92.16a2,2,0,0,0-2.77,0" transform="translate(-15.83 -1.17)"/><path class="cls-4" d="M1928,132.4v-4.54a5.46,5.46,0,0,0-5.42-5.47h-1.92a5.45,5.45,0,0,0-5.41,5.47v4.54a5.45,5.45,0,0,0,5.41,5.48h1.92a5.46,5.46,0,0,0,5.42-5.48m-2.72,0a2.71,2.71,0,0,1-2.7,2.73h-1.92a2.72,2.72,0,0,1-2.7-2.73v-4.54a2.72,2.72,0,0,1,2.7-2.72h1.92a2.71,2.71,0,0,1,2.7,2.72Z" transform="translate(-15.83 -1.17)"/><path class="cls-4" d="M2089.58,132.4v-4.54a5.45,5.45,0,0,0-5.42-5.47h-1.91a5.45,5.45,0,0,0-5.42,5.47v4.54a5.46,5.46,0,0,0,5.42,5.48h1.91a5.46,5.46,0,0,0,5.42-5.48m-2.72,0a2.71,2.71,0,0,1-2.7,2.73h-1.91a2.71,2.71,0,0,1-2.7-2.73v-4.54a2.71,2.71,0,0,1,2.7-2.72h1.91a2.71,2.71,0,0,1,2.7,2.72Z" transform="translate(-15.83 -1.17)"/><path class="cls-3" d="M2014,140.3v-6.4a7.68,7.68,0,0,0-7.64-7.73h-2.7a7.69,7.69,0,0,0-7.65,7.73v6.4a7.69,7.69,0,0,0,7.65,7.72h2.7a7.68,7.68,0,0,0,7.64-7.72m-3,.48a4.42,4.42,0,0,1-4.39,4.42h-3.1a4.41,4.41,0,0,1-4.38-4.42v-7.37a4.41,4.41,0,0,1,4.38-4.42h3.1a4.42,4.42,0,0,1,4.39,4.42Z" transform="translate(-15.83 -1.17)"/><path class="cls-3" d="M1906.24,79v6.4a7.68,7.68,0,0,0,7.64,7.72h2.71a7.69,7.69,0,0,0,7.64-7.72V79a7.7,7.7,0,0,0-7.64-7.73h-2.71a7.69,7.69,0,0,0-7.64,7.73m3.06-.48a4.42,4.42,0,0,1,4.38-4.43h3.11a4.42,4.42,0,0,1,4.38,4.43v7.36a4.41,4.41,0,0,1-4.38,4.42h-3.11a4.41,4.41,0,0,1-4.38-4.42Z" transform="translate(-15.83 -1.17)"/><path class="cls-3" d="M1990.82,79v6.4a7.69,7.69,0,0,0,7.65,7.72h2.7a7.69,7.69,0,0,0,7.64-7.72V79a7.7,7.7,0,0,0-7.64-7.73h-2.7a7.7,7.7,0,0,0-7.65,7.73m3.06-.48a4.42,4.42,0,0,1,4.38-4.43h3.11a4.42,4.42,0,0,1,4.38,4.43v7.36a4.41,4.41,0,0,1-4.38,4.42h-3.11a4.41,4.41,0,0,1-4.38-4.42Z" transform="translate(-15.83 -1.17)"/><path class="cls-3" d="M2075.4,79v6.4a7.69,7.69,0,0,0,7.64,7.72h2.7a7.69,7.69,0,0,0,7.65-7.72V79a7.7,7.7,0,0,0-7.65-7.73H2083A7.7,7.7,0,0,0,2075.4,79m3.06-.48a4.42,4.42,0,0,1,4.39-4.43h3.1a4.41,4.41,0,0,1,4.38,4.43v7.36a4.41,4.41,0,0,1-4.38,4.42h-3.1a4.42,4.42,0,0,1-4.39-4.42Z" transform="translate(-15.83 -1.17)"/></g></g></g></svg>