<svg xmlns="http://www.w3.org/2000/svg" viewBox="0 0 53.62 53.62"><defs><style>.cls-1{opacity:0.5;}.cls-2{fill:#ff507a;}.cls-3{fill:#fff;}</style></defs><g id="Layer_2" data-name="Layer 2"><g id="Pantalla_4" data-name="Pantalla 4"><g class="cls-1"><path class="cls-2" d="M26.81,9A17.8,17.8,0,1,1,9,26.81,17.8,17.8,0,0,1,26.81,9m0-9A26.81,26.81,0,1,0,53.62,26.81,26.84,26.84,0,0,0,26.81,0Z"/></g><path class="cls-3" d="M40,26.81A13.19,13.19,0,1,1,26.81,13.62,13.2,13.2,0,0,1,40,26.81"/><path class="cls-2" d="M26.81,13.62A13.19,13.19,0,1,1,13.62,26.81,13.19,13.19,0,0,1,26.81,13.62m0-6.68A19.87,19.87,0,1,0,46.68,26.81,19.89,19.89,0,0,0,26.81,6.94Z"/></g></g></svg>