<svg xmlns="http://www.w3.org/2000/svg" viewBox="0 0 2160 238.1"><defs><style>.cls-1{fill:#bae7db;}.cls-2{fill:#fff;}.cls-3{fill:#62cdb4;}.cls-4{fill:#007e76;}</style></defs><g id="Layer_2" data-name="Layer 2"><g id="Pantalla_2" data-name="Pantalla 2"><g id="barra-nav"><rect class="cls-1" y="107.82" width="2160" height="22.25"/><circle class="cls-2" cx="1080" cy="118.95" r="108"/><path class="cls-2" d="M1080,4.05A114.9,114.9,0,1,1,965.11,119,114.89,114.89,0,0,1,1080,4.05m0-4a118.94,118.94,0,0,0-84.11,203.05A118.95,118.95,0,1,0,1164.11,34.84,118.17,118.17,0,0,0,1080,0Z"/><circle class="cls-3" cx="1754.51" cy="116.96" r="33.32"/><circle class="cls-3" cx="2045.86" cy="116.96" r="33.32"/><path class="cls-4" d="M1488.24,181.85a49,49,0,0,1-9.36,7.69,45,45,0,0,1-15.79,6.05,39.19,39.19,0,0,1-7.36.43c-22.25,0-44.49,0-66.74-.06a39.42,39.42,0,0,1-22.32-7.31,43.1,43.1,0,0,1-14.42-16.27,40.1,40.1,0,0,1-4.65-18.56q.14-33.54,0-67.09a41.35,41.35,0,0,1,5-19.74,44.39,44.39,0,0,1,8.09-10.68c6.4-6.43,14.19-9.94,22.89-11.71a32.77,32.77,0,0,1,6.5-.49c22.37,0,44.73-.08,67.1,0a40.47,40.47,0,0,1,17.15,4,45.49,45.49,0,0,1,13.18,9.48,54.87,54.87,0,0,1,6,7.74c.38.7.77,1.4,1.16,2.1a44,44,0,0,1,4.57,15.15,45.53,45.53,0,0,1,.29,4.66c0,21.3,0,42.59,0,63.89a47.86,47.86,0,0,1-4.36,20.45,27.21,27.21,0,0,1-4.13,6.73l-.4.68v0a18.18,18.18,0,0,0-2.47,2.86m-136.31-61.76h0c0,8.8,0,17.59,0,26.38a94,94,0,0,0,.3,10.61A39.41,39.41,0,0,0,1391,191.73q32.58.06,65.17,0a36.47,36.47,0,0,0,7.72-.87c18.83-4.15,31.46-19.9,31.46-39.19V88.46a43.33,43.33,0,0,0-1-9.29A39.33,39.33,0,0,0,1456,48.38q-32.05,0-64.11,0a46.83,46.83,0,0,0-7.39.61c-18.06,2.9-32.25,19-32.56,37.29-.2,11.27,0,22.55,0,33.82"/><path class="cls-4" d="M1358.93,120.24V87.83a33.08,33.08,0,0,1,27.61-32.12,34,34,0,0,1,4.93-.39q31.69-.16,63.39-.29A32.93,32.93,0,0,1,1488,84.09a29.47,29.47,0,0,1,.25,3.87v63.93a33.11,33.11,0,0,1-27.81,32.5,66.2,66.2,0,0,1-9.54.39c-6.2.08-12.4-.1-18.59.05-13.4.32-26.79.18-40.19.21a33,33,0,0,1-32.9-28.34,27.74,27.74,0,0,1-.3-4.06v-32.4"/><circle class="cls-3" cx="405.48" cy="123.14" r="33.32"/><circle class="cls-3" cx="114.13" cy="123.14" r="33.32"/><path class="cls-4" d="M671.75,58.25a48.67,48.67,0,0,1,9.36-7.69,45,45,0,0,1,15.79-6.05,39.19,39.19,0,0,1,7.36-.43c22.25,0,44.49,0,66.74.06a39.4,39.4,0,0,1,22.32,7.31,43,43,0,0,1,14.42,16.27,40.07,40.07,0,0,1,4.65,18.56q-.14,33.54,0,67.09a41.35,41.35,0,0,1-5,19.74,44.58,44.58,0,0,1-8.09,10.68c-6.4,6.43-14.19,9.94-22.89,11.71a32.77,32.77,0,0,1-6.5.49c-22.37,0-44.73.08-67.1,0a40.81,40.81,0,0,1-17.15-4,45.68,45.68,0,0,1-13.18-9.48,55.45,55.45,0,0,1-6-7.74c-.38-.7-.77-1.4-1.16-2.1a44,44,0,0,1-4.57-15.15,45.53,45.53,0,0,1-.29-4.66c0-21.3,0-42.59-.05-63.89a47.72,47.72,0,0,1,4.37-20.45,26.93,26.93,0,0,1,4.12-6.74c.13-.22.27-.44.4-.67v0a18.18,18.18,0,0,0,2.47-2.86M808.06,120h0c0-8.8,0-17.59,0-26.39a93.89,93.89,0,0,0-.3-10.6A39.4,39.4,0,0,0,769,48.37q-32.58-.06-65.17,0a35.82,35.82,0,0,0-7.72.86,39.39,39.39,0,0,0-31.46,39.19v63.22a43.35,43.35,0,0,0,1,9.3A39.34,39.34,0,0,0,704,191.72q32.06,0,64.11,0a45.68,45.68,0,0,0,7.39-.62c18.06-2.89,32.25-19,32.56-37.28.2-11.27,0-22.55,0-33.82"/><path class="cls-4" d="M801.06,119.86v32.41a33.06,33.06,0,0,1-27.61,32.11,32.67,32.67,0,0,1-4.93.4q-31.69.15-63.38.29A32.94,32.94,0,0,1,672,156a29.58,29.58,0,0,1-.25-3.87V88.2a33.12,33.12,0,0,1,27.81-32.5,67.66,67.66,0,0,1,9.54-.38c6.2-.09,12.4.1,18.6,0,13.39-.32,26.79-.18,40.18-.21a33,33,0,0,1,32.9,28.34,27.5,27.5,0,0,1,.3,4v32.41"/><rect class="cls-1" y="108.03" width="2160" height="22.25"/><circle class="cls-2" cx="1080" cy="119.16" r="108"/><path class="cls-2" d="M1080,4.26a114.9,114.9,0,1,1-114.89,114.9A114.89,114.89,0,0,1,1080,4.26m0-4a118.94,118.94,0,0,0-84.11,203A118.95,118.95,0,1,0,1164.11,35.05,118.17,118.17,0,0,0,1080,.21Z"/><circle class="cls-3" cx="1754.51" cy="117.17" r="33.32"/><circle class="cls-3" cx="2045.86" cy="117.17" r="33.32"/><path class="cls-4" d="M1488.24,182.06a48.67,48.67,0,0,1-9.36,7.69,45,45,0,0,1-15.79,6.05,39.19,39.19,0,0,1-7.36.43c-22.25,0-44.49,0-66.74-.06a39.42,39.42,0,0,1-22.32-7.31,43.1,43.1,0,0,1-14.42-16.27A40.1,40.1,0,0,1,1347.6,154q.14-33.54,0-67.09a41.35,41.35,0,0,1,5-19.74,44.39,44.39,0,0,1,8.09-10.68c6.4-6.43,14.19-9.94,22.89-11.71a32.77,32.77,0,0,1,6.5-.49c22.37,0,44.73-.08,67.1,0a40.47,40.47,0,0,1,17.15,4,45.49,45.49,0,0,1,13.18,9.48,54.87,54.87,0,0,1,6,7.74c.38.7.77,1.4,1.16,2.1a44,44,0,0,1,4.57,15.15,45.53,45.53,0,0,1,.29,4.66c0,21.3,0,42.59,0,63.89a47.86,47.86,0,0,1-4.36,20.45,27.27,27.27,0,0,1-4.13,6.74c-.13.22-.27.44-.4.67v0a18.18,18.18,0,0,0-2.47,2.86M1351.93,120.3h0c0,8.8,0,17.59,0,26.39a93.89,93.89,0,0,0,.3,10.6A39.41,39.41,0,0,0,1391,191.94q32.58.06,65.17,0a35.83,35.83,0,0,0,7.72-.87c18.83-4.15,31.46-19.9,31.46-39.19V88.67a43.33,43.33,0,0,0-1-9.29A39.33,39.33,0,0,0,1456,48.59q-32.05,0-64.11,0a46.83,46.83,0,0,0-7.39.61c-18.06,2.9-32.25,19-32.56,37.29-.2,11.27,0,22.55,0,33.82"/><path class="cls-4" d="M1358.93,120.45V88a33.06,33.06,0,0,1,27.61-32.11,32.67,32.67,0,0,1,4.93-.4q31.69-.16,63.39-.29A32.93,32.93,0,0,1,1488,84.3a29.58,29.58,0,0,1,.25,3.87v63.94a33.12,33.12,0,0,1-27.81,32.5,67.66,67.66,0,0,1-9.54.38c-6.2.09-12.4-.1-18.59,0-13.4.32-26.79.18-40.19.21a33,33,0,0,1-32.9-28.34,27.6,27.6,0,0,1-.3-4V120.45"/><circle class="cls-3" cx="405.48" cy="123.35" r="33.32"/><circle class="cls-3" cx="114.13" cy="123.35" r="33.32"/><path class="cls-4" d="M671.75,58.46a48.67,48.67,0,0,1,9.36-7.69,45,45,0,0,1,15.79-6.05,39.19,39.19,0,0,1,7.36-.43c22.25,0,44.49,0,66.74.06a39.4,39.4,0,0,1,22.32,7.31,43,43,0,0,1,14.42,16.27,40.1,40.1,0,0,1,4.65,18.56q-.14,33.54,0,67.09a41.35,41.35,0,0,1-5,19.74A44.39,44.39,0,0,1,799.26,184c-6.4,6.43-14.19,9.94-22.89,11.71a32.77,32.77,0,0,1-6.5.49c-22.37,0-44.73.08-67.1,0a40.51,40.51,0,0,1-17.15-4,45.49,45.49,0,0,1-13.18-9.48,54.87,54.87,0,0,1-6-7.74c-.38-.7-.77-1.4-1.16-2.1a44,44,0,0,1-4.57-15.15,45.53,45.53,0,0,1-.29-4.66c0-21.3,0-42.59-.05-63.89a47.72,47.72,0,0,1,4.37-20.45A27.11,27.11,0,0,1,668.89,62c.13-.22.27-.44.4-.67v0a18.18,18.18,0,0,0,2.47-2.86m136.31,61.76h0c0-8.8,0-17.59,0-26.39a93.89,93.89,0,0,0-.3-10.6A39.4,39.4,0,0,0,769,48.58q-32.58-.06-65.17,0a35.83,35.83,0,0,0-7.72.87c-18.83,4.15-31.46,19.9-31.46,39.19v63.22a43.33,43.33,0,0,0,1,9.29A39.33,39.33,0,0,0,704,191.93q32.06,0,64.11,0a46.83,46.83,0,0,0,7.39-.61c18.06-2.9,32.25-19,32.56-37.29.2-11.27,0-22.55,0-33.82"/><path class="cls-4" d="M801.06,120.07v32.41a33.06,33.06,0,0,1-27.61,32.11,32.67,32.67,0,0,1-4.93.4q-31.69.16-63.38.29A32.94,32.94,0,0,1,672,156.22a29.58,29.58,0,0,1-.25-3.87V88.41a33.12,33.12,0,0,1,27.81-32.5,67.66,67.66,0,0,1,9.54-.38c6.2-.09,12.4.1,18.6-.05,13.39-.32,26.79-.18,40.18-.21a33,33,0,0,1,32.9,28.34,27.6,27.6,0,0,1,.3,4v32.41"/><g id="icon"><path class="cls-4" d="M1039.26,124.34h11.68c3,0,5.5-2.81,5.5-6.26V101.57c0-3.44-2.47-6.25-5.5-6.25h-11.68a2,2,0,0,0,0,3.89h11.68a2.16,2.16,0,0,1,1.88,2.36v16.51a2.17,2.17,0,0,1-1.88,2.37h-11.68a2,2,0,0,0,0,3.89Z"/><path class="cls-4" d="M1039.26,163.25h11.68c3,0,5.5-2.81,5.5-6.26V140.48c0-3.44-2.47-6.25-5.5-6.25h-11.68a2,2,0,0,0,0,3.89h11.68a2.16,2.16,0,0,1,1.88,2.36V157a2.17,2.17,0,0,1-1.88,2.37h-11.68a2,2,0,0,0,0,3.89Z"/><path class="cls-4" d="M1108.46,134.23c-3,0-5.51,2.81-5.51,6.25V157c0,3.45,2.47,6.26,5.51,6.26h11.67a2,2,0,0,0,0-3.89h-11.67a2.17,2.17,0,0,1-1.89-2.37V140.48a2.16,2.16,0,0,1,1.89-2.36h11.67a2,2,0,0,0,0-3.89Z"/><path class="cls-4" d="M1066.75,189.31a1.89,1.89,0,0,0,1.94-1.82V175.76a2.17,2.17,0,0,1,2.35-1.9h16.43a2.17,2.17,0,0,1,2.36,1.9v11.73a1.94,1.94,0,0,0,3.87,0V175.76c0-3-2.8-5.53-6.23-5.53H1071c-3.43,0-6.22,2.48-6.22,5.53v11.73A1.88,1.88,0,0,0,1066.75,189.31Z"/><path class="cls-4" d="M1042.88,117.1h1.84a5.25,5.25,0,0,0,5.23-5.25V107.5a5.25,5.25,0,0,0-5.23-5.25h-1.84a5.25,5.25,0,0,0-5.23,5.25v4.35A5.25,5.25,0,0,0,1042.88,117.1Zm-2.61-9.6a2.61,2.61,0,0,1,2.61-2.61h1.84a2.6,2.6,0,0,1,2.6,2.61v4.35a2.61,2.61,0,0,1-2.6,2.62h-1.84a2.62,2.62,0,0,1-2.61-2.62Z"/><path class="cls-4" d="M1042.88,156.1h1.84a5.25,5.25,0,0,0,5.23-5.25V146.5a5.25,5.25,0,0,0-5.23-5.25h-1.84a5.25,5.25,0,0,0-5.23,5.25v4.35A5.25,5.25,0,0,0,1042.88,156.1Zm-2.61-9.6a2.61,2.61,0,0,1,2.61-2.62h1.84a2.61,2.61,0,0,1,2.6,2.62v4.35a2.6,2.6,0,0,1-2.6,2.61h-1.84a2.61,2.61,0,0,1-2.61-2.61Z"/><path class="cls-4" d="M1115.65,141.31h-1.84a5.24,5.24,0,0,0-5.22,5.25v4.35a5.24,5.24,0,0,0,5.22,5.25h1.84a5.24,5.24,0,0,0,5.23-5.25v-4.35A5.25,5.25,0,0,0,1115.65,141.31Zm2.61,9.6a2.62,2.62,0,0,1-2.61,2.62h-1.84a2.62,2.62,0,0,1-2.6-2.62v-4.35a2.61,2.61,0,0,1,2.6-2.61h1.84a2.61,2.61,0,0,1,2.61,2.61Z"/><path class="cls-4" d="M1081.42,176.45h-4.32a5.24,5.24,0,0,0-5.23,5.25v1.85a5.25,5.25,0,0,0,5.23,5.25h4.32a5.25,5.25,0,0,0,5.23-5.25V181.7A5.25,5.25,0,0,0,1081.42,176.45Zm2.61,7.1a2.62,2.62,0,0,1-2.61,2.62h-4.32a2.62,2.62,0,0,1-2.61-2.62V181.7a2.61,2.61,0,0,1,2.61-2.62h4.32a2.61,2.61,0,0,1,2.61,2.62Z"/><path class="cls-4" d="M1039.55,93.19a.67.67,0,0,0,.66-.66V83.67a.66.66,0,1,0-1.32,0v8.86A.67.67,0,0,0,1039.55,93.19Z"/><path class="cls-4" d="M1044.85,93.22a.67.67,0,0,0,.66-.66v-5a.66.66,0,1,0-1.32,0v5A.67.67,0,0,0,1044.85,93.22Z"/><path class="cls-4" d="M1046.54,127.12v4.33a.66.66,0,1,0,1.31,0v-4.33a.66.66,0,1,0-1.31,0Z"/><path class="cls-4" d="M1039.57,127.12v4.33a.66.66,0,1,0,1.32,0v-4.33a.66.66,0,0,0-1.32,0Z"/><path class="cls-4" d="M1053.51,127.12v4.33a.66.66,0,1,0,1.31,0v-4.33a.66.66,0,1,0-1.31,0Z"/><path class="cls-4" d="M1048.73,172.28V166a.66.66,0,1,0-1.31,0v6.25a.66.66,0,1,0,1.31,0Z"/><path class="cls-4" d="M1041.76,178V166a.66.66,0,1,0-1.31,0v12a.66.66,0,1,0,1.31,0Z"/><path class="cls-4" d="M1063.06,177.77h-8a.66.66,0,0,0,0,1.32h8a.66.66,0,0,0,0-1.32Z"/><path class="cls-4" d="M1063.06,184.77h-13.71a.67.67,0,0,0,0,1.33h13.71a.67.67,0,0,0,0-1.33Z"/><path class="cls-4" d="M1060.79,172.07h2.27a.67.67,0,0,0,0-1.33h-2.27a.67.67,0,0,0,0,1.33Z"/><path class="cls-4" d="M1110.63,172.94a.66.66,0,0,0,.66-.66V166a.66.66,0,1,0-1.31,0v6.25A.66.66,0,0,0,1110.63,172.94Z"/><path class="cls-4" d="M1118.26,178V166a.66.66,0,1,0-1.31,0v12a.66.66,0,1,0,1.31,0Z"/><path class="cls-4" d="M1095,178.43a.65.65,0,0,0,.65.66h8a.66.66,0,0,0,0-1.32h-8A.66.66,0,0,0,1095,178.43Z"/><path class="cls-4" d="M1109.36,184.77h-13.72a.67.67,0,0,0,0,1.33h13.72a.67.67,0,0,0,0-1.33Z"/><path class="cls-4" d="M1095.64,172.07h2.27a.67.67,0,0,0,0-1.33h-2.27a.67.67,0,0,0,0,1.33Z"/><path class="cls-4" d="M1126.5,94.49a1.71,1.71,0,0,0-3.42,0V97.7h-23.17V94.49a1.71,1.71,0,0,0-3.42,0V127.1c0,.05,0,.09,0,.13V162a2.66,2.66,0,0,1-2.66,2.66H1065a2.66,2.66,0,0,1-2.66-2.66V91.16a2.67,2.67,0,0,1,2.66-2.67h4.24a1.65,1.65,0,0,0,.5-.1,11.68,11.68,0,0,0,5.69,1.53,11.38,11.38,0,0,0,2-.18,10.78,10.78,0,0,0,6.87-4.27,31.55,31.55,0,0,0,12,3.52,27.24,27.24,0,0,0,11.85-1.58c4.52-1.68,6.44-1.1,7.18-.61a2.31,2.31,0,0,1,1,1.68,1.85,1.85,0,0,0,1.86,1.84A1.81,1.81,0,0,0,1120,88.5a6,6,0,0,0-2.54-4.68c-2.37-1.63-5.94-1.57-10.62.16-9.8,3.64-18.84-.69-20.81-1.75a10.87,10.87,0,0,0,.57-2.42,10,10,0,0,0,0-2,33.31,33.31,0,0,0,5.41,1.71,2.11,2.11,0,0,0,.1,1,1.87,1.87,0,0,0,2.48,1.11,2,2,0,0,0,1.12-1.49c.67.07,1.36.08,2,.11a2.06,2.06,0,0,0,.12.88,1.86,1.86,0,0,0,2.48,1.11,2,2,0,0,0,1.16-2c.72,0,1.44-.11,2.16-.2a2.6,2.6,0,0,0,.09.47,1.87,1.87,0,0,0,2.48,1.11,2,2,0,0,0,1.12-2.19c.71-.14,1.42-.31,2.14-.49a1.78,1.78,0,0,0,.07.39,1.86,1.86,0,0,0,2.48,1.12,2.07,2.07,0,0,0,1-2.58c1.29-.43,2.58-.9,3.89-1.45a2,2,0,0,0,1.07-2.6,1.85,1.85,0,0,0-2.44-1.14c-11.16,4.62-20.77,4.86-29.36.71-1.34-.64-2.5-1.17-3.53-1.6-.16-.08-.3-.18-.47-.25a11.38,11.38,0,0,0-1.74-.57,5.8,5.8,0,0,0-2.22-.41c-.09,0-.16.07-.24.09a7.12,7.12,0,0,0-7.18,6.71,2,2,0,0,0,1.78,2.11,1.94,1.94,0,0,0,2-1.9,3.18,3.18,0,0,1,1.39-2.31,4.22,4.22,0,0,1,3.41-.45c.41.13,1,.35,1.76.66,1.79,1,1.74,3.29,1.67,4a7.3,7.3,0,0,1-6,6.39,8,8,0,0,1-6.77-2,8.79,8.79,0,0,1-2.54-7c.19-6.56,4.29-8.28,6-9l.41-.17c3.66-1.17,9.84.48,15.3,1.93,4.8,1.28,9.33,2.49,12.71,2.1,3.72-.42,7.12-2.23,10.42-4s6.17-3.26,8.92-3.29c1.46,0,2.39.41,2.75,1.23a2.92,2.92,0,0,1-.1,2.25c-.34.17-.57.18-.65.12a1.8,1.8,0,0,0-2.55-.44,2.09,2.09,0,0,0-.5,2.79c.67,1,2.68,2.62,5.55,1,1.68-.92,2.6-3.83,2-6.36-.67-2.91-3.09-4.65-6.47-4.65h-.07c-3.62,0-7.16,1.9-10.58,3.71L1109,65a9.62,9.62,0,0,0-.16-4.93,8.36,8.36,0,0,0-4.55-5.45c-2.94-1.37-6.53-1.08-10.11.82-5.72,3-10.11,2.52-11.63,1.83a2.73,2.73,0,0,1-1.21-1.95,2.61,2.61,0,0,1,3.9-2.49c.17.14.25.21.09.59a2.08,2.08,0,0,0,1,2.66,1.84,1.84,0,0,0,2.49-1,4.5,4.5,0,0,0-1.24-5.43,6,6,0,0,0-7.59.29,7,7,0,0,0-1.83,2.49,10,10,0,0,0-5-3A8.36,8.36,0,0,0,1063,55.53a7.09,7.09,0,0,0-.14,2.67h-20.31A10.57,10.57,0,0,0,1032,68.78V184.11a10.57,10.57,0,0,0,10.53,10.58h73.52a10.57,10.57,0,0,0,10.52-10.58V127.23a1.68,1.68,0,0,0-.07-.39Zm-84-32.69h.77v2a4.49,4.49,0,0,0,4.52,4.45H1049a4.51,4.51,0,0,0-.24.91h-4.07a1.29,1.29,0,0,0-.19,0h-6.84c-.81,0-1.46-.62-1.93-1.84A7,7,0,0,1,1042.53,61.8Zm15.49,0a4.28,4.28,0,0,0-.28,1.48v2h-3.81a1.29,1.29,0,0,0-.19,0h-5.92a1.57,1.57,0,0,1-1.61-1.52v-2Zm-7.28,17.61h0a1.3,1.3,0,0,0-.21,0h-6.83a1.57,1.57,0,0,1-1.62-1.52V73.57a1.57,1.57,0,0,1,1.62-1.52h5.08v2a4.49,4.49,0,0,0,4.52,4.45H1055a3.92,3.92,0,0,0-.23.91ZM1059,89.66h-8.21a1.57,1.57,0,0,1-1.61-1.52V83.86a1.57,1.57,0,0,1,1.61-1.53h4v2a4.49,4.49,0,0,0,4.53,4.44h0A6.44,6.44,0,0,0,1059,89.66Zm4.86-14.08-3.56,0s-.1,0-.15,0h-6.84a1.57,1.57,0,0,1-1.61-1.52V69.77a1.57,1.57,0,0,1,1.61-1.52h4.55a4.5,4.5,0,0,0,4.46,3.76h2.24A16.13,16.13,0,0,0,1063.81,75.58Zm-28.23-4.15a4.54,4.54,0,0,0,2.12.58h1.73a4.29,4.29,0,0,0-.3,1.56v4.28a4.5,4.5,0,0,0,4.53,4.45h2.86a4.25,4.25,0,0,0-.3,1.56v4.28a4.49,4.49,0,0,0,4.52,4.44h8V162a6.26,6.26,0,0,0,6.24,6.26h28.82A6.25,6.25,0,0,0,1100,162V127.23a1.8,1.8,0,0,0-.13-.66v-4.29h23.17v4.56a1.69,1.69,0,0,0-.08.39v56.88a7,7,0,0,1-7,7h-73.52a7,7,0,0,1-7-7Zm87.5,47.1h-23.17v-3.2h23.17Zm0-6.94h-23.17v-3.2h23.17ZM1065,84.89a6.19,6.19,0,0,0-3.29,1h-2.48a1.58,1.58,0,0,1-1.62-1.52V80.05a1.58,1.58,0,0,1,1.63-1.52l4.54,0a12.84,12.84,0,0,0,2.14,6.39Zm58.09,16.56v3.19h-23.17v-3.19Zm-57.32-45.23a5.48,5.48,0,0,1,6.65-4,7.28,7.28,0,0,1,5.26,8.8,1.43,1.43,0,1,0,2.77.69c.08-.32.09-.65.14-1,.17.1.33.2.5.28,2.77,1.25,8.29,1.49,14.77-1.94,2.53-1.34,5.05-1.61,6.93-.73a4.37,4.37,0,0,1,2.44,2.89,4.42,4.42,0,0,1-.3,3.78c-1.3,2-4.66,2.56-6,2.65a66.2,66.2,0,0,1-8.78-2c-6.28-1.67-12.77-3.4-17.43-1.84l-.22.09-.35.15a13.08,13.08,0,0,0-6.27,5h-3.62a1.57,1.57,0,0,1-1.61-1.52V63.28a1.53,1.53,0,0,1,1.4-1.48h1.66a1.42,1.42,0,0,0,.2,0h.53a7,7,0,0,0,3.6,2.26,6.33,6.33,0,0,0,1.42.17,5.88,5.88,0,0,0,5.69-4.46,5,5,0,0,0-3.62-6.06,1.44,1.44,0,0,0-.7,2.79,2.13,2.13,0,0,1,1.54,2.57,3,3,0,0,1-3.63,2.2,4.12,4.12,0,0,1-3-5Z"/><path class="cls-4" d="M1065,97.44h4.29a1.5,1.5,0,0,0,0-3H1065a1.5,1.5,0,1,0,0,3Z"/><path class="cls-4" d="M1065,105.4h4.29a1.5,1.5,0,0,0,0-3H1065a1.5,1.5,0,1,0,0,3Z"/><path class="cls-4" d="M1072.16,110.37H1065a1.5,1.5,0,1,0,0,3h7.17a1.5,1.5,0,0,0,0-3Z"/><path class="cls-4" d="M1065,120.91h4.29a1.5,1.5,0,0,0,0-3H1065a1.5,1.5,0,1,0,0,3Z"/><path class="cls-4" d="M1065,128.87h4.29a1.5,1.5,0,0,0,0-3H1065a1.5,1.5,0,1,0,0,3Z"/><path class="cls-4" d="M1065,136.49h4.29a1.5,1.5,0,0,0,0-3H1065a1.5,1.5,0,0,0,0,3Z"/><path class="cls-4" d="M1065,144.45h4.29a1.5,1.5,0,0,0,0-3H1065a1.5,1.5,0,0,0,0,3Z"/><path class="cls-4" d="M1065,156.82a1.5,1.5,0,0,0,0,3h4.29a1.5,1.5,0,0,0,0-3Z"/><path class="cls-4" d="M1073.65,150.91a1.5,1.5,0,0,0-1.49-1.5H1065a1.5,1.5,0,0,0,0,3h7.17A1.5,1.5,0,0,0,1073.65,150.91Z"/><path class="cls-4" d="M1089.74,128.87h4.3a1.5,1.5,0,0,0,0-3h-4.3a1.5,1.5,0,0,0,0,3Z"/><path class="cls-4" d="M1089.74,136.49h4.3a1.5,1.5,0,0,0,0-3h-4.3a1.5,1.5,0,0,0,0,3Z"/><path class="cls-4" d="M1089.74,144.45h4.3a1.5,1.5,0,0,0,0-3h-4.3a1.5,1.5,0,0,0,0,3Z"/><path class="cls-4" d="M1089.74,156.82a1.5,1.5,0,0,0,0,3h4.3a1.5,1.5,0,0,0,0-3Z"/><path class="cls-4" d="M1094,149.41h-7.18a1.5,1.5,0,0,0,0,3H1094a1.5,1.5,0,0,0,0-3Z"/><path class="cls-4" d="M1055.55,169.58a7.73,7.73,0,0,0,.84,1.34,1.26,1.26,0,0,0,2,.07l1.58-1.86a.84.84,0,0,0-.12-1.2l-.44-.38-.45-.46-.25-.29a.83.83,0,0,0-1.17-.1l-1.62,1.34A1.29,1.29,0,0,0,1055.55,169.58Z"/><path class="cls-4" d="M1054.18,175.91l1-1.16a1.21,1.21,0,0,0,0-1.56c-.23-.24-.45-.5-.66-.76l-.39-.54c-.16-.24-.32-.48-.46-.73a.82.82,0,0,0-1.25-.23l-1.36,1.12a1.2,1.2,0,0,0-.33,1.41,7.63,7.63,0,0,0,1.75,2.56A1.18,1.18,0,0,0,1054.18,175.91Z"/><path class="cls-4" d="M1051.48,179.08c.28-.33.25-.52.12-.62a10,10,0,0,1-1.45-1.38l-.55-.7a9.61,9.61,0,0,1-.59-.92,1.14,1.14,0,0,0-1.7-.33l-2.06,1.71a1.1,1.1,0,0,0-.37,1.18,7.61,7.61,0,0,0,2.92,3.85,1.13,1.13,0,0,0,1.49-.2Z"/><path class="cls-4" d="M1044.61,182.25l-.56-.69-.34-.48a2.05,2.05,0,0,0-3-.46l-.92.76a2,2,0,0,0-.62,2.32,7.5,7.5,0,0,0,3.23,3.69,2,2,0,0,0,2.49-.51l1.3-1.53c.57-.67.49-1.32,0-1.66A10.73,10.73,0,0,1,1044.61,182.25Z"/><path class="cls-4" d="M1093.17,64.54c1.41.88,6.1.65,7.34-.32a2,2,0,0,0,1-2,1.71,1.71,0,0,0-1.46-1.41c-1.73-.57-5.84.37-7.11,1.62C1092.06,63.23,1092.24,64,1093.17,64.54Z"/><path class="cls-4" d="M1091.36,54a1.16,1.16,0,0,0,.64-.19c.07,0,6.86-4.25,14.29-.58a1.22,1.22,0,0,0,1.66-.65,1.37,1.37,0,0,0-.61-1.78c-.17-.09-.35-.15-.52-.23l-1.34-4.91a1,1,0,0,0-1.29-.76,1.13,1.13,0,0,0-.72,1.38l.92,3.39a15.48,15.48,0,0,0-1.92-.43l-1.3-4.8a1,1,0,0,0-1.3-.76,1.13,1.13,0,0,0-.72,1.38l1.08,4a18.12,18.12,0,0,0-2,.06L1097,44.45a1,1,0,0,0-1.3-.76,1.13,1.13,0,0,0-.72,1.38l1.18,4.34a15.87,15.87,0,0,0-1.62.42l-1.16-4.29a1,1,0,0,0-1.3-.76,1.13,1.13,0,0,0-.72,1.38l1.2,4.4a15.5,15.5,0,0,0-1.85.94,1.38,1.38,0,0,0-.43,1.84A1.23,1.23,0,0,0,1091.36,54Z"/><path class="cls-4" d="M1104.6,129.22h13.7a1.85,1.85,0,0,0,0-3.69h-13.7a1.85,1.85,0,0,0,0,3.69Z"/><path class="cls-4" d="M1117.32,182.31a5.26,5.26,0,0,1-.81,1.17,4.19,4.19,0,0,1-1.11.76c-1.54.94-.79,2.59.31,3.7s2.42,1.57,3.68.31l1.92-1.93c1.25-1.26.85-2.65-.25-3.76S1118.38,180.78,1117.32,182.31Z"/><path class="cls-4" d="M1115.37,177.58c-.95-1-2.32-1.54-3.23-.22a4.3,4.3,0,0,1-.7,1,3.62,3.62,0,0,1-1,.66c-1.33.81-.68,2.24.27,3.19s2.09,1.36,3.17.27l1.66-1.67C1116.66,179.74,1116.32,178.53,1115.37,177.58Z"/><path class="cls-4" d="M1107.77,176l1.34-1.35a1.71,1.71,0,0,0-.17-2.62c-.77-.77-1.87-1.24-2.61-.17a3.41,3.41,0,0,1-.56.81,3,3,0,0,1-.78.54c-1.07.65-.55,1.8.22,2.57S1106.9,176.85,1107.77,176Z"/><path class="cls-4" d="M1103.5,171.34l1-1a1.28,1.28,0,0,0-.13-2c-.58-.58-1.41-.93-2-.13a2.72,2.72,0,0,1-.43.61,2.25,2.25,0,0,1-.58.4c-.8.49-.41,1.36.16,1.94S1102.85,172,1103.5,171.34Z"/></g></g></g></g></svg>