<svg xmlns="http://www.w3.org/2000/svg" viewBox="0 0 778.08 142.99"><defs><style>.cls-1{fill:#3fa9f5;}.cls-14,.cls-2{font-size:24px;}.cls-13,.cls-14,.cls-2,.cls-9{fill:#fff;}.cls-13,.cls-14,.cls-2{font-family:Montserrat-SemiBold, Montserrat;font-weight:600;}.cls-15,.cls-2{letter-spacing:0.1em;}.cls-3{letter-spacing:0.08em;}.cls-4{letter-spacing:0.1em;}.cls-5{letter-spacing:0.1em;}.cls-6{letter-spacing:0.09em;}.cls-7{letter-spacing:0.09em;}.cls-8{fill:#9547f4;}.cls-10{letter-spacing:0.09em;}.cls-11{letter-spacing:0.09em;}.cls-12{fill:#007e76;}.cls-13{font-size:29.92px;letter-spacing:0.1em;}.cls-14{letter-spacing:0.1em;}.cls-16{letter-spacing:0.1em;}.cls-17{fill:#ff507a;}.cls-18{letter-spacing:0.09em;}</style></defs><g id="Layer_2" data-name="Layer 2"><g id="Pantallas_3" data-name="Pantallas 3"><g id="icon_hoteles_gaf"><path class="cls-1" d="M53.28,52.2a18.29,18.29,0,0,1-3.54,2.91,17.12,17.12,0,0,1-6,2.3,15.27,15.27,0,0,1-2.79.16c-8.43,0-16.86,0-25.29,0a15,15,0,0,1-8.46-2.77,16.38,16.38,0,0,1-5.46-6.17,15.26,15.26,0,0,1-1.76-7q.06-12.7,0-25.42A15.68,15.68,0,0,1,1.91,8.69,16.74,16.74,0,0,1,5,4.64,16.44,16.44,0,0,1,13.65.2,12.62,12.62,0,0,1,16.11,0q12.7,0,25.42,0A15.49,15.49,0,0,1,48,1.54a17.37,17.37,0,0,1,5,3.6,20.61,20.61,0,0,1,2.26,2.93l.44.79a16.61,16.61,0,0,1,1.74,5.74c.06.59.1,1.18.11,1.77,0,8.07,0,16.14,0,24.2a18.09,18.09,0,0,1-1.65,7.75,10,10,0,0,1-1.56,2.55l-.16.26h0a6.87,6.87,0,0,0-.94,1.08M1.64,28.8h0c0,3.33,0,6.67,0,10a36,36,0,0,0,.11,4A14.93,14.93,0,0,0,16.42,55.94q12.34,0,24.69,0A13.71,13.71,0,0,0,44,55.62,14.93,14.93,0,0,0,56,40.77v-24a16.64,16.64,0,0,0-.38-3.52A14.9,14.9,0,0,0,41.08,1.64H16.79a17.53,17.53,0,0,0-2.8.23A14.86,14.86,0,0,0,1.65,16c-.07,4.27,0,8.54,0,12.81"/><text class="cls-2" transform="translate(9.41 36.88)">HG</text></g><text class="cls-2" transform="translate(77.23 35.88)">Ho<tspan class="cls-3" x="39.72" y="0">t</tspan><tspan class="cls-4" x="51.86" y="0">eles GA</tspan><tspan class="cls-5" x="160.94" y="0">F</tspan><tspan x="178.56" y="0">S</tspan><tspan class="cls-6" x="196.05" y="0">A</tspan><tspan class="cls-7" x="216.19" y="0">C</tspan><tspan x="235.68" y="0">OMM</tspan></text><g id="icon_sitio_arqueologico"><path class="cls-8" d="M479.17,137.62a18.06,18.06,0,0,1-3.55,2.91,17,17,0,0,1-6,2.3,15.27,15.27,0,0,1-2.79.16c-8.43,0-16.85,0-25.28,0a15,15,0,0,1-8.46-2.77,16.38,16.38,0,0,1-5.46-6.17,15.13,15.13,0,0,1-1.76-7q0-12.7,0-25.42a15.51,15.51,0,0,1,1.91-7.47,16.63,16.63,0,0,1,11.73-8.49,13.5,13.5,0,0,1,2.47-.19q12.71,0,25.42,0A15.41,15.41,0,0,1,473.91,87a17.23,17.23,0,0,1,5,3.6,20.61,20.61,0,0,1,2.26,2.93l.44.79a16.81,16.81,0,0,1,1.73,5.74,17.52,17.52,0,0,1,.11,1.77c0,8.07,0,16.13,0,24.2a18.09,18.09,0,0,1-1.65,7.75,10.19,10.19,0,0,1-1.57,2.55l-.15.26h0a6.87,6.87,0,0,0-.94,1.08m-51.64-23.4h0c0,3.33,0,6.67,0,10a33.74,33.74,0,0,0,.11,4,14.92,14.92,0,0,0,14.68,13.12q12.35,0,24.69,0a13.61,13.61,0,0,0,2.92-.33,14.92,14.92,0,0,0,11.92-14.85q0-12,0-24a16,16,0,0,0-.38-3.52A14.9,14.9,0,0,0,467,87.05q-12.13,0-24.28,0a17.44,17.44,0,0,0-2.8.23,14.86,14.86,0,0,0-12.34,14.13c-.07,4.27,0,8.54,0,12.81"/><path class="cls-9" d="M446.39,107.82a8.57,8.57,0,0,0-2.47-.4,4.6,4.6,0,0,0-2.5.6,1.87,1.87,0,0,0-.93,1.65,2.18,2.18,0,0,0,.56,1.55,4,4,0,0,0,1.39,1q.81.35,2.28.81a25,25,0,0,1,2.94,1.07,5.06,5.06,0,0,1,1.92,1.53,4.18,4.18,0,0,1,.79,2.67,4.43,4.43,0,0,1-.83,2.69,5.29,5.29,0,0,1-2.33,1.78,8.83,8.83,0,0,1-3.44.63,10,10,0,0,1-3.84-.77,10.19,10.19,0,0,1-3.23-2l1.1-2.12a9.34,9.34,0,0,0,2.88,1.93,8,8,0,0,0,3.11.68,5,5,0,0,0,2.83-.71,2.19,2.19,0,0,0,1-1.9,2.25,2.25,0,0,0-.56-1.57,4,4,0,0,0-1.42-1c-.58-.24-1.35-.5-2.32-.79a23.82,23.82,0,0,1-2.92-1,5.09,5.09,0,0,1-1.91-1.51,4.19,4.19,0,0,1-.78-2.64,4.23,4.23,0,0,1,.79-2.54,5.14,5.14,0,0,1,2.23-1.69,8.8,8.8,0,0,1,3.33-.59,10.57,10.57,0,0,1,3.16.48,10.44,10.44,0,0,1,2.76,1.27l-1,2.2A10,10,0,0,0,446.39,107.82Z"/><path class="cls-9" d="M470,123.19l-1.89-4.35h-9.45l-1.87,4.35h-2.59l8-17.92h2.56l7.94,17.92Zm-10.37-6.58h7.53l-3.79-8.7Z"/></g><text class="cls-2" transform="translate(510.77 121.3)">Sitio a<tspan class="cls-10" x="92.61" y="0">r</tspan><tspan x="104.85" y="0">queológi</tspan><tspan class="cls-11" x="233.28" y="0">c</tspan><tspan x="249.43" y="0">o</tspan></text><g id="icon_estacion"><path class="cls-12" d="M53.28,136.62a18.67,18.67,0,0,1-3.54,2.91,16.91,16.91,0,0,1-6,2.29A14.43,14.43,0,0,1,41,142c-8.43,0-16.86,0-25.29,0a14.92,14.92,0,0,1-8.46-2.77A16.27,16.27,0,0,1,1.76,133,15.26,15.26,0,0,1,0,126q.06-12.7,0-25.42A15.69,15.69,0,0,1,1.91,93.1a16.94,16.94,0,0,1,3.06-4,16.49,16.49,0,0,1,8.68-4.43,12.63,12.63,0,0,1,2.46-.19c8.47,0,17,0,25.42,0A15.34,15.34,0,0,1,48,86a17.15,17.15,0,0,1,5,3.59,21.19,21.19,0,0,1,2.26,2.93l.44.8A16.55,16.55,0,0,1,57.46,99c.06.59.1,1.18.11,1.76,0,8.07,0,16.14,0,24.21a18.09,18.09,0,0,1-1.65,7.75,10.34,10.34,0,0,1-1.56,2.55l-.16.25h0a6.52,6.52,0,0,0-.94,1.09M1.64,113.22h0c0,3.33,0,6.66,0,10a36,36,0,0,0,.11,4,14.94,14.94,0,0,0,14.68,13.13H41.11A13.7,13.7,0,0,0,44,140,14.94,14.94,0,0,0,56,125.19v-24a16.57,16.57,0,0,0-.38-3.52,14.9,14.9,0,0,0-14.5-11.67H16.79a17.53,17.53,0,0,0-2.8.23A14.85,14.85,0,0,0,1.65,100.41c-.07,4.26,0,8.54,0,12.81"/><text class="cls-13" transform="translate(17.27 124.04)">E</text></g><text class="cls-14" transform="translate(77.09 121.3)">E<tspan class="cls-15" x="18.36" y="0">st</tspan><tspan class="cls-16" x="45.7" y="0">a</tspan><tspan class="cls-15" x="62.78" y="0">ción</tspan></text><g id="icon_pueblo_magico1" data-name="icon_pueblo magico1"><path class="cls-17" d="M478.61,52.2a18.06,18.06,0,0,1-3.55,2.91,17,17,0,0,1-6,2.3,15.27,15.27,0,0,1-2.79.16c-8.43,0-16.86,0-25.28,0a15,15,0,0,1-8.46-2.77,16.38,16.38,0,0,1-5.46-6.17,15.13,15.13,0,0,1-1.76-7q0-12.7,0-25.42a15.56,15.56,0,0,1,1.9-7.47,16.78,16.78,0,0,1,3.07-4A16.41,16.41,0,0,1,439,.2,12.62,12.62,0,0,1,441.43,0q12.72,0,25.42,0a15.45,15.45,0,0,1,6.5,1.52,17.42,17.42,0,0,1,5,3.6,20.61,20.61,0,0,1,2.26,2.93l.44.79a16.81,16.81,0,0,1,1.73,5.74,17.52,17.52,0,0,1,.11,1.77c0,8.07,0,16.14,0,24.2a18.1,18.1,0,0,1-1.66,7.75,10.16,10.16,0,0,1-1.56,2.55l-.15.26h0a7.36,7.36,0,0,0-.93,1.08M427,28.8h0c0,3.33,0,6.67,0,10a33.74,33.74,0,0,0,.11,4,14.92,14.92,0,0,0,14.68,13.12q12.35,0,24.69,0a13.69,13.69,0,0,0,2.92-.33,14.92,14.92,0,0,0,11.92-14.85v-24a16,16,0,0,0-.38-3.52A14.9,14.9,0,0,0,466.4,1.63q-12.13,0-24.28,0a17.44,17.44,0,0,0-2.8.23A14.86,14.86,0,0,0,427,16c-.07,4.27,0,8.54,0,12.81"/><path class="cls-9" d="M446.8,21.33a5.63,5.63,0,0,1,1.85,4.51,6,6,0,0,1-1.86,4.69,7.54,7.54,0,0,1-5.23,1.67h-4.51v5.65h-2.48V19.73h7A7.74,7.74,0,0,1,446.8,21.33ZM445,28.93a3.68,3.68,0,0,0,1.24-3A3.55,3.55,0,0,0,445,23a5.63,5.63,0,0,0-3.58-1l-4.4,0v8h4.4A5.51,5.51,0,0,0,445,28.93Z"/><path class="cls-9" d="M454.53,19.73h3l6.63,12.73,6.58-12.73h3V37.85h-2.33l0-14.47-6.45,12.55h-1.53l-6.5-12.55V37.85h-2.3Z"/></g><text class="cls-2" transform="translate(509.92 35.88)">Pueblo M<tspan class="cls-16" x="136.32" y="0">á</tspan><tspan x="153.41" y="0">gi</tspan><tspan class="cls-18" x="181.8" y="0">c</tspan><tspan x="197.95" y="0">o</tspan></text></g></g></svg>