<svg xmlns="http://www.w3.org/2000/svg" viewBox="0 0 1628.83 303.54"><defs><style>.cls-1{fill:#31ad9d;}.cls-2{fill:#fff;}.cls-3{fill:#fefefe;}.cls-4{fill:#fdfefe;}.cls-5{fill:#fcfdfd;}.cls-6{fill:#2aab9a;}.cls-7{fill:#2fad9d;}.cls-8{fill:#13a18f;}.cls-9{fill:#1ba593;}.cls-10{fill:#1aa393;}.cls-11{fill:#18a493;}.cls-12{fill:#0a9e8b;}.cls-13{fill:#0c9f8c;}.cls-14{fill:#1ba592;}.cls-15{fill:#13a090;}.cls-16{fill:#1da594;}.cls-17{fill:#20a696;}.cls-18{fill:#0c9e8c;}.cls-19{fill:#11a290;}.cls-20{fill:#0c9e8d;}.cls-21{fill:#1ea694;}.cls-22{fill:#94d2ca;}.cls-23{fill:#14a391;}.cls-24{fill:#12a18f;}.cls-25{fill:#1ca492;}.cls-26{fill:#11a18f;}.cls-27{fill:#22a899;}.cls-28{fill:#15a491;}.cls-29{fill:#26aa9a;}.cls-30{fill:#13a290;}.cls-31{fill:#10a08e;}.cls-32{fill:#0ea08d;}.cls-33{fill:#29aa9a;}.cls-34{fill:#1ca694;}.cls-35{fill:#28aa99;}.cls-36{fill:#21a895;}.cls-37{fill:#1fa795;}.cls-38{fill:#20a795;}.cls-39{fill:#12a290;}.cls-40{fill:#0d9f8c;}.cls-41{fill:#13a28f;}.cls-42{fill:#23a797;}.cls-43{fill:#21a797;}.cls-44{fill:#0d9e8b;}.cls-45{fill:#0c9e8b;}.cls-46{fill:#0e9f8d;}.cls-47{fill:#12a38f;}.cls-48{fill:#0d9f8b;}.cls-49{fill:#11a28f;}.cls-50{fill:#1fa796;}.cls-51{fill:#12a18e;}.cls-52{fill:#1ea793;}.cls-53{fill:#11a08e;}.cls-54{fill:#1fa695;}.cls-55{fill:#22a696;}.cls-56{fill:#2aaa9a;}.cls-57{fill:#14a290;}.cls-58{fill:#22a797;}.cls-59{fill:#1aa493;}.cls-60{fill:#1da693;}.cls-61{fill:#19a491;}.cls-62{fill:#14a28f;}.cls-63{fill:#23a997;}.cls-64{fill:#13a08d;}.cls-65{fill:#15a391;}.cls-66{fill:#19a492;}.cls-67{fill:#29ab9a;}.cls-68{fill:#1ba494;}.cls-69{fill:#1ba493;}.cls-70{fill:#79cac1;}.cls-71{fill:#1da694;}.cls-72{fill:#17a391;}.cls-73{fill:#2dac9c;}.cls-74{fill:#18a492;}.cls-75{fill:#28aa9a;}.cls-76{fill:#1aa593;}.cls-77{fill:#119f8e;}.cls-78{fill:#23a896;}.cls-79{fill:#1ba594;}.cls-80{fill:#17a390;}</style></defs><g id="Layer_2" data-name="Layer 2"><g id="Capa_1" data-name="Capa 1"><path class="cls-1" d="M916.45,303.37q-352.25,0-704.48.17c-6.79,0-8-1.92-8-8.21.31-35.74.26-71.48,0-107.22,0-5.35.83-7.24,6.88-7.24q704.81.25,1409.61,0c6.89,0,8.34,1.92,8.28,8.48q-.49,53.61,0,107.22c.06,6-1.83,6.95-7.25,6.94q-352.56-.19-705.12-.11Z"/><path class="cls-2" d="M576,139.67c3-1.1,5.19-1.52,6.95-2.64,5.71-3.64,9-2.15,11.25,4.12,1.12,3,1.41,4.26-1.56,6.51-8.73,6.61-17.62,12.89-27.58,17.51-7.74,3.59-20.74-1.54-24.1-9.28-.74-1.71.29-2.91.62-4.29q5.55-23.28,11.25-46.52c.26-1,.69-2-1-3.5-3.92,6.6-7.73,13-11.56,19.48-8.84,14.86-17.83,29.61-28.89,43-1.64,2-3.09,3.2-5.88,2.72-9.11-1.56-18-3.61-25.69-9.13-4.86-3.49-6.86-8-6.1-13.87,2.76-21.19,7.23-42.08,11.88-62.91,1.05-4.71.89-7.72-4.27-9.1a14.14,14.14,0,0,1-4.6-2.19c-1.6-1.18-5.32-1.07-3.62-4.68,1.33-2.82.27-7.1,5-7.94,13.24-2.33,26.45-4.88,39.69-7.18,4.4-.76,9,5,8,9.88-3.3,15.44-6.79,30.83-10.12,46.26-2.1,9.79-4.06,19.6-6,29.42-.3,1.5-1.55,3.5,1,4.22,2,.57,2.94-1,3.91-2.52,7.7-12,15.52-24,23.21-36,3.54-5.55,6.74-11.32,10.36-16.83,5.51-8.39,5.15-18.35,7.45-27.58.79-3.16,1.77-4.34,4.79-4.63,7-.68,14-1.59,21.09-2.34a8.33,8.33,0,0,1,8.88,9.73c-4,21.86-8.11,43.69-12.11,65.55C577.37,129.49,576.8,134.14,576,139.67Z"/><path class="cls-2" d="M331.07,49.13a77.34,77.34,0,0,1,31.18,6.75c3,1.36,3.45,3,2.1,5.79-3.05,6.33-5.8,12.79-8.9,19.09C352.88,86,349,87,344.14,83.6c-6.34-4.37-12.53-9-18.76-13.52-5-3.63-8.34-2.66-9.95,3.25-1.55,5.69-.77,11,3.6,15.47,5.88,6.09,13.2,10.2,20,15.08,16.59,12,21.16,29.29,11,44.57-8.94,13.42-22.58,18.75-38.2,18.75-14.07,0-27.44-3.76-40.25-9.58-3.6-1.64-4.9-3.31-2.87-7.3,2.1-4.15,3.09-8.84,5-13.11,3.24-7.39,6.62-8.35,13.41-4.27q12.89,7.76,25.78,15.47c5.2,3.1,8,1.9,9-4,1.15-7.29-1-13.58-6.83-18.23-6.19-5-12.5-9.77-19-14.31-21.63-15.17-15.32-39.26.94-51.89C306.66,52.4,317.86,49.11,331.07,49.13Z"/><path class="cls-2" d="M771.84,114.1c6.95-8,10.78-17.37,15.43-26.29,5-9.64,9.52-19.58,15.81-28.51,9.19-13,23.77-12.55,32.6.91a4.81,4.81,0,0,1,.18,5.28c-4.05,8.22-8.09,16.44-12.23,24.61-3.15,6.24-7.16,5.89-12.06,4.11-10.69-3.87-10.77-4-16.61,5.7-11.27,18.81-22.88,37.49-27.29,59.45-.65,3.22-2.39,5-5.86,5.28-6.2.54-12.35,1.65-18.56,2-6.68.38-10.26-3.69-9.08-10.15,4.73-26,9.42-52.09,14.61-78,.8-4,0-5.33-3.43-6.27a11.52,11.52,0,0,1-4.08-1.88c-1.91-1.51-6.68-.87-5.25-4.89,1.22-3.45.68-8.16,7-9C754.22,55,765.23,52.12,776.35,50c4.49-.88,9.32,4.69,8.2,9.49-4.08,17.44-8.26,34.86-12.39,52.29C772,112.5,772,113.31,771.84,114.1Z"/><path class="cls-2" d="M402.93,122.6c-.42,2.39,1.39,6.72,1.69,11.22.25,3.64,2.34,5.1,6.29,3.85,10.34-3.29,20.83-6.11,31.13-9.5,3.67-1.21,5.58-1,7.38,2.82,4,8.38,4.27,8.37-3,13.77a282.44,282.44,0,0,1-29.72,18.87C400.1,173,377.18,161.26,372.22,145A73.15,73.15,0,0,1,371,106.4c5.5-23.43,18-41.87,40.17-52.46C427.76,46,444.05,49.11,460,56.59c2.32,1.09,2.45,2.21,1.4,4.35-3.75,7.61-7.06,15.44-11.05,22.92-2.58,4.84-6.85,3.18-10.4,1.09a194.41,194.41,0,0,1-16.69-10.76c-4.93-3.62-7.4-2-9.89,2.84C406.39,90.69,404.08,105.36,402.93,122.6Z"/><path class="cls-3" d="M611.29,260.91,602,275.06c-2.71,1.35-5.29,1.54-7.54-.92Q582.28,254,570,233.82c-1.18-.43-2.07-1-1.36-2.49-.27-.56-.42-1.52-.81-1.62-2.41-.62-1.44,1.27-1.45,2.24,0,7.7,0,15.4,0,23.11s-.38,15.43.12,23.1c.37,5.6-1.73,7.19-6.89,6.52-2.95-.39-6-.29-9-.41a4.38,4.38,0,0,1-.72-3q0-40.58,0-81.16c0-1.25-.32-2.62.89-3.58l-.26.24c4.76-1.22,9.5-2.06,14.15.42q12.93,21.81,25.88,43.62c.76,1.27,1.68,2.43,2.53,3.64,2.11,1,2.75,2.8,2.89,4.93,1.76,4.83,3.59,5.38,6.32.47,5.88-10.54,12-20.93,18.06-31.38a2.43,2.43,0,0,1,1.34-2.42l6.28-10.54c-.31-2.35,1.34-3.59,2.78-5l2.55-3.65c4.25-1.87,8.53-1.46,12.82-.19.35.46.71.92,1.06,1.39,1.2,1,.89,2.33.89,3.57q0,39.52,0,79c0,1.25.31,2.61-.89,3.57a69,69,0,0,1-15.27.08c-1.84-2.25-1.18-4.93-1.24-7.46-.32-14.62.56-29.25-.48-43.82a2.2,2.2,0,0,0-2.12-.41l-14,23.3C614.05,258.08,613.34,259.88,611.29,260.91Z"/><path class="cls-3" d="M1159.72,275.05l-25-39.82c-1-.59-1.62-2.2-3.21-1.24-1,16.16-.47,32.28-.28,48.4a1.42,1.42,0,0,1-.45,1.86,72.38,72.38,0,0,1-16.25,0c-1.49-1.12-.93-2.75-.93-4.17,0-27.25-.13-54.49.05-81.73,4.5-4.53,9.63-2.68,14.71-1.46,11.38,19.1,22.77,38.19,34.75,58.28,11.52-19.76,22.7-39,33.89-58.15,4.25-2.45,8.71-1,13.11-.69,1.78,1.37,1.67,3.32,1.67,5.26q0,39.82,0,79.64a4.76,4.76,0,0,1-.67,3.06c-15.64,1.38-15.65,1.38-15.67-14,0-12.91,0-25.82-.08-38.73,0-1,1.18-2.9-1.07-2.73-1.21.09-1,1.66-.91,2.73a6.42,6.42,0,0,1-1.23,2.8c-1.24.89-1.18,3-3.06,3.3Q1178.53,255,1168,272.29c-.88,1.44-2,2.76-2.94,4.14C1163.45,275.22,1161.17,276.74,1159.72,275.05Z"/><path class="cls-3" d="M787.18,227.86c-2.84,1.26-1.27,3.73-1.28,5.54-.15,15.21-.26,30.43,0,45.63.08,4.54-1.26,6.16-5.75,5.66-3.6-.4-7.26-.31-10.9-.44-1.28-1.22-.83-2.81-.82-4.26,0-27.23-.14-54.46.06-81.69,4.55-4.38,9.63-2.8,14.7-1.3,5.44,6.15,9.71,13.3,15.87,18.85a17.5,17.5,0,0,1,4.84,5.26c.7,4.15,4.24,6.16,6.75,8.95,1.48,1.26,3.18,2.34,3.5,4.5a96.42,96.42,0,0,0,13.37,16.18c3.15,2.93,2.76.08,3-1.83,0-15.45,0-30.88,0-46.31,0-2-.86-4.29.86-6.12l-.26.24a32.33,32.33,0,0,1,16.77,0l-.27-.24c1.23,1,.9,2.32.9,3.57q0,40.27,0,80.54c0,1.26.24,2.6-.75,3.68-5.22.1-10.56,1.71-15.54-1.24-2.35-2-4.77-3.86-6.27-6.63a2.17,2.17,0,0,0-.32-1.19A17.28,17.28,0,0,1,820.8,270c-.67-4.2-4.26-6.18-6.8-8.95-1.45-1.28-3.14-2.36-3.45-4.5l-1.72-2a17.75,17.75,0,0,1-4.84-5.26c-.74-4.14-4.26-6.16-6.78-8.95-1.45-1.27-3.15-2.35-3.46-4.49l-1.7-2A11.84,11.84,0,0,1,787.18,227.86Z"/><path class="cls-4" d="M955.31,255.86l-5.83,11.33c-1.71,4.52-5.37,7.08-9.36,9.31a1,1,0,0,0-.54.94,19.79,19.79,0,0,1-9.37,4.09c-18.27,5.67-37.07,2.13-55.6,3.15-3.64.2-3.57-2.06-3.56-4.58q.12-41.66.19-83.3c2.21-2,4.9-1,7.31-.92,11.64.37,23.32-1.14,34.93.76,8.37,1.5,16.53,3.32,24.2,7.47,10.15,5.49,14.65,14.76,18.58,24.68C959.43,237.94,959.5,247,955.31,255.86Z"/><path class="cls-3" d="M1062.55,250.68q-3.29,8.34-6.56,16.7c-3.17,4.2-6.48,8.25-11.47,10.48-16.55,9.3-33.44,10.91-51.19,3.18-13.1-5.7-19.43-16.51-23.93-29.05-3.82-7.36-1.79-14.9-.59-22.38a10.47,10.47,0,0,1,2-4.74c5-10.07,11.12-18.91,21.89-23.88,17-7.85,33.4-6.75,49.75,2,11.1,5.91,15.75,16.24,19.84,27.12C1064.7,236.91,1064.42,243.78,1062.55,250.68Z"/><path class="cls-4" d="M374.8,210.91c-2.72,6.73-.78,13.73-1.1,20.6-.15,3.26,3.14,2.12,5,2.14,12.43.17,24.86.2,37.29.28a21.12,21.12,0,0,1-.11,12.85c-12.26,0-24.53.32-36.78,0-4.66-.11-6,1.37-5.63,5.81a77.06,77.06,0,0,1,0,12.89c-.36,4.42.95,5.94,5.63,5.82,12.68-.33,25.39.16,38.07-.25,5.21-.16,6.24,1.82,5.82,6.34-.35,3.72,1.05,7.54-5.48,7.37-20.21-.53-40.43-.4-60.64-.53-1.46-1.68-.79-3.7-.8-5.57q-.06-37.71,0-75.43c0-2.5-.69-5.26,1.89-7.11,20.59-.72,41.19-.19,61.78-.29.82,0,1.06.61,1.52,1,.31,13.78.31,13.75-13.52,13.79-10.55,0-21.09.14-31.63.21A.83.83,0,0,1,374.8,210.91Z"/><path class="cls-3" d="M712.12,271.21c9.48.8,18.51-9.76,18.08-20.54-1.19-17.22-.33-34.46-.45-51.68a3.87,3.87,0,0,1,1.57-2.68c5.26-.53,10.54-1.32,15.75.4l-.29-.22c1.26.94.91,2.32.91,3.56q0,25.5,0,51a13,13,0,0,1-1.8,7.4l-5.26,13.06a15.09,15.09,0,0,1-9.15,8.9c-15.46,7.63-30.9,7.5-46.35,0-4.53-1.47-7.43-4.63-9.18-8.95a64.39,64.39,0,0,1-6.22-19.85c-1.54-1.64-.82-3.66-.82-5.49q-.1-22.08,0-44.14c0-1.83-.74-3.86.85-5.47l-.26.21a33.51,33.51,0,0,1,16.79,0H686c2.45,2,1.59,4.75,1.62,7.22.2,16.53-.21,33.08.23,49.62a4.83,4.83,0,0,1,0,3.53c.54,3.87,2.93,6.62,5.54,9.25,2.35.57,4,2.35,5.85,3.64a9.12,9.12,0,0,0,6.52,1.3A9.3,9.3,0,0,1,712.12,271.21Z"/><path class="cls-3" d="M1450.5,210.59l33,74c-5.26,0-9.86-.07-14.46,0-2.88.06-3.4-2.15-4.27-4-2.24-4.84-4.43-9.7-6.64-14.55-14.75-1-29.5-.54-44.25-.25-1.54,3.28-3.66,6.41-4.51,9.86-1.88,7.65-6.37,9.65-13.93,9.21-5.84-.34-6.72-1-4.18-6.52,11.74-25.46,23.06-51.12,34.57-76.69.78-1.75,1.84-3.37,2.76-5,5.08-1.23,10.16-1.52,15.21.14l5.16,10.17A3.42,3.42,0,0,1,1450.5,210.59Z"/><path class="cls-3" d="M1278.41,197.54q15.84,35.58,31.69,71.14c2.26,5.07,4.51,10.13,7.09,15.94-5.17,0-9.63-.09-14.08,0-2.76.08-3.59-1.69-4.51-3.76-2.26-5.08-4.67-10.1-7-15.14-14.76-.1-29.52-.86-44.26.4-1.94,4.28-4.16,8.46-5.75,12.87-1.5,4.16-3.66,5.91-8.4,5.75-11-.36-11,0-6.31-10.42q17.45-38.72,34.77-77.47C1267.29,195.36,1272.93,194.49,1278.41,197.54Z"/><path class="cls-4" d="M1383,218.24c-7.35,11.31-14.62,22.67-20.79,34.7V253c-2.39,8.16-1,16.53-.89,24.75.1,5.8-1.58,7.74-7.18,6.95-3.17-.44-6.43-.31-9.64-.43-1.6-10.27-.77-20.58-.45-30.88-10-17.45-20.35-34.67-31.31-51.53-1-1.59-2.36-3-2-5.16a33.79,33.79,0,0,1,16.51-.07l24.73,40c2.21.33,3-1.47,4-2.79,7.44-9.25,12.67-19.92,19.06-29.84,1.49-2.31,2.81-4.72,4.21-7.09,5.09-2.16,10.25-1.36,15.42-.36-1.46,6.35-6.53,10.79-8.8,16.72C1385.75,215.43,1385.11,217.27,1383,218.24Z"/><path class="cls-5" d="M457.46,196.81c.05,22.71.29,45.42,0,68.12-.07,5.34,1.61,6.34,6.5,6.26,13.27-.22,26.56.11,39.84.22a20,20,0,0,1,0,12.84q-31.41,1-62.82,0c-1.26-.93-.92-2.31-.92-3.55q0-39.54,0-79.08c0-1.26-.29-2.61.81-3.63l1.13-1.36C447.19,195.42,452.34,195,457.46,196.81Z"/><path class="cls-6" d="M687.49,254.81c-1.82-3.39-1.17-7.1-1.21-10.68-.19-15.81-.23-31.63-.32-47.44,4.42.16,2.86,3.59,2.88,5.76.12,15.66.06,31.32.06,47C687.39,251,689.13,253.33,687.49,254.81Z"/><path class="cls-7" d="M414.49,249.41c-10.71,0-21.43.19-32.13-.09-4.62-.13-6.44,1-6.4,6,.1,13.44-.14,13.44,13.07,13.44h33.38c0,.41,0,.83,0,1.24H377.85c-2.19,0-3-1.27-3-3.29,0-.43,0-.86,0-1.29-1.09-17.33-1.09-17.33,16.14-17.32q11.29,0,22.57,0a3.63,3.63,0,0,1,1.15.44Z"/><path class="cls-8" d="M358,196.49c-1.75,2.06-1,4.53-1,6.81q-.13,40.47-.14,80.95c-2.28-1.51-1.46-3.86-1.46-5.88q-.07-38.26,0-76.53c0-2.54-.46-5.28,2.58-6.65.46.28.61.57.46.86S358.15,196.49,358,196.49Z"/><path class="cls-9" d="M1211.11,284.28q-.1-40.5-.24-81c0-2.27.81-4.75-1-6.77-.44-.3-.58-.6-.43-.9s.3-.44.45-.44c2.37,1.05,2.61,3.09,2.61,5.35q0,39.85,0,79.7C1212.44,281.71,1212.55,283.25,1211.11,284.28Z"/><path class="cls-10" d="M847.78,284.27q-.07-43.9-.16-87.79c2.15,1.24,1.56,3.35,1.56,5.19q0,38.66,0,77.29C849.18,280.81,849.77,282.9,847.78,284.27Z"/><path class="cls-11" d="M869.67,198.17v84.41h-.62V197.9Z"/><path class="cls-12" d="M440.91,198q.06,43.13.11,86.26c-1.69-.8-1.59-2.36-1.59-3.85q0-40.41,0-80.83a4.71,4.71,0,0,1,.41-1.72C439.87,197.76,440.54,197.93,440.91,198Z"/><path class="cls-13" d="M647.27,284.24V198.06c1.84-.95,1.55.5,1.55,1.44q0,40.74,0,81.5C648.82,282.32,648.63,283.57,647.27,284.24Z"/><path class="cls-14" d="M550.87,196.48l-.18,87.79c-2.14-1.59-1.36-3.92-1.37-6q-.06-38,0-76C549.33,200.3,548.52,197.93,550.87,196.48Z"/><path class="cls-12" d="M1114.35,197.77l.18,86.47c-2.65-1.62-1.57-4.26-1.58-6.45q-.09-40,0-80.05A.81.81,0,0,1,1114.35,197.77Z"/><path class="cls-15" d="M769.1,197.74q.09,43.26.17,86.51c-2.31-1.5-1.47-3.86-1.48-5.89q-.06-40.31,0-80.63C768.23,197.19,768.67,197.22,769.1,197.74Z"/><path class="cls-16" d="M458.83,268.8V198.05h1.32v70.7A.78.78,0,0,1,458.83,268.8Z"/><path class="cls-17" d="M745.91,258.43c2-20.62.72-41.29.87-61.93,2.39,1.43,1.55,3.81,1.56,5.84q.09,25.17,0,50.35C748.33,254.82,749.47,257.69,745.91,258.43Z"/><path class="cls-18" d="M420.91,286.7H358.45v-.58h62.72Z"/><path class="cls-19" d="M358,196.49l0-1.3c19.18,0,38.35-.05,57.52,0,2,0,4.43-.85,5.77,1.68Z"/><ellipse class="cls-20" cx="472.52" cy="286.32" rx="42.55" ry="0.3"/><path class="cls-21" d="M669.78,196.47l0,55.1c-.2,1.84-.39,3.69-.59,5.53l-.82-.07c0-19.52,0-39,.06-58.58C668.4,197.79,669.3,197.13,669.78,196.47Z"/><path class="cls-8" d="M1132.2,230.13l2.52,5.1c-3.61.73-2.35,3.64-2.37,5.74-.1,12.25,0,24.5-.1,36.76,0,2.21,1,4.81-1.47,6.52a7.9,7.9,0,0,1,0-1.09c-.88-16.82-.15-33.65-.36-50.47C1130.39,231.51,1130.16,230,1132.2,230.13Z"/><path class="cls-22" d="M629.7,229c3.88-2.25,2.2,1.4,2.21,2.35.14,9.47.1,18.94.1,28.41q0,12.27,0,24.54l-.63,0-.63-.07c-1.45-9.18-.35-18.41-.59-27.62S630.38,238.23,629.7,229Z"/><path class="cls-8" d="M376.06,214.54c0,16.78,0,16.78,16.67,16.78h21.8v1.19c-12.18,0-24.36,0-36.54,0-2.65,0-3.19-1.56-3.17-3.76,0-4.73,0-9.45,0-14.17C375.23,213.94,375.63,213.92,376.06,214.54Z"/><path class="cls-13" d="M629.7,229c1.75,1.54.95,3.59,1,5.41.07,16.62.06,33.24.08,49.86-2.16-1.9-1.24-4.44-1.25-6.69-.09-12.49,0-25,0-37.46,0-2.59.17-5.18-1.29-7.51Z"/><path class="cls-23" d="M731.59,196.51c-1.71,2.06-1,4.51-1,6.79-.18,15.79-.28,31.58-.41,47.37-1.14-.9-1.22-2.17-1.22-3.47q0-23.34,0-46.69c0-2.25.25-4.28,2.61-5.33.45.29.6.58.46.88S731.74,196.51,731.59,196.51Z"/><path class="cls-24" d="M1191.46,233.8c.23-1.11.51-2.17,1.92-2.28,1.94,6.08.7,12.32.83,18.47a247.12,247.12,0,0,1-1.16,32.73v-47.5C1192.47,234.8,1191.71,234.58,1191.46,233.8Z"/><path class="cls-25" d="M831.38,196.48q-.18,27.75-.35,55.5c-1.17.28-1.67-.06-1.23-1.3,0-15.9,0-31.8.05-47.71C829.86,200.76,828.85,198.16,831.38,196.48Z"/><path class="cls-26" d="M568.67,231.33l1.36,2.49c-1.6,2.52-1.34,5.34-1.34,8.12,0,13.68,0,27.37-1.06,41q0-25,0-50.08C567.68,232.38,568.32,231.85,568.67,231.33Z"/><path class="cls-27" d="M788.45,232.62v50.09h-1.29v-51.4C788.39,231,788.81,231.4,788.45,232.62Z"/><path class="cls-28" d="M913.48,196.64l-42.24.16a2.67,2.67,0,0,1,2.53-1.6c15.05,0,30.09,0,45.8,0C917.3,197.08,915.22,196,913.48,196.64Z"/><path class="cls-29" d="M376.06,214.54a9.63,9.63,0,0,0-1.2.05l-.06-3.68,1.32,0c4.48,2.28,9.26.89,13.88,1,10,.24,20,.07,29.93,1.36-12.39,0-24.79,0-37.19,0C380.48,213.29,378,212.42,376.06,214.54Z"/><path class="cls-30" d="M1247.32,266.15c.52-1.6,1.87-1.5,3.13-1.5l38.34,0c1.07,0,2.14,0,2.78,1.08-12,.15-24.12.58-36.16.24C1252.69,265.92,1250,268.61,1247.32,266.15Z"/><path class="cls-30" d="M1413.86,265.81c2.11-2.21,4.81-1.05,7.21-1.08,10.44-.15,20.88-.13,31.31,0,1.92,0,4.33-1.21,5.73,1.34-2.64,2.71-5.35-.16-8-.08C1438,266.36,1425.92,265.94,1413.86,265.81Z"/><ellipse class="cls-31" cx="894.57" cy="286.31" rx="30.7" ry="0.31"/><path class="cls-32" d="M458.83,268.8l1.31-.06h42.48C488,269.13,473.4,271.55,458.83,268.8Z"/><path class="cls-33" d="M955.31,255.86c2.16-9,2.13-18,1-27.07.8.66,2.24,1.27,2.3,2,.56,7.8,1.58,15.65-.84,23.35A2.57,2.57,0,0,1,955.31,255.86Z"/><path class="cls-34" d="M1062.55,250.68a110,110,0,0,0-.29-20.61C1066.19,235.36,1066.33,246,1062.55,250.68Z"/><path class="cls-35" d="M970.78,224.87c-1.68,9-4,17.92-1.38,27.12-.4-.12-1-.11-1.18-.38C965,246.81,966.69,229.34,970.78,224.87Z"/><path class="cls-8" d="M1344,253.38c1.16,10.28.32,20.59.45,30.88-2.82-2.61-1.46-6-1.37-9C1343.35,268,1341.81,260.6,1344,253.38Z"/><path class="cls-36" d="M1362.2,252.94c3,4.05,1.16,8.67,1.41,13a53.62,53.62,0,0,1-1.42,17v-30Z"/><path class="cls-37" d="M1044.52,277.86,1056,267.38C1053.79,272.64,1050.62,276.85,1044.52,277.86Z"/><path class="cls-38" d="M940.12,276.5l9.36-9.31C949,272.9,945.07,275.23,940.12,276.5Z"/><path class="cls-24" d="M1278.41,197.54c-5.54-1.66-11.18-.6-16.78-.66C1266.67,194.08,1275.09,194.41,1278.41,197.54Z"/><path class="cls-39" d="M1327.23,196.62l-16.51.07c5.38-3,11.1-1.19,16.69-1.16a.82.82,0,0,1,.14.53A2,2,0,0,1,1327.23,196.62Z"/><path class="cls-40" d="M1482.53,286.54h-15.1c0-.15,0-.31,0-.46h15.1C1482.52,286.23,1482.52,286.39,1482.53,286.54Z"/><path class="cls-39" d="M686.31,196.7l-16.79,0A19.7,19.7,0,0,1,686.31,196.7Z"/><path class="cls-41" d="M769.1,197.74h-1.31c5-4.07,10.12-3.76,15.42-.73C778.48,196.87,773.71,195.8,769.1,197.74Z"/><path class="cls-30" d="M847.89,196.72H831.13A19.35,19.35,0,0,1,847.89,196.72Z"/><path class="cls-41" d="M1114.35,197.77l-1.41,0c4.92-4.15,10.11-3.63,15.42-.86C1123.68,197,1118.91,195.69,1114.35,197.77Z"/><path class="cls-42" d="M731.5,280.39l9.15-8.9C739.93,276.86,737,279.91,731.5,280.39Z"/><path class="cls-43" d="M676,271.42l9.18,8.95C679.61,279.92,676.63,276.86,676,271.42Z"/><path class="cls-41" d="M1443.78,196.76l-15.21-.14A16.08,16.08,0,0,1,1443.78,196.76Z"/><path class="cls-40" d="M1403.36,286.71H1390l0-.59h13.63Z"/><path class="cls-44" d="M1345.9,286h13.88v.59h-13.85Z"/><path class="cls-45" d="M1301.66,286h13.93A30.21,30.21,0,0,1,1301.66,286Z"/><path class="cls-46" d="M1115.8,286h13.86v.59h-13.82Z"/><path class="cls-40" d="M771,285.91h13.35v.59H770.41Z"/><path class="cls-40" d="M646.2,286.58H633.64v-.52H646.2Z"/><path class="cls-47" d="M731.59,196.51l0-1.33c5.14.75,10.6-1.77,15.49,1.53Z"/><path class="cls-13" d="M1224.15,286h12.6A24.79,24.79,0,0,1,1224.15,286Z"/><path class="cls-48" d="M1209.69,286.62h-12.61V286h12.36Z"/><path class="cls-49" d="M457.46,196.81,442,196.62C447.21,194.34,452.35,194,457.46,196.81Z"/><path class="cls-49" d="M1394.69,196.59l-15.42.36C1384.34,193.85,1389.5,194.45,1394.69,196.59Z"/><path class="cls-35" d="M930.21,281.53c3-1.61,5.7-4,9.37-4.09C937.42,281,934.59,283.05,930.21,281.53Z"/><path class="cls-40" d="M564.49,286.56H551.94V286h12.63Z"/><ellipse class="cls-50" cx="423.27" cy="203.55" rx="0.4" ry="8.06"/><path class="cls-40" d="M835.58,285.91h10.79A17.14,17.14,0,0,1,835.58,285.91Z"/><path class="cls-8" d="M564.76,197.14l-14.14-.42C555.4,194.45,560.14,193.76,564.76,197.14Z"/><path class="cls-51" d="M646.21,196.67l-12.82.19C637.62,194,641.9,194.37,646.21,196.67Z"/><path class="cls-41" d="M1209.85,195.17l0,1.34L1197,197C1200.83,193.25,1205.59,196,1209.85,195.17Z"/><path class="cls-52" d="M415.91,246.78l.11-12.85C418.22,238.23,418.39,242.51,415.91,246.78Z"/><path class="cls-40" d="M1021.09,287.85h-10c0-.16,0-.33,0-.49h10C1021.08,287.52,1021.08,287.69,1021.09,287.85Z"/><ellipse class="cls-40" cx="424.61" cy="277.83" rx="0.39" ry="7.26"/><path class="cls-53" d="M503.84,284.25l0-12.84A12.28,12.28,0,0,1,503.84,284.25Z"/><path class="cls-54" d="M826,276.4c3.11,1.25,4.65,4,6.27,6.63C828.74,282.15,826.49,280.09,826,276.4Z"/><path class="cls-55" d="M788.45,232.62l-1.29-1.3c0-1.15,0-2.31,0-3.46a14.12,14.12,0,0,1,4.87,6Z"/><path class="cls-56" d="M1356,233.88a5,5,0,0,1-2.28,4.67c-1.12.61-1.56-.84-1.76-1.88C1352.83,235.05,1354.56,234.68,1356,233.88Z"/><path class="cls-57" d="M594.5,274.14c2.39,1.34,5,.57,7.54.92C599.43,277.38,597.18,277.1,594.5,274.14Z"/><path class="cls-58" d="M630.84,200.51q-1.38,2.48-2.78,5C627.13,202.13,628,200.61,630.84,200.51Z"/><path class="cls-59" d="M1383,218.24l2.9-4.93C1386.63,216.85,1385.89,218.11,1383,218.24Z"/><path class="cls-16" d="M804,249.28a8.63,8.63,0,0,1,4.84,5.26A5.25,5.25,0,0,1,804,249.28Z"/><path class="cls-14" d="M611.29,260.91q1.43-2.49,2.86-5C615.39,258.85,614.82,260.73,611.29,260.91Z"/><path class="cls-60" d="M803.92,221.11a8.52,8.52,0,0,1-4.84-5.26A5.25,5.25,0,0,1,803.92,221.11Z"/><path class="cls-61" d="M596.06,249.33l-2.89-4.93C596.06,244.53,596.8,245.79,596.06,249.33Z"/><path class="cls-62" d="M699.23,270c-3,.5-4.09-2.12-5.85-3.64C696,266.45,698.56,266.68,699.23,270Z"/><path class="cls-63" d="M1450.5,210.59l-1.56-3.66c.31-.57.1-2.3,1.11-1.36C1451.38,206.8,1452.51,208.73,1450.5,210.59Z"/><path class="cls-14" d="M820.8,270a8.46,8.46,0,0,1,4.85,5.26A5.25,5.25,0,0,1,820.8,270Z"/><path class="cls-64" d="M829.8,250.68,831,252v4.92l-3.49-6.16Z"/><path class="cls-65" d="M687.49,254.81c.47-1.79-.51-4,1.41-5.38-.36,2.54.94,5.31-1.06,7.63C687.73,256.31,687.61,255.56,687.49,254.81Z"/><path class="cls-66" d="M1191.46,233.8l1.59,1.42c-1.8,0-1,4.28-4,2.4Z"/><path class="cls-67" d="M621.78,216c-.45.8-.9,1.61-1.34,2.42a1.5,1.5,0,0,1-.57-2.51C620.49,215.1,621.19,215,621.78,216Z"/><path class="cls-17" d="M712.12,271.21l-6.37,0A4.57,4.57,0,0,1,712.12,271.21Z"/><path class="cls-57" d="M1159.72,275.05c1.84.19,4-1,5.3,1.38C1163.34,275.64,1160.73,278.43,1159.72,275.05Z"/><path class="cls-68" d="M793.75,235.84a8.33,8.33,0,0,1,3.46,4.49C794.44,240.07,793.55,238.38,793.75,235.84Z"/><path class="cls-69" d="M810.55,256.5c1.56,1.19,3,2.47,3.45,4.5C811.23,260.73,810.36,259,810.55,256.5Z"/><path class="cls-59" d="M814.17,234.56c-1.52-1.22-3-2.49-3.5-4.5C813.45,230.31,814.36,232,814.17,234.56Z"/><path class="cls-2" d="M162.51,65.94c-1.5-16.92-8.94-31.2-23.7-40.66-11.43-7.32-24.32-10.15-37.7-10.92-17.66-1-35.25,1.65-52.9,1.22-5.81,0-11.64.16-17.44-.05-8-.28-5.74,7.17-7.95,11-1.92,3.29,2.83,3.41,4.69,4.21,10.62,4.59,11.63,6.16,9.7,16.84-4.65,25.81-9.7,51.56-13.7,77.47-1.87,12.11-5.41,21.65-18.86,24.13-.2,0-.35.26-.55.33-7.56,2.37-2.26,7.93-2.73,11.92C.84,166,5,164,7,164c22.81.08,45.64-.32,68.39,1.58,30,2.5,53.3-9.13,70.7-33.18C160.47,112.48,164.63,89.78,162.51,65.94Zm-36.82,9.69c-.9,24.38-6.1,47.12-25.57,64.08-11.49,10-24.93,9.07-38.35,5.62-5.29-1.35-4-6.58-3.49-10.44,1.39-9.75,3.12-19.46,4.9-29.15L75.71,39.67c.92-3.77,2.52-4.52,5.87-5.16,7.37-1.4,14.61-.82,21.8.49,10.34,1.89,16.27,8.71,19.37,18.37A66,66,0,0,1,125.69,75.63Z"/><path class="cls-2" d="M720.3,70.66c-.4-3.84.93-8.41-2.75-11.55-10.48-8.94-25.38-15.86-37.36-.73-2.66,3.36-5.51,6.58-7.83,10.2-8.29,13-15.21,26.66-22.29,40.28-1.05,2-1.31,5-4.94,5.53.14-1,.18-1.8.36-2.57Q657.25,61,669,10.22c1.48-6.4-3.08-11.22-9.64-10C647.8,2.24,636.3,4.63,624.75,6.71c-5,.9-4.08,5.46-5.42,8.49-1.23,2.79,1.66,3.43,3.51,4.35a35,35,0,0,0,5.27,2.37c3.46,1.07,4.6,3,3.72,6.63-1.54,6.45-2.68,13-4,19.5q-10.7,55-21.3,110.08c-.43,2.24-1.92,5.1,1.42,6.77,2.94,1.47,6.1,3.17,8.79.08,6.87-7.89,14.36-7.06,22.34-2.11a6.93,6.93,0,0,0,1.18.52c24.38,9.35,50.28,1.54,64.52-20.2C719.28,121.13,723,96.45,720.3,70.66Zm-33.92,14.1a17.73,17.73,0,0,1,0,3.86,133.44,133.44,0,0,1-11.78,52.7c-3.15,6.88-5.25,7.6-12.7,5.18a37.4,37.4,0,0,1-3.57-1.35c-12.66-5.66-12.85-6.51-6.15-18.26,8.57-15,17.42-29.85,26.86-44.33,1.41-2.16,2.2-6,5.54-5.11C688.29,78.47,685.81,82.26,686.38,84.76Z"/><path class="cls-2" d="M909.48,128.06c-10.35,3.93-21.14,6.69-31.59,10.38-5.39,1.91-8.06.08-9.45-4.91-.63-2.26-1-4.6-1.81-6.78-1.31-3.57-.14-4.65,3.53-5.57,13.66-3.43,27.15-7.55,39-15.66,12.89-8.86,17.95-22.12,13.8-35.66C919,57.14,908,49.41,893.71,49.33c-15.92-.08-32.33,8.05-45.17,24.75-16.27,21.16-22.39,45-13.4,71.05,6.18,17.9,27.13,26,44,18.07,13.2-6.19,25.21-14.29,37.48-22,4.18-2.65,2.86-4.74,1-7.54C915.75,130.65,915.84,125.64,909.48,128.06ZM876.21,75.12c4-6.8,7-7.12,12.07-1.15,6.91,8.2,3.75,20.8-7.25,27.83a44.61,44.61,0,0,1-14.8,6.07C867.7,95.78,870.34,85,876.21,75.12Z"/><path class="cls-2" d="M251.75,128c-10.68,3.73-21.62,6.73-32.29,10.51-4.72,1.67-7.05.37-9-3.89-4.54-10.07-3.65-11.74,6.68-14.76,14.8-4.32,29.65-8.76,40.74-20.49,12-12.73,11.11-32.45-2.35-43.22-9.85-7.89-21.19-8.36-32.89-4.89-28.72,8.51-49.52,38.81-49.55,73.08a48.1,48.1,0,0,0,2.63,17.95c6.85,20.81,27.61,29.67,47.12,20.13a257.91,257.91,0,0,0,32-19c7.48-5.11,7.34-5,3.29-13C256.57,127.3,255.09,126.83,251.75,128ZM218.21,74.92c3.95-6.72,7.14-6.89,12-.75a16.67,16.67,0,0,1-.43,21.17c-5.5,6.71-12.88,10.16-21.55,12.45A75,75,0,0,1,218.21,74.92Z"/><path class="cls-70" d="M1132.2,230.13c-2,1.71-1,4-1,6-.22,15.67-.3,31.33-.43,47-1.81-7.4-.6-14.92-.78-22.37-.24-9.45-.11-18.91,0-28.36C1130,231.43,1128.45,227.92,1132.2,230.13Z"/><path class="cls-1" d="M935.54,223.54c6,8.3,7,17.6,3.88,27-3.17,9.53-9.31,16.68-20,18.4-8.51,1.53-17.09,1.09-25.67,1.19-3.91.05-5.17-1.62-5.14-5.45q.23-23.85,0-47.71c0-3.68,1.45-5,4.92-5,5.38,0,10.76,0,16.13,0,2.68-.59,5.35,1.34,8.05.05,4.42.59,8.59,1.72,11.6,5.37A33.5,33.5,0,0,0,935.54,223.54Z"/><path class="cls-71" d="M911.26,213.22c-5.81,0-11.62.12-17.42,0-3.27-.08-4.62,1.07-4.6,4.47q.16,23.22,0,46.43c0,3.75,1.5,4.79,5,4.73,8.38-.13,16.77,0,25.16.07-9.68,3.95-19.8,1.41-29.71,2-2.11.12-2.1-1.69-2.1-3.23V214.33c0-1.75-.1-3.65,2.47-3.52,8.51.44,17.09-1.11,25.54.9C914.53,213.33,912.41,211.87,911.26,213.22Z"/><path class="cls-38" d="M935.54,223.54c-3.39-.73-5.34-2.93-6.25-6.17C932.36,218.43,934.11,220.82,935.54,223.54Z"/><path class="cls-69" d="M911.26,213.22c1.06-1.6,2.82-1.18,4.33-1.5l2.1.28C915.87,214.11,913.42,212.93,911.26,213.22Z"/><path class="cls-1" d="M991.45,259.73a17,17,0,0,1-5.08-10.38c-.13-5.57,0-11.14-.06-16.71.44-3.3,1.25-6.45,4-8.7,2.54-2.68,5.7-4.79,7.47-8.17,3.72-3.35,8.25-4.54,13.08-5a14.85,14.85,0,0,0,9-.11c2.45,0,5.14-.64,6.52,2.34,2.47,1.22,4.81,2.78,7.7,2.83,5.52,3.76,9.6,8.51,10.54,15.41.59,6.05,1.66,12.11-.25,18.13-.54,11-8.5,16.58-17,20.05-10.58,4.29-21.49,3.48-30.81-4.48C995.57,262.47,993.38,261.22,991.45,259.73Z"/><path class="cls-72" d="M986.31,232.64a25.08,25.08,0,0,1,.06,16.71A25.33,25.33,0,0,1,986.31,232.64Z"/><path class="cls-73" d="M1044.33,249.39q.14-9.06.25-18.13C1047,237.34,1048,243.39,1044.33,249.39Z"/><path class="cls-74" d="M997.77,215.77c-1.27,4-2.36,5.17-7.47,8.17C991.62,220.15,994.49,217.77,997.77,215.77Z"/><path class="cls-75" d="M1034,215.85c-3.58,1.81-5.45-1-7.7-2.83A12,12,0,0,1,1034,215.85Z"/><path class="cls-76" d="M991.45,259.73c2.71.74,5.31,1.6,5,5.23A11.26,11.26,0,0,1,991.45,259.73Z"/><path class="cls-77" d="M1019.82,210.68c-3,2-6,1.89-9,.11A18.28,18.28,0,0,1,1019.82,210.68Z"/><path class="cls-1" d="M1422,246.85l12.72-30c1,.23,1.77,1.2,2.91,1.19l12.48,28.85c-.32,3-2.33,3.77-5,3.77q-9.06,0-18.1,0C1424.24,250.69,1422.4,249.74,1422,246.85Z"/><path class="cls-74" d="M1422,246.85c1.4,1.23,2.51,2.68,4.8,2.61q9.26-.27,18.51,0c2.27.06,3.5-1.15,4.8-2.55,1.61,2.63,3.32,5.06-2.14,4.9-8-.23-15.92-.21-23.87,0C1418.53,252,1420.41,249.45,1422,246.85Z"/><path class="cls-78" d="M1437.58,218.06c-2.14,2.46-2.5.59-2.91-1.19.18-.93,0-2.42,1.52-2C1437.58,215.31,1437.34,216.89,1437.58,218.06Z"/><path class="cls-1" d="M1254.56,249.2c4-10.52,8.3-20.95,13.31-31,1.12-.05,1.79-1.14,2.88-1.26a302.44,302.44,0,0,1,12.82,29.92c-.23,1.56-.76,3.34-2.44,3.38C1272.26,250.41,1263.31,252.28,1254.56,249.2Z"/><path class="cls-79" d="M1254.56,249.2c7.65.06,15.3,0,22.94.27a7.37,7.37,0,0,0,6.07-2.66c2,2.94,3.39,5.25-2.29,5-7.92-.3-15.87,0-23.8-.15C1256.28,251.67,1252.69,253.27,1254.56,249.2Z"/><path class="cls-80" d="M1270.75,216.89c-.72,1-.89,3.18-2.88,1.26.32-1.33.12-3,2-3.31C1270.05,214.81,1270.45,216.17,1270.75,216.89Z"/></g></g></svg>